<svg id="Layer_1" data-name="Layer 1" xmlns="http://www.w3.org/2000/svg" viewBox="0 0 346.88 324.44"><title>DreamLogo</title><path d="M293.06,109.93c-2.38,0-3.68-.85-4.48-3a61.05,61.05,0,0,0-6.12-11c-.81-1.24-1.62-2.48-2.4-3.75l-.24-.37c-.54-.83-1-1.62-.51-2.61a1,1,0,0,1,.36-.07c.38,0,.59.28.89.75l.12.18a100.56,100.56,0,0,1,9,15.75,3.7,3.7,0,0,0,3.87,2.62h.12c3.44,0,7.11-.06,11.92-.06h16l-.08-.27c-.12-.44-.22-.86-.31-1.25a13.29,13.29,0,0,0-.67-2.23l-.2-.47c-1.34-3.09-2.72-6.29-4.25-9.35s-3.1-6-4.65-8.93c-.79-1.48-1.58-3-2.35-4.44a1,1,0,0,1-.08-.38l0-.25-.05-.26-.12,0-1.13-1.58c-.88-1.21-1.78-2.46-2.6-3.74a146.48,146.48,0,0,0-26-30.35c-3.44-3.07-7.16-5.92-10.77-8.68l-4.42-3.41A103,103,0,0,0,251.68,25l-.83-.48-.49-.27c-.87-.46-1.69-.9-1.86-2v-.05l0,0,0,.19-.36-.26,0,.05-.25.16a1.22,1.22,0,0,1-.36.2,24.1,24.1,0,0,1-6.09-3.12c.34-.78.79-.87,1.09-.87a1.6,1.6,0,0,1,.58.11,9.72,9.72,0,0,1,1.43.66l.48.26a170.26,170.26,0,0,1,40,28.56,154.32,154.32,0,0,1,14,15.77A149.36,149.36,0,0,1,315.6,90.12c1.92,3.88,3.61,8,5.24,11.9.6,1.45,1.2,2.91,1.82,4.36s.84,2,2.33,2c.46,0,1-.05,1.94-.14l.27,0-.08-.25c-.08-.25-.14-.48-.21-.72a11.52,11.52,0,0,0-.49-1.47l-1.95-4.44c-2.1-4.8-4.28-9.76-6.54-14.59a80.5,80.5,0,0,0-4.95-9,172.37,172.37,0,0,0-32.54-38.3,158.22,158.22,0,0,0-24.05-17.5c-3.61-2.1-7.44-4-11.13-5.78-1.78-.87-3.55-1.73-5.31-2.63-.87-.44-1.72-.91-2.57-1.38l-1-.56c.33-.83.76-.93,1.06-.93a2.44,2.44,0,0,1,.94.25l.8.35c1.39.6,2.83,1.23,4.19,1.94l.19.09c7.94,4.15,16.15,8.43,23.64,13.68a166.94,166.94,0,0,1,56.7,68.86c1.39,3.06,2.58,6.29,3.72,9.42l.8,2.17c.34.93.4,1.52.17,1.86s-.82.54-1.85.58c-.84,0-1.69,0-2.53,0H313.05q-10,0-19.91.06Z" style="fill:#d8f9ff"/><path d="M99.93,309.52c-1.11-.55-2.19-1.07-3.25-1.62A131.59,131.59,0,0,1,78,296.26l-1.57-1.17c-6-4.46-12.12-9.07-17.52-14.42a184.45,184.45,0,0,1-25.09-31,154.07,154.07,0,0,1-12.75-25.13l-.09-.22c-.83-2-1.65-4-2.44-6a8.87,8.87,0,0,1-.58-2,2.08,2.08,0,0,1,.34-1.68,2.2,2.2,0,0,1,1.72-.55l21.35.24,9.39.1,1.53,0,2.08,0h.47a2.84,2.84,0,0,1,2.79,1.85A128.93,128.93,0,0,0,67.08,233a3.58,3.58,0,0,1,.45,1.47c0,.22.07.43.12.64l-.23.13a2.9,2.9,0,0,0-.29-.19,2.23,2.23,0,0,1-.68-.59c-3.44-5.47-6.25-10-8.84-14.25a9.3,9.3,0,0,1-.92-2.4,2.4,2.4,0,0,0-2.54-2h-.36l-.59,0H27.89c-.58,0-1.15,0-1.79.07l-1.28.07.35,1.15c.16.53.3,1,.46,1.4a154.6,154.6,0,0,0,21,37.9,162.45,162.45,0,0,0,38.69,37c2.76,1.9,5.74,3.6,8.62,5.24,1.52.87,3,1.74,4.56,2.64a9.85,9.85,0,0,1,1.28,1l.71.59.16.13a2.67,2.67,0,0,0,.85.52c1,.31,1.91.59,2.89.88l1,.27c-.24,1.1-.68,1.23-1,1.23a2,2,0,0,1-.76-.2l-.52-.24c-1.26-.57-2.56-1.15-3.77-1.85-.82-.47-1.65-.91-2.49-1.35A24.38,24.38,0,0,1,90.33,298c-5-2.05-9.19-5.34-13.24-8.52-1.13-.89-2.26-1.78-3.41-2.64a113.45,113.45,0,0,1-19.15-18.31c-1-1.21-2-2.4-3-3.6-1.79-2.11-3.65-4.3-5.39-6.52-8.67-11-15.84-23.85-21.92-39.15l-.54-1.34c-.55-1.32-.86-2-1.92-2a10.51,10.51,0,0,0-2,.34l-.24.06.08.23c.25.67.49,1.33.73,2,.51,1.4,1,2.86,1.6,4.26a161.73,161.73,0,0,0,23,39.8,206.83,206.83,0,0,0,14.29,15.87,152.53,152.53,0,0,0,23,18.91c2.94,2,6.1,3.83,9.16,5.57,1.62.93,3.24,1.86,4.84,2.82a10.38,10.38,0,0,0,.94.48,3.78,3.78,0,0,1,2.15,1.8c.15.36.66.5,1.15.64a3.88,3.88,0,0,1,.44.13c.34.12.52.25.6.43a1.3,1.3,0,0,1-.11.93Z" style="fill:#d8f9ff"/><path d="M87.76,190.51q-2.69,0-5.37,0a10.7,10.7,0,0,1-1.68-.21l-.64-.12c.58-1,1.4-1.06,2.34-1.1a4.27,4.27,0,0,0,1.81-.33l.1-.05,0-.12c0-.22.06-.45.11-.7a12.44,12.44,0,0,0,.2-1.9c0-2.53,0-5.06,0-7.59,0-1.38,0-2.75,0-4.13q0-6.47,0-12.92V138.22a5.06,5.06,0,0,0,0-.87c-.16-1.52-.57-1.93-2.12-2.08l-.47-.05a11,11,0,0,1-1.63-.21.73.73,0,0,1-.34-.43,1.07,1.07,0,0,1,.45-.71,2.13,2.13,0,0,1,.75-.11h.58l4.31,0c1.84,0,3.68,0,5.53,0h24.22c5.21,0,9.41,2.37,12.85,7.23a15.39,15.39,0,0,1,1.5,13.77,14.79,14.79,0,0,1-9.8,9.58c-.67.19-1.34.4-2.13.64l-1.46.44,14.27,23.9a1.83,1.83,0,0,1-1.05.49c-.31,0-.59-.19-.87-.61-.09-.13-.17-.27-.25-.4L115.7,166.78a5,5,0,0,1-.4-.71,1.77,1.77,0,0,1-.23-1.36c.13-.28.47-.49,1.08-.67a8.52,8.52,0,0,1,1.38-.26c5.58-.62,9.62-4,11.69-9.64,1.88-5.16.68-10.26-3.37-14.37-2.88-2.92-6.06-4.42-9.45-4.46-5.23-.06-10.87-.09-17.76-.1h0c-1.16,0-1.87,0-2.24.45s-.31,1.26-.1,2.75l0,.17,3,.14c2.09.09,4.25.19,6.39.24.67,0,1.35,0,2,0h4.35c1.48,0,3.42,0,5.34.2a9.52,9.52,0,0,1,7.18,4.76,10.35,10.35,0,0,1,.86,9.21c-2,4.79-5.44,7.13-10.54,7.13H96.19v.2c0,.46-.05.88-.08,1.26,0,.75-.09,1.38-.09,2q0,8.4,0,16.82v5.57c0,.45,0,.9,0,1.35,0,2.95-.09,3-3.06,3ZM93,135.32a7.49,7.49,0,0,0-2.08.42l-.16,0v49.68c0,.62,0,1.25,0,1.86a1.85,1.85,0,0,0,.41,1.44,1.76,1.76,0,0,0,1.32.46h2.28v-6.87l0-24.2v-5.91c0-4.66,0-9.47,0-14.21C94.68,136.36,94.39,135.32,93,135.32Zm-6.89.28c0,.34-.06.64-.08.92,0,.55-.1,1-.1,1.5v2.42q0,21,0,41.9c0,1.46.11,2.89.22,4.4,0,.7.1,1.42.14,2.15v.22l2.88-.24,0-.16c.73-3.72.52-50.41-.23-53.15l0-.16H86.12Zm24.76,23.27c1.59,0,3.48,0,5.4-.11a8.4,8.4,0,0,0,7.75-5.48c1.52-3.7,1-7-1.66-9.75a10.05,10.05,0,0,0-7.57-3.41H98.26a5.74,5.74,0,0,0-1.28.19l-.63.12-.18,0v18.4h14.7Z" style="fill:#d8f9ff"/><path d="M292.58,190.45c-3.54,0-7.09,0-10.63,0a1.21,1.21,0,0,1-.51-.18l-.24-.12-.06-.27a2.47,2.47,0,0,1-.12-.73c0-2.82.05-5.63.09-8.45,0-3.79.09-7.58.12-11.37,0-2.28,0-4.6-.05-6.84l0-2c0-1.37,0-2.74-.07-4.11,0-2.3-.08-4.61-.09-6.91,0-5.08,0-9.54.06-13.66a3.32,3.32,0,0,1,.38-1.21l.18-.41.45.13a2.54,2.54,0,0,1,1.15.49c2.08,2,4.15,4.13,6.15,6.17l3.15,3.18.2.19q6.07,6.11,12.19,12.19c1,.93,1.42,1.38,2,1.38h0c.57,0,1.09-.48,2-1.33,3.66-3.53,7.32-7.19,10.85-10.73l1.23-1.22c1.48-1.48,2.95-3,4.41-4.47,1.62-1.64,3.23-3.27,4.85-4.89a10.27,10.27,0,0,1,1.34-1.06l.58-.41c.68,3.79.9,32.68.56,53.76a13.63,13.63,0,0,1-.14,1.52c0,.19,0,.38-.07.58-1-.24-1-.85-1-1.55,0-3.35,0-6.7,0-10.05q0-10.19,0-20.37c0-3.65.07-7.36.12-10.94,0-2.26.07-4.51.09-6.77,0-.52,0-1-.1-1.69,0-.35-.06-.73-.09-1.17l0-.42-.32.26c-.29.24-.54.43-.77.61a12.22,12.22,0,0,0-1.08.9q-4.06,4-8.09,8.08l-5.57,5.57-6.33,6.33c-1.2,1.19-1.83,1.76-2.41,1.76s-1.2-.54-2.47-1.8c-2.05-2.05-4.09-4.18-6.07-6.23l-3.29-3.4c-.37-.37-.76-.73-1.2-1.14l-.93-.87-.11.3c-.73,1.89-.54,3.38.58,4.58a170.09,170.09,0,0,0,13.45,12.84.49.49,0,0,0,.32.09l.35,0,.1,0,1-1c.76-.71,1.56-1.44,2.33-2.22q5.9-5.92,11.77-11.89l1.36-1.38a4.61,4.61,0,0,1,3.11-1.73l-.16.26a5,5,0,0,1-.68.92q-9.06,9.1-18.15,18.17c-.67.67-1.14,1.06-1.56,1.06s-.91-.41-1.65-1.16l-4.17-4.28c-1.85-1.9-3.69-3.79-5.55-5.68a16.22,16.22,0,0,0-1.37-1.21c-.29-.24-.61-.5-1-.82l-.33-.27,0,.42c0,.47-.07.86-.1,1.21,0,.65-.09,1.15-.09,1.65q0,12.41,0,24.82v4.72c0,.31,0,.63,0,1,.17,1.83.53,2.17,2.41,2.26.42,0,.84.07,1.25.11l.36,0a1,1,0,0,1-.22.61,1.12,1.12,0,0,1-.81.26Zm-5-47c0,.5-.06.91-.06,1.31q0,19.38,0,38.77v2.72c0,.4,0,.81,0,1.21,0,1.23.68,1.93,1.74,1.93a1.75,1.75,0,0,0,1.88-1.9c0-1.79,0-3.59.07-5.38,0-3.49.1-7.1.1-10.64,0-2.41-.06-4.85-.1-7.21s-.11-5.09-.11-7.64c0-1.91.12-3.85.23-5.73,0-.95.11-1.9.15-2.85.11-2.5-1-4.29-3.55-5.63l-.3-.16Zm-5-5.94c0,.32-.07.59-.1.83a9,9,0,0,0-.11,1.17q0,23.61,0,47.21a8.91,8.91,0,0,0,.15,1.44c0,.25.08.5.11.76l0,.2,3.09-.17v-.19c0-.36.07-.71.11-1a19.22,19.22,0,0,0,.14-2c0-1.51,0-3,0-4.54,0-1.84-.05-3.68,0-5.52l0-4c.05-9.36.11-19,.26-28.58,0-2.49-.94-4.22-3.29-5.77l-.3-.19Z" style="fill:#d8f9ff"/><path d="M37.21,190.49c-2.28,0-4.55-.06-6.83-.09-2.67,0-5.35-.09-8-.1H22.2c-.92,0-1.85,0-2.75.09s-1.82.09-2.73.09a5.19,5.19,0,0,1-1.51-.3l-.62-.19a3,3,0,0,1,2.37-.93,4,4,0,0,0,1.79-.39l.11,0v-.12c0-.25,0-.52.07-.8.06-.63.13-1.35.14-2.06q0-7.26.05-14.52,0-7.47.05-14.94,0-6,.11-12.07l.05-5.83a7.3,7.3,0,0,0,0-.81c-.17-1.71-.55-2.08-2.25-2.23a3.46,3.46,0,0,0-.46,0h-.29a2.71,2.71,0,0,1-.86-.1,3.63,3.63,0,0,1-.94-.68l-.42-.36.65-.12A6.68,6.68,0,0,1,16,133.8l6.29,0q3.87,0,7.75,0c3.73,0,6.81,0,9.69.1a22.57,22.57,0,0,1,14.53,5.64l1.37,1.13a25,25,0,0,1,3.56,3.33,27.23,27.23,0,0,1,6.16,22c-1.57,10.58-7.44,18.17-17.47,22.57a25.4,25.4,0,0,1-10.38,2ZM22.15,135.4c-.37,0-.85,0-1.53.1l-.2,0v53.24l.18.06.62.13a10.24,10.24,0,0,0,1,.18,5,5,0,0,0,.55,0h1.12v-.21a162.6,162.6,0,0,0,0-18.63,42.22,42.22,0,0,1-.1-4.29c.05-1.47.13-2.94.21-4.41.12-2.22.24-4.52.26-6.78,0-4.88,0-9.84-.09-14.64l0-2.16C24.14,136.24,23.94,135.4,22.15,135.4Zm38.33,26.89c0,.42,0,.84,0,1.26a19.45,19.45,0,0,1-.24,3.14,23.36,23.36,0,0,1-21,18.69c-1.87.16-3.71.23-5.66.3-.9,0-1.8.06-2.71.11h-.18s-.05.51-.07.66a7.05,7.05,0,0,0-.07,1,4.29,4.29,0,0,0,.1.83c0,.1.07.4.07.4l.1.05.21.12a.76.76,0,0,0,.4.15c1.47.09,2.79.14,4,.14a30.72,30.72,0,0,0,13.86-2.82,25,25,0,0,0,13-13.67,26.61,26.61,0,0,0,1.92-13.45,24.17,24.17,0,0,0-3-9.34c-3.78-6.49-8.5-10.74-14.42-13a28.48,28.48,0,0,0-10.33-1.8,47.29,47.29,0,0,0-6,.42l-.19,0v2.95c0,1.42,0,2.83,0,4.25,0,3.48,0,7.08,0,10.61,0,.5,0,1,0,1.5a7.55,7.55,0,0,1-.6,4.27,1.85,1.85,0,0,0,0,1.25,4.59,4.59,0,0,1,.1.51c.05.4.11.81.18,1.21a18.23,18.23,0,0,1,.26,2.54c0,5.75,0,11.45,0,16.79a13.49,13.49,0,0,1-.16,1.69c-.05.32-.1.65-.14,1l0,.24h1.5l1.31,0c.52,0,1.05,0,1.57,0,.78,0,1.55.07,2.31.07a19.59,19.59,0,0,0,5.7-.74A30.19,30.19,0,0,0,53,177.79c2.08-1.71,3.11-4,4.12-6.32.3-.69.61-1.39.94-2.06a12.55,12.55,0,0,0,1-4.35c.06-.6.13-1.2.22-1.78s.23-1,.84-1ZM25.75,135.68c-.49,3.23-.33,51.46.18,53.19l0,.15.47,0c.19,0,.39,0,.59,0h.26a7,7,0,0,0,.88-.16l.72-.16.17,0v-.17c-.09-9-.08-18.17-.07-27,0-8.44,0-17.18-.07-25.8v-.22H25.78Z" style="fill:#d8f9ff"/><path d="M225.13,190.48c-2.71,0-5.42,0-8.13,0a2.61,2.61,0,0,1-.74-.16l-.38-.11V134.07l.58-.08a10.68,10.68,0,0,1,1.56-.15l11.89,0c5.63,0,11.27,0,16.9-.06h.11A15.19,15.19,0,0,1,258,138.62a13.63,13.63,0,0,1,4.1,10V175c0,1.43,0,2.87,0,4.31,0,2.8,0,5.6,0,8.4a5,5,0,0,0,0,.52c0,.42.08.91-.13,1.13a.86.86,0,0,1-1,0c-.19-.22-.15-.71-.12-1.13a4.09,4.09,0,0,0,0-.47c0-2.92.08-5.84.12-8.76.09-5.75.17-11.7.15-17.56a123.31,123.31,0,0,0-.72-14.1c-1-8.7-8.21-12-14.08-12.22-1.52-.05-3.15-.08-5-.08-2.23,0-4.46,0-6.69.07-1.55,0-3.1.06-4.65.07a14.85,14.85,0,0,0-1.61.11l-.85.07-.2,0v3.46h2.7l1.44,0,1.89.05h.26l1.32,0,1.31,0H237c1,0,2,0,3.06-.05s2,0,3.06,0a38.69,38.69,0,0,1,5.06.28c5.47.73,8.65,4.23,8.93,9.86.2,3.9.17,7.88.14,11.74,0,1,0,1.92,0,2.88,0,1.47-.2,1.66-1.83,1.8-.3,0-.61,0-.92,0H233.85a6.85,6.85,0,0,1-2.06-.21,1.13,1.13,0,0,1-.56-.82c0-.15.35-.39.57-.54l.26-.19a.46.46,0,0,1,.13,0l.15,0a9.36,9.36,0,0,0,2.74.37,27.3,27.3,0,0,0,2.87-.21,26.54,26.54,0,0,1,2.82-.2H241c2,0,4,.09,6,.15s4.15.12,6.24.15h.63c2.12,0,2.2-.48,2.22-2.72,0-3.78,0-7.21-.05-10.48a14.49,14.49,0,0,0-.48-3.36,9.77,9.77,0,0,0-9-7.24h-.12c-1.73,0-3.46,0-5.2,0l-5.47,0-4.68,0h-4v11.73q0,16.13,0,32.24c0,.84-.06,1.68-.13,2.58,0,.43-.06.88-.09,1.34v.06l0,.06a2.52,2.52,0,0,0,2.42,1.1h.88a2.71,2.71,0,0,1,.62.06.75.75,0,0,1,.37.46.77.77,0,0,1-.35.52,2.47,2.47,0,0,1-1.06.21Zm-6-55.14a9.68,9.68,0,0,0-1.8.23l-.18,0v53.18l.6.17a5.9,5.9,0,0,0,.68.16,5.32,5.32,0,0,0,.82.07c1.05,0,1.31-.57,1.45-1.76a7,7,0,0,0,0-.79l.06-9.13q.07-12.8.14-25.6c0-5.27,0-9.62,0-13.68C220.91,136.27,220.64,135.34,219.14,135.34Zm4.67,0a11.75,11.75,0,0,0-1.68.16l-.18,0v53.32h3.66v-.21c0-.58,0-1.16.08-1.73.06-1.23.12-2.4.11-3.58,0-2.53-.06-5.06-.1-7.58-.06-3.64-.12-7.41-.12-11.11,0-5.12.06-10.34.1-15.38q.06-5.49.09-11a3.49,3.49,0,0,0-.55-2.49A1.88,1.88,0,0,0,223.81,135.37Z" style="fill:#d8f9ff"/><path d="M148.25,190.51a7.22,7.22,0,0,1-2.48-.38,1.19,1.19,0,0,1,1.29-.91l.51,0c.26,0,.49,0,.69,0,1.37,0,1.64-.68,1.73-2.2.07-1.16.09-2.32.12-3.48v-.84c0-.81,0-1.62.07-2.43.05-2,.11-4.1.1-6.15,0-3.59-.11-7.25-.18-10.78l-.08-4.2c0-.23,0-.45,0-.68a6,6,0,0,1,0-1.2,58.38,58.38,0,0,0,.13-11.13l-.07-1.56a21.81,21.81,0,0,1,.77-7.2,9.92,9.92,0,0,0,.27-1.77c0-.31.06-.62.1-1l.06-.44-.39.23a4.75,4.75,0,0,1-2.57.78,7,7,0,0,1-2.49-.55l-.07-.33.34-.17a2.14,2.14,0,0,1,.94-.35c3.2-.1,6.45-.13,9.6-.16l3.17,0c3.48,0,7-.08,10.44-.08h.12c3.53,0,7.06,0,10.59.08l1.72,0c3.82,0,7.64.08,11.47.17a5.1,5.1,0,0,1,1.22.23l.63.15-.4.33a2,2,0,0,1-.78.5,7.48,7.48,0,0,1-1.49.11H161.74l0,.2a170,170,0,0,0-.06,23.22l0,.2h11.94c3.22,0,6.44,0,9.66,0h0c.21,0,.42,0,.63,0a5,5,0,0,1,.67-.05,1,1,0,0,1,.75.21.92.92,0,0,1,.19.65c0,.49-.28.68-1,.68l-.63,0-.57,0c-3.81,0-7.59,0-11.38,0h-9.51c-2.43,0-2.45,0-2.45-2.54V135.55h-3.37v.2c0,.31,0,.6-.06.89-.05.62-.09,1.21-.09,1.8q0,22,0,43.94v4c0,.41,0,.81,0,1.21.09,1.11.56,1.67,1.41,1.67.58,0,1.84,0,2.07-1.37l.12-.67a11.7,11.7,0,0,0,.26-2.21c0-3.11-.1-6.23-.16-9.34s-.12-6.23-.17-9.34c0-1.93.33-2.28,2.33-2.33l5.72-.15,8.32-.21h0a7.1,7.1,0,0,1,.73,0l.67,0h1.43l2.1,0c.73,0,1.46,0,2.2,0H184c.92,0,1.16.11,1.58,1.48l-.66.07a17.55,17.55,0,0,1-1.87.14H164.59a17.34,17.34,0,0,0-1.91.14l-.87.08-.2,0v23.19h.2l1,.08c.68.06,1.32.11,2,.11H168l2.64,0c.67,0,1.33,0,2,0,2.42.05,5,.17,7.86.39a1.81,1.81,0,0,1,.82.47l.38.28-.53.11a7.08,7.08,0,0,1-1.21.16q-8.31,0-16.61,0h-9.31c-1.14,0-2.27,0-3-1.56l-.22-.52-.67,2-.43,0C149.28,190.48,148.77,190.51,148.25,190.51Zm5.33-55.16a7,7,0,0,0-1.84.38l-.15.05v53.14l.19,0,.53.07a4.41,4.41,0,0,0,.64.07c1.93-.08,2.09-.25,2.11-2.2,0-.79,0-1.59.05-2.38,0-1.2.06-2.41.06-3.61q0-6.64-.1-13.29l0-6.83-.05-7q0-8.12-.13-16.23C154.82,136.34,154.72,135.35,153.58,135.35Z" style="fill:#d8f9ff"/><path d="M123.88,83.93l-.56-.59a7.4,7.4,0,0,1-1-1.18q-9.16-14.49-18.28-29-7.52-12-15-24c-1.29-2.06-3-4.78-4.59-7.56a1.51,1.51,0,0,1-.1-1.21.6.6,0,0,1,.48-.28,1.18,1.18,0,0,1,.8.5,19.77,19.77,0,0,1,1.22,1.81l10,15.94q9.93,15.92,19.88,31.82c1.55,2.47,3.17,4.94,4.75,7.33l1.66,2.53c.26.4.55.79.87,1.21l.6.82.17-.12,1.12-.77a21.18,21.18,0,0,1,2.27-1.46c8.19-4.31,15.18-7,22-8.46,1.15-.25,2.31-.56,3.42-.87a43.08,43.08,0,0,1,5.38-1.2l1.54-.21a76.12,76.12,0,0,1,10.26-.94h1c2.81.08,6.14.19,9.55.48l.46,0a3.24,3.24,0,0,0,2.94-1.67c1.12-1.75,2.33-3.6,3.67-5.3A36.78,36.78,0,0,1,216.4,48.05a35.62,35.62,0,0,1,10.89,1.76c1,.32,1.91.61,2.21,2l.1.44a28.18,28.18,0,0,0-9.46-2.61c-1.3-.11-2.59-.17-3.83-.17-11.39,0-20.87,4.81-28.18,14.31a25.41,25.41,0,0,0-2.36,3.93c-1,1.83-1.47,2.36-3,2.36q-.48,0-1.11-.06c-2.8-.26-5.64-.39-8.43-.39A90.63,90.63,0,0,0,157,71.06a94.78,94.78,0,0,0-25.45,8.46,16.62,16.62,0,0,1-2.1.82c-.38.14-.77.27-1.15.42a2.37,2.37,0,0,0-.63.37Zm127.89-.4c-.8-.19-.89-.74-1-1.42l0-.12q-.57-3.17-1.17-6.33l-.22-1.2c-.59-3.17-2.27-5.88-3.9-8.49l-.25-.42c-3.24-5.23-8-9.41-14.47-12.78-.37-.19-.73-.37-1.1-.54l.27-.37c.38-.53.67-.59.86-.59a1.82,1.82,0,0,1,.75.26l.19.08a34.37,34.37,0,0,1,8.57,5.57,36.2,36.2,0,0,1,11.66,22.35A8.42,8.42,0,0,1,251.77,83.53Z" style="fill:#d8f9ff"/><path d="M261.67,303.89a1,1,0,0,1-.73-.5c-.67-.89-1.36-1.89-2.15-3.15q-12.35-19.69-24.68-39.41-2.48-4-4.94-7.92-2.59-4.18-5.21-8.35a14.59,14.59,0,0,0-1-1.34l-.52-.67-.11-.14-.85.44c-.46.24-.89.46-1.3.69A92,92,0,0,1,177,255.91c-1.44.05-2.89.07-4.33.07-2.39,0-4.72-.07-6.91-.21h-.44a3.69,3.69,0,0,0-3.57,2.23,35.19,35.19,0,0,1-17.55,15.48,37.37,37.37,0,0,1-14,2.86,35.63,35.63,0,0,1-31.75-19.92,30,30,0,0,1-3.6-13.92,9.07,9.07,0,0,1,.17-1.47c0-.16.06-.32.08-.48.86,0,.91.44,1,1s.17,1.46.25,2.18c.16,1.4.31,2.86.61,4.26,3,13.92,15.59,25.09,30,26.56,1.31.13,2.62.2,3.89.2a34.87,34.87,0,0,0,19.86-6.22,32.65,32.65,0,0,0,10.13-11.18c.27-.49.54-1,.79-1.5a2.57,2.57,0,0,1,2.48-1.63,4.59,4.59,0,0,1,.62,0,64.75,64.75,0,0,0,8.91.58,94.85,94.85,0,0,0,9.8-.54,91,91,0,0,0,9.93-1.71,59,59,0,0,0,8.59-2.31c4.79-1.84,9.48-3.93,13.86-5.93,1.73-.78,3.4-1.69,5.16-2.66l2.34-1.27,6.23,9.91c10.72,17.06,21.3,33.91,31.88,50.78a13.73,13.73,0,0,1,.84,1.67l.28.63A1.08,1.08,0,0,1,261.67,303.89Z" style="fill:#d8f9ff"/><path d="M258.34,84.79a11.83,11.83,0,0,1-1.42-.12l-.61-.07c-.08-.34-.17-.67-.25-1a12.14,12.14,0,0,1-.44-2.19,37.62,37.62,0,0,0-4.17-15.2,39,39,0,0,0-17.87-17.67A40.63,40.63,0,0,0,216,44.34,39.05,39.05,0,0,0,200,47.85c-6.81,3-11.84,7.1-15.39,12.41a4.18,4.18,0,0,1-.84.84c-.16.13-.32.26-.47.4l.14-.06.12,0-.28.24,0-.1c-.31,1.19-.67,2.18-2,2.28-.36-.62-.07-1,.29-1.46a3.43,3.43,0,0,0,.29-.41c5.69-9.31,14.24-15.31,25.42-17.86A45,45,0,0,1,217.2,43c9.45,0,18.15,3.39,25.84,10.07a39,39,0,0,1,13.45,23.7c.09.54.13,1.1.17,1.64s.07,1,.14,1.45c.1.7.23,1.39.39,2.15.07.36.15.74.22,1.15l0,.17,1.1,0c.65,0,1.29.07,1.92.07h34.32a3.52,3.52,0,0,1,.87.09,1.92,1.92,0,0,1,.73.48l.25.21-.06.29-.56.1a8.39,8.39,0,0,1-1.47.17l-19,0Z" style="fill:#d8f9ff"/><path d="M130.43,281.23c-16.46,0-31.05-9.41-37.16-24a50.15,50.15,0,0,1-3.88-15.95l0-.19h-.18l-.92-.08c-.66-.06-1.35-.12-2-.12H53.14a18.32,18.32,0,0,1-2-.17l-.79-.08c.26-1,.87-1.11,1.7-1.11h3.89c.7,0,1.39,0,2.08,0s1.67.08,2.5.15,2,.15,3,.15c1.4,0,2.79,0,4.19,0H78.12c1.06,0,2.12,0,3.19,0s2.23,0,3.35,0h1.57a24.47,24.47,0,0,0,2.78-.28c.38-.05.76-.11,1.15-.15.06.16.11.32.17.46a4.26,4.26,0,0,1,.28,1,32.7,32.7,0,0,0,.55,3.61,20.6,20.6,0,0,1,.56,5.56,2.68,2.68,0,0,0,.66,1.56,4.2,4.2,0,0,1,.57,1c4.61,13.14,14,21.91,27.9,26.07a33.45,33.45,0,0,0,9.59,1.42h0c6.17,0,12.4-1.68,19.06-5.12a38.92,38.92,0,0,0,14.15-12.84l.24-.37c.38-.62.73-1.2,1.7-1.2l.3,0-.28.55a13.25,13.25,0,0,1-.68,1.26,40.8,40.8,0,0,1-19.41,15.93,4.87,4.87,0,0,1-1.62.26c-.27,0-.55,0-.82.06h-.2a.75.75,0,0,0-.6.16c-1.11,1.32-2.7,1.52-4.24,1.72l-.88.11A43.49,43.49,0,0,1,130.43,281.23Z" style="fill:#d8f9ff"/><path d="M103.66,224.92a7.51,7.51,0,0,1-.92-.77,45.65,45.65,0,0,1-6.67-8.68c-1.42-2.44-3.11-5.05-5.32-8.23a4.26,4.26,0,0,0-2.23-1.38,3,3,0,0,0-1-.14l-.64,0-.57,0c-2.23,0-4.46.06-6.69.1-2.66,0-5.41.1-8.12.1-2.39,0-4.51,0-6.48-.12-3.13-.13-6.56-.19-10.47-.19-3.51,0-7.08,0-10.53.09s-7,.1-10.53.1q-2.32,0-4.65,0c-6.11-.09-11.75-.15-17.25-.17H11c-1.76,0-3.51,0-5.26.07l-3,0H2.28l-.48,0a2.11,2.11,0,0,1-.68-.09,3,3,0,0,1-.91-.61L0,204.91l.25-.25c.29-.28.58-.57.83-.58.47,0,.93,0,1.4,0,.74,0,1.48,0,2.22,0s1.38,0,2.07,0h.37c1.14,0,2.29,0,3.43,0l1.19,0c.21,0,.42,0,.62,0l.67,0a2,2,0,0,1,.35,0,50.49,50.49,0,0,0,5.79.3c1.95,0,3.94-.08,5.86-.15l1.05,0c1.12,0,2.25-.06,3.37-.06,1.74,0,3.47,0,5.21.08s3.48.08,5.22.08c3.89,0,7.69,0,11.49-.08l6.34-.06h.13l1.41,0q.66,0,1.32,0h.23c.73,0,1.45,0,2.18,0l1.79,0,1.19,0h.57c.68,0,1.37.06,2,.1,1,.05,2.07.11,3.1.11h.36c1.37,0,2.76-.08,4.11-.15,1.53-.07,3.12-.14,4.69-.15h.2c1.5,0,3,.07,4.5.13,1.21,0,2.42.1,3.63.12A3.1,3.1,0,0,1,92,206.09c.43.76.89,1.51,1.35,2.26s.75,1.23,1.11,1.86a73.46,73.46,0,0,0,8.23,11.54,22.51,22.51,0,0,1,1.57,2.08.91.91,0,0,1,.21.73,1,1,0,0,1-.53.58Z" style="fill:#d8f9ff"/><path d="M132.2,261a11.06,11.06,0,0,1-2.74-.34,8.59,8.59,0,0,0-2.07-.19h-.93a7.24,7.24,0,0,1-2.11-.22,19.84,19.84,0,0,1-12.28-10.1,16.3,16.3,0,0,1-2-9.1,16.82,16.82,0,0,0,0-2,12.17,12.17,0,0,1,.1-2.88,19.62,19.62,0,0,1,6.3-11.1c3.44-3.19,7.58-4.91,13-5.42.64-.06,1.28-.09,1.91-.09,5,0,9.45,1.9,14,6,1,.87,1.71,1.68,1.18,2.76l-.11.22.24.08.64.18a2.7,2.7,0,0,1,.93.35,2.36,2.36,0,0,1,.57.9l.11.24c5.3,11.07,1.23,23.41-9.47,28.71A16.06,16.06,0,0,1,132.2,261Zm-1.75-40.23c-.51,0-1,0-1.52.06a19.87,19.87,0,0,0-13.23,6.83,17.82,17.82,0,0,0-4.85,12.86,20.19,20.19,0,0,0,7,14.46,18.31,18.31,0,0,0,12.22,5h.56A19.9,19.9,0,0,0,150,239.67C150,230,140.5,220.76,130.45,220.76Z" style="fill:#d8f9ff"/><path d="M216,104.88c-11.77,0-20.21-8.47-20.5-20.59a20.36,20.36,0,0,1,5.94-14.8,19.83,19.83,0,0,1,13.69-6.22l.9,0a21.18,21.18,0,0,1,15.22,6.29,19.84,19.84,0,0,1,5.81,14.28c-.14,11.95-9.17,21-21,21Zm1.09-1.28c.33,0,.67,0,1,0l1,0a3.65,3.65,0,0,0,1.93-.41,30,30,0,0,1,2.92-1.52,18.05,18.05,0,0,0,4.7-2.83c6.58-5.91,8.58-13.31,5.79-21.41-2.51-7.27-10.69-13-18.62-13a16.31,16.31,0,0,0-2.81.24,19.35,19.35,0,0,0-16.25,21.08,20.09,20.09,0,0,0,19,17.78h0l1,0Z" style="fill:#d8f9ff"/><path d="M259.44,119.94l-2.15,0a2.84,2.84,0,0,1-2.69-1.68,82.21,82.21,0,0,0-11.87-17.13c-.13-.15-.22-.25-.3-.36-.53-.7-.79-1.11-.22-1.55a.82.82,0,0,1,.48-.2c.35,0,.66.39.93.74l1.24,1.59c2.41,3.09,4.91,6.29,7.28,9.49a6.38,6.38,0,0,1,.77,1.62,6.94,6.94,0,0,0,.71,1.57,22,22,0,0,0,3.23,4.09,2.57,2.57,0,0,0,1.78.44h5.13l16.91,0H284c1.28,0,2.57,0,3.86,0s2.79,0,4.19,0,2.69,0,3.84.07c4.15.16,8.67.24,13.82.24,4.8,0,9.68-.07,14.4-.13s9.59-.14,14.39-.14c2,0,4,0,6,0h.7a5.17,5.17,0,0,1,1.16.1.9.9,0,0,1,.52.58.89.89,0,0,1-.45.6,12.45,12.45,0,0,1-2.34.15H259.44Z" style="fill:#d8f9ff"/><path d="M96.38,119.45a.42.42,0,0,1-.17,0,1,1,0,0,1-.3-.78,1.64,1.64,0,0,1,.34-.69l.17-.27a102.62,102.62,0,0,1,9.91-13.74,85.31,85.31,0,0,1,16.9-15,86.8,86.8,0,0,1,8.54-5.25,83.77,83.77,0,0,1,9.53-4.3c8.1-3,15-5.15,22.42-5.47a20,20,0,0,0,3.61-.59c.56-.12,1.12-.25,1.68-.35a3.07,3.07,0,0,1,.6-.07l2.48.1c2.1.09,4.26.19,6.38.36,1.77.15,3.57.41,5.31.66l1.8.25c.79.11,1.38.18,1.49,1.06a5.37,5.37,0,0,1-1.7.25,15.38,15.38,0,0,1-1.92-.16q-.52-.08-1-.12c-.59-.06-1.19-.15-1.79-.23-.81-.12-1.65-.24-2.49-.28-1.53-.07-3.07-.1-4.57-.1-22.77,0-42.89,7.87-59.83,23.41a82.61,82.61,0,0,0-15.79,19.59l-.23.4a6.12,6.12,0,0,1-.76,1.18A.86.86,0,0,1,96.38,119.45Z" style="fill:#d8f9ff"/><path d="M174.3,250.83c-2,0-4-.06-5.9-.11l-3.14-.08a23.58,23.58,0,0,1-3.34-.39l-1.14-.18c-.79-.12-1.18-.28-1.1-.85a.59.59,0,0,1,.68-.57,2.58,2.58,0,0,1,.56.07,46.67,46.67,0,0,0,10.75,1.07c2.4,0,4.84-.11,7.2-.21l2.34-.1a22,22,0,0,0,4.4-.8c.72-.18,1.43-.36,2.15-.5l3.07-.58c1.69-.32,3.44-.64,5.15-1A70.93,70.93,0,0,0,213.49,240c3.3-1.75,6.51-3.79,9.61-5.77,1.09-.7,2.17-1.39,3.27-2.07a5.35,5.35,0,0,0,1.13-1.1c.13-.15.25-.3.38-.44a2.88,2.88,0,0,0,.26-.35,1.26,1.26,0,0,1,.29-.37A57.9,57.9,0,0,0,241,217.85c1.85-2.33,3.56-4.84,5.21-7.27.79-1.17,1.59-2.34,2.4-3.5.32-.46.68-.9,1-1.34l.37-.48.47.22c-.06.16-.11.32-.16.48a7.76,7.76,0,0,1-.54,1.35,57,57,0,0,1-8,11.31c-3.63,3.91-6.67,7.15-10,10.32a59.45,59.45,0,0,1-7.05,5.58,80.21,80.21,0,0,1-17.54,9.66,109.63,109.63,0,0,1-13.5,4.38,90.94,90.94,0,0,1-14.16,2.1C178,250.77,176.28,250.83,174.3,250.83Z" style="fill:#d8f9ff"/><path d="M288.74,115.09a2.79,2.79,0,0,1-3-2,95.27,95.27,0,0,0-7.21-14.26c-.54-.92-1.07-1.84-1.6-2.77a30.25,30.25,0,0,0-2.47-3.54c-.38-.51-.77-1-1.14-1.52a1.35,1.35,0,0,1,0-2l.42.32a4.28,4.28,0,0,1,1,.94l.41.61c4.22,6.33,8.59,12.87,11.38,20.14a3.91,3.91,0,0,0,3.91,2.65c1.67,0,3.34,0,5,0h13.67l18.63,0h6.83l.45,0,.46,0a1.44,1.44,0,0,1,1.41.74l-.22.16a1.64,1.64,0,0,1-.67.36,11.39,11.39,0,0,1-1.72.1H316c-9.08,0-18.16,0-27.24,0Z" style="fill:#d8f9ff"/><path d="M73.25,235.41c-.42,0-.71-.49-1-.95l-.24-.4c-4.86-7.05-8.66-13.14-11.39-19.9a3.36,3.36,0,0,0-.2-.43c-.07-.14-.15-.28-.21-.43-.71-1.88-2-2.69-4.2-2.69-6.81,0-13.57.06-20.32.06H9.85l-.16-.28.16-.22c.15-.21.32-.45.47-.48a16.81,16.81,0,0,1,3.26-.44h2.1l4,0,3.2,0h7.26c4.69,0,9.38,0,14.07.06,1.21,0,2.44.07,3.63.12s2.53.13,3.79.13h.19c1.86,0,3.73-.14,5.33-.28.32,0,.62,0,.9,0,1.52,0,2.18.5,2.83,2.13.18.44.4.87.61,1.29a6,6,0,0,1,1,3.31c0,.39.35.72.75,1.06a3.56,3.56,0,0,1,.67.68c2.83,4.53,5.87,9.45,9.57,15.49a4.29,4.29,0,0,0,.33.45c.26.33.53.68.49,1a.86.86,0,0,1-.4.51A1.11,1.11,0,0,1,73.25,235.41Z" style="fill:#d8f9ff"/><path d="M174.69,246a2,2,0,0,1-1.22-.52.67.67,0,0,1,.09-.48c.17-.2.55-.23.93-.26l.3,0c1.31-.15,2.63-.27,4-.4,3.08-.29,6.27-.59,9.38-1.13a86.85,86.85,0,0,0,18.77-5.65c5.85-2.45,11-6.07,16-9.56l1.35-.95c5.11-3.57,9.2-8.25,13.16-12.78l.83-1a32.82,32.82,0,0,0,3-4.24c.48-.75,1-1.5,1.47-2.23.37-.54.79-1.06,1.24-1.61l.48-.61a1.68,1.68,0,0,1-.09,2.2c-5,7.06-9.66,13.32-15.77,18.51A87,87,0,0,1,185,245.21a79.59,79.59,0,0,1-8.13.69Z" style="fill:#d8f9ff"/><path d="M102.33,119.46c-.24,0-.52-.22-.87-.7.78-1.06,1.54-2.14,2.31-3.21,1.77-2.48,3.59-5,5.6-7.37,2.44-2.81,5.15-5.48,7.78-8.05.81-.79,1.62-1.58,2.42-2.38a8.7,8.7,0,0,1,1.62-1.17c.24-.14.47-.29.69-.44l.82-.5a11.92,11.92,0,0,0,1.41-.94,72.89,72.89,0,0,1,22.68-11.94,68.22,68.22,0,0,1,14.82-3.52l.56-.09a4.6,4.6,0,0,1,.8-.1,1.06,1.06,0,0,1,.42.07,1.65,1.65,0,0,0,.52.1,2,2,0,0,0,.62-.13,1.59,1.59,0,0,1,.33-.1,22.69,22.69,0,0,1,5.23-.8,9.92,9.92,0,0,1,2.65.34,1,1,0,0,1,.3.24l.19.19a2.77,2.77,0,0,1-2.24.75h-.68A80.32,80.32,0,0,0,153.92,82a82.05,82.05,0,0,0-41,24.14c-3.33,3.57-6.79,7.44-9.24,12a6.39,6.39,0,0,1-.67,1C102.74,119.31,102.52,119.46,102.33,119.46Z" style="fill:#d8f9ff"/><path d="M119.53,85.89c-.24,0-.49-.21-.76-.61l-1-1.55c-.92-1.39-1.88-2.82-2.78-4.25-2.35-3.73-4.67-7.48-7-11.22l-6.7-10.75q-4.66-7.51-9.36-15c-1.63-2.62-3.3-5.22-5-7.84l-2.17-3.41c.33-.39.62-.58.88-.58s.5.19.78.58l.75,1.05c.77,1,1.56,2.15,2.26,3.26q14.93,23.73,29.8,47.49c.31.5.59,1,.87,1.54l.33.62C120.08,85.66,119.78,85.89,119.53,85.89Z" style="fill:#d8f9ff"/><path d="M261.21,293.84a.88.88,0,0,1-.59-.3,8.52,8.52,0,0,1-1-1.4l-.07-.11-4.23-6.77q-3.65-5.86-7.33-11.7-4.4-7-8.83-13.9-4.84-7.62-9.67-15.25c-.72-1.14-1.34-2.36-1.95-3.55L227,239.8c-.24-.46-.24-.48.32-1.51,3.62,4.85,33.13,52.06,34.49,55.19A.78.78,0,0,1,261.21,293.84Z" style="fill:#d8f9ff"/><path d="M52.59,119.69a1.2,1.2,0,0,1-.56-1.58c.36-1.15.8-2.35,1.31-3.57.25-.62.54-1.22.82-1.83.39-.82.79-1.66,1.11-2.53A63,63,0,0,1,60.92,99a4.47,4.47,0,0,0,.27-.59,2.71,2.71,0,0,1,.13-.3A52.18,52.18,0,0,1,69.4,86c1.21-1.42,2.35-3,3.44-4.42,1-1.3,2-2.64,3-3.9,1.38-1.67,2.93-3.24,4.44-4.76l1-.95c2.31-2.35,4.26-4.27,6.13-6,1-.9,2-1.76,3-2.59l1.18-1a1.49,1.49,0,0,1,1-.45,1.7,1.7,0,0,1,1,.41,24.27,24.27,0,0,0-3.82,3.24c-.57.57-1.16,1.15-1.77,1.69-1.79,1.56-3.67,3.36-5.9,5.63-1.78,1.82-3.59,3.78-5.36,5.83s-3.46,4.12-5,6.14-3.22,4.38-4.73,6.64-2.83,4.4-4.18,6.73-2.61,4.67-3.75,7c-1.24,2.47-2.38,5-3.43,7.39-.72,1.64-1.4,3.29-2.09,5C53.17,118.29,52.89,119,52.59,119.69Z" style="fill:#d8f9ff"/><path d="M260.42,283.74c-.62,0-1-.59-1.38-1.21-1.05-1.67-2.07-3.32-3.09-5L252,271.31,236.68,246.9l-4.92-7.82-.33-.49a8.94,8.94,0,0,1-.56-.91,1.33,1.33,0,0,1,.49-1.86l.42.44a8.57,8.57,0,0,1,1.07,1.27q6.47,10.36,12.9,20.74l11,17.71c.66,1.06,1.37,2.11,2.06,3.12.51.75,1,1.5,1.51,2.26.28.43.53.9.79,1.4l.31.6A2,2,0,0,1,260.42,283.74Z" style="fill:#d8f9ff"/><path d="M112.84,55.24a1.35,1.35,0,0,1-.63-.17c0-1,.74-1.35,1.49-1.69l2.73-1.29c4-1.9,8.19-3.86,12.38-5.57,3-1.23,6.17-2.19,9.24-3.11l1.63-.49a114.42,114.42,0,0,1,22-4.15c2.32-.24,4.7-.35,7-.46l3-.15.22,0,.33,0a.56.56,0,0,1,.28.05,1.45,1.45,0,0,1,.61.54c-.06.33-.36.78-.56.82a7.09,7.09,0,0,1-1.48.13c-.29,0-.58,0-.87,0-1.35.11-2.72.2-4.08.29-3.12.2-6.36.42-9.52.8-14.14,1.68-27.92,6.16-42.12,13.68l-.48.29A2.38,2.38,0,0,1,112.84,55.24Z" style="fill:#d8f9ff"/><path d="M112.21,84.23q-13.11-21-26.12-41.87a2.09,2.09,0,0,1-.21-.8c0-.1,0-.2,0-.3a1.46,1.46,0,0,1,.66-.19c.47,0,.8.37,1.14.92.64,1,1.26,2,1.89,3l1.77,2.86.57.91Q95.7,55,99.55,61.1c.35.55.67,1.12,1,1.69A23.56,23.56,0,0,0,102.61,66,32.3,32.3,0,0,1,105,69.59c.28.46.57.93.86,1.38.91,1.42,1.8,2.86,2.69,4.29l.37.58,3.15,5.09L115.25,86l.19.31c.27.44.54.88.79,1.32a.8.8,0,0,1,.13.65c-.09.27-.4.51-1.09.82Z" style="fill:#d8f9ff"/><path d="M57.72,119.57a.79.79,0,0,1-.34-.09.67.67,0,0,1-.37-.35,1.48,1.48,0,0,1,.24-1c.6-1.27,1.21-2.53,1.83-3.79,1.35-2.79,2.75-5.66,4-8.55a73.11,73.11,0,0,1,9-15.09c2.28-3,4.75-5.93,7.14-8.76,1.07-1.26,2.14-2.53,3.19-3.81a81.89,81.89,0,0,1,9.71-9.39L94,67.12l.3-.29c.32-.31.63-.62,1-.62a1.06,1.06,0,0,1,.56.2c0,.82-.59,1.24-1.19,1.68-.18.14-.36.28-.52.42-10,8.9-17.2,16.94-22.74,25.3a120.62,120.62,0,0,0-11.25,20.9c-.55,1.32-1.12,2.64-1.69,4l0,.11C58.18,119.25,58,119.57,57.72,119.57Z" style="fill:#d8f9ff"/><path d="M109.79,50.72l.17-.31a1.49,1.49,0,0,1,.48-.67l2.64-1.45c2.65-1.45,5.38-3,8.18-4.15,4.93-2.1,10-4,15-5.57a114,114,0,0,1,12.54-3c3.25-.63,6.59-1.09,9.82-1.52l2.72-.38c1.46-.2,3-.33,4.42-.46l1-.09h.28c.45,0,.7.15,1.69,1.11l-.72.14a17,17,0,0,1-1.95.31,144.33,144.33,0,0,0-29.72,5.3A132.94,132.94,0,0,0,112.29,50a11.73,11.73,0,0,1-1.68.66l-.66.23Z" style="fill:#d8f9ff"/><path d="M179.2,291.09a1.9,1.9,0,0,1-.74-.25l-.27-.13c.18-.79.7-.81,1.35-.84h.26l1.88-.15c1.81-.14,3.69-.29,5.53-.31a8.5,8.5,0,0,0,1.67-.23,7.8,7.8,0,0,1,1.63-.23,2.75,2.75,0,0,1,1.48.39l.14.08.12-.12a5,5,0,0,1,3.44-1.12,9.13,9.13,0,0,0,2.31-.37,27.19,27.19,0,0,1,3.33-.88c1-.22,1.95-.44,2.9-.73l3.45-1.07c4.28-1.32,8.7-2.69,12.94-4.33,3.45-1.33,6.85-3,10.13-4.55,1.42-.68,2.83-1.36,4.25-2a3,3,0,0,1,1.23-.41,5.18,5.18,0,0,1,1.35.31,116.62,116.62,0,0,1-23,10.47,124,124,0,0,1-35.4,6.5Z" style="fill:#d8f9ff"/><path d="M20.49,119.14a.24.24,0,0,1-.13,0,.7.7,0,0,1-.3-.52,2.56,2.56,0,0,1,.17-.83l.08-.26A155.15,155.15,0,0,1,36.16,81c2.33-3.82,4.94-7.56,7.46-11.18C44.75,68.21,45.89,66.59,47,65c.24-.35.47-.71.7-1.06l.24-.38.43.18c0,.11.07.23.11.34a1.36,1.36,0,0,1,.15.73A4.52,4.52,0,0,1,47.87,66c-.09.11-.18.22-.26.34a159.93,159.93,0,0,0-26,51,7.69,7.69,0,0,1-.72,1.7A.7.7,0,0,1,20.49,119.14Z" style="fill:#d8f9ff"/><path d="M177.14,286.17a16.26,16.26,0,0,1-3.82-.33,3.21,3.21,0,0,1,2.43-.94,5.68,5.68,0,0,1,.59,0c.62,0,1.26.07,1.93.07a56.72,56.72,0,0,0,6.54-.52c1.68-.2,3.42-.41,5.13-.49a4.19,4.19,0,0,0,1.25-.32l.63-.21a8,8,0,0,0,.83-.26,5.89,5.89,0,0,1,1.81-.41h.5a31.74,31.74,0,0,0,8.76-1.65l1.18-.34c3.86-1.09,7.07-2.05,10.1-3,5.78-1.83,11.15-4.56,17.07-7.67a4.25,4.25,0,0,0,.46-.27,2.51,2.51,0,0,1,1.21-.49,1.15,1.15,0,0,1,.68.24c-2.08,2.4-14.24,8-24.59,11.22C200.93,283.63,185.35,286.17,177.14,286.17Z" style="fill:#d8f9ff"/><path d="M254.07,262.63c-.29,0-.54-.2-.76-.61.66-.59,1.3-1.19,1.93-1.79a56.73,56.73,0,0,1,4.43-3.9,54.45,54.45,0,0,0,9.94-10c.6-.77,1.19-1.52,1.82-2.21a85.76,85.76,0,0,0,12-17l.12-.25c.44-.83.85-1.62,1.86-1.62a2.44,2.44,0,0,1,.52.06c-.07.16-.15.32-.21.47a12.35,12.35,0,0,1-.64,1.26,133.57,133.57,0,0,1-29.22,34.56,9.16,9.16,0,0,1-1.32,1A1,1,0,0,1,254.07,262.63Z" style="fill:#d8f9ff"/><path d="M251.37,258.25l-.34,0c-.33-.69.05-1.06.61-1.49,10.24-7.89,18-18.15,24.49-27.15a18.27,18.27,0,0,0,1-1.55c.26-.44.52-.88.8-1.3.06-.08.12-.18.18-.27.34-.53.66-1,1.4-1h.16c-1.24,4.92-15,21.61-25.92,31.26-.16.14-.32.3-.48.47A2.73,2.73,0,0,1,251.37,258.25Z" style="fill:#d8f9ff"/><path d="M46.93,119.12a1.35,1.35,0,0,1-.42-.08.77.77,0,0,0,0-.15.79.79,0,0,1,0-.34l1.11-2.7c1.4-3.39,2.85-6.9,4.34-10.32.46-1,1-2.09,1.51-3.09a41,41,0,0,0,1.8-3.78,48.38,48.38,0,0,1,5.84-9.79c.82-1.17,1.68-2.37,2.48-3.59a4.27,4.27,0,0,1,1-.92L65,84c0,.17,0,.31,0,.45a1.54,1.54,0,0,1,0,.79A27,27,0,0,1,63.21,88a119.31,119.31,0,0,0-14.3,27.67c-.34,1-.69,1.83-1.06,2.65C47.62,118.87,47.32,119.12,46.93,119.12Z" style="fill:#d8f9ff"/><path d="M298.34,260.55c0-.1,0-.21-.08-.31s-.13-.52-.07-.61c1-1.43,2-2.85,3.06-4.22l.44-.59c.14-.19.3-.36.45-.53a5.87,5.87,0,0,0,.63-.77q1.41-2.31,2.83-4.6c2.78-4.52,5.66-9.18,8.35-13.85a57.13,57.13,0,0,0,3.19-6.88c.25-.62.51-1.23.76-1.84s.54-1,1.08-1a2.47,2.47,0,0,1,.76.15c-.47,1-.92,1.91-1.37,2.85-1.09,2.28-2.12,4.43-3.22,6.58-1.79,3.46-3.35,6.3-4.91,8.92-1.67,2.82-3.52,5.73-5.66,8.88a83.86,83.86,0,0,1-6,8Z" style="fill:#d8f9ff"/><path d="M214.93,228.69c-.12-1.2.56-1.61,1.28-2.05l.23-.14a70.59,70.59,0,0,0,14.64-12.75c1.42-1.56,2.74-3.25,4-4.88.62-.79,1.25-1.59,1.88-2.37l.24-.3c.38-.51.74-1,1.45-1h.07a1.8,1.8,0,0,1-.51,1.66l-.18.25A78.23,78.23,0,0,1,216.62,228a5.46,5.46,0,0,1-1.19.52Z" style="fill:#d8f9ff"/><path d="M328.2,214.93a20.13,20.13,0,0,1-3.62-.35c0-.19-.07-.39-.11-.59a9.55,9.55,0,0,1-.23-1.69c0-3,0-6.09,0-9.1,0-1.32.17-1.41,1.08-1.41h1c.47,0,.93,0,1.4-.05s.92,0,1.38,0h.53a8.5,8.5,0,0,1,1.69.35l.72.2a5.39,5.39,0,0,1-3,.69h-1a5.72,5.72,0,0,0-2.27.37l-.13.06V207l.14.05a7.42,7.42,0,0,0,2.66.35,6,6,0,0,1,3.17.62,4.75,4.75,0,0,1-2.72.6h-.67a5.82,5.82,0,0,0-2.64.46l-.13.06.24,3.89.12.05a7,7,0,0,0,2.83.47h1.14a6.22,6.22,0,0,1,2.76.49A9.48,9.48,0,0,1,328.2,214.93Z" style="fill:#d8f9ff"/><path d="M307.1,214.67q-.33,0-.63-.48a7.44,7.44,0,0,1-.46-.94l0-.1a2.83,2.83,0,0,0-2.73-2l-.45,0c-.22,0-.45,0-.68,0a7.14,7.14,0,0,1-.93-.06,4.64,4.64,0,0,0-.63,0,2.84,2.84,0,0,0-2.89,2.23l0,.11c-.22.68-.42,1.12-1.06,1.12l-.22,0c.4-2.39,4.1-10.55,5.85-12.92a54.42,54.42,0,0,1,4.65,9.85c.36.94.73,1.87,1.1,2.79A1.47,1.47,0,0,1,307.1,214.67ZM299.2,210h5.51l-2.94-6.28Z" style="fill:#d8f9ff"/><path d="M108.57,119.59c-.46-.17-.73-.37-.8-.59s0-.57.38-1c.53-.7,1-1.41,1.56-2.12a52.62,52.62,0,0,1,3.54-4.5c2.94-3.23,6-6.31,9.07-9.16a59.29,59.29,0,0,1,5.54-4.36l1.22-.89a2.38,2.38,0,0,1,1.44-.64,4,4,0,0,1,1.31.32A80.74,80.74,0,0,0,108.57,119.59Z" style="fill:#d8f9ff"/><path d="M288.13,215c-2.63,0-4.29-.78-5.4-2.54a7.18,7.18,0,0,1-.36-7.54,6.44,6.44,0,0,1,5.76-3.47,6.12,6.12,0,0,1,4.49,1.9c-.32.71-.67.8-.91.8a1.57,1.57,0,0,1-.72-.23c-.16-.08-.31-.18-.46-.27a4.47,4.47,0,0,0-1-.54,5.36,5.36,0,0,0-1.57-.25,4.89,4.89,0,0,0-4.34,2.77,5.75,5.75,0,0,0,1.32,6.82,4.69,4.69,0,0,0,6.35.18l.63-.48.23-.16a1,1,0,0,1,.46.59,1.11,1.11,0,0,1-.33.78,4.42,4.42,0,0,1-3.4,1.63Z" style="fill:#d8f9ff"/><path d="M15,118.88a2.19,2.19,0,0,1-.22-.78,1.73,1.73,0,0,1,.21-.71c0-.12.09-.23.13-.34.41-1.16.85-2.31,1.28-3.47.95-2.55,1.93-5.18,2.7-7.83A83.17,83.17,0,0,1,24,93.54l.27-.58c.2-.42.42-.84.67-1.31l.29-.54,1,.62-.27.64c-.25.59-.5,1.19-.77,1.77A127.33,127.33,0,0,0,16.57,117l-.07.25a3.13,3.13,0,0,1-.47,1.23,1.94,1.94,0,0,1-.78.46l-.23.1A1.22,1.22,0,0,0,15,118.88Z" style="fill:#d8f9ff"/><path d="M274.57,79.62H263a1.52,1.52,0,0,1-1.35-.55,3.75,3.75,0,0,1,2.56-.8l.25,0c.93-.06,1.85-.07,2.71-.07h17.46a2,2,0,0,1,1.88,1l-.66.15a6.66,6.66,0,0,1-1.49.24C281.11,79.62,277.84,79.62,274.57,79.62Z" style="fill:#d8f9ff"/><path d="M70.1,246H60.8a1.59,1.59,0,0,1-.65-.26l-.31-.16.36-.17a2.66,2.66,0,0,1,.88-.31c7.21-.15,14.62-.27,22-.37h.57c.64,0,1,.15,1.15.9l-.21.12A1.28,1.28,0,0,1,84,246Q77.05,246,70.1,246Z" style="fill:#d8f9ff"/><path d="M312.53,214.76a2.17,2.17,0,0,1-.21-.69,83,83,0,0,1-.11-9.49q0-1.41.06-2.85h3.26c1.09,0,2.13,0,3.18.05.17,0,.39.19.6.37l.16.14-.14.15c-.17.2-.36.43-.5.45-.84.08-1.71.09-2.55.1L315,203a5.72,5.72,0,0,0-.71.09l-.56.09-.18,0v3.92l5.46.76,0,.11-.24.17a1.78,1.78,0,0,1-.74.39,15.42,15.42,0,0,1-1.9.1h-.93a1.61,1.61,0,0,0-1.82,1.82v.45c0,.87,0,1.76-.05,2.63,0,.31-.24.63-.85,1.25A.08.08,0,0,0,312.53,214.76Z" style="fill:#d8f9ff"/><path d="M250,119.25a.6.6,0,0,1-.26,0,2.38,2.38,0,0,1-.82-1,57.06,57.06,0,0,0-7.08-10.2l-1.39-1.73c-.39-.49-.75-1-1.11-1.53l-.42-.61.19-.33.32,0,.39,0a.63.63,0,0,1,.31.06,5.88,5.88,0,0,1,1.72,1.51c2.59,3.67,5.17,7.43,7.67,11.07l.78,1.13a2.61,2.61,0,0,1,.45,1,.78.78,0,0,1-.15.58A1.4,1.4,0,0,1,250,119.25Z" style="fill:#d8f9ff"/><path d="M106.76,220.87c-.19,0-.42-.24-.81-.73-2.51-3.1-4.7-5.95-6.71-8.71-.89-1.23-1.7-2.56-2.48-3.84-.33-.55-.66-1.09-1-1.63a1.6,1.6,0,0,1,1-.53,1.34,1.34,0,0,1,1,.69,16.57,16.57,0,0,1,1,1.6c.25.42.49.83.76,1.23,1.16,1.76,2.34,3.51,3.51,5.26l1.4,2.08h0L107.9,220C107.35,220.52,107,220.87,106.76,220.87Z" style="fill:#d8f9ff"/><path d="M160.86,217.86a3.81,3.81,0,0,1-3.6-3.87c.06-1.54,2.14-3.3,3.92-3.3a3.59,3.59,0,0,1,2.53,1.15,3.24,3.24,0,0,1,.88,2.37,3.57,3.57,0,0,1-3.55,3.65Zm0-5.7a2.21,2.21,0,0,0-2,2.07,1.7,1.7,0,0,0,.79,1.46,3.58,3.58,0,0,0,2,.51h0a7.06,7.06,0,0,0,1.09-.09l.16,0,0-.17c.14-1.58-.05-2.64-.58-3.22a1.78,1.78,0,0,0-1.38-.54h-.08Z" style="fill:#d8f9ff"/><path d="M137.74,11c-1.75,0-3.31-1.31-3.33-2.69a4.65,4.65,0,0,1,1.34-3.33,3.58,3.58,0,0,1,2.52-1.14,3.4,3.4,0,0,1,3.42,3.45,3.61,3.61,0,0,1-1,2.61,3.86,3.86,0,0,1-2.79,1.1Zm.12-5.65a2.32,2.32,0,0,0-2.13,1.93,2,2,0,0,0,.56,1.37,2.52,2.52,0,0,0,1.61.88h0a2.66,2.66,0,0,0,2.33-2.09,2.63,2.63,0,0,0-2.35-2.09Z" style="fill:#d8f9ff"/><path d="M146.53,115.91a3.42,3.42,0,0,1-2.41-1.08,3.91,3.91,0,0,1-1.13-2.78,4.13,4.13,0,0,1,3.78-3.59h0a3.55,3.55,0,0,1,3.46,3.7,3.49,3.49,0,0,1-3.63,3.75Zm-.06-5.93a2.14,2.14,0,0,0-1.93,2.13,2.55,2.55,0,0,0,2.2,2.49h0a2.34,2.34,0,0,0,1.63-.75,2,2,0,0,0,.64-1.36A3,3,0,0,0,146.5,110h0Z" style="fill:#d8f9ff"/><path d="M189.23,115.93a3.85,3.85,0,0,1-3.58-3.64,3.65,3.65,0,0,1,1.14-2.53,3.83,3.83,0,0,1,2.62-1.27,3.48,3.48,0,0,1,2.52,1.07,3.52,3.52,0,0,1,1,2.53,4.06,4.06,0,0,1-3.7,3.84Zm0-5.93a2.36,2.36,0,0,0-2.12,2.26,2.88,2.88,0,0,0,2.57,2.33h.16a2,2,0,0,0,1.7-2.06,2.94,2.94,0,0,0-2.27-2.52Z" style="fill:#d8f9ff"/><path d="M203.54,217.82a3.57,3.57,0,0,1-3.62-3.2,4,4,0,0,1,1-2.91,3.58,3.58,0,0,1,2.59-1.11h0a3.68,3.68,0,0,1,3.68,3.73,3.36,3.36,0,0,1-.94,2.4,3.73,3.73,0,0,1-2.67,1.09Zm-.09-5.67a2.3,2.3,0,0,0-1.61.74,2,2,0,0,0-.54,1.49,2.33,2.33,0,0,0,2.56,2.05c1.3,0,1.93-.57,2-1.72a2.52,2.52,0,0,0-.71-1.88,2.19,2.19,0,0,0-1.6-.68h-.07Z" style="fill:#d8f9ff"/><path d="M167.88,116a3.44,3.44,0,0,1-2.43-1,3.67,3.67,0,0,1-1-2.6,4.22,4.22,0,0,1,4-3.84c1.8,0,3,1.42,3,3.55a4,4,0,0,1-.95,2.81,3.34,3.34,0,0,1-2.52,1.1Zm0-5.92a2.31,2.31,0,0,0-2,2.08,2.65,2.65,0,0,0,2,2.43h0a2.54,2.54,0,0,0,2.35-1.76,2.61,2.61,0,0,0-.76-1.85,2.35,2.35,0,0,0-1.57-.9Z" style="fill:#d8f9ff"/><path d="M189.16,323.86a3.27,3.27,0,0,1-2.36-.93,3.42,3.42,0,0,1-.84-2.55c.07-2,1.64-3.78,3.37-3.78,2.36,0,3.64,1.24,3.65,3.4a3.88,3.88,0,0,1-1.08,2.79,3.75,3.75,0,0,1-2.68,1.07Zm.25-5.68a2,2,0,0,0-2.07,2c.16,1.56,1.55,2,2.73,2.23l.14,0,1.92-3-.16-.12A4.62,4.62,0,0,0,189.41,318.18Z" style="fill:#d8f9ff"/><path d="M231.41,313.16a2.84,2.84,0,0,1-1.93-1,3.48,3.48,0,0,1-1-2.4,4,4,0,0,1,3.67-4h.12a3.79,3.79,0,0,1,3.44,3.79,4.09,4.09,0,0,1-4.23,3.6Zm.39-5.87a2.31,2.31,0,0,0-2.05,2,2.94,2.94,0,0,0,2.29,2.5h0a2.58,2.58,0,0,0,2.2-2.25,1.89,1.89,0,0,0-.57-1.27,3,3,0,0,0-1.85-1Z" style="fill:#d8f9ff"/><path d="M167.43,324.44a3.57,3.57,0,0,1-3.54-3.35c0-1.77,2-3.87,3.6-3.87,2.47,0,3.49,1.15,3.46,3.7a3.4,3.4,0,0,1-3.36,3.52Zm0-5.71a2.08,2.08,0,0,0-2.06,1.93,2.62,2.62,0,0,0,1.94,2.25h.11a3,3,0,0,0,2.37-2.05,1.49,1.49,0,0,0-.4-1.17,2.67,2.67,0,0,0-1.87-1Z" style="fill:#d8f9ff"/><path d="M159.37,7.59c-2.58,0-3.16-2.15-3.19-3.94,0-2,1.21-3.19,3.42-3.27h.12a3.61,3.61,0,0,1-.26,7.21Zm0-5.7a1.9,1.9,0,0,0-1.35.6A2.12,2.12,0,0,0,157.5,4a2.33,2.33,0,0,0,2.32,2.15H160a1.84,1.84,0,0,0,1.78-1.92,2.57,2.57,0,0,0-2.34-2.34h0Z" style="fill:#d8f9ff"/><path d="M202.73,9.86a3.69,3.69,0,0,1-3.36-3.8,3.65,3.65,0,0,1,3.86-3.33h.18c2.08.08,3.11,1.19,3.06,3.28-.06,2.34-1.45,3.85-3.53,3.85Zm0-5.87a2.05,2.05,0,0,0-1.34.8,2.07,2.07,0,0,0-.47,1.48,2.73,2.73,0,0,0,2.33,2.13,2.08,2.08,0,0,0,1.42-.71,2,2,0,0,0,.6-1.46A2.7,2.7,0,0,0,202.87,4Z" style="fill:#d8f9ff"/><path d="M181.42,7.14a3.65,3.65,0,0,1-3.61-3.33A3.79,3.79,0,0,1,181.49,0h.14A3.15,3.15,0,0,1,184,.81a3.77,3.77,0,0,1,.89,2.73,3.33,3.33,0,0,1-3.33,3.6Zm-.11-5.75a2.12,2.12,0,0,0-2.18,1.86,2.07,2.07,0,0,0,.55,1.58,2.34,2.34,0,0,0,1.68.84h0a2,2,0,0,0,1.5-.6,2.21,2.21,0,0,0,.64-1.57,2.08,2.08,0,0,0-2.18-2.11Z" style="fill:#d8f9ff"/><path d="M117.1,17.53a3.77,3.77,0,0,1-2.58-1.21,3.46,3.46,0,0,1-1-2.42,3.94,3.94,0,0,1,4-3.59h.19a4,4,0,0,1,3.25,3.46,3.63,3.63,0,0,1-1.16,2.51,3.85,3.85,0,0,1-2.62,1.24Zm-.09-6a2.2,2.2,0,0,0-1.47.81,2.18,2.18,0,0,0-.65,1.51,3.23,3.23,0,0,0,2.44,2.29,2.69,2.69,0,0,0,2.17-2.36A2.83,2.83,0,0,0,117,11.57h0Z" style="fill:#d8f9ff"/><path d="M211.07,319.79c-2.28-.07-3.48-1.39-3.46-3.81,0-1.6,2-3.49,3.73-3.49h.12a3.14,3.14,0,0,1,2.16,1.06,4.08,4.08,0,0,1,1,2.94,3.21,3.21,0,0,1-3.36,3.3ZM211,314a2.51,2.51,0,0,0-2,2.15,2.36,2.36,0,0,0,.76,1.59,2.4,2.4,0,0,0,1.6.81,2.44,2.44,0,0,0,2.08-2.15,2.37,2.37,0,0,0-.75-1.6A2.41,2.41,0,0,0,211,314h0Z" style="fill:#d8f9ff"/><path d="M182.22,217.82a3.43,3.43,0,0,1-2.51-1,3.37,3.37,0,0,1-1-2.47,3.83,3.83,0,0,1,3.76-3.61h.11c2,.06,3.18,1.43,3.16,3.58a3.29,3.29,0,0,1-3.49,3.55Zm-.12-5.67a2,2,0,0,0-1.47.63,2,2,0,0,0-.56,1.41,2.27,2.27,0,0,0,2.42,2.22h0a2,2,0,0,0,1.51-.49,1.9,1.9,0,0,0,.44-1.46,2.31,2.31,0,0,0-2.32-2.31h0Z" style="fill:#d8f9ff"/><path d="M145.31,322a2.94,2.94,0,0,1-3-2.24,3.72,3.72,0,0,1,1.37-4.2,2.72,2.72,0,0,1,1.4-.44,2.53,2.53,0,0,1,1.63.68l.16.13.14-.15a.75.75,0,0,1,.54-.31.89.89,0,0,1,.55.26,3.93,3.93,0,0,1,.92,3.94,3.68,3.68,0,0,1-3.55,2.33Zm.24-5.71a1.91,1.91,0,0,0-1.37.59,2,2,0,0,0-.6,1.47,3,3,0,0,0,2.19,2.62h0a2.85,2.85,0,0,0,2.19-2.32,2.26,2.26,0,0,0-.72-1.51,2.55,2.55,0,0,0-1.68-.85Z" style="fill:#d8f9ff"/><path d="M243.76,119.26a9,9,0,0,1-.7-.83l-4.34-5.94-2.29-3.15a2.35,2.35,0,0,0-.26-.29c-.12-.12-.26-.26-.27-.36a3.81,3.81,0,0,1,.06-1,2,2,0,0,0,0-.24l.22,0a1.58,1.58,0,0,1,.77.14,5.27,5.27,0,0,1,1.32,1.27c1.52,2.08,3,4.17,4.52,6.26l1.65,2.3a1.53,1.53,0,0,1,.42,1.27,1.48,1.48,0,0,1-.89.82Z" style="fill:#d8f9ff"/><path d="M282.26,240.47a.72.72,0,0,1-.42-.18c-.48-.35-.35-.73.08-1.38l1.41-2.1c1.29-1.91,2.62-3.89,3.88-5.88.88-1.38,1.71-2.83,2.51-4.24l1-1.73c.53.22.81.45.9.71a1.13,1.13,0,0,1-.25.92l-4.56,7.2-3.76,6C282.8,240.13,282.56,240.47,282.26,240.47Z" style="fill:#d8f9ff"/><path d="M110.46,217.24a.82.82,0,0,1-.37-.07,2.59,2.59,0,0,1-.8-.71l-4.17-5.64-2.92-3.94a1.22,1.22,0,0,1-.34-1q.12-.45,1.08-.87l1,1.46c.81,1.18,1.59,2.31,2.38,3.42s1.46,2,2.2,3l1.61,2.19.11.15a4.4,4.4,0,0,1,.72,1.2,1,1,0,0,1-.27.78A.59.59,0,0,1,110.46,217.24Z" style="fill:#d8f9ff"/><path d="M317.41,239.71a37.71,37.71,0,0,1,2.22-5.53l.12-.27c.74-1.59,1.5-3.17,2.26-4.75l1.12-2.35c.07-.15.13-.3.19-.45a3,3,0,0,1,.4-.78,1.45,1.45,0,0,1,.7-.35,1.74,1.74,0,0,1,.4,1,1.55,1.55,0,0,1-.26.7c-.05.1-.11.2-.15.29l-.83,1.74q-2.2,4.64-4.44,9.25l-.12.28C318.74,239.06,318.48,239.66,317.41,239.71Z" style="fill:#d8f9ff"/><path d="M190.33,190.57a24.76,24.76,0,0,1-4.2-.35c0-.92.59-1,1.38-1,1.65-.07,3.33-.08,5-.08h1.17c.74,0,1.33.06,1.56.79A12.83,12.83,0,0,1,190.33,190.57Z" style="fill:#d8f9ff"/><path d="M109.4,313.82h-.08c-1-.37-2-.82-3-1.27l-.73-.33-1.77-.84-.68-.32.18-1.35h.11a1.65,1.65,0,0,1,.4.08c1.67.73,3.34,1.45,5,2.2a3.48,3.48,0,0,1,1.12.69,1.14,1.14,0,0,1,.22.75A1.4,1.4,0,0,1,109.4,313.82Z" style="fill:#d8f9ff"/><path d="M26.4,90.29a2,2,0,0,1-.36-.62c.9-2,1.92-3.88,2.88-5.66l.4,0,.38,0a21,21,0,0,1-1.81,4.28c-.41.79-.82,1.61-1.21,2.49Z" style="fill:#d8f9ff"/><path d="M130.22,256a15.51,15.51,0,0,1-11.47-4.84,14.41,14.41,0,0,1-3.89-10.88,15.3,15.3,0,0,1,4.34-11A16.48,16.48,0,0,1,131,224.59a15.41,15.41,0,0,1,11,4.6,15,15,0,0,1,4.36,10.8c-.15,9-6.46,15.61-15.33,16C130.75,256,130.48,256,130.22,256Zm1.16-1.33c.31,0,.62,0,.94,0s.65,0,1,0a4.1,4.1,0,0,0,1.24-.16,5.84,5.84,0,0,0,1.85-1.07c.26-.19.53-.39.79-.56s.39-.22.59-.33l.24-.13c4.17-2.24,6.46-6.11,7-11.82a11.1,11.1,0,0,0-.78-5.2,15.52,15.52,0,0,0-7.42-8.09,15.1,15.1,0,0,0-6.66-1.61,14.36,14.36,0,0,0-13.47,10.07,14.2,14.2,0,0,0,2.16,12.75,14.85,14.85,0,0,0,11.91,6.08h0Z" style="fill:#d8f9ff"/><path d="M218,99.42a9.16,9.16,0,0,1-2.73-.41,4.37,4.37,0,0,1,1-.26,16.82,16.82,0,0,0,8.55-3.18,13.66,13.66,0,0,0,5.79-10.29,14,14,0,0,0-2.75-9.62l-.09-.13c-.57-.74-1-1.29-.08-2.27l-.27-.34a2.34,2.34,0,0,1-1.16.33,3.28,3.28,0,0,1-1.88-.84l-.44-.32a13.89,13.89,0,0,0-7.88-2.51,15,15,0,0,0-13.9,10.5c-2,7.31,2,14.67,9.46,17.51,1.27.48,1.36.51,1.66,1.61h-.39c-3.9,0-9.25-4.06-11.23-8.51a16.53,16.53,0,0,1,6.47-20.2,15.91,15.91,0,0,1,8.18-2.3,16.19,16.19,0,0,1,11.5,5c4.72,4.74,5.48,13.21,1.74,19.28C227.45,95.92,222.79,99.42,218,99.42Z" style="fill:#d8f9ff"/><path d="M206.24,83.66a1,1,0,0,1-.52-.49l0-.6a7,7,0,0,1,.41-2.58,11.36,11.36,0,0,1,6-5.9,9.34,9.34,0,0,1,3.86-.87,12.6,12.6,0,0,1,5.5,1.5c3,1.42,4.64,3.8,5.31,7.51a1.91,1.91,0,0,1-.36,1.33,1,1,0,0,1-.29,0c-.42,0-.57-.47-.72-1.15-1.1-4.69-4.74-7.73-9.28-7.73H216a9.21,9.21,0,0,0-9.1,7.46,2,2,0,0,0,0,.43,1.1,1.1,0,0,1-.07.44A1.23,1.23,0,0,1,206.24,83.66Z" style="fill:#d8f9ff"/><path d="M130.27,251a10.41,10.41,0,0,1-8.39-3.91,11.89,11.89,0,0,1-2-6,1.49,1.49,0,0,1,.36-.63l.28-.41.26.65c.22.57.4,1,.55,1.48a11.48,11.48,0,0,0,3.59,5.39,8.64,8.64,0,0,0,5.61,2.05,9.21,9.21,0,0,0,9-6.74l.09-.5c.15-.81.29-1.59,1.13-1.94.74,3.3-1.72,7.53-5.47,9.36A11.51,11.51,0,0,1,130.27,251Z" style="fill:#d8f9ff"/></svg>