<svg id="Layer_1" data-name="Layer 1" xmlns="http://www.w3.org/2000/svg" viewBox="0 0 171.06 154.71"><title>Icons</title><line x1="71.81" y1="123.44" x2="97.55" y2="123.44" style="fill:none;stroke:#fff;stroke-miterlimit:10;stroke-width:0.9447981759784997px"/><line x1="71.81" y1="135.38" x2="97.55" y2="135.38" style="fill:none;stroke:#fff;stroke-miterlimit:10;stroke-width:0.9447981759784997px"/><line x1="71.81" y1="147.32" x2="97.55" y2="147.32" style="fill:none;stroke:#fff;stroke-miterlimit:10;stroke-width:0.9447981759784997px"/><polyline points="86.21 10.87 76.27 10.87 73.68 14.45 68.7 14.45 68.7 30.03 74.11 30.03 78.33 33.28 94.53 33.28 94.53 27 99.62 27 99.62 30.25 105.57 30.25 105.57 16.14 99.72 16.14 99.72 19.43 95.29 19.43 88.07 10.87 86.21 10.87" style="fill:none;stroke:#fff;stroke-miterlimit:10;stroke-width:0.9447981759784997px"/><line x1="88.13" y1="6.22" x2="76.36" y2="6.22" style="fill:none;stroke:#fff;stroke-miterlimit:10;stroke-width:0.9447981759784997px"/><line x1="63.9" y1="15.93" x2="63.9" y2="27.7" style="fill:none;stroke:#fff;stroke-miterlimit:10;stroke-width:0.9447981759784997px"/><line x1="82.24" y1="12.1" x2="82.24" y2="6.11" style="fill:none;stroke:#fff;stroke-miterlimit:10;stroke-width:0.9447981759784997px"/><line x1="63.79" y1="21.81" x2="69.78" y2="21.81" style="fill:none;stroke:#fff;stroke-miterlimit:10;stroke-width:0.9447981759784997px"/><rect x="7.36" y="64.26" width="24.32" height="29.02" style="fill:none;stroke:#fff;stroke-miterlimit:10;stroke-width:0.9447981759784997px"/><line x1="24.69" y1="64.26" x2="24.69" y2="93.28" style="fill:none;stroke:#fff;stroke-miterlimit:10;stroke-width:0.9447981759784997px"/><line x1="4.83" y1="70.85" x2="9.72" y2="70.85" style="fill:none;stroke:#fff;stroke-miterlimit:10;stroke-width:0.9447981759784997px"/><line x1="4.83" y1="78.61" x2="9.72" y2="78.61" style="fill:none;stroke:#fff;stroke-miterlimit:10;stroke-width:0.9447981759784997px"/><line x1="4.83" y1="86.36" x2="9.72" y2="86.36" style="fill:none;stroke:#fff;stroke-miterlimit:10;stroke-width:0.9447981759784997px"/><circle cx="19.7" cy="19.7" r="19.22" style="fill:none;stroke:#fff;stroke-miterlimit:10;stroke-width:0.9447981759784997px"/><path d="M29.59,14.9l-6.76,2.19a4.94,4.94,0,0,0-1.7-1.26V8.73A11.77,11.77,0,0,1,29.59,14.9Z" style="fill:none;stroke:#fff;stroke-miterlimit:10;stroke-width:0.9447981759784997px"/><path d="M18.3,8.72v7.09a4.82,4.82,0,0,0-1.71,1.25l-6.78-2.2A11.83,11.83,0,0,1,18.3,8.72Z" style="fill:none;stroke:#fff;stroke-miterlimit:10;stroke-width:0.9447981759784997px"/><path d="M8.75,17.65l6.76,2.2a4.9,4.9,0,0,0,.64,2L12,27.62a11.77,11.77,0,0,1-3.35-8.23A12.5,12.5,0,0,1,8.75,17.65Z" style="fill:none;stroke:#fff;stroke-miterlimit:10;stroke-width:0.9447981759784997px"/><path d="M14.44,29.5l4.17-5.74a4.85,4.85,0,0,0,1.09.13,5.1,5.1,0,0,0,1-.11l4.17,5.74a11.67,11.67,0,0,1-10.47,0Z" style="fill:none;stroke:#fff;stroke-miterlimit:10;stroke-width:0.9447981759784997px"/><path d="M27.4,27.65,23.22,21.9a4.93,4.93,0,0,0,.66-2l6.77-2.2a11.67,11.67,0,0,1-3.25,10Z" style="fill:none;stroke:#fff;stroke-miterlimit:10;stroke-width:0.9447981759784997px"/><line x1="34.83" y1="31.55" x2="33.66" y2="28.37" style="fill:none;stroke:#fff;stroke-miterlimit:10;stroke-width:0.9447981759784997px"/><line x1="37.38" y1="27.23" x2="35.43" y2="24.46" style="fill:none;stroke:#fff;stroke-miterlimit:10;stroke-width:0.9447981759784997px"/><line x1="38.73" y1="22.4" x2="36.13" y2="20.23" style="fill:none;stroke:#fff;stroke-miterlimit:10;stroke-width:0.9447981759784997px"/><line x1="38.78" y1="17.38" x2="35.7" y2="15.96" style="fill:none;stroke:#fff;stroke-miterlimit:10;stroke-width:0.9447981759784997px"/><line x1="37.53" y1="12.52" x2="34.19" y2="11.94" style="fill:none;stroke:#fff;stroke-miterlimit:10;stroke-width:0.9447981759784997px"/><line x1="35.07" y1="8.15" x2="31.69" y2="8.45" style="fill:none;stroke:#fff;stroke-miterlimit:10;stroke-width:0.9447981759784997px"/><line x1="31.55" y1="4.56" x2="28.37" y2="5.73" style="fill:none;stroke:#fff;stroke-miterlimit:10;stroke-width:0.9447981759784997px"/><line x1="27.23" y1="2.01" x2="24.46" y2="3.96" style="fill:none;stroke:#fff;stroke-miterlimit:10;stroke-width:0.9447981759784997px"/><line x1="22.4" y1="0.66" x2="20.23" y2="3.27" style="fill:none;stroke:#fff;stroke-miterlimit:10;stroke-width:0.9447981759784997px"/><line x1="17.38" y1="0.61" x2="15.96" y2="3.69" style="fill:none;stroke:#fff;stroke-miterlimit:10;stroke-width:0.9447981759784997px"/><line x1="12.52" y1="1.86" x2="11.94" y2="5.2" style="fill:none;stroke:#fff;stroke-miterlimit:10;stroke-width:0.9447981759784997px"/><line x1="8.15" y1="4.33" x2="8.45" y2="7.7" style="fill:none;stroke:#fff;stroke-miterlimit:10;stroke-width:0.9447981759784997px"/><line x1="4.56" y1="7.84" x2="5.73" y2="11.02" style="fill:none;stroke:#fff;stroke-miterlimit:10;stroke-width:0.9447981759784997px"/><line x1="2.01" y1="12.16" x2="3.96" y2="14.93" style="fill:none;stroke:#fff;stroke-miterlimit:10;stroke-width:0.9447981759784997px"/><line x1="0.66" y1="16.99" x2="3.27" y2="19.17" style="fill:none;stroke:#fff;stroke-miterlimit:10;stroke-width:0.9447981759784997px"/><line x1="0.61" y1="22.01" x2="3.69" y2="23.44" style="fill:none;stroke:#fff;stroke-miterlimit:10;stroke-width:0.9447981759784997px"/><line x1="1.86" y1="26.87" x2="5.2" y2="27.45" style="fill:none;stroke:#fff;stroke-miterlimit:10;stroke-width:0.9447981759784997px"/><line x1="4.33" y1="31.24" x2="7.7" y2="30.94" style="fill:none;stroke:#fff;stroke-miterlimit:10;stroke-width:0.9447981759784997px"/><line x1="7.84" y1="34.83" x2="11.02" y2="33.66" style="fill:none;stroke:#fff;stroke-miterlimit:10;stroke-width:0.9447981759784997px"/><line x1="12.16" y1="37.38" x2="14.93" y2="35.43" style="fill:none;stroke:#fff;stroke-miterlimit:10;stroke-width:0.9447981759784997px"/><line x1="16.99" y1="38.73" x2="19.17" y2="36.13" style="fill:none;stroke:#fff;stroke-miterlimit:10;stroke-width:0.9447981759784997px"/><line x1="22.01" y1="38.78" x2="23.44" y2="35.7" style="fill:none;stroke:#fff;stroke-miterlimit:10;stroke-width:0.9447981759784997px"/><line x1="26.87" y1="37.53" x2="27.45" y2="34.19" style="fill:none;stroke:#fff;stroke-miterlimit:10;stroke-width:0.9447981759784997px"/><line x1="31.24" y1="35.07" x2="30.94" y2="31.69" style="fill:none;stroke:#fff;stroke-miterlimit:10;stroke-width:0.9447981759784997px"/><path d="M70.84,95.48a19.57,19.57,0,1,1,27.68,0" style="fill:none;stroke:#fff;stroke-miterlimit:10;stroke-width:0.9447981759784997px"/><line x1="93.66" y1="90.62" x2="98.52" y2="95.48" style="fill:none;stroke:#fff;stroke-miterlimit:10;stroke-width:0.9447981759784997px"/><line x1="97.38" y1="81.64" x2="104.26" y2="81.64" style="fill:none;stroke:#fff;stroke-miterlimit:10;stroke-width:0.9447981759784997px"/><line x1="93.66" y1="72.66" x2="98.52" y2="67.8" style="fill:none;stroke:#fff;stroke-miterlimit:10;stroke-width:0.9447981759784997px"/><line x1="84.68" y1="68.94" x2="84.68" y2="62.07" style="fill:none;stroke:#fff;stroke-miterlimit:10;stroke-width:0.9447981759784997px"/><line x1="75.7" y1="72.66" x2="70.84" y2="67.8" style="fill:none;stroke:#fff;stroke-miterlimit:10;stroke-width:0.9447981759784997px"/><line x1="71.99" y1="81.64" x2="65.11" y2="81.64" style="fill:none;stroke:#fff;stroke-miterlimit:10;stroke-width:0.9447981759784997px"/><line x1="75.7" y1="90.62" x2="70.84" y2="95.48" style="fill:none;stroke:#fff;stroke-miterlimit:10;stroke-width:0.9447981759784997px"/><circle cx="84.76" cy="84.24" r="3.6" style="fill:none;stroke:#fff;stroke-miterlimit:10;stroke-width:0.9447981759784997px"/><line x1="84.76" y1="80.64" x2="84.76" y2="72.79" style="fill:none;stroke:#fff;stroke-miterlimit:10;stroke-width:0.9447981759784997px"/><polyline points="144.9 64.49 146.65 63.73 148.01 59.01 150.81 59.01 153.62 59.01 154.98 63.73 156.72 64.49" style="fill:none;stroke:#fff;stroke-miterlimit:10;stroke-width:0.9447981759784997px"/><polyline points="136.54 72.86 137.23 71.08 134.85 66.78 136.84 64.8 138.82 62.82 143.12 65.19 144.89 64.5" style="fill:none;stroke:#fff;stroke-miterlimit:10;stroke-width:0.9447981759784997px"/><polyline points="136.54 84.69 135.77 82.94 131.05 81.58 131.05 78.78 131.05 75.97 135.77 74.61 136.54 72.87" style="fill:none;stroke:#fff;stroke-miterlimit:10;stroke-width:0.9447981759784997px"/><polyline points="144.9 93.05 143.13 92.36 138.83 94.74 136.84 92.75 134.86 90.77 137.24 86.47 136.54 84.7" style="fill:none;stroke:#fff;stroke-miterlimit:10;stroke-width:0.9447981759784997px"/><polyline points="156.73 93.05 154.99 93.82 153.63 98.54 150.82 98.54 148.02 98.54 146.66 93.82 144.91 93.05" style="fill:none;stroke:#fff;stroke-miterlimit:10;stroke-width:0.9447981759784997px"/><polyline points="165.1 84.69 164.41 86.46 166.78 90.76 164.8 92.75 162.81 94.73 158.51 92.35 156.74 93.05" style="fill:none;stroke:#fff;stroke-miterlimit:10;stroke-width:0.9447981759784997px"/><polyline points="165.1 72.86 165.86 74.6 170.58 75.96 170.58 78.77 170.58 81.57 165.86 82.93 165.1 84.68" style="fill:none;stroke:#fff;stroke-miterlimit:10;stroke-width:0.9447981759784997px"/><polyline points="156.73 64.49 158.51 65.19 162.81 62.81 164.79 64.79 166.77 66.78 164.4 71.08 165.09 72.85" style="fill:none;stroke:#fff;stroke-miterlimit:10;stroke-width:0.9447981759784997px"/><circle cx="150.82" cy="78.77" r="7.52" style="fill:none;stroke:#fff;stroke-miterlimit:10;stroke-width:0.9447981759784997px"/><polyline points="151.1 140.96 161.38 140.96 161.38 134.9 159.2 132.72 156.34 126.23 151.1 126.23" style="fill:none;stroke:#fff;stroke-miterlimit:10;stroke-width:0.9447981759784997px"/><polyline points="151.1 140.96 139.05 140.96 139.05 134.9 141.23 132.72 144.09 126.23 151.1 126.23" style="fill:none;stroke:#fff;stroke-miterlimit:10;stroke-width:0.9447981759784997px"/><line x1="141.23" y1="132.72" x2="159.2" y2="132.72" style="fill:none;stroke:#fff;stroke-miterlimit:10;stroke-width:0.9447981759784997px"/><circle cx="143.09" cy="137.45" r="1.63" style="fill:none;stroke:#fff;stroke-miterlimit:10;stroke-width:0.9447981759784997px"/><circle cx="157.57" cy="137.45" r="1.63" style="fill:none;stroke:#fff;stroke-miterlimit:10;stroke-width:0.9447981759784997px"/><rect x="139.05" y="140.96" width="3.85" height="3.49" style="fill:none;stroke:#fff;stroke-miterlimit:10;stroke-width:0.9447981759784997px"/><rect x="157.57" y="140.96" width="3.85" height="3.49" style="fill:none;stroke:#fff;stroke-miterlimit:10;stroke-width:0.9447981759784997px"/><path d="M132.27,130.43A18.77,18.77,0,0,1,169,136" style="fill:none;stroke:#fff;stroke-miterlimit:10;stroke-width:0.9447981759784997px"/><polyline points="134.9 129.82 131.99 130.67 131.15 127.77" style="fill:none;stroke:#fff;stroke-miterlimit:10;stroke-width:0.9447981759784997px"/><path d="M167.84,141.05a18.77,18.77,0,0,1-36.69-5.58" style="fill:none;stroke:#fff;stroke-miterlimit:10;stroke-width:0.9447981759784997px"/><polyline points="165.22 141.66 168.12 140.81 168.97 143.71" style="fill:none;stroke:#fff;stroke-miterlimit:10;stroke-width:0.9447981759784997px"/><path d="M144.4,23.71V21.93H148v1.28c0,.3.11.41.41.41h3.27c.31,0,.41-.11.41-.41V20.85c0-.31-.1-.41-.41-.41h-3.42v-3h3.25c.3,0,.41-.09.41-.42V15c0-.31-.11-.41-.41-.41h-2.93c-.3,0-.41.1-.41.41v1.28h-3.59V14.52c0-2,1-3,3-3h5c2,0,3,1,3,3v1.86c0,1.33-.3,2.15-1.54,2.56a2.28,2.28,0,0,1,1.71,2.56v2.21c0,2-1,3-3,3h-5.31C145.38,26.7,144.4,25.72,144.4,23.71Z" style="fill:none;stroke:#fff;stroke-miterlimit:10;stroke-width:0.9447981759784997px"/><path d="M150.41,36.94A17.25,17.25,0,1,1,167.66,19.7,17.26,17.26,0,0,1,150.41,36.94Zm0-30.83A13.59,13.59,0,1,0,164,19.7,13.6,13.6,0,0,0,150.41,6.11Z" style="fill:none;stroke:#fff;stroke-miterlimit:10;stroke-width:0.9447981759784997px"/><path d="M14,137.63c0-1.84,1.14-2.51,3.12-3.23l3.68-1.32c.39-.15.58-.24.58-.65v-1.37c0-.32-.08-.41-.41-.41H18c-.32,0-.41.09-.41.41v1.28H14.12v-1.77a2.64,2.64,0,0,1,3-3h4.81a2.64,2.64,0,0,1,3,3V133c0,1.81-1.15,2.53-3.12,3.22l-3.66,1.32c-.41.16-.61.26-.61.68v1.36H25v3.14H14Z" style="fill:none;stroke:#fff;stroke-miterlimit:10;stroke-width:0.9447981759784997px"/><path d="M19.7,153a17.25,17.25,0,1,1,17.24-17.25A17.27,17.27,0,0,1,19.7,153Zm0-30.83a13.58,13.58,0,1,0,13.58,13.58A13.6,13.6,0,0,0,19.7,122.16Z" style="fill:none;stroke:#fff;stroke-miterlimit:10;stroke-width:0.9447981759784997px"/></svg>