<svg id="fd611249-fb8c-44d5-b24b-e41f4763998c" data-name="Layer 1" xmlns="http://www.w3.org/2000/svg" xmlns:xlink="http://www.w3.org/1999/xlink" width="2.24in" height="2.41in" viewBox="0 0 160.94 173.21"><defs><style>.\31 7fbd75a-6d66-4d34-b43f-737d0822c926,.ecdc5b1d-2d06-499a-b8d6-997fafcf3fd5{fill:none;}.\31 7fbd75a-6d66-4d34-b43f-737d0822c926{clip-rule:evenodd;}.\31 68b4461-8eb6-4665-a7f2-a0c484bf6c20{clip-path:url(#6415521b-8b0f-40bd-8f94-ff5be24c2ec5);}.\33 cf03424-3d45-40b9-8ca1-8c4bda58ac67{clip-path:url(#b235c6bf-cac2-410e-a713-7151e3ce3256);}.\38 c81181b-76be-455a-aa79-ea91aaaadff9{clip-path:url(#d7d2516e-ccc0-4d7e-a76f-ca0ab6398e8f);}.\30 73ad286-e9f3-477d-8ce3-07c25dd5ba1b{clip-path:url(#38a7d044-1c36-4219-a66b-7f68919bce04);}.\39 b1140d1-b901-4c2d-86bc-df51f0c16f9a{clip-path:url(#c2c4fcbd-7f0a-432e-9f27-d82607cdfd43);}.\39 6c206d9-7e2c-4b15-adba-7cb98f2d005b{clip-path:url(#e01cc13d-dbc3-427a-8673-24a3a6153726);}.\37 8ae0e6a-5bf5-4657-9744-648e121c0352{clip-path:url(#d5cf3680-e84c-4956-8534-343ebbd2425e);}.cfd6d586-65d9-49a0-851a-aae03a87f986{clip-path:url(#7540b874-a3a6-4d83-9686-8d421b3b177b);}.\31 25cb750-0c32-4607-8018-6d26c677d735{fill:#e1ffff;}</style><clipPath id="6415521b-8b0f-40bd-8f94-ff5be24c2ec5"><rect class="ecdc5b1d-2d06-499a-b8d6-997fafcf3fd5" x="430.97" y="-346.08" width="636.1" height="858.71"/></clipPath><clipPath id="b235c6bf-cac2-410e-a713-7151e3ce3256"><path class="17fbd75a-6d66-4d34-b43f-737d0822c926" d="M707.38-189a28.71,28.71,0,0,1-28.71-28.71,28.71,28.71,0,0,1,28.71-28.71,28.71,28.71,0,0,1,28.71,28.71A28.72,28.72,0,0,1,707.38-189"/></clipPath><clipPath id="d7d2516e-ccc0-4d7e-a76f-ca0ab6398e8f"><path class="17fbd75a-6d66-4d34-b43f-737d0822c926" d="M572.72,193.54a28.71,28.71,0,1,1,28.71-28.7,28.7,28.7,0,0,1-28.71,28.7"/></clipPath><clipPath id="38a7d044-1c36-4219-a66b-7f68919bce04"><path class="17fbd75a-6d66-4d34-b43f-737d0822c926" d="M439.2,451.21a28.71,28.71,0,1,1,28.71-28.71,28.71,28.71,0,0,1-28.71,28.71"/></clipPath><clipPath id="c2c4fcbd-7f0a-432e-9f27-d82607cdfd43"><path class="17fbd75a-6d66-4d34-b43f-737d0822c926" d="M439.2-314.79a28.71,28.71,0,0,1-28.71-28.71,28.72,28.72,0,0,1,28.71-28.71,28.71,28.71,0,0,1,28.71,28.71,28.71,28.71,0,0,1-28.71,28.71"/></clipPath><clipPath id="e01cc13d-dbc3-427a-8673-24a3a6153726"><path class="17fbd75a-6d66-4d34-b43f-737d0822c926" d="M965.75,193.54a28.71,28.71,0,1,1,28.71-28.7,28.7,28.7,0,0,1-28.71,28.7"/></clipPath><clipPath id="d5cf3680-e84c-4956-8534-343ebbd2425e"><path class="17fbd75a-6d66-4d34-b43f-737d0822c926" d="M832.23,451.21a28.71,28.71,0,1,1,28.71-28.71,28.71,28.71,0,0,1-28.71,28.71"/></clipPath><clipPath id="7540b874-a3a6-4d83-9686-8d421b3b177b"><path class="17fbd75a-6d66-4d34-b43f-737d0822c926" d="M832.23-314.79a28.71,28.71,0,0,1-28.71-28.71,28.71,28.71,0,0,1,28.71-28.71,28.72,28.72,0,0,1,28.71,28.71,28.71,28.71,0,0,1-28.71,28.71"/></clipPath></defs><title>LightBlueTriangle</title><polygon class="125cb750-0c32-4607-8018-6d26c677d735" points="153.56 161.01 10.32 161.01 10.32 17.77 153.56 161.01"/></svg>