<svg xmlns="http://www.w3.org/2000/svg" viewBox="0 0 281.61 201.53"><title>Logo</title><g id="Layer_2" data-name="Layer 2"><path d="M103.15,156.5a1.28,1.28,0,0,1,1.3-1.29h3.28c3.69,0,6.24,2.53,6.24,5.84v0a5.88,5.88,0,0,1-6.24,5.87h-3.28a1.28,1.28,0,0,1-1.3-1.29Zm4.58,8.12a3.35,3.35,0,0,0,3.54-3.51v0a3.37,3.37,0,0,0-3.54-3.54h-2v7.08Z" style="fill:#fcc741"/><path d="M116.79,165.29l4.1-9.24a1.59,1.59,0,0,1,1.51-1h.15a1.58,1.58,0,0,1,1.49,1l4.09,9.24a1.16,1.16,0,0,1,.14.52,1.23,1.23,0,0,1-1.23,1.24,1.32,1.32,0,0,1-1.24-.89l-.79-1.84h-5.16l-.83,1.93a1.26,1.26,0,0,1-1.19.8,1.18,1.18,0,0,1-1.19-1.21A1.42,1.42,0,0,1,116.79,165.29Zm7.27-3.25-1.63-3.88L120.8,162Z" style="fill:#fcc741"/><path d="M132,156.4a1.3,1.3,0,0,1,2.59,0v8.2h4.78a1.18,1.18,0,0,1,0,2.35h-6.07a1.29,1.29,0,0,1-1.3-1.29Z" style="fill:#fcc741"/><path d="M144,156.4a1.29,1.29,0,1,1,2.58,0v8.2h4.78a1.18,1.18,0,1,1,0,2.35h-6.07a1.28,1.28,0,0,1-1.29-1.29Z" style="fill:#fcc741"/><path d="M155.44,165.29l4.1-9.24a1.59,1.59,0,0,1,1.51-1h.15a1.57,1.57,0,0,1,1.49,1l4.1,9.24a1.29,1.29,0,0,1,.13.52,1.22,1.22,0,0,1-1.22,1.24,1.32,1.32,0,0,1-1.25-.89l-.78-1.84H158.5l-.82,1.93a1.28,1.28,0,0,1-1.2.8,1.18,1.18,0,0,1-1.19-1.21A1.42,1.42,0,0,1,155.44,165.29Zm7.27-3.25-1.63-3.88L159.45,162Z" style="fill:#fcc741"/><path d="M170.31,165.71a1.2,1.2,0,0,1,.72-2.16,1.23,1.23,0,0,1,.74.23,5,5,0,0,0,3,1.06c1.06,0,1.7-.42,1.7-1.11v0c0-.66-.41-1-2.37-1.5-2.37-.6-3.89-1.25-3.89-3.59v0c0-2.13,1.71-3.54,4.11-3.54a6.81,6.81,0,0,1,3.72,1,1.17,1.17,0,0,1,.57,1,1.19,1.19,0,0,1-1.21,1.2,1.21,1.21,0,0,1-.65-.19,4.93,4.93,0,0,0-2.47-.79c-1,0-1.51.45-1.51,1v0c0,.77.51,1,2.54,1.54,2.38.62,3.72,1.48,3.72,3.53v0c0,2.33-1.78,3.64-4.31,3.64A7.58,7.58,0,0,1,170.31,165.71Z" style="fill:#fcc741"/><path d="M215.35,162.72H191a1.29,1.29,0,1,1,0-2.58h24.31a1.29,1.29,0,0,1,0,2.58Z" style="fill:#5f3814"/><path d="M90.57,162.72H66.27a1.29,1.29,0,0,1,0-2.58h24.3a1.29,1.29,0,0,1,0,2.58Z" style="fill:#5f3814"/><path d="M12.24,188v0a8.38,8.38,0,0,1,8.48-8.51,9,9,0,0,1,5.62,1.67,1.47,1.47,0,0,1,.59,1.17,1.45,1.45,0,0,1-1.44,1.44,1.54,1.54,0,0,1-.89-.33,6.23,6.23,0,0,0-4-1.3,5.57,5.57,0,0,0-5.34,5.81V188c0,3.38,2.23,5.87,5.59,5.87a6.61,6.61,0,0,0,4-1.25v-3.07H21.59a1.27,1.27,0,0,1-1.29-1.25A1.29,1.29,0,0,1,21.59,187h4.58a1.44,1.44,0,0,1,1.46,1.46v4.39a2,2,0,0,1-1,1.84,10.46,10.46,0,0,1-5.85,1.78A8.16,8.16,0,0,1,12.24,188Z" style="fill:#5f3814"/><path d="M31.39,181.22a1.44,1.44,0,0,1,1.46-1.46h5.88a6.59,6.59,0,0,1,4.74,1.65A5,5,0,0,1,44.83,185V185a4.86,4.86,0,0,1-3.73,4.91l3.15,4a1.71,1.71,0,0,1,.47,1.11,1.36,1.36,0,0,1-1.39,1.34,1.66,1.66,0,0,1-1.41-.75l-4-5.1H34.28v4.41a1.45,1.45,0,0,1-2.89,0Zm7.12,6.7c2.07,0,3.39-1.09,3.39-2.75v0c0-1.76-1.27-2.73-3.41-2.73H34.28v5.53Z" style="fill:#5f3814"/><path d="M48.55,181.08a1.45,1.45,0,0,1,2.89,0v13.81a1.45,1.45,0,0,1-2.89,0Z" style="fill:#5f3814"/><path d="M55.84,181.08a1.45,1.45,0,0,1,2.89,0v12.5h7.45a1.32,1.32,0,0,1,0,2.63H57.29a1.43,1.43,0,0,1-1.45-1.46Z" style="fill:#5f3814"/><path d="M70.38,181.08a1.45,1.45,0,0,1,2.89,0v12.5h7.45a1.32,1.32,0,1,1,0,2.63H71.84a1.44,1.44,0,0,1-1.46-1.46Z" style="fill:#5f3814"/><path d="M84.93,194.75V181.22a1.44,1.44,0,0,1,1.46-1.46H96a1.3,1.3,0,1,1,0,2.59H87.82v4.27H94.9a1.31,1.31,0,0,1,1.29,1.32,1.29,1.29,0,0,1-1.29,1.27H87.82v4.42h8.25a1.29,1.29,0,1,1,0,2.58H86.39A1.44,1.44,0,0,1,84.93,194.75Z" style="fill:#5f3814"/><path d="M100.68,181.22a1.44,1.44,0,0,1,1.46-1.46h4.67c5.17,0,8.74,3.55,8.74,8.18V188c0,4.62-3.57,8.22-8.74,8.22h-4.67a1.43,1.43,0,0,1-1.46-1.46Zm6.13,12.36a5.36,5.36,0,0,0,5.71-5.55v0a5.4,5.4,0,0,0-5.71-5.6h-3.24v11.19Z" style="fill:#5f3814"/><path d="M125.38,188v0a8.32,8.32,0,0,1,8.48-8.51,8.59,8.59,0,0,1,5.64,1.86,1.43,1.43,0,0,1-1.74,2.28,5.94,5.94,0,0,0-3.92-1.49,5.54,5.54,0,0,0-5.43,5.81V188a5.54,5.54,0,0,0,5.43,5.82,5.89,5.89,0,0,0,4.11-1.57,1.31,1.31,0,0,1,.87-.33,1.35,1.35,0,0,1,.89,2.37,8.36,8.36,0,0,1-6,2.21A8.27,8.27,0,0,1,125.38,188Z" style="fill:#5f3814"/><path d="M143.45,181.08a1.45,1.45,0,0,1,2.89,0v5.52h7.85v-5.52a1.45,1.45,0,0,1,2.89,0v13.81a1.45,1.45,0,0,1-2.89,0v-5.61h-7.85v5.61a1.45,1.45,0,0,1-2.89,0Z" style="fill:#5f3814"/><path d="M161.31,194.75V181.22a1.44,1.44,0,0,1,1.46-1.46h9.56a1.3,1.3,0,1,1,0,2.59H164.2v4.27h7.08a1.31,1.31,0,0,1,1.29,1.32,1.29,1.29,0,0,1-1.29,1.27H164.2v4.42h8.25a1.29,1.29,0,1,1,0,2.58h-9.68A1.44,1.44,0,0,1,161.31,194.75Z" style="fill:#5f3814"/><path d="M177.06,194.75V181.22a1.44,1.44,0,0,1,1.46-1.46h9.56a1.3,1.3,0,0,1,0,2.59H180v4.27H187a1.31,1.31,0,0,1,1.3,1.32,1.29,1.29,0,0,1-1.3,1.27H180v4.42h8.25a1.3,1.3,0,0,1,1.29,1.29,1.29,1.29,0,0,1-1.29,1.29h-9.68A1.43,1.43,0,0,1,177.06,194.75Z" style="fill:#5f3814"/><path d="M192.38,194.38a1.37,1.37,0,0,1-.56-1.11,1.34,1.34,0,0,1,1.36-1.34,1.36,1.36,0,0,1,.85.26,7.13,7.13,0,0,0,4.6,1.69c1.79,0,2.92-.84,2.92-2.06v0c0-1.18-.66-1.81-3.72-2.52-3.5-.84-5.47-1.87-5.47-4.91v0c0-2.82,2.35-4.77,5.62-4.77a9.09,9.09,0,0,1,5.21,1.52,1.32,1.32,0,0,1,.64,1.16,1.34,1.34,0,0,1-1.37,1.33,1.42,1.42,0,0,1-.75-.21,6.85,6.85,0,0,0-3.78-1.24c-1.69,0-2.68.87-2.68,1.95v.05c0,1.26.75,1.83,3.92,2.58,3.48.85,5.27,2.09,5.27,4.82v0c0,3.08-2.42,4.92-5.88,4.92A10.28,10.28,0,0,1,192.38,194.38Z" style="fill:#5f3814"/><path d="M207.85,194.75V181.22a1.43,1.43,0,0,1,1.45-1.46h9.57a1.3,1.3,0,0,1,0,2.59h-8.13v4.27h7.07a1.31,1.31,0,0,1,1.29,1.32,1.28,1.28,0,0,1-1.29,1.27h-7.07v4.42H219a1.3,1.3,0,0,1,1.29,1.29,1.29,1.29,0,0,1-1.29,1.29H209.3A1.43,1.43,0,0,1,207.85,194.75Z" style="fill:#5f3814"/><path d="M229.92,188v0a8.32,8.32,0,0,1,8.48-8.51,8.61,8.61,0,0,1,5.64,1.86,1.44,1.44,0,0,1,.56,1.15,1.4,1.4,0,0,1-1.43,1.41,1.42,1.42,0,0,1-.87-.28,6,6,0,0,0-3.93-1.49,5.54,5.54,0,0,0-5.42,5.81V188a5.53,5.53,0,0,0,5.42,5.82,5.91,5.91,0,0,0,4.12-1.57,1.29,1.29,0,0,1,.87-.33,1.38,1.38,0,0,1,1.36,1.34,1.36,1.36,0,0,1-.47,1,8.37,8.37,0,0,1-6,2.21A8.27,8.27,0,0,1,229.92,188Z" style="fill:#5f3814"/><path d="M246.79,188v0a8.43,8.43,0,0,1,8.63-8.51,8.35,8.35,0,0,1,8.57,8.46V188a8.6,8.6,0,0,1-17.2,0ZM261,188v0a5.64,5.64,0,0,0-5.59-5.86,5.56,5.56,0,0,0-5.55,5.81V188a5.62,5.62,0,0,0,5.6,5.82A5.53,5.53,0,0,0,261,188Z" style="fill:#5f3814"/><path d="M267.61,192.85a1.6,1.6,0,0,1,1.65,1.62v.24a1.66,1.66,0,0,1-3.32,0v-.24A1.61,1.61,0,0,1,267.61,192.85Z" style="fill:#5f3814"/><path d="M161.8,118.49a3.88,3.88,0,0,1-.29-7.75,32.47,32.47,0,0,0,9.12-2V58.58a8.43,8.43,0,0,0-4.19-7.33c-9.29-5.32-22.82,3.14-22.95,3.22a4,4,0,0,1-4.29,0c-.12-.08-13.56-8.59-22.95-3.22a8.43,8.43,0,0,0-4.19,7.33v29a3.88,3.88,0,1,1-7.76,0v-29a16.21,16.21,0,0,1,8.1-14.07c10.89-6.23,23.93-.47,28.95,2.24,5-2.71,18.05-8.47,29-2.24a16.22,16.22,0,0,1,8.09,14.07V111a3.87,3.87,0,0,1-1.76,3.25c-5,3.22-12.37,4-14.52,4.19Z" style="fill:#5f3814"/><path d="M109.14,51.26a0,0,0,0,0,0-.08,0,0,0,0,0,0,.08Z" style="fill:#5f3814"/><path d="M95.76,141.12a49.86,49.86,0,0,1-17.13-2.89c-9.71-3.57-16.62-10.06-20-18.76C55,110,56.54,97.86,62.48,89.19,67,82.67,73.16,79.07,80,79.07c7.06,0,12.36,5,19.7,11.81,9.15,8.55,21.67,20.26,45.74,32,20.59,10,41,13.07,54.67,8.1a24.64,24.64,0,0,0,14.72-13.43c3.88-8.72,3.68-18.52-.52-25a11.57,11.57,0,0,0-9.85-5.72c-4,0-5.08,1.46-7.68,5.69a30.44,30.44,0,0,1-7,8.49,3.88,3.88,0,0,1-4.82-6.08,23.06,23.06,0,0,0,5.18-6.48c2.58-4.18,5.78-9.38,14.29-9.38,6.67,0,12.48,3.29,16.36,9.26,5.59,8.61,6,21.31,1.1,32.36a32.09,32.09,0,0,1-19.15,17.57c-15.59,5.68-38.29,2.53-60.73-8.41-25.11-12.25-38.67-24.92-47.64-33.3C88.08,90.7,84,86.83,80,86.83c-5.61,0-9.34,4.23-11.07,6.75-4.56,6.65-5.76,15.93-3,23.09C69.09,125,76,129,81.31,130.94c11.92,4.39,27.28,2.78,40.1-4.17a3.88,3.88,0,1,1,3.7,6.82A62.37,62.37,0,0,1,95.76,141.12Z" style="fill:#5f3814"/><path d="M129.45,106.77a3.87,3.87,0,0,1-2.94-6.4L158.7,63A3.88,3.88,0,1,1,164.58,68l-32.19,37.41A3.83,3.83,0,0,1,129.45,106.77Z" style="fill:#fcc741"/><path d="M145.58,110a3.88,3.88,0,0,1-2.94-6.41l16.18-18.81a3.88,3.88,0,1,1,5.88,5.06l-16.18,18.81A3.88,3.88,0,0,1,145.58,110Z" style="fill:#fcc741"/><path d="M122.66,92.93a3.88,3.88,0,0,1-2.94-6.41L142,60.64a3.88,3.88,0,0,1,5.88,5.06L125.6,91.58A3.88,3.88,0,0,1,122.66,92.93Z" style="fill:#fcc741"/><path d="M121.47,72.56a3.88,3.88,0,0,1-2.94-6.41l8.15-9.46a3.88,3.88,0,1,1,5.88,5.06l-8.14,9.46A3.86,3.86,0,0,1,121.47,72.56Z" style="fill:#fcc741"/><path d="M141.36,37.72a3.26,3.26,0,0,1-2.44-5.43c4.07-4.6,2.5-7-.35-11.47-3-4.72-7.22-11.18.35-19.72a3.27,3.27,0,0,1,4.89,4.33c-4.28,4.83-2.68,7.33.25,11.85s7.11,11-.25,19.34A3.31,3.31,0,0,1,141.36,37.72Z" style="fill:#fcc741"/><path d="M155.2,35.63a3.26,3.26,0,0,1-2.44-5.43c2.62-2.95,1.75-4.29-.34-7.52-2.27-3.53-5.71-8.87.34-15.7a3.27,3.27,0,0,1,4.89,4.34c-2.77,3.12-1.88,4.49.26,7.82,2.25,3.48,5.64,8.74-.26,15.39A3.26,3.26,0,0,1,155.2,35.63Z" style="fill:#fcc741"/><path d="M127.44,35.63A3.26,3.26,0,0,1,125,30.2c2.61-2.95,1.75-4.29-.34-7.52C122.39,19.15,119,13.81,125,7a3.27,3.27,0,0,1,4.89,4.34c-2.77,3.12-1.88,4.49.26,7.82,2.24,3.48,5.64,8.74-.26,15.39A3.27,3.27,0,0,1,127.44,35.63Z" style="fill:#fcc741"/></g></svg>