<svg id="Layer_1" data-name="Layer 1" xmlns="http://www.w3.org/2000/svg" viewBox="0 0 249.79 215.12"><title>MyPortfolioSiteSVGAssets</title><circle cx="32.18" cy="109.55" r="8.43" style="fill:none;stroke:#0600ff;stroke-miterlimit:10;stroke-width:2px"/><circle cx="79.46" cy="109.55" r="8.43" style="fill:none;stroke:#0600ff;stroke-miterlimit:10;stroke-width:2px"/><circle cx="126.73" cy="109.55" r="8.43" style="fill:none;stroke:#0600ff;stroke-miterlimit:10;stroke-width:2px"/><circle cx="174.01" cy="109.55" r="8.43" transform="translate(38 263.77) rotate(-80.78)" style="fill:none;stroke:#0600ff;stroke-miterlimit:10;stroke-width:2px"/><circle cx="221.29" cy="109.55" r="8.43" style="fill:none;stroke:#0600ff;stroke-miterlimit:10;stroke-width:2px"/><line x1="44.03" y1="109.55" x2="67.56" y2="109.55" style="fill:none;stroke:#0600ff;stroke-miterlimit:10;stroke-width:2px"/><line x1="91.33" y1="109.55" x2="114.86" y2="109.55" style="fill:none;stroke:#0600ff;stroke-miterlimit:10;stroke-width:2px"/><line x1="138.63" y1="109.55" x2="162.16" y2="109.55" style="fill:none;stroke:#0600ff;stroke-miterlimit:10;stroke-width:2px"/><line x1="185.92" y1="109.55" x2="209.46" y2="109.55" style="fill:none;stroke:#0600ff;stroke-miterlimit:10;stroke-width:2px"/><line x1="10.65" y1="58.5" x2="53.71" y2="58.5" style="fill:none;stroke:#0600ff;stroke-miterlimit:10;stroke-width:2px"/><line x1="10.65" y1="64.69" x2="53.71" y2="64.69" style="fill:none;stroke:#0600ff;stroke-miterlimit:10;stroke-width:2px"/><line x1="10.65" y1="70.88" x2="53.71" y2="70.88" style="fill:none;stroke:#0600ff;stroke-miterlimit:10;stroke-width:2px"/><line x1="10.65" y1="77.08" x2="53.71" y2="77.08" style="fill:none;stroke:#0600ff;stroke-miterlimit:10;stroke-width:2px"/><line x1="10.65" y1="83.27" x2="53.71" y2="83.27" style="fill:none;stroke:#0600ff;stroke-miterlimit:10;stroke-width:2px"/><line x1="105.7" y1="58.5" x2="148.75" y2="58.5" style="fill:none;stroke:#0600ff;stroke-miterlimit:10;stroke-width:2px"/><line x1="105.7" y1="64.69" x2="148.75" y2="64.69" style="fill:none;stroke:#0600ff;stroke-miterlimit:10;stroke-width:2px"/><line x1="105.7" y1="70.88" x2="148.75" y2="70.88" style="fill:none;stroke:#0600ff;stroke-miterlimit:10;stroke-width:2px"/><line x1="105.7" y1="77.08" x2="148.75" y2="77.08" style="fill:none;stroke:#0600ff;stroke-miterlimit:10;stroke-width:2px"/><line x1="105.7" y1="83.27" x2="148.75" y2="83.27" style="fill:none;stroke:#0600ff;stroke-miterlimit:10;stroke-width:2px"/><line x1="199.76" y1="58.5" x2="242.82" y2="58.5" style="fill:none;stroke:#0600ff;stroke-miterlimit:10;stroke-width:2px"/><line x1="199.76" y1="64.69" x2="242.82" y2="64.69" style="fill:none;stroke:#0600ff;stroke-miterlimit:10;stroke-width:2px"/><line x1="199.76" y1="70.88" x2="242.82" y2="70.88" style="fill:none;stroke:#0600ff;stroke-miterlimit:10;stroke-width:2px"/><line x1="199.76" y1="77.08" x2="242.82" y2="77.08" style="fill:none;stroke:#0600ff;stroke-miterlimit:10;stroke-width:2px"/><line x1="199.76" y1="83.27" x2="242.82" y2="83.27" style="fill:none;stroke:#0600ff;stroke-miterlimit:10;stroke-width:2px"/><line x1="58.17" y1="135.62" x2="101.23" y2="135.62" style="fill:none;stroke:#0600ff;stroke-miterlimit:10;stroke-width:2px"/><line x1="58.17" y1="141.81" x2="101.23" y2="141.81" style="fill:none;stroke:#0600ff;stroke-miterlimit:10;stroke-width:2px"/><line x1="58.17" y1="148" x2="101.23" y2="148" style="fill:none;stroke:#0600ff;stroke-miterlimit:10;stroke-width:2px"/><line x1="58.17" y1="154.19" x2="101.23" y2="154.19" style="fill:none;stroke:#0600ff;stroke-miterlimit:10;stroke-width:2px"/><line x1="58.17" y1="160.39" x2="101.23" y2="160.39" style="fill:none;stroke:#0600ff;stroke-miterlimit:10;stroke-width:2px"/><line x1="152.24" y1="135.62" x2="195.3" y2="135.62" style="fill:none;stroke:#0600ff;stroke-miterlimit:10;stroke-width:2px"/><line x1="152.24" y1="141.81" x2="195.3" y2="141.81" style="fill:none;stroke:#0600ff;stroke-miterlimit:10;stroke-width:2px"/><line x1="152.24" y1="148" x2="195.3" y2="148" style="fill:none;stroke:#0600ff;stroke-miterlimit:10;stroke-width:2px"/><line x1="152.24" y1="154.19" x2="195.3" y2="154.19" style="fill:none;stroke:#0600ff;stroke-miterlimit:10;stroke-width:2px"/><line x1="152.24" y1="160.39" x2="195.3" y2="160.39" style="fill:none;stroke:#0600ff;stroke-miterlimit:10;stroke-width:2px"/><line x1="126.73" y1="97.09" x2="126.73" y2="87.82" style="fill:none;stroke:#0600ff;stroke-miterlimit:10;stroke-width:2px"/><line x1="32.18" y1="97.09" x2="32.18" y2="87.82" style="fill:none;stroke:#0600ff;stroke-miterlimit:10;stroke-width:2px"/><line x1="221.29" y1="97.09" x2="221.29" y2="87.82" style="fill:none;stroke:#0600ff;stroke-miterlimit:10;stroke-width:2px"/><line x1="79.46" y1="131.22" x2="79.46" y2="121.95" style="fill:none;stroke:#0600ff;stroke-miterlimit:10;stroke-width:2px"/><line x1="174.01" y1="131.22" x2="174.01" y2="121.95" style="fill:none;stroke:#0600ff;stroke-miterlimit:10;stroke-width:2px"/></svg>