<svg id="Layer_1" data-name="Layer 1" xmlns="http://www.w3.org/2000/svg" viewBox="0 0 29.7 19.11"><title>MyPortfolioSiteSVGAssets</title><path d="M0,9.57C0,2.85,2.46,0,6.9,0s6.9,2.85,6.9,9.57-2.49,9.54-6.9,9.54S0,16.26,0,9.57ZM6.9,2.13c-1.41,0-1.74,2.07-1.74,7.44S5.49,17,6.9,17s1.74-2.07,1.74-7.41S8.31,2.13,6.9,2.13Z" style="fill:#0600ff"/><path d="M29.7,18.87H17l-.39-1.71,5.07-5.37c1.89-2,2.52-3.24,2.52-5a2.59,2.59,0,0,0-2.88-2.91,5.15,5.15,0,0,0-3.66,1.56l-.81-.84L19.71.78A8.34,8.34,0,0,1,23.28,0c3.54,0,5.61,1.77,5.61,4.92,0,2.61-1,4.29-3.21,6.15L21,15h6.21l.57-2.76H29.1Z" style="fill:#0600ff"/></svg>