<?xml version="1.0" encoding="utf-8"?>
<!-- Generator: Adobe Illustrator 22.1.0, SVG Export Plug-In . SVG Version: 6.00 Build 0)  -->
<svg version="1.1" id="Layer_1" xmlns="http://www.w3.org/2000/svg" xmlns:xlink="http://www.w3.org/1999/xlink" x="0px" y="0px"
	 viewBox="0 0 31.4 43.25" style="enable-background:new 0 0 31.4 43.25;" xml:space="preserve">
<style type="text/css">
	.st0{fill:none;stroke:#FFFFFF;stroke-width:2;stroke-miterlimit:10;}
	.st1{fill:none;stroke:#0600FF;stroke-width:2;stroke-miterlimit:10;}
	.st2{fill:none;stroke:#7F7F7F;stroke-width:2;stroke-miterlimit:10;}
	.st3{fill:#0600FF;}
	.st4{fill:none;stroke:#A7A9AC;stroke-miterlimit:10;}
	.st5{fill:none;stroke:#CFD1D4;stroke-width:0.8312;stroke-miterlimit:10;}
	.st6{fill:none;stroke:#CFD1D4;stroke-miterlimit:10;}
</style>
<g>
	<line class="st1" x1="0.33" y1="7.75" x2="29.71" y2="0.97"/>
	<line class="st1" x1="15.69" y1="4.75" x2="15.69" y2="18.75"/>
	<path class="st1" d="M30.37,42.25H1V21.49c-0.01-1.77,1.41-3.22,3.18-3.24h23.02c1.77,0.01,3.19,1.46,3.18,3.23c0,0,0,0,0,0.01
		V42.25z"/>
	<path class="st1" d="M27.19,18.25H4.18C2.41,18.27,0.99,19.72,1,21.49v20.77h9.99V27.81h9.42v14.44h9.99V21.49
		c0.02-1.77-1.4-3.22-3.17-3.24C27.22,18.25,27.21,18.25,27.19,18.25z"/>
</g>
</svg>
