<svg id="Layer_1" data-name="Layer 1" xmlns="http://www.w3.org/2000/svg" viewBox="0 0 249.79 215.12"><title>MyPortfolioSiteSVGAssets</title><rect x="72.04" y="25.39" width="106.31" height="81.43" style="fill:none;stroke:#0600ff;stroke-miterlimit:10;stroke-width:2px"/><polyline points="223.7 106.82 198.52 106.82 198.52 25.39 223.7 25.39" style="fill:none;stroke:#0600ff;stroke-miterlimit:10;stroke-width:2px"/><polyline points="25.99 25.39 51.16 25.39 51.16 106.82 25.99 106.82" style="fill:none;stroke:#0600ff;stroke-miterlimit:10;stroke-width:2px"/><path d="M124.1,49.11l-5,1.76-.08,0-8.43,5.45a.32.32,0,0,0-.14.16l-2.76,6.23,0,.06L107,63.9a.42.42,0,0,0,0,.29l.43,2a.36.36,0,0,0,.36.3h3a.36.36,0,0,0,.33-.21l.87-1.74a.41.41,0,0,0,0-.29l-.62-1.76a.36.36,0,0,1,0-.33l2.11-3.07a.36.36,0,0,1,.21-.15l3.89-1a.37.37,0,0,1,.43.52l-1.57,3.32a.34.34,0,0,0,0,.28l1.89,5.35a.34.34,0,0,0,.18.21l5.82,3a.36.36,0,0,1,.15.15l2.11,3.81a.37.37,0,0,1-.57.45h0a.38.38,0,0,0-.49,0l-.13.1a.38.38,0,0,1-.45,0l-.78-.53a.36.36,0,0,0-.43,0l-1.31,1a.37.37,0,0,0,0,.62l28,16.62a.38.38,0,0,0,.44,0l2-1.74a.37.37,0,0,1,.38-.07l2.62,1a.35.35,0,0,0,.41-.1l2.06-2.34a.36.36,0,0,0-.15-.59l-16.91-6.12a.26.26,0,0,1-.11-.07l-2.68-2.34a.34.34,0,0,1-.11-.18l-2.07-6.86a.22.22,0,0,0-.05-.11L129.54,64a.39.39,0,0,1-.06-.11l-.67-2.27a.33.33,0,0,1,.05-.32l3.3-4.5a.36.36,0,0,1,.49-.1l9.63,5.72a.22.22,0,0,0,.11.05l2,.4a.36.36,0,0,1,.22.13l.47.6a.36.36,0,0,0,.27.14l.67.06a.37.37,0,0,0,.37-.23l.49-1.14a.37.37,0,0,0,0-.29l-.59-1.41a.4.4,0,0,0-.32-.22l-1.58-.11a.36.36,0,0,1-.22-.09l-9.46-8-.05,0-2.43-1.52a.38.38,0,0,0-.43,0l-1.12.89a3.66,3.66,0,0,1-3.7.48h0a3.67,3.67,0,0,1-1.72-1.56l-.71-1.27A.37.37,0,0,0,124.1,49.11Z" style="fill:none;stroke:#0600ff;stroke-miterlimit:10;stroke-width:2px"/><ellipse cx="129.32" cy="45.79" rx="4.32" ry="3.34" transform="translate(54.77 160.94) rotate(-76.58)" style="fill:none;stroke:#0600ff;stroke-miterlimit:10;stroke-width:2px"/><line x1="106.13" y1="65.08" x2="81.8" y2="64.1" style="fill:none;stroke:#0600ff;stroke-miterlimit:10;stroke-width:2px"/><line x1="146.97" y1="63.93" x2="151.24" y2="72.86" style="fill:none;stroke:#0600ff;stroke-miterlimit:10;stroke-width:2px"/><path d="M27,63l.48.6a.38.38,0,0,0,.26.14l.67.05a.37.37,0,0,0,.37-.23l.49-1.14a.37.37,0,0,0,0-.29l-.59-1.4a.39.39,0,0,0-.32-.23l-1.58-.11" style="fill:none;stroke:#0600ff;stroke-miterlimit:10;stroke-width:2px"/><path d="M26.7,89.24l6.13,3.64a.36.36,0,0,0,.43,0l2-1.74a.37.37,0,0,1,.38-.07l2.62,1a.35.35,0,0,0,.41-.1l2.06-2.34a.36.36,0,0,0-.15-.59L26.7,84" style="fill:none;stroke:#0600ff;stroke-miterlimit:10;stroke-width:2px"/><line x1="29.39" y1="63.93" x2="33.66" y2="72.86" style="fill:none;stroke:#0600ff;stroke-miterlimit:10;stroke-width:2px"/><path d="M223.7,57.87,211.88,69a.37.37,0,0,0-.08.43l1.12,2.41a.37.37,0,0,1,0,.38l-1.7,2.24a.38.38,0,0,0,0,.43l1.68,2.62a.37.37,0,0,0,.61,0L224,63a.28.28,0,0,1,.1-.09" style="fill:none;stroke:#0600ff;stroke-miterlimit:10;stroke-width:2px"/><line x1="81.99" y1="135.94" x2="171.01" y2="135.94" style="fill:none;stroke:#0600ff;stroke-miterlimit:10;stroke-width:2px"/><line x1="81.99" y1="144.22" x2="171.01" y2="144.22" style="fill:none;stroke:#0600ff;stroke-miterlimit:10;stroke-width:2px"/><line x1="81.99" y1="152.51" x2="171.01" y2="152.51" style="fill:none;stroke:#0600ff;stroke-miterlimit:10;stroke-width:2px"/><line x1="81.99" y1="160.79" x2="171.01" y2="160.79" style="fill:none;stroke:#0600ff;stroke-miterlimit:10;stroke-width:2px"/><line x1="81.99" y1="169.07" x2="171.01" y2="169.07" style="fill:none;stroke:#0600ff;stroke-miterlimit:10;stroke-width:2px"/><line x1="81.99" y1="177.36" x2="171.01" y2="177.36" style="fill:none;stroke:#0600ff;stroke-miterlimit:10;stroke-width:2px"/><line x1="81.99" y1="185.64" x2="171.01" y2="185.64" style="fill:none;stroke:#0600ff;stroke-miterlimit:10;stroke-width:2px"/><line x1="26.7" y1="135.94" x2="48.1" y2="135.94" style="fill:none;stroke:#0600ff;stroke-miterlimit:10;stroke-width:2px"/><line x1="26.7" y1="144.22" x2="48.1" y2="144.22" style="fill:none;stroke:#0600ff;stroke-miterlimit:10;stroke-width:2px"/><line x1="26.7" y1="152.51" x2="48.1" y2="152.51" style="fill:none;stroke:#0600ff;stroke-miterlimit:10;stroke-width:2px"/><line x1="26.7" y1="160.79" x2="48.1" y2="160.79" style="fill:none;stroke:#0600ff;stroke-miterlimit:10;stroke-width:2px"/><line x1="26.7" y1="169.07" x2="48.1" y2="169.07" style="fill:none;stroke:#0600ff;stroke-miterlimit:10;stroke-width:2px"/><line x1="26.7" y1="177.36" x2="48.1" y2="177.36" style="fill:none;stroke:#0600ff;stroke-miterlimit:10;stroke-width:2px"/><line x1="26.7" y1="185.64" x2="48.1" y2="185.64" style="fill:none;stroke:#0600ff;stroke-miterlimit:10;stroke-width:2px"/><line x1="206.75" y1="135.94" x2="223.7" y2="135.94" style="fill:none;stroke:#0600ff;stroke-miterlimit:10;stroke-width:2px"/><line x1="206.75" y1="144.22" x2="223.7" y2="144.22" style="fill:none;stroke:#0600ff;stroke-miterlimit:10;stroke-width:2px"/><line x1="206.75" y1="152.51" x2="223.7" y2="152.51" style="fill:none;stroke:#0600ff;stroke-miterlimit:10;stroke-width:2px"/><line x1="206.75" y1="160.79" x2="223.7" y2="160.79" style="fill:none;stroke:#0600ff;stroke-miterlimit:10;stroke-width:2px"/><line x1="206.75" y1="169.07" x2="223.7" y2="169.07" style="fill:none;stroke:#0600ff;stroke-miterlimit:10;stroke-width:2px"/><line x1="206.75" y1="177.36" x2="223.7" y2="177.36" style="fill:none;stroke:#0600ff;stroke-miterlimit:10;stroke-width:2px"/><line x1="206.75" y1="185.64" x2="223.7" y2="185.64" style="fill:none;stroke:#0600ff;stroke-miterlimit:10;stroke-width:2px"/><path d="M84.22,123.21a16,16,0,0,1,10.83-5.59c-1.37,1.33-.24,3.91,1.58,4.48s3.78-.24,5.38-1.27,3.12-2.31,5-2.8a1.34,1.34,0,0,1,1.11.07c.63.44.23,1.4.21,2.16a2.69,2.69,0,0,0,2.6,2.45,7.93,7.93,0,0,0,3.77-1l7.67-3.43.48,4.87,5.78-4.67c1.13,1.39-.36,4,1.07,5.06,1,.77,2.41-.06,3.38-.86l7.11-5.86c1.36,1,.81,3.87,2.47,4s2.18-3.15,3.85-2.84a3.66,3.66,0,0,0,5.74,3.68c.62-.45,1.38-1.12,2-.69a2.22,2.22,0,0,1,.53.74c1.06,1.77,3.64,1.46,5.68,1.14a29.25,29.25,0,0,1,9.43,0" style="fill:none;stroke:#0600ff;stroke-miterlimit:10;stroke-width:2px"/><path d="M199.91,123.21a16.05,16.05,0,0,1,9.13-5.36.93.93,0,0,1,1.1,1,3.26,3.26,0,0,0,2.17,3.25c1.82.58,3.78-.24,5.38-1.27s3.12-2.31,5-2.8a1.34,1.34,0,0,1,1.11.07c.63.44.23,1.4.21,2.16" style="fill:none;stroke:#0600ff;stroke-miterlimit:10;stroke-width:2px"/><path d="M27.77,118a3.66,3.66,0,0,0,5.74,3.68c.62-.45,1.38-1.12,2-.69a2.22,2.22,0,0,1,.53.74c1.06,1.77,3.65,1.46,5.68,1.14a29.32,29.32,0,0,1,9.44.06" style="fill:none;stroke:#0600ff;stroke-miterlimit:10;stroke-width:2px"/></svg>