<svg id="Layer_1" data-name="Layer 1" xmlns="http://www.w3.org/2000/svg" viewBox="0 0 249.79 215.12"><title>MyPortfolioSiteSVGAssets</title><path d="M186.46,129.43l3.4,15a1.27,1.27,0,0,0,1.24,1H215a1.27,1.27,0,0,0,1.24-1l3.51-15m-33.26-58.8,3.4-15a1.27,1.27,0,0,1,1.24-1H215a1.27,1.27,0,0,1,1.24,1l3.51,15m8.86,13.58H231V94.5h-2.41m-41.17,27.68h32.51a3.32,3.32,0,0,0,3.31-3.32V81.21a3.32,3.32,0,0,0-3.31-3.33H187.41a3.32,3.32,0,0,0-3.31,3.33v37.65A3.32,3.32,0,0,0,187.41,122.18Zm-2.35,5.21h37.22a5.57,5.57,0,0,0,5.55-5.58V78.25a5.57,5.57,0,0,0-5.55-5.58H185.06a5.56,5.56,0,0,0-5.55,5.58v43.56A5.56,5.56,0,0,0,185.06,127.39Z" style="fill:none;stroke:#0600ff;stroke-miterlimit:10;stroke-width:2px"/><path d="M48.93,96.8V92.52a2.42,2.42,0,1,0-4.83,0V96.8a2.44,2.44,0,0,0,2.42,2.46h0A2.44,2.44,0,0,0,48.93,96.8Zm-9,6.73V132.3H33.56V106.64c0-21.25,9-23.81,11.94-23.81S52.87,86,52.87,94.72s-5.21,10.89-6.73,10.89-6.61-1.82-6.61-6.35m-2,48.55v-9.45m-1.67,9.45v-9.45m2.5-6.06v6.06H35.06V132.3M24.12,125v-9.44M22.45,125v-9.44m2.5-6.07v6.07H21.69v-6.07m1.75-37.83a1.38,1.38,0,0,1,1.36-1.4h3.11a1.4,1.4,0,0,1,0,2.79H24.8A1.37,1.37,0,0,1,23.44,71.69Zm3,10.62v27.21H20.3V77.13m1,1.78c-6.26-9.83.37-18.5,7.37-18.5,5.94,0,10.54,4.4,11.8,5.74a1.3,1.3,0,0,1,.35.87V76.1a1.23,1.23,0,0,1-.23.72c-7,10-16.66,4.52-16.66,4.52" style="fill:none;stroke:#0600ff;stroke-miterlimit:10;stroke-width:2px"/><path d="M92,186a15.26,15.26,0,0,1-15.18-15.3V44.39A15.26,15.26,0,0,1,92,29.09h49.46a15.26,15.26,0,0,1,15.18,15.3V170.73A15.26,15.26,0,0,1,141.41,186Z" style="fill:none;stroke:#0600ff;stroke-miterlimit:10;stroke-width:2px"/><path d="M140.58,35.66h-6.15V38a3.73,3.73,0,0,1-3.72,3.76H102A3.74,3.74,0,0,1,98.26,38V35.66H92.78a9.53,9.53,0,0,0-9.48,9.58V169.88a9.53,9.53,0,0,0,9.48,9.58h47.81a9.53,9.53,0,0,0,9.48-9.58V45.24A9.54,9.54,0,0,0,140.58,35.66Z" style="fill:none;stroke:#0600ff;stroke-miterlimit:10;stroke-width:2px"/><line x1="109.88" y1="35.66" x2="123.48" y2="35.66" style="fill:none;stroke:#0600ff;stroke-miterlimit:10;stroke-width:2px"/></svg>