<?xml version="1.0" encoding="utf-8"?>
<!-- Generator: Adobe Illustrator 22.1.0, SVG Export Plug-In . SVG Version: 6.00 Build 0)  -->
<svg version="1.1" id="Layer_1" xmlns="http://www.w3.org/2000/svg" xmlns:xlink="http://www.w3.org/1999/xlink" x="0px" y="0px"
	 viewBox="0 0 73.73 81.44" style="enable-background:new 0 0 73.73 81.44;" xml:space="preserve">
<style type="text/css">
	.st0{fill:none;stroke:#FFFFFF;stroke-width:2;stroke-miterlimit:10;}
	.st1{fill:none;stroke:#0600FF;stroke-width:2;stroke-miterlimit:10;}
	.st2{fill:none;stroke:#7F7F7F;stroke-width:2;stroke-miterlimit:10;}
	.st3{fill:#0600FF;}
	.st4{fill:none;stroke:#A7A9AC;stroke-miterlimit:10;}
	.st5{fill:none;stroke:#CFD1D4;stroke-width:0.8312;stroke-miterlimit:10;}
	.st6{fill:none;stroke:#CFD1D4;stroke-miterlimit:10;}
</style>
<g>
	<circle class="st1" cx="36.86" cy="44.57" r="35.86"/>
	<path class="st1" d="M28.28,9.59c0-4.74,3.84-8.59,8.59-8.59s8.59,3.84,8.59,8.59"/>
	<circle class="st1" cx="36.86" cy="44.57" r="28.41"/>
	<line class="st1" x1="36.86" y1="21.11" x2="36.86" y2="27.88"/>
	<line class="st1" x1="13.4" y1="44.57" x2="20.17" y2="44.57"/>
	<line class="st1" x1="36.86" y1="68.04" x2="36.86" y2="61.27"/>
	<line class="st1" x1="60.33" y1="44.57" x2="53.56" y2="44.57"/>
	<path class="st1" d="M23.29,58.37l16.95-10.42L50.66,31c0.08-0.15-0.08-0.31-0.23-0.23L33.48,41.19L23.06,58.15
		C22.98,58.29,23.14,58.45,23.29,58.37z"/>
	<line class="st1" x1="33.48" y1="41.19" x2="40.24" y2="47.95"/>
</g>
</svg>
