<svg id="Layer_1" data-name="Layer 1" xmlns="http://www.w3.org/2000/svg" viewBox="0 0 249.79 215.12"><title>MyPortfolioSiteSVGAssets</title><path d="M76.82,24.7,188,169.6a6.7,6.7,0,0,1,1.34,3.48l1.71,21a6.61,6.61,0,0,1-2.8,5.94l-17,11.85a6.59,6.59,0,0,1-7.57,0l-30.24-21.24a12.37,12.37,0,0,1-5.24-10.88l3.12-50.49L43.33,1.83,61.17,11.4A48.77,48.77,0,0,1,76.82,24.7Z" style="fill:none;stroke:#0600ff;stroke-miterlimit:10;stroke-width:2px"/><path d="M148.56,140.53l24.36,32.16a6.64,6.64,0,0,1,1.32,3.47l.94,12.09a6.58,6.58,0,0,1-2.76,5.88h0a6.59,6.59,0,0,1-7.84-.15L149.83,182.6a12.36,12.36,0,0,1-4.74-11.17Z" style="fill:none;stroke:#0600ff;stroke-miterlimit:10;stroke-width:2px"/><path d="M146.12,115.37l69.26,14.52a6.64,6.64,0,0,0,3.72-.3L238.81,122a6.6,6.6,0,0,0,4.15-5.09l3.33-20.44A6.58,6.58,0,0,0,243,89.68L210.76,71.62a12.32,12.32,0,0,0-12.07,0L154.53,96.27l-25.94-4.09" style="fill:none;stroke:#0600ff;stroke-miterlimit:10;stroke-width:2px"/><path d="M102.91,88.13,1.52,72.14,17.87,84.08a48.82,48.82,0,0,0,18.77,8.35l80.55,16.88" style="fill:none;stroke:#0600ff;stroke-miterlimit:10;stroke-width:2px"/><path d="M172.11,106.93l39.53,8a6.66,6.66,0,0,0,3.7-.31l11.3-4.39a6.58,6.58,0,0,0,4.12-5h0a6.61,6.61,0,0,0-3.54-7l-16.64-8.37a12.38,12.38,0,0,0-12.13.57Z" style="fill:none;stroke:#0600ff;stroke-miterlimit:10;stroke-width:2px"/><circle cx="121.85" cy="99.78" r="4.88" style="fill:none;stroke:#0600ff;stroke-miterlimit:10;stroke-width:2px"/><line x1="72.13" y1="43.59" x2="78.69" y2="38.72" style="fill:none;stroke:#0600ff;stroke-miterlimit:10;stroke-width:2px"/><line x1="78.58" y1="52.97" x2="85.14" y2="48.1" style="fill:none;stroke:#0600ff;stroke-miterlimit:10;stroke-width:2px"/><line x1="85.02" y1="62.34" x2="91.58" y2="57.47" style="fill:none;stroke:#0600ff;stroke-miterlimit:10;stroke-width:2px"/><line x1="91.47" y1="71.72" x2="98.02" y2="66.85" style="fill:none;stroke:#0600ff;stroke-miterlimit:10;stroke-width:2px"/></svg>