<svg id="Layer_1" data-name="Layer 1" xmlns="http://www.w3.org/2000/svg" viewBox="0 0 33.27 21.84"><title>MyPortfolioSiteSVGAssets</title><path d="M1.65,10.86c0-6.72,2.46-9.57,6.9-9.57s6.9,2.85,6.9,9.57S13,20.4,8.55,20.4,1.65,17.55,1.65,10.86Zm6.9-7.44c-1.41,0-1.74,2.07-1.74,7.44s.33,7.41,1.74,7.41,1.74-2.07,1.74-7.41S10,3.42,8.55,3.42Z" style="fill:#0600ff"/><path d="M31.35,20.16H18.6l-.39-1.71,5.07-5.37c1.89-2,2.52-3.24,2.52-5a2.59,2.59,0,0,0-2.88-2.91,5.15,5.15,0,0,0-3.66,1.56l-.81-.84,2.91-3.81a8.34,8.34,0,0,1,3.57-.78c3.54,0,5.61,1.77,5.61,4.92,0,2.61-1,4.29-3.21,6.15l-4.71,3.93h6.21l.57-2.76h1.35Z" style="fill:#0600ff"/></svg>