<svg id="Layer_1" data-name="Layer 1" xmlns="http://www.w3.org/2000/svg" viewBox="0 0 249.79 215.12"><title>MyPortfolioSiteSVGAssets</title><rect x="101.32" y="26.81" width="47.16" height="35.43" style="fill:none;stroke:#0600ff;stroke-miterlimit:10;stroke-width:2px"/><rect x="35.06" y="82.77" width="47.16" height="35.43" style="fill:none;stroke:#0600ff;stroke-miterlimit:10;stroke-width:2px"/><rect x="101.32" y="82.77" width="47.16" height="35.43" style="fill:none;stroke:#0600ff;stroke-miterlimit:10;stroke-width:2px"/><rect x="167.57" y="82.77" width="47.16" height="35.43" style="fill:none;stroke:#0600ff;stroke-miterlimit:10;stroke-width:2px"/><rect x="1.94" y="138.62" width="47.16" height="35.43" style="fill:none;stroke:#0600ff;stroke-miterlimit:10;stroke-width:2px"/><rect x="68.19" y="138.62" width="47.16" height="35.43" style="fill:none;stroke:#0600ff;stroke-miterlimit:10;stroke-width:2px"/><rect x="134.44" y="138.62" width="47.16" height="35.43" style="fill:none;stroke:#0600ff;stroke-miterlimit:10;stroke-width:2px"/><rect x="200.69" y="138.62" width="47.16" height="35.43" style="fill:none;stroke:#0600ff;stroke-miterlimit:10;stroke-width:2px"/><line x1="124.9" y1="62.25" x2="124.9" y2="82.77" style="fill:none;stroke:#0600ff;stroke-miterlimit:10;stroke-width:2px"/><line x1="58.65" y1="118.2" x2="25.52" y2="138.62" style="fill:none;stroke:#0600ff;stroke-miterlimit:10;stroke-width:2px"/><line x1="124.9" y1="118.2" x2="158.02" y2="138.62" style="fill:none;stroke:#0600ff;stroke-miterlimit:10;stroke-width:2px"/><line x1="191.15" y1="118.2" x2="224.27" y2="138.62" style="fill:none;stroke:#0600ff;stroke-miterlimit:10;stroke-width:2px"/><line x1="58.65" y1="118.2" x2="91.77" y2="138.62" style="fill:none;stroke:#0600ff;stroke-miterlimit:10;stroke-width:2px"/><line x1="124.9" y1="62.25" x2="58.65" y2="82.77" style="fill:none;stroke:#0600ff;stroke-miterlimit:10;stroke-width:2px"/><line x1="191.15" y1="82.77" x2="124.9" y2="62.25" style="fill:none;stroke:#0600ff;stroke-miterlimit:10;stroke-width:2px"/><line x1="148.48" y1="100.48" x2="167.57" y2="100.48" style="fill:none;stroke:#0600ff;stroke-miterlimit:10;stroke-width:2px"/><line x1="111.75" y1="41.58" x2="138.04" y2="41.58" style="fill:none;stroke:#0600ff;stroke-miterlimit:10;stroke-width:2px"/><line x1="111.75" y1="97.53" x2="138.04" y2="97.53" style="fill:none;stroke:#0600ff;stroke-miterlimit:10;stroke-width:2px"/><line x1="45.5" y1="97.53" x2="71.79" y2="97.53" style="fill:none;stroke:#0600ff;stroke-miterlimit:10;stroke-width:2px"/><line x1="178" y1="97.53" x2="204.3" y2="97.53" style="fill:none;stroke:#0600ff;stroke-miterlimit:10;stroke-width:2px"/><line x1="144.88" y1="153.38" x2="171.17" y2="153.38" style="fill:none;stroke:#0600ff;stroke-miterlimit:10;stroke-width:2px"/><line x1="78.62" y1="153.38" x2="104.92" y2="153.38" style="fill:none;stroke:#0600ff;stroke-miterlimit:10;stroke-width:2px"/><line x1="12.37" y1="153.38" x2="38.67" y2="153.38" style="fill:none;stroke:#0600ff;stroke-miterlimit:10;stroke-width:2px"/><line x1="211.13" y1="153.38" x2="237.42" y2="153.38" style="fill:none;stroke:#0600ff;stroke-miterlimit:10;stroke-width:2px"/><line x1="111.75" y1="47.44" x2="138.04" y2="47.44" style="fill:none;stroke:#0600ff;stroke-miterlimit:10;stroke-width:2px"/><line x1="111.75" y1="103.4" x2="138.04" y2="103.4" style="fill:none;stroke:#0600ff;stroke-miterlimit:10;stroke-width:2px"/><line x1="45.5" y1="103.4" x2="71.79" y2="103.4" style="fill:none;stroke:#0600ff;stroke-miterlimit:10;stroke-width:2px"/><line x1="178" y1="103.4" x2="204.3" y2="103.4" style="fill:none;stroke:#0600ff;stroke-miterlimit:10;stroke-width:2px"/><line x1="144.88" y1="159.25" x2="171.17" y2="159.25" style="fill:none;stroke:#0600ff;stroke-miterlimit:10;stroke-width:2px"/><line x1="78.62" y1="159.25" x2="104.92" y2="159.25" style="fill:none;stroke:#0600ff;stroke-miterlimit:10;stroke-width:2px"/><line x1="12.37" y1="159.25" x2="38.67" y2="159.25" style="fill:none;stroke:#0600ff;stroke-miterlimit:10;stroke-width:2px"/><line x1="211.13" y1="159.25" x2="237.42" y2="159.25" style="fill:none;stroke:#0600ff;stroke-miterlimit:10;stroke-width:2px"/></svg>