<svg id="Layer_1" data-name="Layer 1" xmlns="http://www.w3.org/2000/svg" viewBox="0 0 249.79 215.12"><title>MyPortfolioSiteSVGAssets</title><rect x="53.57" y="59.58" width="58.52" height="104.29" style="fill:none;stroke:#0600ff;stroke-miterlimit:10;stroke-width:2px"/><rect x="13.51" y="29.01" width="140.74" height="160.58" style="fill:none;stroke:#0600ff;stroke-miterlimit:10;stroke-width:2px"/><line x1="27.17" y1="21.36" x2="27.17" y2="36.01" style="fill:none;stroke:#0600ff;stroke-miterlimit:10;stroke-width:2px"/><line x1="44.97" y1="21.36" x2="44.97" y2="36.01" style="fill:none;stroke:#0600ff;stroke-miterlimit:10;stroke-width:2px"/><line x1="62.77" y1="21.36" x2="62.77" y2="36.01" style="fill:none;stroke:#0600ff;stroke-miterlimit:10;stroke-width:2px"/><line x1="80.57" y1="21.36" x2="80.57" y2="36.01" style="fill:none;stroke:#0600ff;stroke-miterlimit:10;stroke-width:2px"/><line x1="98.36" y1="21.36" x2="98.36" y2="36.01" style="fill:none;stroke:#0600ff;stroke-miterlimit:10;stroke-width:2px"/><line x1="116.16" y1="21.36" x2="116.16" y2="36.01" style="fill:none;stroke:#0600ff;stroke-miterlimit:10;stroke-width:2px"/><line x1="133.96" y1="21.36" x2="133.96" y2="36.01" style="fill:none;stroke:#0600ff;stroke-miterlimit:10;stroke-width:2px"/><rect x="62.67" y="68.67" width="27.17" height="30.3" style="fill:none;stroke:#0600ff;stroke-miterlimit:10;stroke-width:2px"/><line x1="94.53" y1="73.22" x2="103" y2="73.22" style="fill:none;stroke:#0600ff;stroke-miterlimit:10;stroke-width:2px"/><line x1="94.53" y1="77.59" x2="103" y2="77.59" style="fill:none;stroke:#0600ff;stroke-miterlimit:10;stroke-width:2px"/><line x1="94.53" y1="89.41" x2="103" y2="89.41" style="fill:none;stroke:#0600ff;stroke-miterlimit:10;stroke-width:2px"/><line x1="62.97" y1="123.9" x2="102.5" y2="123.9" style="fill:none;stroke:#0600ff;stroke-miterlimit:10;stroke-width:2px"/><line x1="62.97" y1="129.02" x2="102.5" y2="129.02" style="fill:none;stroke:#0600ff;stroke-miterlimit:10;stroke-width:2px"/><line x1="62.97" y1="134.14" x2="102.5" y2="134.14" style="fill:none;stroke:#0600ff;stroke-miterlimit:10;stroke-width:2px"/><line x1="62.97" y1="139.26" x2="102.5" y2="139.26" style="fill:none;stroke:#0600ff;stroke-miterlimit:10;stroke-width:2px"/><line x1="62.97" y1="144.38" x2="102.5" y2="144.38" style="fill:none;stroke:#0600ff;stroke-miterlimit:10;stroke-width:2px"/><line x1="62.97" y1="149.49" x2="102.5" y2="149.49" style="fill:none;stroke:#0600ff;stroke-miterlimit:10;stroke-width:2px"/><line x1="62.97" y1="154.61" x2="102.5" y2="154.61" style="fill:none;stroke:#0600ff;stroke-miterlimit:10;stroke-width:2px"/><circle cx="68.18" cy="111.44" r="4.79" style="fill:none;stroke:#0600ff;stroke-miterlimit:10;stroke-width:2px"/><line x1="71.57" y1="108.05" x2="64.79" y2="114.83" style="fill:none;stroke:#0600ff;stroke-miterlimit:10;stroke-width:2px"/><line x1="71.57" y1="114.83" x2="64.79" y2="108.05" style="fill:none;stroke:#0600ff;stroke-miterlimit:10;stroke-width:2px"/><circle cx="83.2" cy="111.44" r="4.79" style="fill:none;stroke:#0600ff;stroke-miterlimit:10;stroke-width:2px"/><line x1="86.59" y1="108.05" x2="79.81" y2="114.83" style="fill:none;stroke:#0600ff;stroke-miterlimit:10;stroke-width:2px"/><line x1="86.59" y1="114.83" x2="79.81" y2="108.05" style="fill:none;stroke:#0600ff;stroke-miterlimit:10;stroke-width:2px"/><circle cx="98.21" cy="111.44" r="4.79" style="fill:none;stroke:#0600ff;stroke-miterlimit:10;stroke-width:2px"/><line x1="101.6" y1="108.05" x2="94.82" y2="114.83" style="fill:none;stroke:#0600ff;stroke-miterlimit:10;stroke-width:2px"/><line x1="101.6" y1="114.83" x2="94.82" y2="108.05" style="fill:none;stroke:#0600ff;stroke-miterlimit:10;stroke-width:2px"/><rect x="228.08" y="59.81" width="8.2" height="108.37" style="fill:none;stroke:#0600ff;stroke-miterlimit:10;stroke-width:2px"/><polyline points="228.08 59.81 232.18 48.08 236.28 59.81" style="fill:none;stroke:#0600ff;stroke-miterlimit:10;stroke-width:2px"/><polyline points="228.08 168.18 228.08 175.14 236.28 175.14 236.28 168.18" style="fill:none;stroke:#0600ff;stroke-miterlimit:10;stroke-width:2px"/><rect x="181.19" y="89.41" width="22.46" height="39.62" style="fill:none;stroke:#0600ff;stroke-miterlimit:10;stroke-width:2px"/><line x1="181.19" y1="99.74" x2="203.66" y2="99.74" style="fill:none;stroke:#0600ff;stroke-miterlimit:10;stroke-width:2px"/><line x1="89.83" y1="68.67" x2="62.67" y2="98.98" style="fill:none;stroke:#0600ff;stroke-miterlimit:10;stroke-width:2px"/><line x1="62.67" y1="68.67" x2="89.83" y2="98.98" style="fill:none;stroke:#0600ff;stroke-miterlimit:10;stroke-width:2px"/></svg>