<?xml version="1.0" encoding="utf-8"?>
<!-- Generator: Adobe Illustrator 22.1.0, SVG Export Plug-In . SVG Version: 6.00 Build 0)  -->
<svg version="1.1" id="Layer_1" xmlns="http://www.w3.org/2000/svg" xmlns:xlink="http://www.w3.org/1999/xlink" x="0px" y="0px"
	 viewBox="0 0 147.01 171.81" style="enable-background:new 0 0 147.01 171.81;" xml:space="preserve">
<style type="text/css">
	.st0{fill:none;stroke:#FFFFFF;stroke-width:2;stroke-miterlimit:10;}
	.st1{fill:none;stroke:#0600FF;stroke-width:2;stroke-miterlimit:10;}
	.st2{fill:none;stroke:#7F7F7F;stroke-width:2;stroke-miterlimit:10;}
	.st3{fill:#0600FF;}
	.st4{fill:none;stroke:#A7A9AC;stroke-miterlimit:10;}
	.st5{fill:none;stroke:#CFD1D4;stroke-width:0.8312;stroke-miterlimit:10;}
	.st6{fill:none;stroke:#CFD1D4;stroke-miterlimit:10;}
</style>
<path class="st1" d="M48.99,108.32c-7.68,10.35-18.32,18.48-30.33,23.16c-2.51,0.98-5.25,1.82-7.87,1.19
	c-5.24-1.27-7.36-7.48-8.24-12.8C-2.1,91.7,3.82,61.89,19.03,37.7c1.82-2.9,4.93-4.86,8.35-4.96c6.06-0.18,8.29,5.26,9.76,10.03
	c12.54,40.9,15.46,84.71,8.48,126.92c-0.16,0.98-1.31,1.44-2.11,0.86c-4.84-3.55-5.95-10.9-6.3-17.18
	c-2.38-42.19-1.42-87.1,21.56-122.74c0.83-1.29,2.19-2.21,3.72-2.35c2.9-0.27,3.96,2.04,4.72,4.12c6.87,18.81,8.85,39.38,5.74,59.16
	c-0.17,1.07-1.74,1.02-1.83-0.06c-2.55-30.52,2.67-61.66,15-89.7c0.66-1.5,2.93-0.71,2.51,0.88c-4.36,16.28-12.1,31.65-19.76,46.76
	c12.96,5.13,28.69-7.45,40.91-0.75c10.6,5.81,9.96,21.22,6.37,32.76c-3.3,10.61-8.28,21.42-19.24,26.12
	c-5.51,2.37-11.93,2.01-16.82-1.46c-9.98-7.08-7.33-21.62-2.26-32.2c13.45-28.06,39.1-50.01,68.9-58.97"/>
</svg>
