<?xml version="1.0" encoding="utf-8"?>
<!-- Generator: Adobe Illustrator 22.1.0, SVG Export Plug-In . SVG Version: 6.00 Build 0)  -->
<svg version="1.1" id="Layer_1" xmlns="http://www.w3.org/2000/svg" xmlns:xlink="http://www.w3.org/1999/xlink" x="0px" y="0px"
	 viewBox="0 0 105.18 71.06" style="enable-background:new 0 0 105.18 71.06;" xml:space="preserve">
<style type="text/css">
	.st0{fill:none;stroke:#FFFFFF;stroke-width:2;stroke-miterlimit:10;}
	.st1{fill:none;stroke:#0600FF;stroke-width:2;stroke-miterlimit:10;}
	.st2{fill:none;stroke:#7F7F7F;stroke-width:2;stroke-miterlimit:10;}
	.st3{fill:#0600FF;}
	.st4{fill:none;stroke:#A7A9AC;stroke-miterlimit:10;}
	.st5{fill:none;stroke:#CFD1D4;stroke-width:0.8312;stroke-miterlimit:10;}
	.st6{fill:none;stroke:#CFD1D4;stroke-miterlimit:10;}
</style>
<g>
	<path class="st1" d="M11,70.06h22.4c0.98,0,1.93-0.26,2.77-0.75L71.2,48.77c1.01-0.59,1.35-1.89,0.77-2.91L60.53,26.12
		c-0.12-0.21-0.39-0.3-0.61-0.2c-6.95,3.07-1.63,7.37-8.08,10.8c-6.14,3.27-10.85,0.12-14.63-3.72c-0.43-0.44-1.14-0.42-1.55,0.04
		l-16,18.01c0,0-5.31,1.54-14.53,4.33C-4.09,58.18,4.02,70.06,11,70.06z"/>
	<path class="st1" d="M65.83,35.27c-8.45,4.91-4.96,11.44-4.96,11.44L32.8,63.35H9.03c0,0-5.6-0.62-5.56-7.26"/>
	<path class="st1" d="M19.66,51.05c0,0,9.75,11.73,24.91,5.32"/>
	<line class="st1" x1="32.4" y1="36.71" x2="37.59" y2="41.38"/>
	<line class="st1" x1="29.45" y1="40.03" x2="33.97" y2="44.17"/>
	<line class="st1" x1="26.04" y1="43.88" x2="29.25" y2="46.83"/>
	<line class="st1" x1="50.02" y1="12.92" x2="43.59" y2="1.35"/>
	<line class="st1" x1="33.74" y1="22.11" x2="18.68" y2="1.35"/>
	<path class="st1" d="M57.61,24.2l-4.7-9.8c-0.53-1.09-1.86-1.51-2.92-0.94L34.2,22.02c-1.07,0.58-1.44,1.95-0.8,2.99l2.26,3.17"/>
	<line class="st1" x1="71.75" y1="28.09" x2="105.18" y2="28.09"/>
	<line class="st1" x1="76.51" y1="36.53" x2="98.96" y2="36.53"/>
	<line class="st1" x1="56.12" y1="1" x2="73.01" y2="1"/>
	<line class="st1" x1="60.64" y1="9.64" x2="84.26" y2="9.64"/>
</g>
</svg>
