<svg id="Layer_1" data-name="Layer 1" xmlns="http://www.w3.org/2000/svg" viewBox="0 0 29.58 19.11"><title>MyPortfolioSiteSVGAssets</title><path d="M0,9.57C0,2.85,2.46,0,6.9,0s6.9,2.85,6.9,9.57-2.49,9.54-6.9,9.54S0,16.26,0,9.57ZM6.9,2.13c-1.41,0-1.74,2.07-1.74,7.44S5.49,17,6.9,17s1.74-2.07,1.74-7.41S8.31,2.13,6.9,2.13Z" style="fill:#0600ff"/><path d="M22.17,17c1.71,0,2.58-1.23,2.58-3.48,0-2-.9-3.15-2.85-3.15a7.46,7.46,0,0,0-2.94.75,1.66,1.66,0,0,1-1.17-1.14,63.72,63.72,0,0,0,1-9.57H29.31l-.6,4.35H20.55A38.22,38.22,0,0,1,19.77,9l3.75-1.8c3.9,0,6.06,1.35,6.06,5.55s-2.79,6.39-8.34,6.39a7.86,7.86,0,0,1-4-1,4.18,4.18,0,0,1-.54-2.07c0-1.2.78-2.07,2.37-2.07C19.65,16.05,20.61,17,22.17,17Z" style="fill:#0600ff"/></svg>