<svg id="Layer_1" data-name="Layer 1" xmlns="http://www.w3.org/2000/svg" viewBox="0 0 249.79 215.12"><title>MyPortfolioSiteSVGAssets</title><path d="M221.88,117.09v9.22l-1.78,10.22a14.08,14.08,0,0,1-5.49,8.89l-11.07,7.44a6.24,6.24,0,0,1-3.7,1.22h-4.45a6.24,6.24,0,0,1-3.7-1.22l-11.06-7.44a14,14,0,0,1-5.5-8.89l-1.78-10.22V115.76" style="fill:none;stroke:#0600ff;stroke-miterlimit:10;stroke-width:2px"/><path d="M186.47,137.58a13.7,13.7,0,0,0,22.3,0Z" style="fill:none;stroke:#0600ff;stroke-miterlimit:10;stroke-width:2px"/><polyline points="215.35 112.52 211.87 110.02 205.13 110.02 202.96 112.52" style="fill:none;stroke:#0600ff;stroke-miterlimit:10;stroke-width:2px"/><circle cx="208.84" cy="112.31" r="2.13" style="fill:none;stroke:#0600ff;stroke-miterlimit:10;stroke-width:2px"/><polyline points="192.28 112.52 190.1 110.02 183.36 110.02 179.89 112.52" style="fill:none;stroke:#0600ff;stroke-miterlimit:10;stroke-width:2px"/><circle cx="186.4" cy="112.31" r="2.13" style="fill:none;stroke:#0600ff;stroke-miterlimit:10;stroke-width:2px"/><path d="M191.65,129a4.07,4.07,0,0,1,3.08-3.08s0-1.14,1-8.06" style="fill:none;stroke:#0600ff;stroke-miterlimit:10;stroke-width:2px"/><line x1="194.73" y1="129.58" x2="196.74" y2="129.58" style="fill:none;stroke:#0600ff;stroke-miterlimit:10;stroke-width:2px"/><line x1="199.51" y1="129.58" x2="201.52" y2="129.58" style="fill:none;stroke:#0600ff;stroke-miterlimit:10;stroke-width:2px"/><path d="M173.38,117.09s3.58-1.66,3.07-15.22,1-13.05,2.81-12.28,18.68,17.39,40.17,9c0,0-1.28,17.9,2.81,18.55l1.95-8s1.63-12.88,2.14-18.76S211.5,73,207.66,70.4s-33.77,0-31,13.56c0,0-10.48,2.3-7.16,12.28s2.05,14.21,2.05,14.21Z" style="fill:none;stroke:#0600ff;stroke-miterlimit:10;stroke-width:2px"/><path d="M172,110.45c-1-1.66-5-3.82-5,1.41s3.72,18.45,6.35,11.73" style="fill:none;stroke:#0600ff;stroke-miterlimit:10;stroke-width:2px"/><path d="M222,123.59c2.63,6.72,6.35-6.51,6.35-11.74s-2.6-4.69-3.78-2.73" style="fill:none;stroke:#0600ff;stroke-miterlimit:10;stroke-width:2px"/><polyline points="216.57 108.32 211.93 105.66 202.96 105.66" style="fill:none;stroke:#0600ff;stroke-miterlimit:10;stroke-width:2px"/><polyline points="191.94 105.66 182.97 105.66 178.33 108.32" style="fill:none;stroke:#0600ff;stroke-miterlimit:10;stroke-width:2px"/><path d="M146.87,164.3l-1.48-1.07a6.86,6.86,0,0,0-4-1.29h-1a6.87,6.87,0,0,0-5.18,2.36h0" style="fill:none;stroke:#0600ff;stroke-miterlimit:10;stroke-width:2px"/><circle cx="140.73" cy="163.81" r="2.01" style="fill:none;stroke:#0600ff;stroke-miterlimit:10;stroke-width:2px"/><path d="M124.52,164.3h0a6.85,6.85,0,0,0-5.18-2.36h-1a6.86,6.86,0,0,0-4,1.29l-1.48,1.07" style="fill:none;stroke:#0600ff;stroke-miterlimit:10;stroke-width:2px"/><circle cx="118.98" cy="163.81" r="2.01" style="fill:none;stroke:#0600ff;stroke-miterlimit:10;stroke-width:2px"/><path d="M103,163.6c-1-1.08-5.05-2.47-5.05.91s3.73,12,6.36,7.6" style="fill:none;stroke:#0600ff;stroke-miterlimit:10;stroke-width:2px"/><path d="M153.06,172.11c2.63,4.36,6.36-4.22,6.36-7.6s-2.6-3-3.78-1.77" style="fill:none;stroke:#0600ff;stroke-miterlimit:10;stroke-width:2px"/><path d="M104.78,171.19c0,8.37,6.11,29.34,24.2,29.34,16.53,0,24.2-21,24.2-29.34" style="fill:none;stroke:#0600ff;stroke-miterlimit:10;stroke-width:2px"/><path d="M125.42,175.66a4,4,0,0,0,7.86,0" style="fill:none;stroke:#0600ff;stroke-miterlimit:10;stroke-width:2px"/><path d="M148.46,160.54l-.46-.27a18,18,0,0,0-9-2.39h-4.18" style="fill:none;stroke:#0600ff;stroke-miterlimit:10;stroke-width:2px"/><path d="M123.84,157.88h-4.17a18,18,0,0,0-9,2.39l-.47.26" style="fill:none;stroke:#0600ff;stroke-miterlimit:10;stroke-width:2px"/><path d="M73.54,118.72l-1.48-1.06a6.86,6.86,0,0,0-4-1.29H67a6.87,6.87,0,0,0-5.17,2.35h0" style="fill:none;stroke:#0600ff;stroke-miterlimit:10;stroke-width:2px"/><circle cx="67.4" cy="118.24" r="2.01" style="fill:none;stroke:#0600ff;stroke-miterlimit:10;stroke-width:2px"/><path d="M51.19,118.72h0A6.89,6.89,0,0,0,46,116.37H45a6.86,6.86,0,0,0-4,1.29l-1.48,1.06" style="fill:none;stroke:#0600ff;stroke-miterlimit:10;stroke-width:2px"/><circle cx="45.65" cy="118.24" r="2.01" style="fill:none;stroke:#0600ff;stroke-miterlimit:10;stroke-width:2px"/><path d="M32,129.28C34.33,138.9,44.51,155,55.65,155S77.14,138.62,79.39,129" style="fill:none;stroke:#0600ff;stroke-miterlimit:10;stroke-width:2px"/><path d="M75.13,115l-.46-.27a18.11,18.11,0,0,0-9-2.39H61.52" style="fill:none;stroke:#0600ff;stroke-miterlimit:10;stroke-width:2px"/><path d="M50.51,112.3H46.34a18.08,18.08,0,0,0-9,2.39l-.47.27" style="fill:none;stroke:#0600ff;stroke-miterlimit:10;stroke-width:2px"/><path d="M84.54,110.8v-3.9a29,29,0,1,0-57.93-.36v4.18" style="fill:none;stroke:#0600ff;stroke-miterlimit:10;stroke-width:2px"/><path d="M81.9,113.82c-6.81.25-25.32-.56-38.26-15.31,0,0-3.16,13.09-14.15,15.09" style="fill:none;stroke:#0600ff;stroke-miterlimit:10;stroke-width:2px"/><path d="M156.72,56.7c2.63,6.72,6.35-2.09,6.35-7.31s-4.07-4.69-5.25-2.73" style="fill:none;stroke:#0600ff;stroke-miterlimit:10;stroke-width:2px"/><path d="M100,46.66c-1.18-2-5.25-2.49-5.25,2.73s3.72,14,6.35,7.31" style="fill:none;stroke:#0600ff;stroke-miterlimit:10;stroke-width:2px"/><path d="M124.93,58.22a4,4,0,0,0,7.86,0" style="fill:none;stroke:#0600ff;stroke-miterlimit:10;stroke-width:2px"/><path d="M121.43,70.31a8.37,8.37,0,0,0,14.75,0" style="fill:none;stroke:#0600ff;stroke-miterlimit:10;stroke-width:2px"/><path d="M121.43,186.13a8.37,8.37,0,0,0,14.75,0" style="fill:none;stroke:#0600ff;stroke-miterlimit:10;stroke-width:2px"/><path d="M48.33,140.29a8.36,8.36,0,0,0,14.75,0Z" style="fill:none;stroke:#0600ff;stroke-miterlimit:10;stroke-width:2px"/><path d="M128.8,91.61h7c1.54,0,12.7-11.28,12.7-11.28A16.33,16.33,0,0,0,154.86,70l2.07-14L142.09,70.82l-1.31-6.64h-12" style="fill:none;stroke:#0600ff;stroke-miterlimit:10;stroke-width:2px"/><path d="M128.81,64.17h-12l-1.31,6.64L100.68,56l2.06,14a16.3,16.3,0,0,0,6.37,10.3s11.15,11.28,12.7,11.28h7" style="fill:none;stroke:#0600ff;stroke-miterlimit:10;stroke-width:2px"/><path d="M128.83,50.15l0,0,6,6.06a2.64,2.64,0,0,0,2.34.75l19-3.43a1.67,1.67,0,0,0,1.39-1.65V36a2.17,2.17,0,0,0-1.68-2.12l-6.09-1.43a91.77,91.77,0,0,0-42,0l-5.27,1.24c-1.81.42-2.5,1.3-2.5,2.31V51.9a1.68,1.68,0,0,0,1.39,1.66l19,3.43a2.64,2.64,0,0,0,2.34-.75l6-6.06Z" style="fill:none;stroke:#0600ff;stroke-miterlimit:10;stroke-width:2px"/><path d="M135.68,53.64a2.65,2.65,0,0,0,2.34.75l15.73-2.83a1.69,1.69,0,0,0,1.39-1.66V38.05a2.18,2.18,0,0,0-1.68-2.12l-3.62-.85a91.77,91.77,0,0,0-42,0l-3.62.85a2.18,2.18,0,0,0-1.68,2.12V49.9a1.68,1.68,0,0,0,1.39,1.66l15.73,2.83a2.65,2.65,0,0,0,2.34-.75l5-5.12,0-.06a2.49,2.49,0,0,1,3.5,0h0Z" style="fill:none;stroke:#0600ff;stroke-miterlimit:10;stroke-width:2px"/><line x1="111.06" y1="47.24" x2="119.24" y2="39.05" style="fill:none;stroke:#0600ff;stroke-miterlimit:10;stroke-width:2px"/><line x1="116.54" y1="47.05" x2="119.9" y2="43.69" style="fill:none;stroke:#0600ff;stroke-miterlimit:10;stroke-width:2px"/><path d="M156.9,34.12a28.7,28.7,0,0,0-56.19.11" style="fill:none;stroke:#0600ff;stroke-miterlimit:10;stroke-width:2px"/><path d="M49.73,133a4,4,0,0,1,3.08-3.08s0-1.14,1-8.06" style="fill:none;stroke:#0600ff;stroke-miterlimit:10;stroke-width:2px"/><line x1="52.82" y1="133.61" x2="54.82" y2="133.61" style="fill:none;stroke:#0600ff;stroke-miterlimit:10;stroke-width:2px"/><line x1="57.6" y1="133.61" x2="59.6" y2="133.61" style="fill:none;stroke:#0600ff;stroke-miterlimit:10;stroke-width:2px"/><path d="M32.24,126.86,29.5,113.65A3.79,3.79,0,0,0,25,110.71h0a6.26,6.26,0,0,0-4.86,7.41l1.74,8.36a6.26,6.26,0,0,0,7.41,4.86h0A3.78,3.78,0,0,0,32.24,126.86Z" style="fill:none;stroke:#0600ff;stroke-miterlimit:10;stroke-width:2px"/><path d="M82.14,131.34h0a6.26,6.26,0,0,0,7.41-4.86l1.74-8.36a6.27,6.27,0,0,0-4.87-7.41h0a3.79,3.79,0,0,0-4.48,2.94L79.2,126.86A3.78,3.78,0,0,0,82.14,131.34Z" style="fill:none;stroke:#0600ff;stroke-miterlimit:10;stroke-width:2px"/><path d="M87.89,111.21v-5.1c0-17.78-14.22-32.52-32-32.65a32.26,32.26,0,0,0-32.5,32.25v5.58" style="fill:none;stroke:#0600ff;stroke-miterlimit:10;stroke-width:2px"/><path d="M159,149a30.42,30.42,0,1,0-60.84-.38" style="fill:none;stroke:#0600ff;stroke-miterlimit:10;stroke-width:2px"/><path d="M159,148.65s-8.35-5.89-30.42-5.89c-22.51,0-30.42,5.89-30.42,5.89v9.23s8.62-5.9,30.42-5.9c21.08,0,30.42,5.9,30.42,5.9Z" style="fill:none;stroke:#0600ff;stroke-miterlimit:10;stroke-width:2px"/><circle cx="128.6" cy="110.45" r="7.8" style="fill:none;stroke:#0600ff;stroke-miterlimit:10;stroke-width:2px"/><path d="M79.85,90.93c5.22.61,4-3.32,7.63,1.47A11.85,11.85,0,0,0,67.25,80.05" style="fill:none;stroke:#0600ff;stroke-miterlimit:10;stroke-width:2px"/><path d="M127.26,152a19.68,19.68,0,0,1-7,1.85c-17,1.45-18.56,8.64-18.56,8.64" style="fill:none;stroke:#0600ff;stroke-miterlimit:10;stroke-width:2px"/><path d="M142.85,153.08a24.28,24.28,0,0,0,13.65,8.49" style="fill:none;stroke:#0600ff;stroke-miterlimit:10;stroke-width:2px"/><path d="M144.77,192.45l4.87,5,5.44-8.16a25.25,25.25,0,0,0,4.17-13.91L159,157.88" style="fill:none;stroke:#0600ff;stroke-miterlimit:10;stroke-width:2px"/><path d="M98.17,157.88l-.24,21.33a24.81,24.81,0,0,0,6.23,16.44l10.76,12.17,8.33-8.09" style="fill:none;stroke:#0600ff;stroke-miterlimit:10;stroke-width:2px"/></svg>