<svg id="Layer_1" data-name="Layer 1" xmlns="http://www.w3.org/2000/svg" viewBox="0 0 29.76 19.11"><title>MyPortfolioSiteSVGAssets</title><path d="M0,9.57C0,2.85,2.46,0,6.9,0s6.9,2.85,6.9,9.57-2.49,9.54-6.9,9.54S0,16.26,0,9.57ZM6.9,2.13c-1.41,0-1.74,2.07-1.74,7.44S5.49,17,6.9,17s1.74-2.07,1.74-7.41S8.31,2.13,6.9,2.13Z" style="fill:#0600ff"/><path d="M20.4,9.18a2.09,2.09,0,0,1,.24-1c.33,0,.57,0,.81,0A2.29,2.29,0,0,0,24,5.61,2.25,2.25,0,0,0,21.6,3.33a4.46,4.46,0,0,0-3.42,1.56l-.9-1,3-3.39a7.45,7.45,0,0,1,3-.54c3.63,0,5.46,1.74,5.46,4.08s-1.38,4.17-4.62,4.68v.06c3.78.09,5.67,1.47,5.67,4.29,0,3.66-3.21,6-8.67,6a7.51,7.51,0,0,1-4.08-1A4.1,4.1,0,0,1,16.47,16c0-1.44,1-2,2.31-2,.6,2.13,1.65,3,3.18,3s2.85-1,2.85-3.63c0-1.8-.48-3.24-2.79-3.24a13.12,13.12,0,0,0-1.38.09A1.85,1.85,0,0,1,20.4,9.18Z" style="fill:#0600ff"/></svg>