<svg id="Layer_1" data-name="Layer 1" xmlns="http://www.w3.org/2000/svg" viewBox="0 0 30.21 19.11"><title>MyPortfolioSiteSVGAssets</title><path d="M0,9.57C0,2.85,2.46,0,6.9,0s6.9,2.85,6.9,9.57-2.49,9.54-6.9,9.54S0,16.26,0,9.57ZM6.9,2.13c-1.41,0-1.74,2.07-1.74,7.44S5.49,17,6.9,17s1.74-2.07,1.74-7.41S8.31,2.13,6.9,2.13Z" style="fill:#0600ff"/><path d="M27.93,14.31v2.58l1.62.66v1.32H21.33V17.55L23,16.89V14.31H16.71l-.6-1.59A56.43,56.43,0,0,1,23.94.36h4V12.42H30a1.81,1.81,0,0,1,.21.9,2.26,2.26,0,0,1-.21,1ZM23,12.42V4.77a46.23,46.23,0,0,0-4.56,7.65Z" style="fill:#0600ff"/></svg>