<?xml version="1.0" encoding="utf-8"?>
<!-- Generator: Adobe Illustrator 22.1.0, SVG Export Plug-In . SVG Version: 6.00 Build 0)  -->
<svg version="1.1" id="Layer_1" xmlns="http://www.w3.org/2000/svg" xmlns:xlink="http://www.w3.org/1999/xlink" x="0px" y="0px"
	 viewBox="0 0 39.58 44.55" style="enable-background:new 0 0 39.58 44.55;" xml:space="preserve">
<style type="text/css">
	.st0{fill:none;stroke:#FFFFFF;stroke-width:2;stroke-miterlimit:10;}
	.st1{fill:none;stroke:#0600FF;stroke-width:2;stroke-miterlimit:10;}
	.st2{fill:none;stroke:#7F7F7F;stroke-width:2;stroke-miterlimit:10;}
	.st3{fill:#0600FF;}
	.st4{fill:none;stroke:#A7A9AC;stroke-miterlimit:10;}
	.st5{fill:none;stroke:#CFD1D4;stroke-width:0.8312;stroke-miterlimit:10;}
	.st6{fill:none;stroke:#CFD1D4;stroke-miterlimit:10;}
</style>
<g>
	<line class="st1" x1="19.79" y1="0" x2="19.79" y2="44.55"/>
	<line class="st1" x1="19.79" y1="11.1" x2="26.1" y2="4.8"/>
	<line class="st1" x1="19.79" y1="11.1" x2="13.49" y2="4.8"/>
	<line class="st1" x1="19.79" y1="33.45" x2="13.49" y2="39.75"/>
	<line class="st1" x1="19.79" y1="33.45" x2="26.1" y2="39.75"/>
	<line class="st1" x1="0.5" y1="11.14" x2="39.08" y2="33.41"/>
	<line class="st1" x1="10.11" y1="16.69" x2="7.81" y2="8.08"/>
	<line class="st1" x1="10.11" y1="16.69" x2="1.51" y2="18.99"/>
	<line class="st1" x1="29.47" y1="27.87" x2="31.78" y2="36.47"/>
	<line class="st1" x1="29.47" y1="27.87" x2="38.08" y2="25.56"/>
	<line class="st1" x1="0.5" y1="33.41" x2="39.08" y2="11.14"/>
	<line class="st1" x1="10.11" y1="27.87" x2="1.51" y2="25.56"/>
	<line class="st1" x1="10.11" y1="27.87" x2="7.81" y2="36.47"/>
	<line class="st1" x1="29.47" y1="16.69" x2="38.08" y2="18.99"/>
	<line class="st1" x1="29.47" y1="16.69" x2="31.78" y2="8.08"/>
</g>
</svg>
