<svg id="Layer_1" data-name="Layer 1" xmlns="http://www.w3.org/2000/svg" viewBox="0 0 472.27 161.99"><title>MyPortfolioSiteSVGAssets</title><path d="M467.68,3.34a1.76,1.76,0,1,1-1.76-1.77,1.76,1.76,0,0,1,1.76,1.77" style="fill:#0600ff"/><path d="M467.68,25.52a1.76,1.76,0,1,1-1.76-1.76,1.76,1.76,0,0,1,1.76,1.76" style="fill:#0600ff"/><path d="M467.68,47.71A1.76,1.76,0,1,1,465.92,46a1.76,1.76,0,0,1,1.76,1.76" style="fill:#0600ff"/><path d="M467.68,69.9a1.76,1.76,0,1,1-1.76-1.76,1.76,1.76,0,0,1,1.76,1.76" style="fill:#0600ff"/><path d="M467.68,92.09a1.76,1.76,0,1,1-1.76-1.76,1.76,1.76,0,0,1,1.76,1.76" style="fill:#0600ff"/><path d="M467.68,114.28a1.76,1.76,0,1,1-1.76-1.76,1.76,1.76,0,0,1,1.76,1.76" style="fill:#0600ff"/><path d="M467.68,136.47a1.76,1.76,0,1,1-1.76-1.77,1.76,1.76,0,0,1,1.76,1.77" style="fill:#0600ff"/><path d="M467.68,158.66a1.76,1.76,0,1,1-1.76-1.77,1.76,1.76,0,0,1,1.76,1.77" style="fill:#0600ff"/><path d="M8.11,3.34A1.76,1.76,0,1,1,6.35,1.57,1.76,1.76,0,0,1,8.11,3.34" style="fill:#0600ff"/><path d="M29.89,3.34a1.77,1.77,0,1,1-1.77-1.77,1.76,1.76,0,0,1,1.77,1.77" style="fill:#0600ff"/><path d="M51.67,3.34A1.77,1.77,0,1,1,49.9,1.57a1.76,1.76,0,0,1,1.77,1.77" style="fill:#0600ff"/><path d="M73.44,3.34a1.76,1.76,0,1,1-1.76-1.77,1.76,1.76,0,0,1,1.76,1.77" style="fill:#0600ff"/><path d="M95.22,3.34a1.76,1.76,0,1,1-1.76-1.77,1.76,1.76,0,0,1,1.76,1.77" style="fill:#0600ff"/><path d="M117,3.34a1.77,1.77,0,1,1-1.76-1.77A1.76,1.76,0,0,1,117,3.34" style="fill:#0600ff"/><path d="M138.78,3.34A1.77,1.77,0,1,1,137,1.57a1.76,1.76,0,0,1,1.77,1.77" style="fill:#0600ff"/><path d="M160.56,3.34a1.77,1.77,0,1,1-1.77-1.77,1.76,1.76,0,0,1,1.77,1.77" style="fill:#0600ff"/><path d="M182.33,3.34a1.76,1.76,0,1,1-1.76-1.77,1.76,1.76,0,0,1,1.76,1.77" style="fill:#0600ff"/><path d="M204.11,3.34a1.76,1.76,0,1,1-1.76-1.77,1.76,1.76,0,0,1,1.76,1.77" style="fill:#0600ff"/><path d="M225.89,3.34a1.77,1.77,0,1,1-1.76-1.77,1.76,1.76,0,0,1,1.76,1.77" style="fill:#0600ff"/><path d="M247.67,3.34a1.77,1.77,0,1,1-1.77-1.77,1.76,1.76,0,0,1,1.77,1.77" style="fill:#0600ff"/><path d="M269.44,3.34a1.76,1.76,0,1,1-1.76-1.77,1.76,1.76,0,0,1,1.76,1.77" style="fill:#0600ff"/><path d="M291.22,3.34a1.76,1.76,0,1,1-1.76-1.77,1.76,1.76,0,0,1,1.76,1.77" style="fill:#0600ff"/><path d="M313,3.34a1.76,1.76,0,1,1-1.76-1.77A1.76,1.76,0,0,1,313,3.34" style="fill:#0600ff"/><path d="M334.78,3.34A1.77,1.77,0,1,1,333,1.57a1.76,1.76,0,0,1,1.76,1.77" style="fill:#0600ff"/><path d="M356.56,3.34a1.77,1.77,0,1,1-1.77-1.77,1.76,1.76,0,0,1,1.77,1.77" style="fill:#0600ff"/><path d="M378.33,3.34a1.76,1.76,0,1,1-1.76-1.77,1.76,1.76,0,0,1,1.76,1.77" style="fill:#0600ff"/><path d="M400.11,3.34a1.76,1.76,0,1,1-1.76-1.77,1.76,1.76,0,0,1,1.76,1.77" style="fill:#0600ff"/><path d="M421.89,3.34a1.77,1.77,0,1,1-1.76-1.77,1.76,1.76,0,0,1,1.76,1.77" style="fill:#0600ff"/><path d="M443.67,3.34a1.77,1.77,0,1,1-1.76-1.77,1.76,1.76,0,0,1,1.76,1.77" style="fill:#0600ff"/><path d="M8.11,25.52a1.76,1.76,0,1,1-1.76-1.76,1.76,1.76,0,0,1,1.76,1.76" style="fill:#0600ff"/><path d="M29.89,25.52a1.77,1.77,0,1,1-1.77-1.76,1.77,1.77,0,0,1,1.77,1.76" style="fill:#0600ff"/><path d="M51.67,25.52a1.77,1.77,0,1,1-1.77-1.76,1.77,1.77,0,0,1,1.77,1.76" style="fill:#0600ff"/><path d="M73.44,25.52a1.76,1.76,0,1,1-1.76-1.76,1.76,1.76,0,0,1,1.76,1.76" style="fill:#0600ff"/><path d="M95.22,25.52a1.76,1.76,0,1,1-1.76-1.76,1.76,1.76,0,0,1,1.76,1.76" style="fill:#0600ff"/><path d="M117,25.52a1.77,1.77,0,1,1-1.76-1.76A1.76,1.76,0,0,1,117,25.52" style="fill:#0600ff"/><path d="M138.78,25.52A1.77,1.77,0,1,1,137,23.76a1.77,1.77,0,0,1,1.77,1.76" style="fill:#0600ff"/><path d="M160.56,25.52a1.77,1.77,0,1,1-1.77-1.76,1.77,1.77,0,0,1,1.77,1.76" style="fill:#0600ff"/><path d="M182.33,25.52a1.76,1.76,0,1,1-1.76-1.76,1.76,1.76,0,0,1,1.76,1.76" style="fill:#0600ff"/><path d="M204.11,25.52a1.76,1.76,0,1,1-1.76-1.76,1.76,1.76,0,0,1,1.76,1.76" style="fill:#0600ff"/><path d="M225.89,25.52a1.77,1.77,0,1,1-1.76-1.76,1.76,1.76,0,0,1,1.76,1.76" style="fill:#0600ff"/><path d="M247.67,25.52a1.77,1.77,0,1,1-1.77-1.76,1.77,1.77,0,0,1,1.77,1.76" style="fill:#0600ff"/><path d="M269.44,25.52a1.76,1.76,0,1,1-1.76-1.76,1.76,1.76,0,0,1,1.76,1.76" style="fill:#0600ff"/><path d="M291.22,25.52a1.76,1.76,0,1,1-1.76-1.76,1.76,1.76,0,0,1,1.76,1.76" style="fill:#0600ff"/><path d="M313,25.52a1.76,1.76,0,1,1-1.76-1.76A1.76,1.76,0,0,1,313,25.52" style="fill:#0600ff"/><path d="M334.78,25.52A1.77,1.77,0,1,1,333,23.76a1.76,1.76,0,0,1,1.76,1.76" style="fill:#0600ff"/><path d="M356.56,25.52a1.77,1.77,0,1,1-1.77-1.76,1.77,1.77,0,0,1,1.77,1.76" style="fill:#0600ff"/><path d="M378.33,25.52a1.76,1.76,0,1,1-1.76-1.76,1.76,1.76,0,0,1,1.76,1.76" style="fill:#0600ff"/><path d="M400.11,25.52a1.76,1.76,0,1,1-1.76-1.76,1.76,1.76,0,0,1,1.76,1.76" style="fill:#0600ff"/><path d="M421.89,25.52a1.77,1.77,0,1,1-1.76-1.76,1.76,1.76,0,0,1,1.76,1.76" style="fill:#0600ff"/><path d="M443.67,25.52a1.77,1.77,0,1,1-1.76-1.76,1.76,1.76,0,0,1,1.76,1.76" style="fill:#0600ff"/><path d="M8.11,47.71A1.76,1.76,0,1,1,6.35,46a1.76,1.76,0,0,1,1.76,1.76" style="fill:#0600ff"/><path d="M29.89,47.71A1.77,1.77,0,1,1,28.12,46a1.77,1.77,0,0,1,1.77,1.76" style="fill:#0600ff"/><path d="M51.67,47.71A1.77,1.77,0,1,1,49.9,46a1.77,1.77,0,0,1,1.77,1.76" style="fill:#0600ff"/><path d="M73.44,47.71A1.76,1.76,0,1,1,71.68,46a1.76,1.76,0,0,1,1.76,1.76" style="fill:#0600ff"/><path d="M95.22,47.71A1.76,1.76,0,1,1,93.46,46a1.76,1.76,0,0,1,1.76,1.76" style="fill:#0600ff"/><path d="M117,47.71A1.77,1.77,0,1,1,115.24,46,1.76,1.76,0,0,1,117,47.71" style="fill:#0600ff"/><path d="M138.78,47.71A1.77,1.77,0,1,1,137,46a1.77,1.77,0,0,1,1.77,1.76" style="fill:#0600ff"/><path d="M160.56,47.71A1.77,1.77,0,1,1,158.79,46a1.77,1.77,0,0,1,1.77,1.76" style="fill:#0600ff"/><path d="M182.33,47.71A1.76,1.76,0,1,1,180.57,46a1.76,1.76,0,0,1,1.76,1.76" style="fill:#0600ff"/><path d="M204.11,47.71A1.76,1.76,0,1,1,202.35,46a1.76,1.76,0,0,1,1.76,1.76" style="fill:#0600ff"/><path d="M225.89,47.71A1.77,1.77,0,1,1,224.13,46a1.76,1.76,0,0,1,1.76,1.76" style="fill:#0600ff"/><path d="M247.67,47.71A1.77,1.77,0,1,1,245.9,46a1.77,1.77,0,0,1,1.77,1.76" style="fill:#0600ff"/><path d="M269.44,47.71A1.76,1.76,0,1,1,267.68,46a1.76,1.76,0,0,1,1.76,1.76" style="fill:#0600ff"/><path d="M291.22,47.71A1.76,1.76,0,1,1,289.46,46a1.76,1.76,0,0,1,1.76,1.76" style="fill:#0600ff"/><path d="M313,47.71A1.76,1.76,0,1,1,311.24,46,1.76,1.76,0,0,1,313,47.71" style="fill:#0600ff"/><path d="M334.78,47.71A1.77,1.77,0,1,1,333,46a1.76,1.76,0,0,1,1.76,1.76" style="fill:#0600ff"/><path d="M356.56,47.71A1.77,1.77,0,1,1,354.79,46a1.77,1.77,0,0,1,1.77,1.76" style="fill:#0600ff"/><path d="M378.33,47.71A1.76,1.76,0,1,1,376.57,46a1.76,1.76,0,0,1,1.76,1.76" style="fill:#0600ff"/><path d="M400.11,47.71A1.76,1.76,0,1,1,398.35,46a1.76,1.76,0,0,1,1.76,1.76" style="fill:#0600ff"/><path d="M421.89,47.71A1.77,1.77,0,1,1,420.13,46a1.76,1.76,0,0,1,1.76,1.76" style="fill:#0600ff"/><path d="M443.67,47.71A1.77,1.77,0,1,1,441.91,46a1.76,1.76,0,0,1,1.76,1.76" style="fill:#0600ff"/><path d="M8.11,69.9a1.76,1.76,0,1,1-1.76-1.76A1.76,1.76,0,0,1,8.11,69.9" style="fill:#0600ff"/><path d="M29.89,69.9a1.77,1.77,0,1,1-1.77-1.76,1.76,1.76,0,0,1,1.77,1.76" style="fill:#0600ff"/><path d="M51.67,69.9a1.77,1.77,0,1,1-1.77-1.76,1.76,1.76,0,0,1,1.77,1.76" style="fill:#0600ff"/><path d="M73.44,69.9a1.76,1.76,0,1,1-1.76-1.76,1.76,1.76,0,0,1,1.76,1.76" style="fill:#0600ff"/><path d="M95.22,69.9a1.76,1.76,0,1,1-1.76-1.76,1.76,1.76,0,0,1,1.76,1.76" style="fill:#0600ff"/><path d="M117,69.9a1.77,1.77,0,1,1-1.76-1.76A1.76,1.76,0,0,1,117,69.9" style="fill:#0600ff"/><path d="M138.78,69.9A1.77,1.77,0,1,1,137,68.14a1.76,1.76,0,0,1,1.77,1.76" style="fill:#0600ff"/><path d="M160.56,69.9a1.77,1.77,0,1,1-1.77-1.76,1.76,1.76,0,0,1,1.77,1.76" style="fill:#0600ff"/><path d="M182.33,69.9a1.76,1.76,0,1,1-1.76-1.76,1.76,1.76,0,0,1,1.76,1.76" style="fill:#0600ff"/><path d="M204.11,69.9a1.76,1.76,0,1,1-1.76-1.76,1.76,1.76,0,0,1,1.76,1.76" style="fill:#0600ff"/><path d="M225.89,69.9a1.77,1.77,0,1,1-1.76-1.76,1.76,1.76,0,0,1,1.76,1.76" style="fill:#0600ff"/><path d="M247.67,69.9a1.77,1.77,0,1,1-1.77-1.76,1.76,1.76,0,0,1,1.77,1.76" style="fill:#0600ff"/><path d="M269.44,69.9a1.76,1.76,0,1,1-1.76-1.76,1.75,1.75,0,0,1,1.76,1.76" style="fill:#0600ff"/><path d="M291.22,69.9a1.76,1.76,0,1,1-1.76-1.76,1.76,1.76,0,0,1,1.76,1.76" style="fill:#0600ff"/><path d="M313,69.9a1.76,1.76,0,1,1-1.76-1.76A1.76,1.76,0,0,1,313,69.9" style="fill:#0600ff"/><path d="M334.78,69.9A1.77,1.77,0,1,1,333,68.14a1.76,1.76,0,0,1,1.76,1.76" style="fill:#0600ff"/><path d="M356.56,69.9a1.77,1.77,0,1,1-1.77-1.76,1.76,1.76,0,0,1,1.77,1.76" style="fill:#0600ff"/><path d="M378.33,69.9a1.76,1.76,0,1,1-1.76-1.76,1.76,1.76,0,0,1,1.76,1.76" style="fill:#0600ff"/><path d="M400.11,69.9a1.76,1.76,0,1,1-1.76-1.76,1.76,1.76,0,0,1,1.76,1.76" style="fill:#0600ff"/><path d="M421.89,69.9a1.77,1.77,0,1,1-1.76-1.76,1.76,1.76,0,0,1,1.76,1.76" style="fill:#0600ff"/><path d="M443.67,69.9a1.77,1.77,0,1,1-1.76-1.76,1.76,1.76,0,0,1,1.76,1.76" style="fill:#0600ff"/><path d="M8.11,92.09a1.76,1.76,0,1,1-1.76-1.76,1.76,1.76,0,0,1,1.76,1.76" style="fill:#0600ff"/><path d="M29.89,92.09a1.77,1.77,0,1,1-1.77-1.76,1.76,1.76,0,0,1,1.77,1.76" style="fill:#0600ff"/><path d="M51.67,92.09a1.77,1.77,0,1,1-1.77-1.76,1.76,1.76,0,0,1,1.77,1.76" style="fill:#0600ff"/><path d="M73.44,92.09a1.76,1.76,0,1,1-1.76-1.76,1.76,1.76,0,0,1,1.76,1.76" style="fill:#0600ff"/><path d="M95.22,92.09a1.76,1.76,0,1,1-1.76-1.76,1.76,1.76,0,0,1,1.76,1.76" style="fill:#0600ff"/><path d="M117,92.09a1.77,1.77,0,1,1-1.76-1.76A1.76,1.76,0,0,1,117,92.09" style="fill:#0600ff"/><path d="M138.78,92.09A1.77,1.77,0,1,1,137,90.33a1.76,1.76,0,0,1,1.77,1.76" style="fill:#0600ff"/><path d="M160.56,92.09a1.77,1.77,0,1,1-1.77-1.76,1.76,1.76,0,0,1,1.77,1.76" style="fill:#0600ff"/><path d="M182.33,92.09a1.76,1.76,0,1,1-1.76-1.76,1.76,1.76,0,0,1,1.76,1.76" style="fill:#0600ff"/><path d="M204.11,92.09a1.76,1.76,0,1,1-1.76-1.76,1.76,1.76,0,0,1,1.76,1.76" style="fill:#0600ff"/><path d="M225.89,92.09a1.77,1.77,0,1,1-1.76-1.76,1.76,1.76,0,0,1,1.76,1.76" style="fill:#0600ff"/><path d="M247.67,92.09a1.77,1.77,0,1,1-1.77-1.76,1.76,1.76,0,0,1,1.77,1.76" style="fill:#0600ff"/><path d="M269.44,92.09a1.76,1.76,0,1,1-1.76-1.76,1.76,1.76,0,0,1,1.76,1.76" style="fill:#0600ff"/><path d="M291.22,92.09a1.76,1.76,0,1,1-1.76-1.76,1.76,1.76,0,0,1,1.76,1.76" style="fill:#0600ff"/><path d="M313,92.09a1.76,1.76,0,1,1-1.76-1.76A1.76,1.76,0,0,1,313,92.09" style="fill:#0600ff"/><path d="M334.78,92.09A1.77,1.77,0,1,1,333,90.33a1.76,1.76,0,0,1,1.76,1.76" style="fill:#0600ff"/><path d="M356.56,92.09a1.77,1.77,0,1,1-1.77-1.76,1.76,1.76,0,0,1,1.77,1.76" style="fill:#0600ff"/><path d="M378.33,92.09a1.76,1.76,0,1,1-1.76-1.76,1.76,1.76,0,0,1,1.76,1.76" style="fill:#0600ff"/><path d="M400.11,92.09a1.76,1.76,0,1,1-1.76-1.76,1.76,1.76,0,0,1,1.76,1.76" style="fill:#0600ff"/><path d="M421.89,92.09a1.77,1.77,0,1,1-1.76-1.76,1.76,1.76,0,0,1,1.76,1.76" style="fill:#0600ff"/><path d="M443.67,92.09a1.77,1.77,0,1,1-1.76-1.76,1.76,1.76,0,0,1,1.76,1.76" style="fill:#0600ff"/><path d="M8.11,114.28a1.76,1.76,0,1,1-1.76-1.76,1.76,1.76,0,0,1,1.76,1.76" style="fill:#0600ff"/><path d="M29.89,114.28a1.77,1.77,0,1,1-1.77-1.76,1.76,1.76,0,0,1,1.77,1.76" style="fill:#0600ff"/><path d="M51.67,114.28a1.77,1.77,0,1,1-1.77-1.76,1.76,1.76,0,0,1,1.77,1.76" style="fill:#0600ff"/><path d="M73.44,114.28a1.76,1.76,0,1,1-1.76-1.76,1.76,1.76,0,0,1,1.76,1.76" style="fill:#0600ff"/><path d="M95.22,114.28a1.76,1.76,0,1,1-1.76-1.76,1.76,1.76,0,0,1,1.76,1.76" style="fill:#0600ff"/><path d="M117,114.28a1.77,1.77,0,1,1-1.76-1.76,1.76,1.76,0,0,1,1.76,1.76" style="fill:#0600ff"/><path d="M138.78,114.28a1.77,1.77,0,1,1-1.77-1.76,1.76,1.76,0,0,1,1.77,1.76" style="fill:#0600ff"/><path d="M160.56,114.28a1.77,1.77,0,1,1-1.77-1.76,1.76,1.76,0,0,1,1.77,1.76" style="fill:#0600ff"/><path d="M182.33,114.28a1.76,1.76,0,1,1-1.76-1.76,1.76,1.76,0,0,1,1.76,1.76" style="fill:#0600ff"/><path d="M204.11,114.28a1.76,1.76,0,1,1-1.76-1.76,1.76,1.76,0,0,1,1.76,1.76" style="fill:#0600ff"/><path d="M225.89,114.28a1.77,1.77,0,1,1-1.76-1.76,1.76,1.76,0,0,1,1.76,1.76" style="fill:#0600ff"/><path d="M247.67,114.28a1.77,1.77,0,1,1-1.77-1.76,1.76,1.76,0,0,1,1.77,1.76" style="fill:#0600ff"/><path d="M269.44,114.28a1.76,1.76,0,1,1-1.76-1.76,1.76,1.76,0,0,1,1.76,1.76" style="fill:#0600ff"/><path d="M291.22,114.28a1.76,1.76,0,1,1-1.76-1.76,1.76,1.76,0,0,1,1.76,1.76" style="fill:#0600ff"/><path d="M313,114.28a1.76,1.76,0,1,1-1.76-1.76,1.76,1.76,0,0,1,1.76,1.76" style="fill:#0600ff"/><path d="M334.78,114.28a1.77,1.77,0,1,1-1.76-1.76,1.76,1.76,0,0,1,1.76,1.76" style="fill:#0600ff"/><path d="M356.56,114.28a1.77,1.77,0,1,1-1.77-1.76,1.76,1.76,0,0,1,1.77,1.76" style="fill:#0600ff"/><path d="M378.33,114.28a1.76,1.76,0,1,1-1.76-1.76,1.76,1.76,0,0,1,1.76,1.76" style="fill:#0600ff"/><path d="M400.11,114.28a1.76,1.76,0,1,1-1.76-1.76,1.76,1.76,0,0,1,1.76,1.76" style="fill:#0600ff"/><path d="M421.89,114.28a1.77,1.77,0,1,1-1.76-1.76,1.76,1.76,0,0,1,1.76,1.76" style="fill:#0600ff"/><path d="M443.67,114.28a1.77,1.77,0,1,1-1.76-1.76,1.76,1.76,0,0,1,1.76,1.76" style="fill:#0600ff"/><path d="M8.11,136.47a1.76,1.76,0,1,1-1.76-1.77,1.76,1.76,0,0,1,1.76,1.77" style="fill:#0600ff"/><path d="M29.89,136.47a1.77,1.77,0,1,1-1.77-1.77,1.76,1.76,0,0,1,1.77,1.77" style="fill:#0600ff"/><path d="M51.67,136.47a1.77,1.77,0,1,1-1.77-1.77,1.76,1.76,0,0,1,1.77,1.77" style="fill:#0600ff"/><path d="M73.44,136.47a1.76,1.76,0,1,1-1.76-1.77,1.76,1.76,0,0,1,1.76,1.77" style="fill:#0600ff"/><path d="M95.22,136.47a1.76,1.76,0,1,1-1.76-1.77,1.76,1.76,0,0,1,1.76,1.77" style="fill:#0600ff"/><path d="M117,136.47a1.77,1.77,0,1,1-1.76-1.77,1.76,1.76,0,0,1,1.76,1.77" style="fill:#0600ff"/><path d="M138.78,136.47A1.77,1.77,0,1,1,137,134.7a1.76,1.76,0,0,1,1.77,1.77" style="fill:#0600ff"/><path d="M160.56,136.47a1.77,1.77,0,1,1-1.77-1.77,1.76,1.76,0,0,1,1.77,1.77" style="fill:#0600ff"/><path d="M182.33,136.47a1.76,1.76,0,1,1-1.76-1.77,1.76,1.76,0,0,1,1.76,1.77" style="fill:#0600ff"/><path d="M204.11,136.47a1.76,1.76,0,1,1-1.76-1.77,1.76,1.76,0,0,1,1.76,1.77" style="fill:#0600ff"/><path d="M225.89,136.47a1.77,1.77,0,1,1-1.76-1.77,1.76,1.76,0,0,1,1.76,1.77" style="fill:#0600ff"/><path d="M247.67,136.47a1.77,1.77,0,1,1-1.77-1.77,1.76,1.76,0,0,1,1.77,1.77" style="fill:#0600ff"/><path d="M269.44,136.47a1.76,1.76,0,1,1-1.76-1.77,1.76,1.76,0,0,1,1.76,1.77" style="fill:#0600ff"/><path d="M291.22,136.47a1.76,1.76,0,1,1-1.76-1.77,1.76,1.76,0,0,1,1.76,1.77" style="fill:#0600ff"/><path d="M313,136.47a1.76,1.76,0,1,1-1.76-1.77,1.76,1.76,0,0,1,1.76,1.77" style="fill:#0600ff"/><path d="M334.78,136.47A1.77,1.77,0,1,1,333,134.7a1.76,1.76,0,0,1,1.76,1.77" style="fill:#0600ff"/><path d="M356.56,136.47a1.77,1.77,0,1,1-1.77-1.77,1.76,1.76,0,0,1,1.77,1.77" style="fill:#0600ff"/><path d="M378.33,136.47a1.76,1.76,0,1,1-1.76-1.77,1.76,1.76,0,0,1,1.76,1.77" style="fill:#0600ff"/><path d="M400.11,136.47a1.76,1.76,0,1,1-1.76-1.77,1.76,1.76,0,0,1,1.76,1.77" style="fill:#0600ff"/><path d="M421.89,136.47a1.77,1.77,0,1,1-1.76-1.77,1.76,1.76,0,0,1,1.76,1.77" style="fill:#0600ff"/><path d="M443.67,136.47a1.77,1.77,0,1,1-1.76-1.77,1.76,1.76,0,0,1,1.76,1.77" style="fill:#0600ff"/><path d="M8.11,158.66a1.76,1.76,0,1,1-1.76-1.77,1.76,1.76,0,0,1,1.76,1.77" style="fill:#0600ff"/><path d="M29.89,158.66a1.77,1.77,0,1,1-1.77-1.77,1.76,1.76,0,0,1,1.77,1.77" style="fill:#0600ff"/><path d="M51.67,158.66a1.77,1.77,0,1,1-1.77-1.77,1.76,1.76,0,0,1,1.77,1.77" style="fill:#0600ff"/><path d="M73.44,158.66a1.76,1.76,0,1,1-1.76-1.77,1.76,1.76,0,0,1,1.76,1.77" style="fill:#0600ff"/><path d="M95.22,158.66a1.76,1.76,0,1,1-1.76-1.77,1.76,1.76,0,0,1,1.76,1.77" style="fill:#0600ff"/><path d="M117,158.66a1.77,1.77,0,1,1-1.76-1.77,1.76,1.76,0,0,1,1.76,1.77" style="fill:#0600ff"/><path d="M138.78,158.66a1.77,1.77,0,1,1-1.77-1.77,1.76,1.76,0,0,1,1.77,1.77" style="fill:#0600ff"/><path d="M160.56,158.66a1.77,1.77,0,1,1-1.77-1.77,1.76,1.76,0,0,1,1.77,1.77" style="fill:#0600ff"/><path d="M182.33,158.66a1.76,1.76,0,1,1-1.76-1.77,1.76,1.76,0,0,1,1.76,1.77" style="fill:#0600ff"/><path d="M204.11,158.66a1.76,1.76,0,1,1-1.76-1.77,1.76,1.76,0,0,1,1.76,1.77" style="fill:#0600ff"/><path d="M225.89,158.66a1.77,1.77,0,1,1-1.76-1.77,1.76,1.76,0,0,1,1.76,1.77" style="fill:#0600ff"/><path d="M247.67,158.66a1.77,1.77,0,1,1-1.77-1.77,1.76,1.76,0,0,1,1.77,1.77" style="fill:#0600ff"/><path d="M269.44,158.66a1.76,1.76,0,1,1-1.76-1.77,1.76,1.76,0,0,1,1.76,1.77" style="fill:#0600ff"/><path d="M291.22,158.66a1.76,1.76,0,1,1-1.76-1.77,1.76,1.76,0,0,1,1.76,1.77" style="fill:#0600ff"/><path d="M313,158.66a1.76,1.76,0,1,1-1.76-1.77,1.76,1.76,0,0,1,1.76,1.77" style="fill:#0600ff"/><path d="M334.78,158.66a1.77,1.77,0,1,1-1.76-1.77,1.76,1.76,0,0,1,1.76,1.77" style="fill:#0600ff"/><path d="M356.56,158.66a1.77,1.77,0,1,1-1.77-1.77,1.76,1.76,0,0,1,1.77,1.77" style="fill:#0600ff"/><path d="M378.33,158.66a1.76,1.76,0,1,1-1.76-1.77,1.76,1.76,0,0,1,1.76,1.77" style="fill:#0600ff"/><path d="M400.11,158.66a1.76,1.76,0,1,1-1.76-1.77,1.76,1.76,0,0,1,1.76,1.77" style="fill:#0600ff"/><path d="M421.89,158.66a1.77,1.77,0,1,1-1.76-1.77,1.76,1.76,0,0,1,1.76,1.77" style="fill:#0600ff"/><path d="M443.67,158.66a1.77,1.77,0,1,1-1.76-1.77,1.76,1.76,0,0,1,1.76,1.77" style="fill:#0600ff"/></svg>