<?xml version="1.0" encoding="utf-8"?>
<!-- Generator: Adobe Illustrator 22.1.0, SVG Export Plug-In . SVG Version: 6.00 Build 0)  -->
<svg version="1.1" id="Layer_1" xmlns="http://www.w3.org/2000/svg" xmlns:xlink="http://www.w3.org/1999/xlink" x="0px" y="0px"
	 viewBox="0 0 105.94 85.31" style="enable-background:new 0 0 105.94 85.31;" xml:space="preserve">
<style type="text/css">
	.st0{fill:none;stroke:#FFFFFF;stroke-width:2;stroke-miterlimit:10;}
	.st1{fill:none;stroke:#0600FF;stroke-width:2;stroke-miterlimit:10;}
	.st2{fill:none;stroke:#7F7F7F;stroke-width:2;stroke-miterlimit:10;}
	.st3{fill:#0600FF;}
	.st4{fill:none;stroke:#A7A9AC;stroke-miterlimit:10;}
	.st5{fill:none;stroke:#CFD1D4;stroke-width:0.8312;stroke-miterlimit:10;}
	.st6{fill:none;stroke:#CFD1D4;stroke-miterlimit:10;}
</style>
<g>
	<path class="st1" d="M47.2,84.31H1.65l26.4-50.5h42.93c0.19,0,0.32,0.2,0.24,0.38L47.2,84.31z"/>
	<polyline class="st1" points="71.4,33.81 96.69,84.31 47.2,84.31 	"/>
	<polyline class="st1" points="62.82,84.31 72.43,61.09 82.04,84.31 	"/>
	<path class="st1" d="M62.79,28.96c0-7.58,6.14-13.72,13.72-13.72c7.58,0,13.72,6.14,13.72,13.72c0,5.84-3.65,10.83-8.8,12.81"/>
	<line class="st1" x1="86.51" y1="48.72" x2="90.14" y2="55.66"/>
	<line class="st1" x1="93.25" y1="43.24" x2="99.3" y2="48.21"/>
	<line class="st1" x1="97.31" y1="35.57" x2="104.82" y2="37.77"/>
	<line class="st1" x1="98.05" y1="26.91" x2="105.83" y2="26.01"/>
	<line class="st1" x1="95.35" y1="18.66" x2="102.15" y2="14.79"/>
	<line class="st1" x1="89.64" y1="12.12" x2="94.39" y2="5.89"/>
	<line class="st1" x1="81.82" y1="8.32" x2="83.77" y2="0.74"/>
	<line class="st1" x1="73.15" y1="7.89" x2="71.97" y2="0.15"/>
	<line class="st1" x1="64.99" y1="10.88" x2="60.89" y2="4.21"/>
	<line class="st1" x1="58.65" y1="16.81" x2="52.27" y2="12.28"/>
	<line class="st1" x1="55.14" y1="24.76" x2="47.49" y2="23.08"/>
</g>
</svg>
