<svg id="Layer_1" data-name="Layer 1" xmlns="http://www.w3.org/2000/svg" viewBox="0 0 33.27 21.84"><title>MyPortfolioSiteSVGAssets</title><path d="M1.76,10.94c0-6.72,2.46-9.57,6.9-9.57s6.9,2.85,6.9,9.57-2.49,9.54-6.9,9.54S1.76,17.63,1.76,10.94ZM8.66,3.5c-1.41,0-1.74,2.07-1.74,7.44s.33,7.41,1.74,7.41,1.74-2.07,1.74-7.41S10.07,3.5,8.66,3.5Z" style="fill:#0600ff"/><path d="M22.16,10.55A2.09,2.09,0,0,1,22.4,9.5c.33,0,.57,0,.81,0A2.29,2.29,0,0,0,25.79,7,2.25,2.25,0,0,0,23.36,4.7a4.46,4.46,0,0,0-3.42,1.56l-.9-1,3-3.39a7.45,7.45,0,0,1,3-.54c3.63,0,5.46,1.74,5.46,4.08s-1.38,4.17-4.62,4.68v.06c3.78.09,5.67,1.47,5.67,4.29,0,3.66-3.21,6-8.67,6a7.51,7.51,0,0,1-4.08-1,4.1,4.1,0,0,1-.54-2.13c0-1.44,1-2,2.31-2,.6,2.13,1.65,3,3.18,3,1.68,0,2.85-1,2.85-3.63,0-1.8-.48-3.24-2.79-3.24a13.12,13.12,0,0,0-1.38.09A1.85,1.85,0,0,1,22.16,10.55Z" style="fill:#0600ff"/></svg>