<svg id="Layer_1" data-name="Layer 1" xmlns="http://www.w3.org/2000/svg" viewBox="0 0 284.4 572.88"><title>NewiPhoneXTop</title><path d="M252.49,0H31.91A31.91,31.91,0,0,0,0,31.91V541a31.91,31.91,0,0,0,31.91,31.91H252.49A31.91,31.91,0,0,0,284.4,541V31.91A31.91,31.91,0,0,0,252.49,0Zm13.68,539.81a15,15,0,0,1-15,15h-218a15,15,0,0,1-15-15V33.36a15,15,0,0,1,15-15H76.66l7.18,13.73A12.54,12.54,0,0,0,95,38.85h94.39a12.57,12.57,0,0,0,11.11-6.71l7.22-13.75h43.51a15,15,0,0,1,15,15Z" style="fill:#fff"/><rect x="110.33" y="18.46" width="55.57" height="3.81" style="fill:#e0e0e0"/><circle cx="175.45" cy="20.37" r="2.65" style="fill:#e0e0e0"/></svg>