<svg id="a2bf4833-526b-4fc5-bc75-b83cdff05119" data-name="Layer 1" xmlns="http://www.w3.org/2000/svg" xmlns:xlink="http://www.w3.org/1999/xlink" width="2.24in" height="2.41in" viewBox="0 0 160.94 173.21"><defs><style>.\39 da9917d-153f-42bf-bb2c-020e2ea10bcb,.c72d06c5-60b7-4e03-b9cb-d191623c0bed{fill:none;}.c72d06c5-60b7-4e03-b9cb-d191623c0bed{clip-rule:evenodd;}.e4d83081-fa74-4a7f-ae27-2554264259ee{clip-path:url(#a51aa837-d850-433e-9416-be58e6f70021);}.\33 35ab9b8-f44b-4866-9bf2-e385e12f1420{clip-path:url(#d6783276-f218-4d37-a914-e79f2a4f2ce6);}.e334a5c2-d62d-418e-887a-1e2fcb8813b2{clip-path:url(#90510eed-db66-4732-a426-ade2c70001a2);}.\36 96b04d8-f294-463f-aebd-88fb9e0a94bd{clip-path:url(#7584e810-76aa-48bc-8171-62e93e862eb1);}.\31 e4ba19e-3c19-4855-8b90-3d58c0f56c94{clip-path:url(#ceac90aa-593b-436c-9d8d-8235de100e48);}.\38 8d1acd4-cbe0-46f8-bcc4-a36a16e4db3a{clip-path:url(#522075da-911a-4ff4-b81a-19b6d87030ca);}.\31 5c6871f-98f3-459e-bc29-ea4bc3e02a88{fill:#ff5700;}</style><clipPath id="a51aa837-d850-433e-9416-be58e6f70021"><rect class="9da9917d-153f-42bf-bb2c-020e2ea10bcb" x="430.97" y="97.72" width="636.1" height="858.71"/></clipPath><clipPath id="d6783276-f218-4d37-a914-e79f2a4f2ce6"><path class="c72d06c5-60b7-4e03-b9cb-d191623c0bed" d="M707.38,254.8a28.71,28.71,0,1,1,28.71-28.71,28.71,28.71,0,0,1-28.71,28.71"/></clipPath><clipPath id="90510eed-db66-4732-a426-ade2c70001a2"><path class="c72d06c5-60b7-4e03-b9cb-d191623c0bed" d="M572.72-128.65A28.71,28.71,0,0,1,544-157.36a28.71,28.71,0,0,1,28.71-28.71,28.71,28.71,0,0,1,28.71,28.71,28.72,28.72,0,0,1-28.71,28.71"/></clipPath><clipPath id="7584e810-76aa-48bc-8171-62e93e862eb1"><path class="c72d06c5-60b7-4e03-b9cb-d191623c0bed" d="M439.2,129a28.71,28.71,0,1,1,28.71-28.7A28.71,28.71,0,0,1,439.2,129"/></clipPath><clipPath id="ceac90aa-593b-436c-9d8d-8235de100e48"><path class="c72d06c5-60b7-4e03-b9cb-d191623c0bed" d="M965.75-128.65A28.71,28.71,0,0,1,937-157.36a28.71,28.71,0,0,1,28.71-28.71,28.71,28.71,0,0,1,28.71,28.71,28.72,28.72,0,0,1-28.71,28.71"/></clipPath><clipPath id="522075da-911a-4ff4-b81a-19b6d87030ca"><path class="c72d06c5-60b7-4e03-b9cb-d191623c0bed" d="M832.23,129a28.71,28.71,0,1,1,28.71-28.7A28.7,28.7,0,0,1,832.23,129"/></clipPath></defs><title>OrangeTriangle</title><polygon class="15c6871f-98f3-459e-bc29-ea4bc3e02a88" points="153.56 161.01 10.32 161.01 10.32 17.77 153.56 161.01"/></svg>