<svg id="Layer_1" data-name="Layer 1" xmlns="http://www.w3.org/2000/svg" xmlns:xlink="http://www.w3.org/1999/xlink" viewBox="0 0 166.73 164.74"><defs><style>.cls-1,.cls-13,.cls-2,.cls-8{fill:none;}.cls-2{clip-rule:evenodd;}.cls-3{clip-path:url(#clip-path);}.cls-4{fill:#0edbbe;}.cls-5{fill:#ff5700;}.cls-6{clip-path:url(#clip-path-2);}.cls-7{clip-path:url(#clip-path-3);}.cls-8{stroke:#9e1f62;stroke-width:8.44px;}.cls-13,.cls-8{stroke-miterlimit:10;}.cls-9{clip-path:url(#clip-path-4);}.cls-10{clip-path:url(#clip-path-5);}.cls-11{clip-path:url(#clip-path-6);}.cls-12{fill:#ff4900;}.cls-13{stroke:#fff;stroke-width:6.49px;}</style><clipPath id="clip-path"><rect class="cls-1" x="505.74" y="-705.39" width="689.59" height="1286.15" transform="translate(912.85 788.22) rotate(-90)"/></clipPath><clipPath id="clip-path-2"><path class="cls-2" d="M306.22,87.24a28.71,28.71,0,1,1-28.7-28.71,28.7,28.7,0,0,1,28.7,28.71"/></clipPath><clipPath id="clip-path-3"><rect class="cls-1" x="116.77" y="181.56" width="73.84" height="73.84"/></clipPath><clipPath id="clip-path-4"><path class="cls-2" d="M306.22-305.78a28.71,28.71,0,0,1-28.7,28.71,28.72,28.72,0,0,1-28.72-28.71,28.71,28.71,0,0,1,28.72-28.71,28.7,28.7,0,0,1,28.7,28.71"/></clipPath><clipPath id="clip-path-5"><path class="cls-2" d="M83.43,13.32h0a68.3,68.3,0,1,1-68.3,68.3A68.3,68.3,0,0,1,83.43,13.32Z"/></clipPath><clipPath id="clip-path-6"><rect class="cls-1" x="-462.98" y="-1147.81" width="692.25" height="1498.94"/></clipPath></defs><title>OrangeButton</title><g class="cls-3"><circle class="cls-4" cx="21.8" cy="84.96" r="41.16"/><polygon class="cls-5" points="176.58 40.08 176.58 119.71 96.95 119.71 176.58 40.08"/><g class="cls-7"><line class="cls-8" x1="203.52" y1="268.2" x2="101.17" y2="165.86"/><line class="cls-8" x1="204.19" y1="234.76" x2="137.01" y2="167.58"/></g></g><g class="cls-10"><g class="cls-11"><rect class="cls-12" x="5.9" y="4.09" width="155.06" height="155.06"/></g></g><line class="cls-13" x1="83.43" y1="62.13" x2="83.43" y2="103.09"/><line class="cls-13" x1="104.51" y1="83.47" x2="63.12" y2="83.47"/></svg>