<!-- Generator: Adobe Illustrator 22.1.0, SVG Export Plug-In  -->
<svg version="1.1"
	 xmlns="http://www.w3.org/2000/svg" xmlns:xlink="http://www.w3.org/1999/xlink" xmlns:a="http://ns.adobe.com/AdobeSVGViewerExtensions/3.0/"
	 x="0px" y="0px" width="35.14px" height="41.136px" viewBox="0 0 35.14 41.136" style="enable-background:new 0 0 35.14 41.136;"
	 xml:space="preserve">
<style type="text/css">
	.st0{fill:none;stroke:#0600FF;stroke-width:0.75;stroke-miterlimit:10;}
</style>
<defs>
</defs>
<path class="st0" d="M11.789,25.9c-1.826,2.462-4.358,4.395-7.214,5.509c-0.598,0.233-1.249,0.433-1.872,0.282
	c-1.246-0.302-1.751-1.779-1.96-3.044c-1.105-6.7,0.304-13.79,3.92-19.542c0.434-0.69,1.172-1.156,1.986-1.18
	c1.442-0.042,1.972,1.252,2.32,2.387c2.983,9.727,3.678,20.148,2.016,30.185c-0.039,0.233-0.312,0.343-0.502,0.203
	c-1.152-0.843-1.415-2.592-1.499-4.087C8.419,26.577,8.646,15.898,14.113,7.421c0.198-0.307,0.521-0.525,0.885-0.56
	c0.691-0.065,0.941,0.486,1.121,0.98c1.635,4.474,2.104,9.367,1.365,14.071c-0.04,0.254-0.413,0.243-0.435-0.013
	c-0.606-7.259,0.636-14.666,3.567-21.334c0.157-0.357,0.697-0.168,0.596,0.209c-1.037,3.873-2.878,7.527-4.699,11.12
	c3.082,1.22,6.823-1.773,9.729-0.179c2.52,1.382,2.368,5.047,1.515,7.792c-0.785,2.524-1.969,5.094-4.575,6.213
	c-1.311,0.563-2.837,0.477-4.001-0.348c-2.373-1.683-1.744-5.141-0.537-7.658c3.2-6.674,9.299-11.894,16.387-14.025"/>
</svg>