<!-- Generator: Adobe Illustrator 22.1.0, SVG Export Plug-In  -->
<svg version="1.1"
	 xmlns="http://www.w3.org/2000/svg" xmlns:xlink="http://www.w3.org/1999/xlink" xmlns:a="http://ns.adobe.com/AdobeSVGViewerExtensions/3.0/"
	 x="0px" y="0px" width="139.452px" height="93.806px" viewBox="0 0 139.452 93.806"
	 style="enable-background:new 0 0 139.452 93.806;" xml:space="preserve">
<style type="text/css">
	.st0{fill:#0D00FF;}
</style>
<defs>
</defs>
<g>
	<path class="st0" d="M0,46.977C0,13.99,12.075,0,33.87,0c21.648,0,33.87,13.99,33.87,46.977c0,32.84-12.223,46.829-33.87,46.829
		C12.075,93.806,0,79.817,0,46.977z M33.87,10.456c-6.921,0-8.541,10.161-8.541,36.521c0,26.212,1.62,36.373,8.541,36.373
		s8.541-10.161,8.541-36.373C42.411,20.617,40.792,10.456,33.87,10.456z"/>
	<path class="st0" d="M96.598,17.525l-17.966-4.124V6.923l42.853-6.333v81.288l17.966,4.271v6.48H78.632v-6.48l17.966-4.271V17.525z
		"/>
</g>
</svg>