<svg id="Layer_1" data-name="Layer 1" xmlns="http://www.w3.org/2000/svg" viewBox="0 0 240.34 264.13"><title>Swatches</title><rect x="138.97" y="138.53" width="101.38" height="101.38" style="fill:#485675"/><rect y="138.53" width="101.38" height="101.38" style="fill:#ff7300"/><rect width="101.38" height="101.38" style="fill:#d4ecff"/><rect x="138.97" width="101.38" height="101.38" style="fill:#002745"/><path d="M34.5,110.52l-.32,1.66h1.38v.63h-1.5l-.41,2.1H33l.41-2.1H31.91l-.4,2.1h-.66l.39-2.1H30v-.63h1.4l.33-1.66H30.34v-.62H31.8l.4-2.13h.68l-.4,2.13H34l.41-2.13H35l-.41,2.13h1.29v.62ZM32,112.18h1.48l.32-1.66H32.35Z" style="fill:#939598"/><path d="M42.9,111.27a3.59,3.59,0,0,1-1,2.7,3.77,3.77,0,0,1-2.76.94h-2v-7.14h2.19a3.21,3.21,0,0,1,3.51,3.5Zm-.88,0a2.89,2.89,0,0,0-.7-2.11,2.81,2.81,0,0,0-2.08-.7H38v5.7h1a3.06,3.06,0,0,0,2.23-.73A2.89,2.89,0,0,0,42,111.3Z" style="fill:#939598"/><path d="M49.08,113.27H48v1.64h-.78v-1.64H43.77v-.71l3.39-4.83H48v4.8h1.06Zm-1.84-.74v-2.37c0-.47,0-1,0-1.58h0a8.38,8.38,0,0,1-.44.78l-2.23,3.17Z" style="fill:#939598"/><path d="M54.29,114.91h-4v-7.14h4v.74H51.14v2.29h3v.74h-3v2.62h3.15Z" style="fill:#939598"/><path d="M59,108.41a2.33,2.33,0,0,0-1.86.78,3.13,3.13,0,0,0-.68,2.15,3.26,3.26,0,0,0,.65,2.16,2.36,2.36,0,0,0,1.88.77,6.39,6.39,0,0,0,1.7-.27v.73a5.43,5.43,0,0,1-1.83.27,3.11,3.11,0,0,1-2.44-1,4,4,0,0,1-.85-2.72,4.4,4.4,0,0,1,.41-1.94,2.93,2.93,0,0,1,1.19-1.27,3.51,3.51,0,0,1,1.84-.45,4.35,4.35,0,0,1,2,.41l-.35.71A3.84,3.84,0,0,0,59,108.41Z" style="fill:#939598"/><path d="M63.11,114.91h-.83v-7.14h4v.74H63.11v2.61h3v.74h-3Z" style="fill:#939598"/><path d="M68.32,114.91h-.83v-7.14h4v.74H68.32v2.61h3v.74h-3Z" style="fill:#939598"/><path d="M173.91,110.52l-.32,1.66H175v.63h-1.5l-.41,2.1h-.67l.41-2.1h-1.48l-.4,2.1h-.66l.39-2.1h-1.28v-.63h1.4l.33-1.66h-1.35v-.62h1.46l.4-2.13h.68l-.4,2.13h1.49l.41-2.13h.65L174,109.9h1.29v.62Zm-2.47,1.66h1.48l.32-1.66h-1.48Z" style="fill:#939598"/><path d="M180.85,111.33a5.2,5.2,0,0,1-.58,2.76,2,2,0,0,1-1.79.91,2,2,0,0,1-1.75-.93,5.11,5.11,0,0,1-.6-2.74,5.17,5.17,0,0,1,.58-2.77,2.16,2.16,0,0,1,3.54,0A5.12,5.12,0,0,1,180.85,111.33Zm-3.9,0a5.16,5.16,0,0,0,.37,2.27,1.31,1.31,0,0,0,2.34,0,7.27,7.27,0,0,0,0-4.52,1.24,1.24,0,0,0-1.18-.71,1.21,1.21,0,0,0-1.16.7A5.16,5.16,0,0,0,177,111.33Z" style="fill:#939598"/><path d="M186.62,111.33a5.3,5.3,0,0,1-.58,2.76,2,2,0,0,1-1.79.91,2,2,0,0,1-1.75-.93,5.11,5.11,0,0,1-.6-2.74,5.17,5.17,0,0,1,.58-2.77,2.16,2.16,0,0,1,3.54,0A5.12,5.12,0,0,1,186.62,111.33Zm-3.9,0a5.33,5.33,0,0,0,.36,2.27,1.24,1.24,0,0,0,1.17.71,1.22,1.22,0,0,0,1.17-.72,7.09,7.09,0,0,0,0-4.52,1.32,1.32,0,0,0-2.34,0A5.33,5.33,0,0,0,182.72,111.33Z" style="fill:#939598"/><path d="M192.35,114.91h-4.69v-.7l1.88-1.89a13.5,13.5,0,0,0,1.13-1.24,3.35,3.35,0,0,0,.41-.72,2.14,2.14,0,0,0,.14-.76,1.23,1.23,0,0,0-.35-.91,1.33,1.33,0,0,0-1-.33,2.41,2.41,0,0,0-.85.15,3.06,3.06,0,0,0-.88.53l-.43-.55a3.27,3.27,0,0,1,2.15-.82,2.26,2.26,0,0,1,1.57.51,1.75,1.75,0,0,1,.58,1.38,2.74,2.74,0,0,1-.38,1.35,8.85,8.85,0,0,1-1.43,1.68l-1.56,1.53v0h3.67Z" style="fill:#939598"/><path d="M194.33,114.91l3-6.39h-3.9v-.75h4.76v.65l-2.92,6.49Z" style="fill:#939598"/><path d="M204.22,113.27h-1.06v1.64h-.78v-1.64h-3.47v-.71l3.39-4.83h.86v4.8h1.06Zm-1.84-.74v-2.37c0-.47,0-1,.05-1.58h0a8.54,8.54,0,0,1-.43.78l-2.24,3.17Z" style="fill:#939598"/><path d="M207.19,110.55a2.58,2.58,0,0,1,1.77.56,1.88,1.88,0,0,1,.65,1.53,2.19,2.19,0,0,1-.7,1.73A2.82,2.82,0,0,1,207,115a3.66,3.66,0,0,1-1.84-.38v-.78a2.9,2.9,0,0,0,.85.34,4.36,4.36,0,0,0,1,.13,2,2,0,0,0,1.34-.41,1.47,1.47,0,0,0,.47-1.17q0-1.5-1.83-1.5a6.91,6.91,0,0,0-1.24.15l-.42-.27.27-3.34h3.55v.75h-2.86l-.18,2.14A5.38,5.38,0,0,1,207.19,110.55Z" style="fill:#939598"/><path d="M35.5,251.45l-.32,1.66h1.38v.62h-1.5l-.41,2.1H34l.41-2.1H32.91l-.4,2.1h-.66l.39-2.1H31v-.62h1.4l.33-1.66H31.34v-.63H32.8l.4-2.12h.68l-.4,2.12H35l.41-2.12H36l-.41,2.12h1.29v.63ZM33,253.11h1.48l.32-1.66H33.35Z" style="fill:#939598"/><path d="M39,255.83H38.2V248.7h4v.73H39V252h3v.74H39Z" style="fill:#939598"/><path d="M44.24,255.83h-.83V248.7h4v.73H44.24V252h3v.74h-3Z" style="fill:#939598"/><path d="M49,255.83l3-6.39H48.1v-.74h4.75v.65l-2.92,6.48Z" style="fill:#939598"/><path d="M58.32,250.37a1.6,1.6,0,0,1-.38,1.12,1.89,1.89,0,0,1-1.09.58v0a2.12,2.12,0,0,1,1.28.55,1.63,1.63,0,0,1,.41,1.15,1.86,1.86,0,0,1-.7,1.57,3.24,3.24,0,0,1-2,.55,6.53,6.53,0,0,1-1-.08,3.81,3.81,0,0,1-.92-.3v-.77a4.63,4.63,0,0,0,1,.34,4.45,4.45,0,0,0,1,.12c1.24,0,1.85-.48,1.85-1.45s-.68-1.3-2-1.3H55v-.69h.71a2.21,2.21,0,0,0,1.33-.37,1.23,1.23,0,0,0,.48-1,1,1,0,0,0-.36-.82,1.5,1.5,0,0,0-1-.29,3.12,3.12,0,0,0-.88.12,4,4,0,0,0-1,.47l-.41-.54a3.18,3.18,0,0,1,1-.55,3.74,3.74,0,0,1,1.21-.2,2.48,2.48,0,0,1,1.62.48A1.61,1.61,0,0,1,58.32,250.37Z" style="fill:#939598"/><path d="M64.4,252.26a5.3,5.3,0,0,1-.58,2.76,2,2,0,0,1-1.79.91,2,2,0,0,1-1.75-.93,6.73,6.73,0,0,1,0-5.51,2,2,0,0,1,1.77-.91,2,2,0,0,1,1.77.95A5.07,5.07,0,0,1,64.4,252.26Zm-3.9,0a5.28,5.28,0,0,0,.36,2.26,1.31,1.31,0,0,0,2.34,0,7.06,7.06,0,0,0,0-4.51,1.32,1.32,0,0,0-2.34,0A5.3,5.3,0,0,0,60.5,252.26Z" style="fill:#939598"/><path d="M70.17,252.26a5.19,5.19,0,0,1-.59,2.76,2.15,2.15,0,0,1-3.53,0,5,5,0,0,1-.61-2.74,5.16,5.16,0,0,1,.59-2.77,1.93,1.93,0,0,1,1.77-.91,2,2,0,0,1,1.76.95A5.06,5.06,0,0,1,70.17,252.26Zm-3.91,0a5.25,5.25,0,0,0,.37,2.26,1.31,1.31,0,0,0,2.34,0A7.06,7.06,0,0,0,69,250a1.32,1.32,0,0,0-2.34,0A5.28,5.28,0,0,0,66.26,252.26Z" style="fill:#939598"/><path d="M173.91,251.45l-.32,1.66H175v.62h-1.5l-.41,2.1h-.67l.41-2.1h-1.48l-.4,2.1h-.66l.39-2.1h-1.28v-.62h1.4l.33-1.66h-1.35v-.63h1.46l.4-2.12h.68l-.4,2.12h1.49l.41-2.12h.65l-.41,2.12h1.29v.63Zm-2.47,1.66h1.48l.32-1.66h-1.48Z" style="fill:#939598"/><path d="M181.15,254.19h-1.06v1.64h-.78v-1.64h-3.47v-.7l3.39-4.83h.86v4.8h1.06Zm-1.84-.73v-2.38c0-.46,0-1,.05-1.57h0a5.68,5.68,0,0,1-.44.77l-2.23,3.18Z" style="fill:#939598"/><path d="M184.25,248.59a2.39,2.39,0,0,1,1.55.46,1.51,1.51,0,0,1,.57,1.25,1.55,1.55,0,0,1-.33,1,2.71,2.71,0,0,1-1,.79,3.42,3.42,0,0,1,1.23.88,1.59,1.59,0,0,1,.37,1,1.77,1.77,0,0,1-.62,1.42,2.49,2.49,0,0,1-1.7.53,2.69,2.69,0,0,1-1.76-.5,1.72,1.72,0,0,1-.61-1.42,2.13,2.13,0,0,1,1.49-1.91,2.71,2.71,0,0,1-1-.82,1.77,1.77,0,0,1-.29-1,1.51,1.51,0,0,1,.58-1.24A2.4,2.4,0,0,1,184.25,248.59ZM182.71,254a1.1,1.1,0,0,0,.41.92,1.82,1.82,0,0,0,1.14.32,1.68,1.68,0,0,0,1.13-.34,1.2,1.2,0,0,0,0-1.78,4.07,4.07,0,0,0-1.33-.71,2.58,2.58,0,0,0-1.05.69A1.32,1.32,0,0,0,182.71,254Zm1.53-4.78a1.49,1.49,0,0,0-1,.29,1,1,0,0,0-.34.79,1.09,1.09,0,0,0,.29.77,2.94,2.94,0,0,0,1.06.64,2.48,2.48,0,0,0,1-.63,1.16,1.16,0,0,0,.29-.78,1,1,0,0,0-.35-.79A1.55,1.55,0,0,0,184.24,249.25Z" style="fill:#939598"/><path d="M189.89,251.47a2.63,2.63,0,0,1,1.77.56,1.94,1.94,0,0,1,.65,1.53,2.22,2.22,0,0,1-.71,1.74,2.8,2.8,0,0,1-1.94.63,3.63,3.63,0,0,1-1.84-.38v-.78a2.9,2.9,0,0,0,.85.34,4.34,4.34,0,0,0,1,.12,2,2,0,0,0,1.33-.4,1.45,1.45,0,0,0,.48-1.17q0-1.5-1.83-1.5a7.76,7.76,0,0,0-1.24.14L188,252l.27-3.34h3.55v.74H189l-.18,2.15A5.33,5.33,0,0,1,189.89,251.47Z" style="fill:#939598"/><path d="M193.51,252.78a5.11,5.11,0,0,1,.81-3.15,2.92,2.92,0,0,1,2.42-1,2.88,2.88,0,0,1,.87.1v.69a2.79,2.79,0,0,0-.86-.12A2.16,2.16,0,0,0,195,250a3.69,3.69,0,0,0-.66,2.25h.06a1.85,1.85,0,0,1,1.69-.84,2,2,0,0,1,1.52.58,2.18,2.18,0,0,1,.56,1.57,2.43,2.43,0,0,1-.61,1.75,2.17,2.17,0,0,1-1.65.64,2.1,2.1,0,0,1-1.75-.83A3.66,3.66,0,0,1,193.51,252.78Zm2.39,2.46a1.35,1.35,0,0,0,1.08-.43,1.85,1.85,0,0,0,.38-1.27,1.61,1.61,0,0,0-.35-1.11,1.35,1.35,0,0,0-1.07-.4,1.77,1.77,0,0,0-.8.18,1.44,1.44,0,0,0-.59.5,1.17,1.17,0,0,0-.21.65,2.26,2.26,0,0,0,.19.94,1.66,1.66,0,0,0,.56.69A1.36,1.36,0,0,0,195.9,255.24Z" style="fill:#939598"/><path d="M200.09,255.83l3-6.39h-3.89v-.74h4.75v.65L201,255.83Z" style="fill:#939598"/><path d="M207.19,251.47A2.63,2.63,0,0,1,209,252a1.91,1.91,0,0,1,.65,1.53,2.21,2.21,0,0,1-.7,1.74,2.82,2.82,0,0,1-1.95.63,3.66,3.66,0,0,1-1.84-.38v-.78a2.9,2.9,0,0,0,.85.34,4.34,4.34,0,0,0,1,.12,2,2,0,0,0,1.34-.4,1.47,1.47,0,0,0,.47-1.17q0-1.5-1.83-1.5a7.76,7.76,0,0,0-1.24.14l-.42-.26.27-3.34h3.55v.74h-2.86l-.18,2.15A5.4,5.4,0,0,1,207.19,251.47Z" style="fill:#939598"/></svg>