<svg id="Layer_1" data-name="Layer 1" xmlns="http://www.w3.org/2000/svg" xmlns:xlink="http://www.w3.org/1999/xlink" viewBox="0 0 440.09 354.58"><defs><style>.cls-1,.cls-12,.cls-2,.cls-4{fill:none;}.cls-2{clip-rule:evenodd;}.cls-3{clip-path:url(#clip-path);}.cls-4{stroke:#9e1f62;stroke-width:9.92px;}.cls-12,.cls-4{stroke-miterlimit:10;}.cls-5{fill:#0edbbe;}.cls-6{fill:#00d5ff;}.cls-7{fill:#ff5700;}.cls-8{fill:#005277;}.cls-9{clip-path:url(#clip-path-2);}.cls-10{clip-path:url(#clip-path-3);}.cls-11{fill:#ffe43f;}.cls-12{stroke:#ffe43f;stroke-width:9.29px;}</style><clipPath id="clip-path"><rect class="cls-1" x="35.45" y="35.02" width="86.79" height="86.79"/></clipPath><clipPath id="clip-path-2"><path class="cls-2" d="M111.71,251.21A33.75,33.75,0,1,1,78,217.46a33.74,33.74,0,0,1,33.74,33.75"/></clipPath><clipPath id="clip-path-3"><rect class="cls-1" x="-279.27" y="-54.83" width="872.73" height="1889.75"/></clipPath></defs><title>Swatches</title><g class="cls-3"><line class="cls-4" x1="137.41" y1="136.86" x2="17.12" y2="16.57"/><line class="cls-4" x1="21.48" y1="61.02" x2="98.11" y2="137.65"/><line class="cls-4" x1="19.53" y1="99.15" x2="62.12" y2="141.75"/><line class="cls-4" x1="142.11" y1="61.37" x2="99.9" y2="19.17"/><line class="cls-4" x1="138.2" y1="97.56" x2="59.24" y2="18.6"/></g><circle class="cls-5" cx="226.55" cy="78.06" r="48.38"/><rect class="cls-6" x="322.05" y="205.2" width="87.66" height="87.66"/><polygon class="cls-7" points="411.24 25.67 411.24 119.27 317.64 119.27 411.24 25.67"/><rect class="cls-8" x="186.27" y="206.92" width="80.55" height="80.55" transform="translate(-108.44 232.6) rotate(-45)"/><g class="cls-9"><g class="cls-10"><rect class="cls-11" x="32.59" y="205.82" width="90.76" height="90.76"/></g></g><line class="cls-12" x1="79.09" y1="209.79" x2="79.09" y2="195.61"/><line class="cls-12" x1="49.24" y1="222.37" x2="38.21" y2="211.33"/><line class="cls-12" x1="37.44" y1="251.31" x2="22.43" y2="251.31"/><line class="cls-12" x1="49.24" y1="282.07" x2="38.21" y2="293.1"/><line class="cls-12" x1="79.09" y1="292.62" x2="79.09" y2="306.81"/><line class="cls-12" x1="108.95" y1="282.07" x2="119.98" y2="293.1"/><line class="cls-12" x1="120.38" y1="251.31" x2="135.26" y2="251.31"/><line class="cls-12" x1="108.95" y1="222.37" x2="119.98" y2="211.33"/><path d="M211.06,140.76l-.3,1.51H212v.57h-1.36l-.38,1.92h-.61l.38-1.92H208.7l-.37,1.92h-.6l.35-1.92h-1.16v-.57h1.27l.31-1.51h-1.24v-.57h1.34l.36-1.94h.62l-.37,1.94h1.36l.38-1.94h.59l-.37,1.94h1.18v.57Zm-2.26,1.51h1.35l.3-1.51H209.1Z"/><path d="M217.34,141.5a4.83,4.83,0,0,1-.53,2.52,2,2,0,0,1-3.23,0,6.18,6.18,0,0,1,0-5,2,2,0,0,1,3.22,0A4.6,4.6,0,0,1,217.34,141.5Zm-3.56,0a4.62,4.62,0,0,0,.34,2.06,1.1,1.1,0,0,0,1.06.65,1.12,1.12,0,0,0,1.07-.65,6.59,6.59,0,0,0,0-4.12,1.12,1.12,0,0,0-1.07-.65,1.1,1.1,0,0,0-1.06.64A4.64,4.64,0,0,0,213.78,141.5Z"/><path d="M222.32,144.76h-3.63v-6.51h3.63v.67h-2.87V141h2.7v.67h-2.7v2.39h2.87Z"/><path d="M229,141.44a3.27,3.27,0,0,1-.88,2.47,3.44,3.44,0,0,1-2.51.85h-1.81v-6.51h2a2.92,2.92,0,0,1,3.2,3.19Zm-.8,0a2.6,2.6,0,0,0-.64-1.92,2.57,2.57,0,0,0-1.9-.65h-1.1v5.21h.92a2.85,2.85,0,0,0,2-.67A2.64,2.64,0,0,0,228.16,141.47Z"/><path d="M230.41,138.25h1.84a3.49,3.49,0,0,1,1.88.39,1.36,1.36,0,0,1,.57,1.22,1.39,1.39,0,0,1-.32,1,1.52,1.52,0,0,1-.94.48v0c1,.17,1.48.69,1.48,1.56a1.66,1.66,0,0,1-.59,1.36,2.48,2.48,0,0,1-1.65.49h-2.27Zm.76,2.79h1.25a2.11,2.11,0,0,0,1.15-.25,1,1,0,0,0,.35-.85.85.85,0,0,0-.39-.79,2.37,2.37,0,0,0-1.25-.25h-1.11Zm0,.64v2.43h1.36a1.94,1.94,0,0,0,1.18-.3,1.11,1.11,0,0,0,.4-1,1,1,0,0,0-.41-.89,2.17,2.17,0,0,0-1.24-.28Z"/><path d="M236.32,138.25h1.84a3.43,3.43,0,0,1,1.87.39,1.34,1.34,0,0,1,.58,1.22,1.39,1.39,0,0,1-.32,1,1.52,1.52,0,0,1-.94.48v0c1,.17,1.48.69,1.48,1.56a1.66,1.66,0,0,1-.59,1.36,2.48,2.48,0,0,1-1.65.49h-2.27Zm.76,2.79h1.24a2.12,2.12,0,0,0,1.16-.25,1,1,0,0,0,.35-.85.85.85,0,0,0-.39-.79,2.37,2.37,0,0,0-1.25-.25h-1.11Zm0,.64v2.43h1.36a1.94,1.94,0,0,0,1.18-.3,1.11,1.11,0,0,0,.4-1,1,1,0,0,0-.41-.89,2.17,2.17,0,0,0-1.24-.28Z"/><path d="M245.86,144.76h-3.63v-6.51h3.63v.67H243V141h2.7v.67H243v2.39h2.87Z"/><path d="M66.1,140.76l-.29,1.51h1.26v.57H65.7l-.37,1.92h-.61l.37-1.92H63.74l-.36,1.92h-.61l.36-1.92H62v-.57h1.28l.3-1.51H62.31v-.57h1.33l.37-1.94h.61l-.36,1.94h1.36l.37-1.94h.6l-.38,1.94h1.18v.57Zm-2.25,1.51H65.2l.29-1.51H64.14Z"/><path d="M72.35,141c0,2.55-1,3.82-3,3.82a3,3,0,0,1-.82-.09v-.64a2.55,2.55,0,0,0,.81.12,2,2,0,0,0,1.62-.66,3.36,3.36,0,0,0,.59-2h0a1.54,1.54,0,0,1-.65.56,2.06,2.06,0,0,1-.91.2,1.83,1.83,0,0,1-1.37-.52,2,2,0,0,1-.51-1.44,2.23,2.23,0,0,1,.57-1.61,2,2,0,0,1,1.49-.58,2,2,0,0,1,1.16.34,2,2,0,0,1,.76,1A4,4,0,0,1,72.35,141Zm-2.19-2.24a1.19,1.19,0,0,0-1,.41,1.66,1.66,0,0,0-.35,1.14,1.51,1.51,0,0,0,.32,1,1.23,1.23,0,0,0,1,.36,1.71,1.71,0,0,0,.75-.16,1.34,1.34,0,0,0,.54-.45,1,1,0,0,0,.19-.6,2,2,0,0,0-.18-.86,1.43,1.43,0,0,0-.51-.62A1.23,1.23,0,0,0,70.16,138.79Z"/><path d="M77.37,144.76H73.74v-6.51h3.63v.67H74.49V141h2.7v.67h-2.7v2.39h2.88Z"/><path d="M81.1,144.76h-.72v-4.64c0-.39,0-.75,0-1.1a2,2,0,0,1-.21.2c-.07.07-.43.36-1.06.87l-.39-.51,1.72-1.33h.63Z"/><path d="M84.78,144.76H84v-6.51h3.63v.67H84.78v2.38h2.7V142h-2.7Z"/><path d="M88.36,142a4.58,4.58,0,0,1,.74-2.87,2.62,2.62,0,0,1,2.21-1,2.82,2.82,0,0,1,.79.08v.64a2.37,2.37,0,0,0-.78-.11,2,2,0,0,0-1.6.65,3.35,3.35,0,0,0-.61,2.05h.06a1.7,1.7,0,0,1,1.55-.77,1.84,1.84,0,0,1,1.38.53,2,2,0,0,1,.5,1.44,2.22,2.22,0,0,1-.55,1.6,2,2,0,0,1-1.5.58,1.91,1.91,0,0,1-1.6-.76A3.33,3.33,0,0,1,88.36,142Zm2.18,2.24a1.22,1.22,0,0,0,1-.4,1.65,1.65,0,0,0,.35-1.15,1.44,1.44,0,0,0-.32-1,1.22,1.22,0,0,0-1-.37,1.67,1.67,0,0,0-.74.16,1.32,1.32,0,0,0-.53.46,1.05,1.05,0,0,0-.2.6,2,2,0,0,0,.18.85,1.46,1.46,0,0,0,.51.63A1.25,1.25,0,0,0,90.54,144.22Z"/><path d="M97.77,144.76H93.5v-.64l1.71-1.72a12.9,12.9,0,0,0,1-1.13,3.26,3.26,0,0,0,.38-.66,1.92,1.92,0,0,0,.12-.69,1.11,1.11,0,0,0-.31-.83,1.25,1.25,0,0,0-.88-.3,2.19,2.19,0,0,0-.77.13,3.06,3.06,0,0,0-.81.49l-.39-.51a3,3,0,0,1,2-.74,2,2,0,0,1,1.44.47,1.63,1.63,0,0,1,.52,1.26,2.44,2.44,0,0,1-.35,1.22,7.2,7.2,0,0,1-1.3,1.53L94.43,144v0h3.34Z"/><path d="M352.16,140.76l-.29,1.51h1.26v.57h-1.37l-.37,1.92h-.61l.37-1.92H349.8l-.36,1.92h-.61l.36-1.92H348v-.57h1.28l.3-1.51h-1.23v-.57h1.33l.37-1.94h.62l-.37,1.94h1.36l.37-1.94h.6l-.37,1.94h1.17v.57Zm-2.25,1.51h1.35l.29-1.51H350.2Z"/><path d="M355.34,144.76h-.76v-6.51h3.63v.67h-2.87v2.38H358V142h-2.7Z"/><path d="M360.05,144.76h-.76v-6.51h3.63v.67h-2.87v2.38h2.69V142h-2.69Z"/><path d="M365.58,140.78a2.38,2.38,0,0,1,1.62.51,1.77,1.77,0,0,1,.59,1.4,2,2,0,0,1-.64,1.58,2.54,2.54,0,0,1-1.78.58,3.34,3.34,0,0,1-1.68-.35v-.72a2.54,2.54,0,0,0,.78.32,4.11,4.11,0,0,0,.91.11,1.82,1.82,0,0,0,1.22-.37,1.31,1.31,0,0,0,.43-1.07c0-.9-.55-1.36-1.67-1.36a6.27,6.27,0,0,0-1.13.13l-.38-.24.24-3.05h3.24v.68h-2.6l-.17,2A5.05,5.05,0,0,1,365.58,140.78Z"/><path d="M369.58,144.76l2.7-5.83h-3.55v-.68h4.34v.59l-2.67,5.92Z"/><path d="M378.29,141.5a4.83,4.83,0,0,1-.53,2.52,2,2,0,0,1-3.23,0,6.08,6.08,0,0,1,0-5,2,2,0,0,1,3.22,0A4.6,4.6,0,0,1,378.29,141.5Zm-3.56,0a4.62,4.62,0,0,0,.34,2.06,1.1,1.1,0,0,0,1.06.65,1.12,1.12,0,0,0,1.07-.65,6.59,6.59,0,0,0,0-4.12,1.12,1.12,0,0,0-1.07-.65,1.1,1.1,0,0,0-1.06.64A4.64,4.64,0,0,0,374.73,141.5Z"/><path d="M383.51,141.5A4.72,4.72,0,0,1,383,144a2,2,0,0,1-3.22,0,4.64,4.64,0,0,1-.55-2.5,4.79,4.79,0,0,1,.53-2.53,2,2,0,0,1,3.23,0A4.69,4.69,0,0,1,383.51,141.5Zm-3.56,0a4.79,4.79,0,0,0,.33,2.06,1.11,1.11,0,0,0,1.07.65,1.12,1.12,0,0,0,1.07-.65,6.59,6.59,0,0,0,0-4.12,1.21,1.21,0,0,0-2.14,0A4.81,4.81,0,0,0,380,141.5Z"/><path d="M64.88,323.69l-.29,1.51h1.26v.58H64.48l-.37,1.91H63.5l.37-1.91H62.52l-.36,1.91h-.61l.36-1.91H60.74v-.58H62l.3-1.51H61.09v-.57h1.33l.36-1.94h.62L63,323.12H64.4l.37-1.94h.6L65,323.12h1.18v.57Zm-2.25,1.51H64l.29-1.51H62.92Z"/><path d="M68.06,327.69H67.3v-6.51h3.63v.68H68.06v2.38h2.69v.67H68.06Z"/><path d="M72.76,327.69H72v-6.51h3.63v.68H72.76v2.38h2.7v.67h-2.7Z"/><path d="M80.34,327.69H76.71v-6.51h3.63v.68H77.47V324h2.7v.67h-2.7V327h2.87Z"/><path d="M85.92,326.2H85v1.49h-.71V326.2H81.08v-.65l3.09-4.4H85v4.37h1Zm-1.67-.68v-2.16c0-.42,0-.9,0-1.44h0c-.15.29-.28.52-.4.71l-2,2.89Z"/><path d="M90.59,322.72a1.48,1.48,0,0,1-.35,1,1.71,1.71,0,0,1-1,.53v0a1.9,1.9,0,0,1,1.17.5,1.49,1.49,0,0,1,.38,1.05,1.7,1.7,0,0,1-.65,1.43,2.9,2.9,0,0,1-1.84.5,4.64,4.64,0,0,1-.94-.08,3.17,3.17,0,0,1-.84-.27v-.7a4.67,4.67,0,0,0,.91.32,4.13,4.13,0,0,0,.9.1c1.13,0,1.69-.44,1.69-1.32s-.62-1.18-1.86-1.18h-.64V324h.65a1.9,1.9,0,0,0,1.2-.34,1.09,1.09,0,0,0,.45-.93.92.92,0,0,0-.33-.75,1.35,1.35,0,0,0-.89-.27,2.63,2.63,0,0,0-.8.12,4.22,4.22,0,0,0-.87.42l-.37-.49a3.14,3.14,0,0,1,.92-.5,3.4,3.4,0,0,1,1.11-.18,2.24,2.24,0,0,1,1.47.43A1.48,1.48,0,0,1,90.59,322.72Z"/><path d="M93,327.69h-.75v-6.51h3.62v.68H93v2.38h2.7v.67H93Z"/><path d="M351.45,323.69l-.3,1.51h1.26v.58h-1.36l-.38,1.91h-.61l.38-1.91h-1.35l-.37,1.91h-.6l.35-1.91h-1.16v-.58h1.27l.31-1.51h-1.24v-.57H349l.37-1.94H350l-.37,1.94H351l.38-1.94h.59l-.37,1.94h1.17v.57Zm-2.26,1.51h1.35l.3-1.51h-1.35Z"/><path d="M357.73,324.43a4.83,4.83,0,0,1-.53,2.52,2,2,0,0,1-3.23,0,4.7,4.7,0,0,1-.55-2.5,4.82,4.82,0,0,1,.53-2.53,1.82,1.82,0,0,1,1.62-.82,1.8,1.8,0,0,1,1.61.86A4.6,4.6,0,0,1,357.73,324.43Zm-3.56,0a4.64,4.64,0,0,0,.34,2.07,1.19,1.19,0,0,0,2.13,0,6.59,6.59,0,0,0,0-4.12,1.12,1.12,0,0,0-1.07-.65,1.11,1.11,0,0,0-1.06.65A4.56,4.56,0,0,0,354.17,324.43Z"/><path d="M363,324.43a4.72,4.72,0,0,1-.54,2.52,2,2,0,0,1-3.22,0,4.61,4.61,0,0,1-.55-2.5,4.82,4.82,0,0,1,.53-2.53,2,2,0,0,1,3.23,0A4.69,4.69,0,0,1,363,324.43Zm-3.56,0a4.81,4.81,0,0,0,.33,2.07,1.2,1.2,0,0,0,2.14,0,6.59,6.59,0,0,0,0-4.12,1.21,1.21,0,0,0-2.14,0A4.73,4.73,0,0,0,359.39,324.43Z"/><path d="M369.49,324.38a3.3,3.3,0,0,1-.87,2.46,3.48,3.48,0,0,1-2.52.85h-1.81v-6.51h2a2.92,2.92,0,0,1,3.2,3.2Zm-.8,0a2.6,2.6,0,0,0-.64-1.92,2.57,2.57,0,0,0-1.9-.64h-1.1V327H366a2.79,2.79,0,0,0,2-.67A2.64,2.64,0,0,0,368.69,324.4Z"/><path d="M372.53,323.72a2.42,2.42,0,0,1,1.62.51,1.75,1.75,0,0,1,.59,1.39,2,2,0,0,1-.65,1.59,2.58,2.58,0,0,1-1.77.57,3.24,3.24,0,0,1-1.68-.35v-.71a2.54,2.54,0,0,0,.78.31,3.56,3.56,0,0,0,.91.12,1.87,1.87,0,0,0,1.22-.37,1.34,1.34,0,0,0,.43-1.07c0-.91-.56-1.37-1.67-1.37a7.35,7.35,0,0,0-1.13.13l-.38-.24.24-3.05h3.24v.68h-2.61l-.16,2A5,5,0,0,1,372.53,323.72Z"/><path d="M376.92,327.69h-.76v-6.51h3.63v.68h-2.87v2.38h2.69v.67h-2.69Z"/><path d="M381.62,327.69h-.76v-6.51h3.63v.68h-2.87v2.38h2.7v.67h-2.7Z"/><path d="M212.33,323.69l-.3,1.51h1.26v.58h-1.36l-.38,1.91h-.61l.38-1.91H210l-.37,1.91H209l.35-1.91h-1.16v-.58h1.27l.31-1.51h-1.24v-.57h1.33l.37-1.94h.62l-.37,1.94h1.36l.38-1.94h.59l-.37,1.94h1.17v.57Zm-2.26,1.51h1.35l.3-1.51h-1.35Z"/><path d="M218.61,324.43a4.83,4.83,0,0,1-.53,2.52,2,2,0,0,1-3.23,0,4.7,4.7,0,0,1-.55-2.5,4.82,4.82,0,0,1,.53-2.53,1.82,1.82,0,0,1,1.62-.82,1.8,1.8,0,0,1,1.61.86A4.6,4.6,0,0,1,218.61,324.43Zm-3.56,0a4.64,4.64,0,0,0,.34,2.07,1.19,1.19,0,0,0,2.13,0,6.59,6.59,0,0,0,0-4.12,1.12,1.12,0,0,0-1.07-.65,1.11,1.11,0,0,0-1.06.65A4.56,4.56,0,0,0,215.05,324.43Z"/><path d="M223.83,324.43a4.72,4.72,0,0,1-.54,2.52,2,2,0,0,1-3.22,0,4.61,4.61,0,0,1-.55-2.5,4.82,4.82,0,0,1,.53-2.53,2,2,0,0,1,3.23,0A4.69,4.69,0,0,1,223.83,324.43Zm-3.56,0a4.81,4.81,0,0,0,.33,2.07,1.2,1.2,0,0,0,2.14,0,6.59,6.59,0,0,0,0-4.12,1.21,1.21,0,0,0-2.14,0A4.73,4.73,0,0,0,220.27,324.43Z"/><path d="M226.76,323.72a2.38,2.38,0,0,1,1.62.51,1.75,1.75,0,0,1,.59,1.39,2,2,0,0,1-.64,1.59,2.59,2.59,0,0,1-1.78.57,3.24,3.24,0,0,1-1.68-.35v-.71a2.54,2.54,0,0,0,.78.31,3.61,3.61,0,0,0,.91.12,1.87,1.87,0,0,0,1.22-.37,1.34,1.34,0,0,0,.43-1.07c0-.91-.55-1.37-1.67-1.37a7.35,7.35,0,0,0-1.13.13l-.38-.24.24-3.05h3.24v.68h-2.6l-.17,2A5,5,0,0,1,226.76,323.72Z"/><path d="M234.22,327.69h-4.28v-.63l1.71-1.73a12.09,12.09,0,0,0,1-1.13,2.74,2.74,0,0,0,.37-.66,1.93,1.93,0,0,0,.13-.69,1.09,1.09,0,0,0-.32-.82,1.18,1.18,0,0,0-.88-.31,2.23,2.23,0,0,0-.77.14,2.81,2.81,0,0,0-.8.48l-.4-.5a3,3,0,0,1,2-.75,2.06,2.06,0,0,1,1.44.47,1.59,1.59,0,0,1,.52,1.26,2.49,2.49,0,0,1-.34,1.23,8.5,8.5,0,0,1-1.3,1.53L230.87,327v0h3.35Z"/><path d="M236,327.69l2.7-5.83h-3.55v-.68h4.33v.6l-2.66,5.91Z"/><path d="M241.19,327.69l2.7-5.83h-3.55v-.68h4.34v.6L242,327.69Z"/></svg>