<svg id="Layer_1" data-name="Layer 1" xmlns="http://www.w3.org/2000/svg" xmlns:xlink="http://www.w3.org/1999/xlink" viewBox="0 0 1531.06 793.28"><defs><style>.cls-1,.cls-12,.cls-2,.cls-4{fill:none;}.cls-2{clip-rule:evenodd;}.cls-3{clip-path:url(#clip-path);}.cls-4{stroke:#9e1f62;stroke-width:10.12px;}.cls-12,.cls-4{stroke-miterlimit:10;}.cls-5{fill:#0edbbe;}.cls-6{fill:#ff5700;}.cls-7{fill:#00d5ff;}.cls-8{fill:#005277;}.cls-9{clip-path:url(#clip-path-2);}.cls-10{clip-path:url(#clip-path-3);}.cls-11{fill:#ffe43f;}.cls-12{stroke:#ffe43f;stroke-width:9.48px;}.cls-13{clip-path:url(#clip-path-4);}.cls-14{clip-path:url(#clip-path-5);}.cls-15{clip-path:url(#clip-path-6);}.cls-16{clip-path:url(#clip-path-7);}.cls-17{clip-path:url(#clip-path-8);}.cls-18{clip-path:url(#clip-path-9);}.cls-19{clip-path:url(#clip-path-10);}.cls-20{clip-path:url(#clip-path-11);}.cls-21{clip-path:url(#clip-path-12);}.cls-22{clip-path:url(#clip-path-13);}.cls-23{clip-path:url(#clip-path-14);}.cls-24{clip-path:url(#clip-path-15);}.cls-25{clip-path:url(#clip-path-16);}.cls-26{clip-path:url(#clip-path-17);}.cls-27{clip-path:url(#clip-path-18);}.cls-28{clip-path:url(#clip-path-19);}.cls-29{clip-path:url(#clip-path-20);}.cls-30{clip-path:url(#clip-path-21);}.cls-31{clip-path:url(#clip-path-22);}.cls-32{clip-path:url(#clip-path-23);}.cls-33{clip-path:url(#clip-path-24);}.cls-34{clip-path:url(#clip-path-25);}.cls-35{clip-path:url(#clip-path-26);}.cls-36{clip-path:url(#clip-path-27);}.cls-37{clip-path:url(#clip-path-28);}.cls-38{clip-path:url(#clip-path-29);}</style><clipPath id="clip-path"><rect class="cls-1" x="39.23" y="348.62" width="88.6" height="88.6"/></clipPath><clipPath id="clip-path-2"><path class="cls-2" d="M575.74,395.66a34.45,34.45,0,1,1-34.45-34.45,34.45,34.45,0,0,1,34.45,34.45"/></clipPath><clipPath id="clip-path-3"><rect class="cls-1" x="176.6" y="83.24" width="890.95" height="1929.19"/></clipPath><clipPath id="clip-path-4"><rect class="cls-1" x="938.24" y="348.62" width="88.6" height="88.6"/></clipPath><clipPath id="clip-path-5"><path class="cls-2" d="M1474.75,395.66a34.45,34.45,0,1,1-34.45-34.45,34.45,34.45,0,0,1,34.45,34.45"/></clipPath><clipPath id="clip-path-6"><rect class="cls-1" x="1075.61" y="83.24" width="890.95" height="1929.19"/></clipPath><clipPath id="clip-path-7"><rect class="cls-1" x="545.06" y="510.2" width="88.6" height="88.6"/></clipPath><clipPath id="clip-path-8"><path class="cls-2" d="M1081.56,557.24a34.45,34.45,0,1,1-34.44-34.45,34.45,34.45,0,0,1,34.44,34.45"/></clipPath><clipPath id="clip-path-9"><rect class="cls-1" x="682.42" y="244.82" width="890.95" height="1929.19"/></clipPath><clipPath id="clip-path-10"><rect class="cls-1" x="1444.07" y="510.2" width="88.6" height="88.6"/></clipPath><clipPath id="clip-path-11"><path class="cls-2" d="M162.43,557.24A34.45,34.45,0,1,1,128,522.79a34.45,34.45,0,0,1,34.45,34.45"/></clipPath><clipPath id="clip-path-12"><rect class="cls-1" x="-236.71" y="244.82" width="890.95" height="1929.19"/></clipPath><clipPath id="clip-path-13"><rect class="cls-1" x="807.43" y="670.41" width="88.6" height="88.6"/></clipPath><clipPath id="clip-path-14"><path class="cls-2" d="M1343.94,717.45A34.45,34.45,0,1,1,1309.49,683a34.45,34.45,0,0,1,34.45,34.45"/></clipPath><clipPath id="clip-path-15"><rect class="cls-1" x="944.8" y="405.03" width="890.95" height="1929.19"/></clipPath><clipPath id="clip-path-16"><rect class="cls-1" x="-111.7" y="670.41" width="88.6" height="88.6"/></clipPath><clipPath id="clip-path-17"><path class="cls-2" d="M424.81,717.45A34.45,34.45,0,1,1,390.36,683a34.46,34.46,0,0,1,34.45,34.45"/></clipPath><clipPath id="clip-path-18"><rect class="cls-1" x="25.66" y="405.03" width="890.95" height="1929.19"/></clipPath><clipPath id="clip-path-19"><rect class="cls-1" x="498.26" y="38.6" width="88.6" height="88.6"/></clipPath><clipPath id="clip-path-20"><path class="cls-2" d="M1034.76,85.64a34.45,34.45,0,1,1-34.44-34.45,34.45,34.45,0,0,1,34.44,34.45"/></clipPath><clipPath id="clip-path-21"><rect class="cls-1" x="635.62" y="-226.78" width="890.95" height="1929.19"/></clipPath><clipPath id="clip-path-22"><rect class="cls-1" x="1397.27" y="38.6" width="88.6" height="88.6"/></clipPath><clipPath id="clip-path-23"><path class="cls-2" d="M115.63,85.64A34.45,34.45,0,1,1,81.18,51.19a34.45,34.45,0,0,1,34.45,34.45"/></clipPath><clipPath id="clip-path-24"><rect class="cls-1" x="-283.51" y="-226.78" width="890.95" height="1929.19"/></clipPath><clipPath id="clip-path-25"><rect class="cls-1" x="746.23" y="198.81" width="88.6" height="88.6"/></clipPath><clipPath id="clip-path-26"><path class="cls-2" d="M1282.74,245.85a34.45,34.45,0,1,1-34.45-34.45,34.45,34.45,0,0,1,34.45,34.45"/></clipPath><clipPath id="clip-path-27"><rect class="cls-1" x="883.6" y="-66.57" width="890.95" height="1929.19"/></clipPath><clipPath id="clip-path-28"><path class="cls-2" d="M363.61,245.85a34.45,34.45,0,1,1-34.45-34.45,34.46,34.46,0,0,1,34.45,34.45"/></clipPath><clipPath id="clip-path-29"><rect class="cls-1" x="-35.54" y="-66.57" width="890.95" height="1929.19"/></clipPath></defs><title>SwatchSymbols</title><g class="cls-3"><line class="cls-4" x1="143.32" y1="452.58" x2="20.52" y2="329.78"/><line class="cls-4" x1="24.97" y1="375.16" x2="103.2" y2="453.39"/><line class="cls-4" x1="22.97" y1="414.09" x2="66.45" y2="457.57"/><line class="cls-4" x1="148.11" y1="375.52" x2="105.03" y2="332.44"/><line class="cls-4" x1="144.13" y1="412.46" x2="63.52" y2="331.85"/></g><circle class="cls-5" cx="234.45" cy="392.92" r="49.39"/><polygon class="cls-6" points="420.18 339.07 420.18 434.62 324.63 434.62 420.18 339.07"/><rect class="cls-7" x="793.53" y="342.08" width="89.49" height="89.49"/><rect class="cls-8" x="651.27" y="350.45" width="82.23" height="82.23" transform="translate(-74.08 604.28) rotate(-45)"/><g class="cls-9"><g class="cls-10"><rect class="cls-11" x="494.96" y="349.33" width="92.66" height="92.66"/></g></g><line class="cls-12" x1="542.44" y1="353.39" x2="542.44" y2="338.9"/><line class="cls-12" x1="511.96" y1="366.22" x2="500.7" y2="354.95"/><line class="cls-12" x1="499.91" y1="395.77" x2="484.59" y2="395.77"/><line class="cls-12" x1="511.96" y1="427.17" x2="500.7" y2="438.44"/><line class="cls-12" x1="542.44" y1="437.94" x2="542.44" y2="452.42"/><line class="cls-12" x1="572.91" y1="427.17" x2="584.18" y2="438.44"/><line class="cls-12" x1="584.58" y1="395.77" x2="599.78" y2="395.77"/><line class="cls-12" x1="572.91" y1="366.22" x2="584.18" y2="354.95"/><g class="cls-13"><line class="cls-4" x1="1042.33" y1="452.58" x2="919.53" y2="329.78"/><line class="cls-4" x1="923.98" y1="375.16" x2="1002.21" y2="453.39"/><line class="cls-4" x1="921.99" y1="414.09" x2="965.47" y2="457.57"/><line class="cls-4" x1="1047.12" y1="375.52" x2="1004.04" y2="332.44"/><line class="cls-4" x1="1043.14" y1="412.46" x2="962.53" y2="331.85"/></g><circle class="cls-5" cx="1133.47" cy="392.92" r="49.39"/><polygon class="cls-6" points="1319.19 339.07 1319.19 434.62 1223.64 434.62 1319.19 339.07"/><g class="cls-14"><g class="cls-15"><rect class="cls-11" x="1393.97" y="349.33" width="92.66" height="92.66"/></g></g><line class="cls-12" x1="1441.45" y1="353.39" x2="1441.45" y2="338.9"/><line class="cls-12" x1="1410.98" y1="366.22" x2="1399.71" y2="354.95"/><line class="cls-12" x1="1398.93" y1="395.77" x2="1383.6" y2="395.77"/><line class="cls-12" x1="1410.98" y1="427.17" x2="1399.71" y2="438.44"/><line class="cls-12" x1="1441.45" y1="437.94" x2="1441.45" y2="452.42"/><line class="cls-12" x1="1471.93" y1="427.17" x2="1483.19" y2="438.44"/><line class="cls-12" x1="1483.6" y1="395.77" x2="1498.79" y2="395.77"/><line class="cls-12" x1="1471.93" y1="366.22" x2="1483.19" y2="354.95"/><g class="cls-16"><line class="cls-4" x1="649.14" y1="614.16" x2="526.34" y2="491.36"/><line class="cls-4" x1="530.8" y1="536.74" x2="609.02" y2="614.97"/><line class="cls-4" x1="528.8" y1="575.67" x2="572.28" y2="619.15"/><line class="cls-4" x1="653.94" y1="537.1" x2="610.85" y2="494.01"/><line class="cls-4" x1="649.95" y1="574.04" x2="569.34" y2="493.43"/></g><circle class="cls-5" cx="740.28" cy="554.5" r="49.39"/><polygon class="cls-6" points="926 500.65 926 596.2 830.45 596.2 926 500.65"/><rect class="cls-7" x="1299.35" y="503.66" width="89.49" height="89.49"/><rect class="cls-8" x="1157.09" y="512.03" width="82.23" height="82.23" transform="translate(-40.18 1009.27) rotate(-45)"/><g class="cls-17"><g class="cls-18"><rect class="cls-11" x="1000.78" y="510.91" width="92.66" height="92.66"/></g></g><line class="cls-12" x1="1048.26" y1="514.96" x2="1048.26" y2="500.48"/><line class="cls-12" x1="1017.79" y1="527.8" x2="1006.52" y2="516.53"/><line class="cls-12" x1="1005.74" y1="557.34" x2="990.41" y2="557.34"/><line class="cls-12" x1="1017.79" y1="588.75" x2="1006.52" y2="600.01"/><line class="cls-12" x1="1048.26" y1="599.52" x2="1048.26" y2="614"/><line class="cls-12" x1="1078.74" y1="588.75" x2="1090" y2="600.01"/><line class="cls-12" x1="1090.41" y1="557.34" x2="1105.6" y2="557.34"/><line class="cls-12" x1="1078.74" y1="527.8" x2="1090" y2="516.53"/><g class="cls-19"><line class="cls-4" x1="1548.16" y1="614.16" x2="1425.35" y2="491.36"/><line class="cls-4" x1="1429.81" y1="536.74" x2="1508.04" y2="614.97"/><line class="cls-4" x1="1427.81" y1="575.67" x2="1471.29" y2="619.15"/><line class="cls-4" x1="1552.95" y1="537.1" x2="1509.86" y2="494.01"/><line class="cls-4" x1="1548.96" y1="574.04" x2="1468.35" y2="493.43"/></g><polygon class="cls-6" points="6.87 500.65 6.87 596.2 -88.68 596.2 6.87 500.65"/><rect class="cls-7" x="380.22" y="503.66" width="89.49" height="89.49"/><rect class="cls-8" x="237.96" y="512.03" width="82.23" height="82.23" transform="translate(-309.39 359.35) rotate(-45)"/><g class="cls-20"><g class="cls-21"><rect class="cls-11" x="81.65" y="510.91" width="92.66" height="92.66"/></g></g><line class="cls-12" x1="129.13" y1="514.96" x2="129.13" y2="500.48"/><line class="cls-12" x1="98.65" y1="527.8" x2="87.39" y2="516.53"/><line class="cls-12" x1="86.61" y1="557.34" x2="71.28" y2="557.34"/><line class="cls-12" x1="98.65" y1="588.75" x2="87.39" y2="600.01"/><line class="cls-12" x1="129.13" y1="599.52" x2="129.13" y2="614"/><line class="cls-12" x1="159.6" y1="588.75" x2="170.87" y2="600.01"/><line class="cls-12" x1="171.27" y1="557.34" x2="186.47" y2="557.34"/><line class="cls-12" x1="159.6" y1="527.8" x2="170.87" y2="516.53"/><g class="cls-22"><line class="cls-4" x1="911.52" y1="774.37" x2="788.72" y2="651.57"/><line class="cls-4" x1="793.17" y1="696.95" x2="871.4" y2="775.18"/><line class="cls-4" x1="791.17" y1="735.88" x2="834.66" y2="779.36"/><line class="cls-4" x1="916.31" y1="697.31" x2="873.23" y2="654.22"/><line class="cls-4" x1="912.33" y1="734.25" x2="831.72" y2="653.64"/></g><circle class="cls-5" cx="1002.65" cy="714.71" r="49.39"/><polygon class="cls-6" points="1188.38 660.86 1188.38 756.41 1092.83 756.41 1188.38 660.86"/><rect class="cls-8" x="1419.47" y="672.24" width="82.23" height="82.23" transform="translate(-76.62 1241.73) rotate(-45)"/><g class="cls-23"><g class="cls-24"><rect class="cls-11" x="1263.16" y="671.12" width="92.66" height="92.66"/></g></g><line class="cls-12" x1="1310.64" y1="675.17" x2="1310.64" y2="660.69"/><line class="cls-12" x1="1280.17" y1="688.01" x2="1268.9" y2="676.74"/><line class="cls-12" x1="1268.12" y1="717.55" x2="1252.79" y2="717.55"/><line class="cls-12" x1="1280.17" y1="748.96" x2="1268.9" y2="760.22"/><line class="cls-12" x1="1310.64" y1="759.73" x2="1310.64" y2="774.21"/><line class="cls-12" x1="1341.11" y1="748.96" x2="1352.38" y2="760.22"/><line class="cls-12" x1="1352.78" y1="717.55" x2="1367.98" y2="717.55"/><line class="cls-12" x1="1341.11" y1="688.01" x2="1352.38" y2="676.74"/><g class="cls-25"><line class="cls-4" x1="-2.82" y1="697.31" x2="-45.9" y2="654.22"/></g><circle class="cls-5" cx="83.52" cy="714.71" r="49.39"/><polygon class="cls-6" points="269.25 660.86 269.25 756.41 173.69 756.41 269.25 660.86"/><rect class="cls-7" x="642.6" y="663.87" width="89.49" height="89.49"/><rect class="cls-8" x="500.34" y="672.24" width="82.23" height="82.23" transform="translate(-345.83 591.8) rotate(-45)"/><g class="cls-26"><g class="cls-27"><rect class="cls-11" x="344.03" y="671.12" width="92.66" height="92.66"/></g></g><line class="cls-12" x1="391.51" y1="675.17" x2="391.51" y2="660.69"/><line class="cls-12" x1="361.03" y1="688.01" x2="349.77" y2="676.74"/><line class="cls-12" x1="348.98" y1="717.55" x2="333.66" y2="717.55"/><line class="cls-12" x1="361.03" y1="748.96" x2="349.77" y2="760.22"/><line class="cls-12" x1="391.51" y1="759.73" x2="391.51" y2="774.21"/><line class="cls-12" x1="421.98" y1="748.96" x2="433.25" y2="760.22"/><line class="cls-12" x1="433.65" y1="717.55" x2="448.85" y2="717.55"/><line class="cls-12" x1="421.98" y1="688.01" x2="433.25" y2="676.74"/><g class="cls-28"><line class="cls-4" x1="602.34" y1="142.56" x2="479.54" y2="19.76"/><line class="cls-4" x1="484" y1="65.14" x2="562.22" y2="143.37"/><line class="cls-4" x1="482" y1="104.07" x2="525.48" y2="147.55"/><line class="cls-4" x1="607.14" y1="65.5" x2="564.05" y2="22.41"/><line class="cls-4" x1="603.15" y1="102.44" x2="522.54" y2="21.83"/></g><circle class="cls-5" cx="693.48" cy="82.9" r="49.39"/><polygon class="cls-6" points="879.2 29.05 879.2 124.6 783.65 124.6 879.2 29.05"/><rect class="cls-7" x="1252.55" y="32.06" width="89.49" height="89.49"/><rect class="cls-8" x="1110.29" y="40.43" width="82.23" height="82.23" transform="translate(279.58 838.05) rotate(-45)"/><g class="cls-29"><g class="cls-30"><rect class="cls-11" x="953.98" y="39.31" width="92.66" height="92.66"/></g></g><line class="cls-12" x1="1001.46" y1="43.36" x2="1001.46" y2="28.88"/><line class="cls-12" x1="970.99" y1="56.2" x2="959.72" y2="44.93"/><line class="cls-12" x1="958.94" y1="85.74" x2="943.61" y2="85.74"/><line class="cls-12" x1="970.99" y1="117.15" x2="959.72" y2="128.41"/><line class="cls-12" x1="1001.46" y1="127.92" x2="1001.46" y2="142.4"/><line class="cls-12" x1="1031.94" y1="117.15" x2="1043.2" y2="128.41"/><line class="cls-12" x1="1043.61" y1="85.74" x2="1058.8" y2="85.74"/><line class="cls-12" x1="1031.94" y1="56.2" x2="1043.2" y2="44.93"/><g class="cls-31"><line class="cls-4" x1="1501.36" y1="142.56" x2="1378.55" y2="19.76"/><line class="cls-4" x1="1383.01" y1="65.14" x2="1461.24" y2="143.37"/><line class="cls-4" x1="1381.01" y1="104.07" x2="1424.49" y2="147.55"/><line class="cls-4" x1="1506.15" y1="65.5" x2="1463.06" y2="22.41"/><line class="cls-4" x1="1502.16" y1="102.44" x2="1421.55" y2="21.83"/></g><rect class="cls-7" x="333.42" y="32.06" width="89.49" height="89.49"/><rect class="cls-8" x="191.16" y="40.43" width="82.23" height="82.23" transform="translate(10.37 188.13) rotate(-45)"/><g class="cls-32"><g class="cls-33"><rect class="cls-11" x="34.85" y="39.31" width="92.66" height="92.66"/></g></g><line class="cls-12" x1="82.33" y1="43.36" x2="82.33" y2="28.88"/><line class="cls-12" x1="51.85" y1="56.2" x2="40.59" y2="44.93"/><line class="cls-12" x1="39.81" y1="85.74" x2="24.48" y2="85.74"/><line class="cls-12" x1="51.85" y1="117.15" x2="40.59" y2="128.41"/><line class="cls-12" x1="82.33" y1="127.92" x2="82.33" y2="142.4"/><line class="cls-12" x1="112.8" y1="117.15" x2="124.07" y2="128.41"/><line class="cls-12" x1="124.47" y1="85.74" x2="139.67" y2="85.74"/><line class="cls-12" x1="112.8" y1="56.2" x2="124.07" y2="44.93"/><g class="cls-34"><line class="cls-4" x1="850.32" y1="302.77" x2="727.52" y2="179.97"/><line class="cls-4" x1="731.97" y1="225.35" x2="810.2" y2="303.58"/><line class="cls-4" x1="729.97" y1="264.28" x2="773.46" y2="307.76"/><line class="cls-4" x1="855.11" y1="225.71" x2="812.03" y2="182.62"/><line class="cls-4" x1="851.13" y1="262.65" x2="770.52" y2="182.04"/></g><circle class="cls-5" cx="941.45" cy="243.11" r="49.39"/><polygon class="cls-6" points="1127.18 189.26 1127.18 284.81 1031.63 284.81 1127.18 189.26"/><rect class="cls-7" x="1500.53" y="192.27" width="89.49" height="89.49"/><rect class="cls-8" x="1358.27" y="200.64" width="82.23" height="82.23" transform="translate(238.93 1060.32) rotate(-45)"/><g class="cls-35"><g class="cls-36"><rect class="cls-11" x="1201.96" y="199.52" width="92.66" height="92.66"/></g></g><line class="cls-12" x1="1249.44" y1="203.57" x2="1249.44" y2="189.09"/><line class="cls-12" x1="1218.97" y1="216.41" x2="1207.7" y2="205.14"/><line class="cls-12" x1="1206.92" y1="245.95" x2="1191.59" y2="245.95"/><line class="cls-12" x1="1218.97" y1="277.36" x2="1207.7" y2="288.62"/><line class="cls-12" x1="1249.44" y1="288.13" x2="1249.44" y2="302.61"/><line class="cls-12" x1="1279.91" y1="277.36" x2="1291.18" y2="288.62"/><line class="cls-12" x1="1291.58" y1="245.95" x2="1306.78" y2="245.95"/><line class="cls-12" x1="1279.91" y1="216.41" x2="1291.18" y2="205.14"/><circle class="cls-5" cx="22.32" cy="243.11" r="49.39"/><polygon class="cls-6" points="208.05 189.26 208.05 284.81 112.5 284.81 208.05 189.26"/><rect class="cls-7" x="581.4" y="192.27" width="89.49" height="89.49"/><rect class="cls-8" x="439.14" y="200.64" width="82.23" height="82.23" transform="translate(-30.28 410.4) rotate(-45)"/><g class="cls-37"><g class="cls-38"><rect class="cls-11" x="282.83" y="199.52" width="92.66" height="92.66"/></g></g><line class="cls-12" x1="330.31" y1="203.57" x2="330.31" y2="189.09"/><line class="cls-12" x1="299.83" y1="216.41" x2="288.57" y2="205.14"/><line class="cls-12" x1="287.78" y1="245.95" x2="272.46" y2="245.95"/><line class="cls-12" x1="299.83" y1="277.36" x2="288.57" y2="288.62"/><line class="cls-12" x1="330.31" y1="288.13" x2="330.31" y2="302.61"/><line class="cls-12" x1="360.78" y1="277.36" x2="372.05" y2="288.62"/><line class="cls-12" x1="372.45" y1="245.95" x2="387.65" y2="245.95"/><line class="cls-12" x1="360.78" y1="216.41" x2="372.05" y2="205.14"/><rect class="cls-1" x="355.03" y="-393.85" width="827.45" height="1543.27" transform="translate(390.97 1146.54) rotate(-90)"/></svg>