<svg id="Layer_1" data-name="Layer 1" xmlns="http://www.w3.org/2000/svg" viewBox="0 0 325.42 310.52"><title>TypeSpecimen</title><path d="M6.75,12H45.32V23.52H20V33.68H40.28V45H20V56.48H45.32V68H6.75Z" style="fill:#002745"/><path d="M60.35,12H73.87L93.63,44.88V12h12.88V68H94.19l-21-34.72V68H60.35Z" style="fill:#002745"/><path d="M122.67,57V23c0-7.52,3.6-11,11-11h20.72c7.44,0,11,3.52,11,11v7.44h-13.2V25c0-1.2-.4-1.52-1.52-1.52H137.47c-1.12,0-1.52.32-1.52,1.52V55c0,1.12.4,1.52,1.52,1.52h13.28c1.12,0,1.52-.4,1.52-1.52V47.2h-9.44v-11h22.64V57c0,7.44-3.6,11-11,11H133.71C126.27,68,122.67,64.4,122.67,57Z" style="fill:#002745"/><path d="M181.31,12h13.28V68H181.31Z" style="fill:#002745"/><path d="M211.79,12h13.52l19.76,32.88V12H258V68H245.63l-21-34.72V68H211.79Z" style="fill:#002745"/><path d="M275.15,12h38.56V23.52H288.43V33.68h20.24V45H288.43V56.48h25.28V68H275.15Z" style="fill:#002745"/><path d="M18.19,95H14.93L12.5,89.81H10.06V95H7V80.3h7.75c2,0,2.94,1,2.94,2.94v3.55c0,1.66-.65,2.6-2,2.86Zm-3.91-7.87c.32,0,.42-.11.42-.42V83.45c0-.31-.1-.42-.42-.42H10.06v4.1Z" style="fill:#002745"/><path d="M21.91,92.06V83.24c0-2,.94-2.94,2.94-2.94h5.39c2,0,2.94,1,2.94,2.94v8.82c0,2-.94,2.94-2.94,2.94H24.85C22.85,95,21.91,94.05,21.91,92.06Zm7.83.17c.31,0,.42-.11.42-.42V83.49c0-.31-.11-.42-.42-.42H25.35c-.31,0-.42.11-.42.42v8.32c0,.31.11.42.42.42Z" style="fill:#002745"/><path d="M40.32,83h-4V80.3h11V83h-4V95h-3Z" style="fill:#002745"/><path d="M57.23,91.81h-5L51.29,95h-3.2l4.48-14.7H57L61.45,95H58.13ZM56.45,89l-1.74-6.18L53,89Z" style="fill:#002745"/><path d="M66.2,83h-4V80.3h11V83h-4V95h-3Z" style="fill:#002745"/><path d="M77,80.3h9.89v2.77H80v3.05h5.57v2.73H80v3.38h6.87V95H77Z" style="fill:#002745"/><path d="M96.18,80.3h3.15l2.29,10.79,2.71-10.79h2.56l2.71,10.79,2.29-10.79h3L111.22,95H108l-2.42-9.57L103.2,95H99.86Z" style="fill:#002745"/><path d="M118.53,80.3h3v5.8h5.21V80.3h3V95h-3V88.87h-5.21V95h-3Z" style="fill:#002745"/><path d="M134.68,80.3h9.89v2.77H137.7v3.05h5.56v2.73H137.7v3.38h6.87V95h-9.89Z" style="fill:#002745"/><path d="M148.81,80.3h9.89v2.77h-6.87v3.05h5.57v2.73h-5.57v3.38h6.87V95h-9.89Z" style="fill:#002745"/><path d="M162.94,80.3h3V92.23h6.35V95h-9.37Z" style="fill:#002745"/><path d="M175.52,92.06V90.21h2.94v1.64c0,.32.11.42.42.42h3.91c.31,0,.42-.1.42-.42V90.09c0-.47-.17-.59-.72-.72l-3.9-.84c-1.85-.4-3-1.13-3-3V83.24c0-2,.95-2.94,2.94-2.94H183c2,0,2.94,1,2.94,2.94v1.68H183V83.45c0-.31-.11-.42-.42-.42H179c-.32,0-.42.11-.42.42v1.6c0,.46.16.58.71.71l3.91.84c1.84.4,3,1.13,3,3v2.44c0,2-.94,2.94-2.94,2.94h-4.83C176.47,95,175.52,94.05,175.52,92.06Z" style="fill:#002745"/><path d="M204.73,91.81h-5l-.9,3.19H195.6l4.47-14.7h4.41L209,95h-3.32ZM204,89l-1.74-6.18L200.47,89Z" style="fill:#002745"/><path d="M212.52,80.3h3.15l5.57,9.47V80.3h2.94V95h-2.94l-5.78-9.8V95h-2.94Z" style="fill:#002745"/><path d="M229.07,80.3h8c2,0,2.94,1,2.94,2.94v8.82c0,2-.94,2.94-2.94,2.94h-8Zm7.54,11.93c.31,0,.42-.11.42-.42V83.49c0-.31-.11-.42-.42-.42h-4.52v9.16Z" style="fill:#002745"/><path d="M253.56,83h-4V80.3h11V83h-4V95h-3Z" style="fill:#002745"/><path d="M264.33,80.3h3V95h-3Z" style="fill:#002745"/><path d="M283.4,95h-3.26l-2.43-5.19h-2.44V95h-3V80.3H280c2,0,2.94,1,2.94,2.94v3.55c0,1.66-.65,2.6-2,2.86Zm-3.91-7.87c.31,0,.42-.11.42-.42V83.45c0-.31-.11-.42-.42-.42h-4.22v4.1Z" style="fill:#002745"/><path d="M287.47,80.3h9.89v2.77h-6.87v3.05h5.57v2.73h-5.57v3.38h6.87V95h-9.89Z" style="fill:#002745"/><path d="M301,92.06V90.21h2.93v1.64c0,.32.11.42.42.42h3.91c.31,0,.42-.1.42-.42V90.09c0-.47-.17-.59-.71-.72l-3.91-.84c-1.85-.4-3-1.13-3-3V83.24c0-2,.94-2.94,2.94-2.94h4.53c2,0,2.94,1,2.94,2.94v1.68h-2.94V83.45c0-.31-.1-.42-.42-.42h-3.61c-.31,0-.42.11-.42.42v1.6c0,.46.17.58.71.71l3.91.84c1.85.4,3,1.13,3,3v2.44c0,2-.94,2.94-2.94,2.94h-4.83C301.94,95,301,94.05,301,92.06Z" style="fill:#002745"/><path d="M12.44,111.2l-7.31,2.69v-2.52l7.48-2.87h2.47V147H12.44Z" style="fill:#002745"/><path d="M29.49,138.53c0-3.46,1.65-4.73,7.92-8.36l9.35-5.33c3.19-1.87,4.56-2.75,4.56-5.06v-3.36c0-3.85-1.65-5.5-5.5-5.5H38.18c-3.8,0-5.5,1.65-5.5,5.5v3.14H30v-3c0-5.44,2.58-8,8-8h7.86c5.45,0,8,2.59,8,8v3.25c0,3.63-1.7,4.73-7.2,7.86L37.41,133c-3.69,2.2-5.28,3.3-5.28,5.55v6.05H54.07V147H29.49Z" style="fill:#002745"/><path d="M65.74,139v-2.31h2.64v2.42c0,3.8,1.7,5.5,5.49,5.5h9.19c3.85,0,5.5-1.7,5.5-5.5v-5.17c0-3.85-1.65-5.5-5.5-5.5H73.27V126h9.35c3.85,0,5.5-1.65,5.5-5.5v-4.07c0-3.85-1.65-5.5-5.5-5.5H74.31c-3.79,0-5.5,1.65-5.5,5.5v2.42H66.17v-2.31c0-5.44,2.59-8,8-8h8.53c5.44,0,8,2.59,8,8v4c0,4-1.65,5.94-4.46,6.71,3.14.61,4.9,2.64,4.9,6.77v5c0,5.44-2.59,8-8,8H73.76C68.32,147,65.74,144.41,65.74,139Z" style="fill:#002745"/><path d="M122.55,136.44h-20.9l-.28-2.14L122,108.5h3.19V134H131v2.42h-5.83V147h-2.64Zm0-2.42V111.53l-18,22.49Z" style="fill:#002745"/><path d="M141.74,139v-2.58h2.64v2.69c0,3.8,1.71,5.5,5.5,5.5h8.2c3.85,0,5.5-1.7,5.5-5.5v-9.29c0-3.85-1.65-5.5-7.1-5.5a17.72,17.72,0,0,0-11.82,4l-2.64-.83V108.5h23.81v2.42H144.66v15.35a16.2,16.2,0,0,1,11.88-4.4c7.09,0,9.67,2.58,9.67,8V139c0,5.44-2.58,8-8,8h-8.42C144.33,147,141.74,144.41,141.74,139Z" style="fill:#002745"/><path d="M178.92,139V116.53c0-5.44,2.59-8,8-8h7.87c5.44,0,8,2.59,8,8v2.59h-2.63v-2.7c0-3.68-1.82-5.5-5.5-5.5h-7.65c-3.68,0-5.5,1.82-5.5,5.5v11.06c3-2.59,6.05-4.4,12-4.4,7.32,0,9.9,2.58,9.9,8V139c0,5.44-2.58,8-8,8H187C181.51,147,178.92,144.41,178.92,139Zm16.39,5.61c3.8,0,5.5-1.7,5.5-5.5V131c0-3.85-1.7-5.5-7.31-5.5a17.73,17.73,0,0,0-11.94,4v9.62c0,3.8,1.65,5.5,5.5,5.5Z" style="fill:#002745"/><path d="M235.9,110.92H213.41V108.5h25.46v1.71L222,147h-2.75Z" style="fill:#002745"/><path d="M248.39,139v-5c0-4.13,1.81-6.16,5-6.77-2.81-.77-4.51-2.75-4.51-6.71v-4c0-5.44,2.58-8,8-8h9.24c5.44,0,8,2.59,8,8v4c0,4-1.64,5.94-4.45,6.71,3.14.61,4.9,2.64,4.9,6.77v5c0,5.44-2.59,8-8,8H256.42C251,147,248.39,144.41,248.39,139Zm18,5.61c3.85,0,5.5-1.7,5.5-5.5v-5.17c0-3.85-1.65-5.5-5.5-5.5h-9.9c-3.8,0-5.5,1.65-5.5,5.5v5.17c0,3.8,1.7,5.5,5.5,5.5ZM266,126c3.85,0,5.5-1.65,5.5-5.5v-4.07c0-3.85-1.65-5.5-5.5-5.5h-9c-3.8,0-5.5,1.65-5.5,5.5v4.07c0,3.85,1.7,5.5,5.5,5.5Z" style="fill:#002745"/><path d="M287.66,139v-2.58h2.64v2.69c0,3.8,1.7,5.5,5.5,5.5h7.64c3.85,0,5.5-1.7,5.5-5.5V127.64c-3,2.59-6.05,4.4-12,4.4-7.31,0-9.9-2.58-9.9-8v-7.48c0-5.44,2.59-8,8-8h8.47c5.45,0,8,2.59,8,8V139c0,5.44-2.58,8-8,8h-7.86C290.24,147,287.66,144.41,287.66,139Zm21.28-13.36v-9.19c0-3.85-1.65-5.5-5.5-5.5h-8.25c-3.79,0-5.5,1.65-5.5,5.5v7.7c0,3.8,1.71,5.5,7.32,5.5A17.73,17.73,0,0,0,308.94,125.61Z" style="fill:#002745"/><path d="M5.08,191V167.08c0-5.42,2.57-8,8-8H27c5.42,0,8,2.56,8,8V191c0,5.41-2.56,8-8,8h-14C7.65,199,5.08,196.43,5.08,191Zm21,1.71c1.54,0,2.11-.57,2.11-2.11V167.47c0-1.53-.57-2.1-2.11-2.1h-12c-1.59,0-2.17.57-2.17,2.1v23.15c0,1.54.58,2.11,2.17,2.11Z" style="fill:#002745"/><path d="M48,159.1h6.85V199H48Z" style="fill:#002745"/><path d="M68.75,159.1h6.84v33.63h18V199H68.75Z" style="fill:#002745"/><path d="M121.36,159.1h26.28v6.27H128.2v10.49h16v6.21h-16V199h-6.84Z" style="fill:#002745"/><path d="M158.64,159.1h6.84V199h-6.84Z" style="fill:#002745"/><path d="M179.39,159.1h6.84v33.63h18V199H179.39Z" style="fill:#002745"/><path d="M217.64,165.31H206.29V159.1h29.47v6.21H224.48V199h-6.84Z" style="fill:#002745"/><path d="M246.42,159.1H272.7v6.27H253.26v10.14h16v6.16h-16v11.06H272.7V199H246.42Z" style="fill:#002745"/><path d="M314.42,199H307l-7.35-14.88h-8.1V199h-6.84V159.1h20.47c5.41,0,8,2.56,8,8V176c0,4.79-2,7.35-6.21,7.87Zm-10.2-21c1.54,0,2.11-.57,2.11-2.16v-8.44c0-1.54-.57-2.11-2.11-2.11H291.56V178Z" style="fill:#002745"/><path d="M17.57,224h-1l-3.14-5.64H9.16V224H8.25V210.7h6.13c1.88,0,2.78.89,2.78,2.77v2.11c0,1.87-.88,2.76-2.7,2.78Zm-3.23-6.48c1.33,0,1.9-.59,1.9-1.9v-2.18c0-1.33-.57-1.9-1.9-1.9H9.16v6Z" style="fill:#002745"/><path d="M22.1,210.7h8.24v.84H23v5.22h6.25v.84H23v5.56h7.33V224H22.1Z" style="fill:#002745"/><path d="M34.77,210.7h6.15a2.46,2.46,0,0,1,2.78,2.77v2.38a2.46,2.46,0,0,1-2.78,2.77H35.68V224h-.91Zm6.12,7.09a1.68,1.68,0,0,0,1.9-1.9v-2.45a1.67,1.67,0,0,0-1.9-1.9H35.68v6.25Z" style="fill:#002745"/><path d="M48.17,210.7h.91v12.46h6.85V224H48.17Z" style="fill:#002745"/><path d="M67.43,220.05H61.29L59.83,224h-1l5-13.3h1l5,13.3h-1Zm-.31-.84-2.77-7.46-2.75,7.46Z" style="fill:#002745"/><path d="M73.3,221.23v-7.76c0-1.88.89-2.77,2.77-2.77h3.5c1.88,0,2.77.89,2.77,2.77v1.09h-.91v-1.12c0-1.33-.59-1.9-1.9-1.9H76.11c-1.33,0-1.9.57-1.9,1.9v7.82c0,1.31.57,1.9,1.9,1.9h3.42c1.31,0,1.9-.59,1.9-1.9v-1.12h.91v1.09A2.44,2.44,0,0,1,79.57,224h-3.5A2.44,2.44,0,0,1,73.3,221.23Z" style="fill:#002745"/><path d="M87,210.7h8.24v.84H88v5.22H94.2v.84H88v5.56h7.33V224H87Z" style="fill:#002745"/><path d="M104.1,210.7h1l3.09,12.12,3.48-12.12h.88L116,222.82l3.08-12.12h1L116.49,224h-1l-3.4-11.86L108.7,224h-1Z" style="fill:#002745"/><path d="M124.05,210.7H125V224h-.91Z" style="fill:#002745"/><path d="M130.22,210.7h1l7.72,11.84V210.7h.87V224h-.89l-7.79-11.93V224h-.88Z" style="fill:#002745"/><path d="M145,210.7h6.35c1.88,0,2.77.89,2.77,2.77v7.76c0,1.88-.89,2.77-2.77,2.77H145Zm6.31,12.46c1.33,0,1.9-.59,1.9-1.9v-7.82c0-1.33-.57-1.9-1.9-1.9H146v11.62Z" style="fill:#002745"/><path d="M158.59,221.23v-1.12h.91v1.19c0,1.31.57,1.9,1.9,1.9h3.4c1.31,0,1.9-.59,1.9-1.9v-1.37c0-1-.38-1.5-1.59-1.8l-4-1c-1.66-.42-2.51-.95-2.51-2.62v-1.05c0-1.88.89-2.77,2.77-2.77h3.25c1.88,0,2.77.89,2.77,2.77v.92h-.91v-1c0-1.33-.59-1.9-1.9-1.9h-3.17c-1.33,0-1.9.57-1.9,1.9v1.06c0,1,.36,1.5,1.6,1.81l4,1c1.63.41,2.5,1,2.5,2.62v1.35c0,1.88-.89,2.77-2.77,2.77h-3.48C159.48,224,158.59,223.11,158.59,221.23Z" style="fill:#002745"/><path d="M172.35,210.7h.91v6.06h7.5V210.7h.91V224h-.91v-6.4h-7.5V224h-.91Z" style="fill:#002745"/><path d="M186.94,210.7h8.24v.84h-7.33v5.22h6.25v.84h-6.25v5.56h7.33V224h-8.24Z" style="fill:#002745"/><path d="M199.61,210.7h.91V224h-.91Z" style="fill:#002745"/><path d="M205.79,210.7h.91v12.46h6.86V224h-7.77Z" style="fill:#002745"/><path d="M217.74,210.7h6.34c1.88,0,2.78.89,2.78,2.77v7.76c0,1.88-.9,2.77-2.78,2.77h-6.34Zm6.3,12.46c1.33,0,1.9-.59,1.9-1.9v-7.82c0-1.33-.57-1.9-1.9-1.9h-5.39v11.62Z" style="fill:#002745"/><path d="M236.19,210.7h1l3.1,12.12,3.48-12.12h.87l3.48,12.12,3.08-12.12h1L248.57,224h-1l-3.4-11.86L240.78,224h-1Z" style="fill:#002745"/><path d="M256.14,210.7h.91V224h-.91Z" style="fill:#002745"/><path d="M262.31,210.7h6.16a2.45,2.45,0,0,1,2.77,2.77v2.38a2.45,2.45,0,0,1-2.77,2.77h-5.25V224h-.91Zm6.12,7.09a1.68,1.68,0,0,0,1.9-1.9v-2.45a1.67,1.67,0,0,0-1.9-1.9h-5.21v6.25Z" style="fill:#002745"/><path d="M275.55,210.7h8.25v.84h-7.33v5.22h6.25v.84h-6.25v5.56h7.33V224h-8.25Z" style="fill:#002745"/><path d="M297.56,224h-1l-3.14-5.64h-4.27V224h-.91V210.7h6.13c1.89,0,2.78.89,2.78,2.77v2.11c0,1.87-.88,2.76-2.7,2.78Zm-3.23-6.48c1.33,0,1.9-.59,1.9-1.9v-2.18c0-1.33-.57-1.9-1.9-1.9h-5.19v6Z" style="fill:#002745"/><path d="M301.57,221.23v-1.12h.91v1.19c0,1.31.57,1.9,1.9,1.9h3.4c1.31,0,1.9-.59,1.9-1.9v-1.37c0-1-.38-1.5-1.6-1.8l-3.95-1c-1.65-.42-2.51-.95-2.51-2.62v-1.05c0-1.88.9-2.77,2.78-2.77h3.25c1.88,0,2.77.89,2.77,2.77v.92h-.91v-1c0-1.33-.59-1.9-1.9-1.9h-3.18c-1.33,0-1.89.57-1.89,1.9v1.06c0,1,.36,1.5,1.59,1.81l3.95,1c1.64.41,2.51,1,2.51,2.62v1.35c0,1.88-.89,2.77-2.77,2.77h-3.48C302.46,224,301.57,223.11,301.57,221.23Z" style="fill:#002745"/><path d="M8.81,266.75H8v-6.4H5.72v-.74h5.35v.74H8.81Z" style="fill:#a6a8ab"/><path d="M15.74,266.75v-3.46a1.4,1.4,0,0,0-.3-1,1.23,1.23,0,0,0-.93-.32,1.56,1.56,0,0,0-1.24.46,2.34,2.34,0,0,0-.38,1.51v2.79h-.81v-7.59h.81v2.3a6.07,6.07,0,0,1,0,.68h.05a1.6,1.6,0,0,1,.68-.6,2.17,2.17,0,0,1,1-.23,2.09,2.09,0,0,1,1.48.47,2,2,0,0,1,.49,1.48v3.49Z" style="fill:#a6a8ab"/><path d="M20.52,266.85a2.46,2.46,0,0,1-1.87-.72,2.78,2.78,0,0,1-.68-2,3.1,3.1,0,0,1,.63-2.05,2.13,2.13,0,0,1,1.71-.77,2,2,0,0,1,1.6.67,2.52,2.52,0,0,1,.58,1.74v.51H18.81a2.08,2.08,0,0,0,.47,1.43,1.64,1.64,0,0,0,1.27.49,4.3,4.3,0,0,0,1.71-.36v.72a3.66,3.66,0,0,1-.81.27A4.88,4.88,0,0,1,20.52,266.85ZM20.3,262a1.3,1.3,0,0,0-1,.42,1.88,1.88,0,0,0-.45,1.16h2.79a1.76,1.76,0,0,0-.34-1.17A1.21,1.21,0,0,0,20.3,262Z" style="fill:#a6a8ab"/><path d="M27.52,266.75h-.83v-7.14h4v.74H27.52V263h3v.74h-3Z" style="fill:#a6a8ab"/><path d="M31.91,266.75v-7.14h.83v7.14Z" style="fill:#a6a8ab"/><path d="M39.49,266.75h-.94l-1.92-3.14-2,3.14H33.8L36.17,263,34,259.61h.92l1.77,2.83,1.79-2.83h.88L37.11,263Z" style="fill:#a6a8ab"/><path d="M46.26,263.12a3.62,3.62,0,0,1-1,2.7,3.81,3.81,0,0,1-2.76.93h-2v-7.14h2.19a3.21,3.21,0,0,1,3.51,3.51Zm-.88,0a2.85,2.85,0,0,0-.7-2.1,2.8,2.8,0,0,0-2.08-.71H41.39V266h1a3.12,3.12,0,0,0,2.23-.73A2.94,2.94,0,0,0,45.38,263.14Z" style="fill:#a6a8ab"/><path d="M56.75,263.17a3.93,3.93,0,0,1-.87,2.7,3.5,3.5,0,0,1-4.84,0,4,4,0,0,1-.86-2.73,3.92,3.92,0,0,1,.86-2.7,3.11,3.11,0,0,1,2.44-1,3,3,0,0,1,2.4,1A3.9,3.9,0,0,1,56.75,263.17Zm-5.69,0a3.39,3.39,0,0,0,.62,2.2,2.52,2.52,0,0,0,3.58,0,4.28,4.28,0,0,0,0-4.39,2.52,2.52,0,0,0-3.59,0A3.37,3.37,0,0,0,51.06,263.17Z" style="fill:#a6a8ab"/><path d="M58.39,259.61h2a3.82,3.82,0,0,1,2.05.43,1.48,1.48,0,0,1,.64,1.34,1.56,1.56,0,0,1-.36,1.05,1.7,1.7,0,0,1-1,.53V263c1.08.19,1.63.76,1.63,1.71a1.85,1.85,0,0,1-.65,1.5,2.79,2.79,0,0,1-1.81.53H58.39Zm.83,3.06h1.37a2.27,2.27,0,0,0,1.26-.27,1.08,1.08,0,0,0,.39-.94,1,1,0,0,0-.43-.86,2.66,2.66,0,0,0-1.37-.27H59.22Zm0,.7V266h1.49a2.13,2.13,0,0,0,1.3-.33,1.24,1.24,0,0,0,.44-1,1.09,1.09,0,0,0-.45-1,2.37,2.37,0,0,0-1.36-.32Z" style="fill:#a6a8ab"/><path d="M70.62,263.12a3.62,3.62,0,0,1-1,2.7,3.81,3.81,0,0,1-2.76.93h-2v-7.14h2.19a3.22,3.22,0,0,1,3.51,3.51Zm-.88,0A2.89,2.89,0,0,0,69,261a2.82,2.82,0,0,0-2.08-.71H65.75V266h1a3.1,3.1,0,0,0,2.23-.73A2.9,2.9,0,0,0,69.74,263.14Z" style="fill:#a6a8ab"/><path d="M71.69,264.44v-.74h2.39v.74Z" style="fill:#a6a8ab"/><path d="M75.53,266.75v-7.14h.83v7.14Z" style="fill:#a6a8ab"/><path d="M78.37,266.75v-7.14h.83v7.14Z" style="fill:#a6a8ab"/><path d="M87.88,264.85a1.76,1.76,0,0,1-.68,1.47,3,3,0,0,1-1.86.53,4.57,4.57,0,0,1-2-.33v-.8a5.28,5.28,0,0,0,1,.3,5.21,5.21,0,0,0,1,.1,2.08,2.08,0,0,0,1.25-.31,1,1,0,0,0,.42-.88,1.13,1.13,0,0,0-.15-.61,1.37,1.37,0,0,0-.5-.43,6,6,0,0,0-1.06-.46,3.35,3.35,0,0,1-1.42-.84,1.85,1.85,0,0,1-.43-1.28A1.59,1.59,0,0,1,84.1,260a2.54,2.54,0,0,1,1.64-.49,4.86,4.86,0,0,1,2,.39l-.26.72a4.56,4.56,0,0,0-1.72-.37,1.66,1.66,0,0,0-1,.29.92.92,0,0,0-.37.78,1.22,1.22,0,0,0,.14.61,1.3,1.3,0,0,0,.46.44,5.92,5.92,0,0,0,1,.43,4.14,4.14,0,0,1,1.55.86A1.71,1.71,0,0,1,87.88,264.85Z" style="fill:#a6a8ab"/><path d="M91.53,266.85a2.45,2.45,0,0,1-1.87-.72,2.79,2.79,0,0,1-.69-2,3.05,3.05,0,0,1,.64-2.05,2.1,2.1,0,0,1,1.71-.77,2,2,0,0,1,1.59.67,2.53,2.53,0,0,1,.59,1.74v.51H89.81a2.13,2.13,0,0,0,.47,1.43,1.66,1.66,0,0,0,1.28.49,4.38,4.38,0,0,0,1.71-.36v.72a3.73,3.73,0,0,1-.82.27A4.77,4.77,0,0,1,91.53,266.85ZM91.31,262a1.33,1.33,0,0,0-1,.42,1.88,1.88,0,0,0-.45,1.16h2.8a1.76,1.76,0,0,0-.35-1.17A1.19,1.19,0,0,0,91.31,262Z" style="fill:#a6a8ab"/><path d="M98.59,266.75v-3.46a1.4,1.4,0,0,0-.3-1,1.23,1.23,0,0,0-.93-.32,1.52,1.52,0,0,0-1.23.46,2.29,2.29,0,0,0-.39,1.5v2.8h-.81V261.4h.66l.13.73h0a1.67,1.67,0,0,1,.7-.61,2.33,2.33,0,0,1,1-.22,2,2,0,0,1,1.45.47,2,2,0,0,1,.49,1.49v3.49Z" style="fill:#a6a8ab"/><path d="M104.57,265.29a1.37,1.37,0,0,1-.56,1.16,2.61,2.61,0,0,1-1.56.4,3.34,3.34,0,0,1-1.66-.34v-.75a4.31,4.31,0,0,0,.83.31,3.61,3.61,0,0,0,.85.11,2,2,0,0,0,1-.2.68.68,0,0,0,.35-.62.65.65,0,0,0-.27-.53,4.39,4.39,0,0,0-1.06-.53,5.9,5.9,0,0,1-1.06-.48,1.43,1.43,0,0,1-.47-.48,1.23,1.23,0,0,1-.16-.63,1.2,1.2,0,0,1,.54-1,2.48,2.48,0,0,1,1.46-.38,4.21,4.21,0,0,1,1.69.36l-.29.65a3.94,3.94,0,0,0-1.46-.33,1.66,1.66,0,0,0-.87.18.55.55,0,0,0-.29.5.58.58,0,0,0,.11.37,1.19,1.19,0,0,0,.35.29,8,8,0,0,0,.94.39,3.38,3.38,0,0,1,1.28.7A1.2,1.2,0,0,1,104.57,265.29Z" style="fill:#a6a8ab"/><path d="M110.56,264.07a3,3,0,0,1-.66,2.05,2.32,2.32,0,0,1-1.82.73,2.38,2.38,0,0,1-1.28-.34,2.18,2.18,0,0,1-.86-1,3.4,3.4,0,0,1-.3-1.48,3,3,0,0,1,.65-2,2.34,2.34,0,0,1,1.82-.73,2.25,2.25,0,0,1,1.78.75A3,3,0,0,1,110.56,264.07Zm-4.08,0a2.46,2.46,0,0,0,.41,1.56,1.41,1.41,0,0,0,1.2.54,1.44,1.44,0,0,0,1.21-.53,2.51,2.51,0,0,0,.42-1.57,2.47,2.47,0,0,0-.42-1.55,1.66,1.66,0,0,0-2.42,0A2.53,2.53,0,0,0,106.48,264.07Z" style="fill:#a6a8ab"/><path d="M114.47,261.3a3.16,3.16,0,0,1,.64.06l-.11.75a3.59,3.59,0,0,0-.59-.07,1.44,1.44,0,0,0-1.11.53,1.91,1.91,0,0,0-.46,1.31v2.87H112V261.4h.66l.1,1h0a2.23,2.23,0,0,1,.71-.8A1.65,1.65,0,0,1,114.47,261.3Z" style="fill:#a6a8ab"/><path d="M120.94,266.85a2.28,2.28,0,0,1-1.79-.71,3.58,3.58,0,0,1,0-4.1,2.32,2.32,0,0,1,1.84-.74,3.44,3.44,0,0,1,.77.09,2.6,2.6,0,0,1,.61.19l-.25.69a4.55,4.55,0,0,0-.59-.18A2.44,2.44,0,0,0,121,262c-1.09,0-1.63.69-1.63,2.08a2.48,2.48,0,0,0,.4,1.52,1.37,1.37,0,0,0,1.17.52,3.49,3.49,0,0,0,1.38-.29v.72A2.89,2.89,0,0,1,120.94,266.85Z" style="fill:#a6a8ab"/><path d="M128.24,264.07a3,3,0,0,1-.66,2.05,2.33,2.33,0,0,1-1.83.73,2.37,2.37,0,0,1-1.27-.34,2.18,2.18,0,0,1-.86-1,3.4,3.4,0,0,1-.3-1.48,3,3,0,0,1,.65-2,2.34,2.34,0,0,1,1.82-.73,2.25,2.25,0,0,1,1.78.75A3,3,0,0,1,128.24,264.07Zm-4.08,0a2.53,2.53,0,0,0,.41,1.56,1.62,1.62,0,0,0,2.41,0,2.51,2.51,0,0,0,.42-1.57,2.47,2.47,0,0,0-.42-1.55,1.66,1.66,0,0,0-2.42,0A2.53,2.53,0,0,0,124.16,264.07Z" style="fill:#a6a8ab"/><path d="M133.37,266.75v-3.46a1.4,1.4,0,0,0-.3-1,1.23,1.23,0,0,0-.93-.32,1.52,1.52,0,0,0-1.23.46,2.29,2.29,0,0,0-.39,1.5v2.8h-.81V261.4h.66l.13.73h0a1.62,1.62,0,0,1,.7-.61,2.3,2.3,0,0,1,1-.22,2,2,0,0,1,1.45.47,2,2,0,0,1,.49,1.49v3.49Z" style="fill:#a6a8ab"/><path d="M139.56,266.75v-3.46a1.4,1.4,0,0,0-.3-1,1.23,1.23,0,0,0-.93-.32,1.55,1.55,0,0,0-1.24.46,2.29,2.29,0,0,0-.39,1.5v2.8h-.81V261.4h.66l.13.73h0a1.74,1.74,0,0,1,.7-.61,2.36,2.36,0,0,1,1-.22,2,2,0,0,1,1.46.47,2,2,0,0,1,.49,1.49v3.49Z" style="fill:#a6a8ab"/><path d="M144.34,266.85a2.46,2.46,0,0,1-1.87-.72,2.79,2.79,0,0,1-.69-2,3.1,3.1,0,0,1,.64-2.05,2.12,2.12,0,0,1,1.71-.77,2,2,0,0,1,1.59.67,2.53,2.53,0,0,1,.59,1.74v.51h-3.69a2.13,2.13,0,0,0,.48,1.43,1.64,1.64,0,0,0,1.27.49,4.3,4.3,0,0,0,1.71-.36v.72a3.84,3.84,0,0,1-.81.27A5,5,0,0,1,144.34,266.85Zm-.22-4.87a1.33,1.33,0,0,0-1,.42,2,2,0,0,0-.45,1.16h2.8a1.76,1.76,0,0,0-.34-1.17A1.21,1.21,0,0,0,144.12,262Z" style="fill:#a6a8ab"/><path d="M149.88,266.85a2.32,2.32,0,0,1-1.8-.71,3.58,3.58,0,0,1,0-4.1,2.33,2.33,0,0,1,1.84-.74,3.46,3.46,0,0,1,.78.09,2.5,2.5,0,0,1,.6.19l-.25.69a4.39,4.39,0,0,0-.58-.18,2.51,2.51,0,0,0-.56-.07c-1.09,0-1.64.69-1.64,2.08a2.55,2.55,0,0,0,.4,1.52,1.39,1.39,0,0,0,1.18.52,3.45,3.45,0,0,0,1.37-.29v.72A2.85,2.85,0,0,1,149.88,266.85Z" style="fill:#a6a8ab"/><path d="M154.28,266.18a3,3,0,0,0,.42,0,1.44,1.44,0,0,0,.31-.07v.62a1.16,1.16,0,0,1-.38.11,2.68,2.68,0,0,1-.46,0c-1,0-1.56-.54-1.56-1.64V262h-.77v-.39l.77-.34.34-1.14h.47v1.24H155V262h-1.56v3.15a1.09,1.09,0,0,0,.23.74A.78.78,0,0,0,154.28,266.18Z" style="fill:#a6a8ab"/><path d="M159.58,265.29a1.36,1.36,0,0,1-.55,1.16,2.61,2.61,0,0,1-1.56.4,3.32,3.32,0,0,1-1.66-.34v-.75a4.22,4.22,0,0,0,.82.31,3.76,3.76,0,0,0,.86.11,2,2,0,0,0,1-.2.67.67,0,0,0,.34-.62.65.65,0,0,0-.27-.53,4.09,4.09,0,0,0-1.05-.53,5.58,5.58,0,0,1-1.06-.48,1.34,1.34,0,0,1-.47-.48,1.14,1.14,0,0,1-.16-.63,1.21,1.21,0,0,1,.53-1,2.53,2.53,0,0,1,1.46-.38,4.17,4.17,0,0,1,1.69.36l-.29.65a3.85,3.85,0,0,0-1.45-.33,1.66,1.66,0,0,0-.87.18.56.56,0,0,0-.3.5.65.65,0,0,0,.11.37,1.26,1.26,0,0,0,.36.29,7.61,7.61,0,0,0,.93.39,3.36,3.36,0,0,1,1.29.7A1.23,1.23,0,0,1,159.58,265.29Z" style="fill:#a6a8ab"/><path d="M165.33,266.18a3,3,0,0,0,.42,0,1.61,1.61,0,0,0,.31-.07v.62a1.32,1.32,0,0,1-.39.11,2.6,2.6,0,0,1-.46,0c-1,0-1.55-.54-1.55-1.64V262h-.77v-.39l.77-.34.34-1.14h.47v1.24H166V262h-1.55v3.15a1.09,1.09,0,0,0,.23.74A.77.77,0,0,0,165.33,266.18Z" style="fill:#a6a8ab"/><path d="M171.8,264.07a3,3,0,0,1-.66,2.05,2.6,2.6,0,0,1-3.09.39,2.12,2.12,0,0,1-.86-1,3.4,3.4,0,0,1-.31-1.48,2.94,2.94,0,0,1,.66-2,2.33,2.33,0,0,1,1.81-.73,2.27,2.27,0,0,1,1.79.75A2.94,2.94,0,0,1,171.8,264.07Zm-4.08,0a2.53,2.53,0,0,0,.41,1.56,1.44,1.44,0,0,0,1.21.54,1.46,1.46,0,0,0,1.21-.53,2.58,2.58,0,0,0,.41-1.57,2.53,2.53,0,0,0-.41-1.55,1.46,1.46,0,0,0-1.22-.53,1.45,1.45,0,0,0-1.2.52A2.53,2.53,0,0,0,167.72,264.07Z" style="fill:#a6a8ab"/><path d="M179.21,266.75l-.16-.76h0a2.2,2.2,0,0,1-.8.68,2.37,2.37,0,0,1-1,.18,1.81,1.81,0,0,1-1.25-.41,1.49,1.49,0,0,1-.45-1.17c0-1.08.86-1.64,2.59-1.7l.91,0v-.33a1.36,1.36,0,0,0-.27-.93,1.12,1.12,0,0,0-.87-.3,3.58,3.58,0,0,0-1.51.41l-.25-.62a3.74,3.74,0,0,1,.87-.33,3.38,3.38,0,0,1,.94-.13,2.06,2.06,0,0,1,1.42.43,1.76,1.76,0,0,1,.46,1.36v3.65Zm-1.83-.57a1.69,1.69,0,0,0,1.19-.41,1.55,1.55,0,0,0,.43-1.17v-.48l-.81,0a2.87,2.87,0,0,0-1.39.3.88.88,0,0,0-.43.82.84.84,0,0,0,.26.67A1.09,1.09,0,0,0,177.38,266.18Z" style="fill:#a6a8ab"/><path d="M185.19,266.75v-3.46a1.45,1.45,0,0,0-.29-1A1.24,1.24,0,0,0,184,262a1.52,1.52,0,0,0-1.23.46,2.29,2.29,0,0,0-.39,1.5v2.8h-.81V261.4h.66l.13.73h0a1.74,1.74,0,0,1,.7-.61,2.33,2.33,0,0,1,1-.22,2,2,0,0,1,1.45.47,2,2,0,0,1,.49,1.49v3.49Z" style="fill:#a6a8ab"/><path d="M186.87,261.4h.87l1.17,3.05a11.08,11.08,0,0,1,.48,1.51h0c0-.16.13-.45.26-.85s.58-1.64,1.33-3.71h.87l-2.3,6.1a3.17,3.17,0,0,1-.8,1.28,1.71,1.71,0,0,1-1.12.38,3,3,0,0,1-.73-.09v-.65a2.77,2.77,0,0,0,.6.06,1.24,1.24,0,0,0,1.19-.94l.3-.76Z" style="fill:#a6a8ab"/><path d="M196.63,266.75l-2-5.35h.87l1.15,3.18c.26.74.41,1.22.46,1.44h0a7.81,7.81,0,0,1,.34-1.07c.19-.54.61-1.73,1.28-3.55h.87l-2,5.35Z" style="fill:#a6a8ab"/><path d="M202.78,266.85a2.49,2.49,0,0,1-1.88-.72,2.83,2.83,0,0,1-.68-2,3.1,3.1,0,0,1,.63-2.05,2.14,2.14,0,0,1,1.72-.77,2,2,0,0,1,1.59.67,2.52,2.52,0,0,1,.58,1.74v.51h-3.68a2.08,2.08,0,0,0,.47,1.43,1.64,1.64,0,0,0,1.28.49,4.29,4.29,0,0,0,1.7-.36v.72a3.5,3.5,0,0,1-.81.27A4.77,4.77,0,0,1,202.78,266.85Zm-.22-4.87a1.32,1.32,0,0,0-1,.42,1.88,1.88,0,0,0-.45,1.16h2.79a1.76,1.76,0,0,0-.34-1.17A1.19,1.19,0,0,0,202.56,262Z" style="fill:#a6a8ab"/><path d="M209.84,266.75v-3.46a1.4,1.4,0,0,0-.3-1,1.23,1.23,0,0,0-.93-.32,1.56,1.56,0,0,0-1.24.46A2.34,2.34,0,0,0,207,264v2.79h-.82v-7.59H207v2.3a6.07,6.07,0,0,1,0,.68H207a1.6,1.6,0,0,1,.68-.6,2.17,2.17,0,0,1,1-.23,2.09,2.09,0,0,1,1.48.47,2,2,0,0,1,.49,1.48v3.49Z" style="fill:#a6a8ab"/><path d="M212.29,260a.56.56,0,0,1,.14-.41.51.51,0,0,1,.34-.13.49.49,0,0,1,.34.14.52.52,0,0,1,.14.4.56.56,0,0,1-.14.41.48.48,0,0,1-.34.13.47.47,0,0,1-.34-.13A.56.56,0,0,1,212.29,260Zm.88,6.8h-.81V261.4h.81Z" style="fill:#a6a8ab"/><path d="M217.08,266.85a2.32,2.32,0,0,1-1.8-.71,3.63,3.63,0,0,1,0-4.1,2.34,2.34,0,0,1,1.85-.74,3.44,3.44,0,0,1,.77.09,2.5,2.5,0,0,1,.6.19l-.25.69a4.39,4.39,0,0,0-.58-.18,2.44,2.44,0,0,0-.56-.07c-1.09,0-1.63.69-1.63,2.08a2.55,2.55,0,0,0,.39,1.52,1.39,1.39,0,0,0,1.18.52,3.41,3.41,0,0,0,1.37-.29v.72A2.82,2.82,0,0,1,217.08,266.85Z" style="fill:#a6a8ab"/><path d="M220.56,266.75h-.81v-7.59h.81Z" style="fill:#a6a8ab"/><path d="M224.59,266.85a2.46,2.46,0,0,1-1.87-.72,2.79,2.79,0,0,1-.69-2,3.1,3.1,0,0,1,.64-2.05,2.13,2.13,0,0,1,1.71-.77,2,2,0,0,1,1.6.67,2.52,2.52,0,0,1,.58,1.74v.51h-3.69a2.13,2.13,0,0,0,.48,1.43,1.64,1.64,0,0,0,1.27.49,4.3,4.3,0,0,0,1.71-.36v.72a3.66,3.66,0,0,1-.81.27A5,5,0,0,1,224.59,266.85Zm-.22-4.87a1.3,1.3,0,0,0-1,.42,2,2,0,0,0-.46,1.16h2.8a1.76,1.76,0,0,0-.34-1.17A1.21,1.21,0,0,0,224.37,262Z" style="fill:#a6a8ab"/><path d="M237.46,266.75v-3.48a1.47,1.47,0,0,0-.27-1,1.09,1.09,0,0,0-.85-.32,1.37,1.37,0,0,0-1.12.44,2.05,2.05,0,0,0-.36,1.33v3h-.81v-3.48a1.41,1.41,0,0,0-.28-1,1.06,1.06,0,0,0-.85-.32,1.32,1.32,0,0,0-1.12.46,2.51,2.51,0,0,0-.35,1.5v2.8h-.81V261.4h.66l.13.73h0a1.6,1.6,0,0,1,.65-.61,2.06,2.06,0,0,1,.93-.22,1.59,1.59,0,0,1,1.64.91h0a1.69,1.69,0,0,1,.69-.66,2.11,2.11,0,0,1,1-.25,1.81,1.81,0,0,1,1.36.47,2.09,2.09,0,0,1,.45,1.49v3.49Z" style="fill:#a6a8ab"/><path d="M244.61,264.07a3,3,0,0,1-.66,2.05,2.31,2.31,0,0,1-1.82.73,2.34,2.34,0,0,1-1.27-.34,2.18,2.18,0,0,1-.86-1,3.4,3.4,0,0,1-.31-1.48,2.94,2.94,0,0,1,.66-2,2.34,2.34,0,0,1,1.82-.73,2.25,2.25,0,0,1,1.78.75A2.94,2.94,0,0,1,244.61,264.07Zm-4.08,0a2.53,2.53,0,0,0,.41,1.56,1.44,1.44,0,0,0,1.21.54,1.46,1.46,0,0,0,1.21-.53,2.58,2.58,0,0,0,.41-1.57,2.53,2.53,0,0,0-.41-1.55,1.46,1.46,0,0,0-1.22-.53,1.45,1.45,0,0,0-1.2.52A2.53,2.53,0,0,0,240.53,264.07Z" style="fill:#a6a8ab"/><path d="M249.73,266h0a1.9,1.9,0,0,1-1.68.81,2,2,0,0,1-1.63-.72,3.84,3.84,0,0,1,0-4.09,2.16,2.16,0,0,1,3.3,0h.07l0-.38,0-.38v-2.17h.81v7.59h-.66Zm-1.63.13a1.49,1.49,0,0,0,1.21-.45,2.28,2.28,0,0,0,.37-1.46v-.17a2.61,2.61,0,0,0-.38-1.62,1.41,1.41,0,0,0-1.21-.49,1.25,1.25,0,0,0-1.09.56,2.77,2.77,0,0,0-.38,1.56,2.64,2.64,0,0,0,.38,1.55A1.27,1.27,0,0,0,248.1,266.17Z" style="fill:#a6a8ab"/><path d="M254.52,266.85a2.46,2.46,0,0,1-1.87-.72,2.79,2.79,0,0,1-.69-2,3.05,3.05,0,0,1,.64-2.05,2.1,2.1,0,0,1,1.71-.77,2,2,0,0,1,1.59.67,2.53,2.53,0,0,1,.59,1.74v.51H252.8a2.13,2.13,0,0,0,.48,1.43,1.62,1.62,0,0,0,1.27.49,4.3,4.3,0,0,0,1.71-.36v.72a3.84,3.84,0,0,1-.81.27A5,5,0,0,1,254.52,266.85ZM254.3,262a1.33,1.33,0,0,0-1,.42,2,2,0,0,0-.45,1.16h2.8a1.81,1.81,0,0,0-.34-1.17A1.22,1.22,0,0,0,254.3,262Z" style="fill:#a6a8ab"/><path d="M258.73,266.75h-.81v-7.59h.81Z" style="fill:#a6a8ab"/><path d="M262.3,261.4h.87l1.17,3.05a11.08,11.08,0,0,1,.48,1.51h0c0-.16.13-.45.26-.85s.58-1.64,1.33-3.71h.87l-2.3,6.1a3.17,3.17,0,0,1-.8,1.28,1.71,1.71,0,0,1-1.12.38,3,3,0,0,1-.73-.09v-.65a2.77,2.77,0,0,0,.6.06,1.24,1.24,0,0,0,1.19-.94l.3-.76Z" style="fill:#a6a8ab"/><path d="M270.5,266.85a2.45,2.45,0,0,1-1.87-.72,2.79,2.79,0,0,1-.69-2,3.05,3.05,0,0,1,.64-2.05,2.1,2.1,0,0,1,1.71-.77,2,2,0,0,1,1.59.67,2.53,2.53,0,0,1,.59,1.74v.51h-3.69a2.13,2.13,0,0,0,.47,1.43,1.66,1.66,0,0,0,1.28.49,4.38,4.38,0,0,0,1.71-.36v.72a3.73,3.73,0,0,1-.82.27A4.77,4.77,0,0,1,270.5,266.85Zm-.22-4.87a1.32,1.32,0,0,0-1,.42,1.94,1.94,0,0,0-.45,1.16h2.8a1.76,1.76,0,0,0-.35-1.17A1.19,1.19,0,0,0,270.28,262Z" style="fill:#a6a8ab"/><path d="M277.19,266.75,277,266h0a2.28,2.28,0,0,1-.8.68,2.43,2.43,0,0,1-1,.18,1.81,1.81,0,0,1-1.25-.41,1.49,1.49,0,0,1-.45-1.17c0-1.08.86-1.64,2.59-1.7l.91,0v-.33a1.36,1.36,0,0,0-.27-.93,1.12,1.12,0,0,0-.87-.3,3.54,3.54,0,0,0-1.51.41l-.25-.62a3.84,3.84,0,0,1,.86-.33,3.45,3.45,0,0,1,1-.13,2.06,2.06,0,0,1,1.42.43,1.76,1.76,0,0,1,.46,1.36v3.65Zm-1.83-.57a1.69,1.69,0,0,0,1.19-.41,1.59,1.59,0,0,0,.43-1.17v-.48l-.81,0a2.91,2.91,0,0,0-1.4.3.89.89,0,0,0-.42.82.81.81,0,0,0,.26.67A1.09,1.09,0,0,0,275.36,266.18Z" style="fill:#a6a8ab"/><path d="M282,261.3a3.1,3.1,0,0,1,.64.06l-.11.75a3.59,3.59,0,0,0-.59-.07,1.44,1.44,0,0,0-1.11.53,1.91,1.91,0,0,0-.46,1.31v2.87h-.81V261.4h.67l.09,1h0a2.35,2.35,0,0,1,.72-.8A1.59,1.59,0,0,1,282,261.3Z" style="fill:#a6a8ab"/><path d="M288.92,266.75h-.79v-5.08c0-.43,0-.83,0-1.21l-.23.22-1.16.95-.43-.56,1.89-1.46h.68Z" style="fill:#a6a8ab"/><path d="M296.38,262.66q0,4.18-3.24,4.19a3.1,3.1,0,0,1-.9-.1v-.7a2.69,2.69,0,0,0,.89.13,2.17,2.17,0,0,0,1.77-.72,3.79,3.79,0,0,0,.65-2.23h-.06a1.77,1.77,0,0,1-.71.62,2.34,2.34,0,0,1-1,.21,2,2,0,0,1-1.5-.56,2.19,2.19,0,0,1-.56-1.59,2.39,2.39,0,0,1,.63-1.75,2.17,2.17,0,0,1,1.64-.65,2.21,2.21,0,0,1,1.27.38,2.3,2.3,0,0,1,.83,1.08A4.36,4.36,0,0,1,296.38,262.66Zm-2.4-2.45a1.32,1.32,0,0,0-1.08.44,1.85,1.85,0,0,0-.39,1.25,1.61,1.61,0,0,0,.36,1.11,1.33,1.33,0,0,0,1.07.4,1.85,1.85,0,0,0,.81-.18,1.43,1.43,0,0,0,.59-.49,1.11,1.11,0,0,0,.22-.66,2.26,2.26,0,0,0-.2-.94,1.75,1.75,0,0,0-.56-.69A1.46,1.46,0,0,0,294,260.21Z" style="fill:#a6a8ab"/><path d="M302.15,262.66c0,2.79-1.09,4.19-3.25,4.19a3.15,3.15,0,0,1-.9-.1v-.7a2.73,2.73,0,0,0,.89.13,2.17,2.17,0,0,0,1.77-.72,3.72,3.72,0,0,0,.66-2.23h-.06a1.74,1.74,0,0,1-.72.62,2.29,2.29,0,0,1-1,.21,2,2,0,0,1-1.5-.56,2.19,2.19,0,0,1-.56-1.59,2.43,2.43,0,0,1,.62-1.75,2.2,2.2,0,0,1,1.64-.65,2.17,2.17,0,0,1,1.27.38,2.25,2.25,0,0,1,.84,1.08A4.36,4.36,0,0,1,302.15,262.66Zm-2.41-2.45a1.35,1.35,0,0,0-1.08.44,1.9,1.9,0,0,0-.38,1.25,1.66,1.66,0,0,0,.35,1.11,1.36,1.36,0,0,0,1.07.4,1.86,1.86,0,0,0,.82-.18,1.43,1.43,0,0,0,.59-.49,1.18,1.18,0,0,0,.22-.66,2.12,2.12,0,0,0-.21-.94,1.72,1.72,0,0,0-.55-.69A1.47,1.47,0,0,0,299.74,260.21Z" style="fill:#a6a8ab"/><path d="M303.3,263.7a5.11,5.11,0,0,1,.82-3.15,2.9,2.9,0,0,1,2.42-1,3.31,3.31,0,0,1,.87.09v.7a2.84,2.84,0,0,0-.86-.12,2.16,2.16,0,0,0-1.75.72,3.59,3.59,0,0,0-.67,2.24h.06a1.88,1.88,0,0,1,1.7-.84,2,2,0,0,1,1.52.59,2.16,2.16,0,0,1,.55,1.57,2.39,2.39,0,0,1-.61,1.75A2.34,2.34,0,0,1,304,266,3.72,3.72,0,0,1,303.3,263.7Zm2.4,2.46a1.37,1.37,0,0,0,1.08-.43,1.92,1.92,0,0,0,.38-1.27,1.61,1.61,0,0,0-.36-1.11,1.33,1.33,0,0,0-1.06-.41,1.85,1.85,0,0,0-.81.18,1.66,1.66,0,0,0-.58.5,1.18,1.18,0,0,0-.22.66,2.26,2.26,0,0,0,.2.94,1.64,1.64,0,0,0,.55.69A1.39,1.39,0,0,0,305.7,266.16Z" style="fill:#a6a8ab"/><path d="M9.78,278.75,9.62,278h0a2.18,2.18,0,0,1-.79.68,2.45,2.45,0,0,1-1,.18,1.83,1.83,0,0,1-1.25-.41,1.49,1.49,0,0,1-.45-1.17c0-1.08.87-1.64,2.6-1.7l.9,0v-.33a1.36,1.36,0,0,0-.27-.93,1.11,1.11,0,0,0-.86-.3,3.62,3.62,0,0,0-1.52.41l-.25-.62a4.12,4.12,0,0,1,.87-.33,3.38,3.38,0,0,1,.94-.13,2,2,0,0,1,1.42.43,1.76,1.76,0,0,1,.47,1.36v3.65ZM8,278.18a1.67,1.67,0,0,0,1.19-.41,1.55,1.55,0,0,0,.44-1.17v-.48l-.82,0a2.9,2.9,0,0,0-1.39.3.88.88,0,0,0-.43.82.82.82,0,0,0,.27.67A1.06,1.06,0,0,0,8,278.18Z" style="fill:#a6a8ab"/><path d="M15.77,278.75v-3.46a1.4,1.4,0,0,0-.3-1,1.23,1.23,0,0,0-.93-.32,1.52,1.52,0,0,0-1.23.46,2.29,2.29,0,0,0-.39,1.5v2.8H12.1V273.4h.66l.14.73h0a1.74,1.74,0,0,1,.7-.61,2.36,2.36,0,0,1,1-.22,2,2,0,0,1,1.46.47,2,2,0,0,1,.49,1.49v3.49Z" style="fill:#a6a8ab"/><path d="M21.93,278h0a1.9,1.9,0,0,1-1.68.81,2,2,0,0,1-1.63-.72,3.9,3.9,0,0,1,0-4.09,2.16,2.16,0,0,1,3.3,0h.06l0-.38,0-.38v-2.17h.81v7.59H22Zm-1.62.13a1.49,1.49,0,0,0,1.21-.45,2.28,2.28,0,0,0,.37-1.46v-.17a2.68,2.68,0,0,0-.38-1.62A1.41,1.41,0,0,0,20.3,274a1.26,1.26,0,0,0-1.09.56,2.77,2.77,0,0,0-.38,1.56,2.64,2.64,0,0,0,.38,1.55A1.27,1.27,0,0,0,20.31,278.17Z" style="fill:#a6a8ab"/><path d="M30.78,278.75v-3.46a1.4,1.4,0,0,0-.3-1,1.23,1.23,0,0,0-.93-.32,1.52,1.52,0,0,0-1.23.46,2.29,2.29,0,0,0-.39,1.5v2.8h-.81V273.4h.66l.13.73h0a1.67,1.67,0,0,1,.7-.61,2.33,2.33,0,0,1,1-.22,2,2,0,0,1,1.45.47,2,2,0,0,1,.49,1.49v3.49Z" style="fill:#a6a8ab"/><path d="M35.57,278.85a2.49,2.49,0,0,1-1.88-.72,2.83,2.83,0,0,1-.68-2,3.05,3.05,0,0,1,.64-2.05,2.1,2.1,0,0,1,1.71-.77A2,2,0,0,1,37,274a2.52,2.52,0,0,1,.58,1.74v.51H33.85a2.08,2.08,0,0,0,.47,1.43,1.66,1.66,0,0,0,1.28.49,4.38,4.38,0,0,0,1.71-.36v.72a3.73,3.73,0,0,1-.82.27A4.77,4.77,0,0,1,35.57,278.85ZM35.35,274a1.33,1.33,0,0,0-1,.42,1.88,1.88,0,0,0-.45,1.16h2.8a1.76,1.76,0,0,0-.35-1.17A1.19,1.19,0,0,0,35.35,274Z" style="fill:#a6a8ab"/><path d="M43.34,278.75l-1-3.14c-.06-.19-.17-.62-.34-1.31h0c-.13.57-.24,1-.34,1.32l-1,3.13h-.94l-1.46-5.35h.85c.34,1.35.61,2.37.79,3.07a14.24,14.24,0,0,1,.31,1.42h0c0-.18.09-.42.17-.72s.15-.52.21-.7l1-3.07h.88l1,3.07a11.55,11.55,0,0,1,.37,1.41h0a4.08,4.08,0,0,1,.1-.54c.06-.24.4-1.56,1-3.94h.84l-1.48,5.35Z" style="fill:#a6a8ab"/><path d="M49.06,278.85a2.47,2.47,0,0,1-1.88-.72,2.83,2.83,0,0,1-.68-2,3.1,3.1,0,0,1,.63-2.05,2.13,2.13,0,0,1,1.71-.77,2,2,0,0,1,1.6.67,2.52,2.52,0,0,1,.58,1.74v.51H47.34a2.08,2.08,0,0,0,.47,1.43,1.64,1.64,0,0,0,1.27.49,4.3,4.3,0,0,0,1.71-.36v.72a3.5,3.5,0,0,1-.81.27A4.77,4.77,0,0,1,49.06,278.85ZM48.83,274a1.31,1.31,0,0,0-1,.42,1.88,1.88,0,0,0-.45,1.16h2.79a1.76,1.76,0,0,0-.34-1.17A1.21,1.21,0,0,0,48.83,274Z" style="fill:#a6a8ab"/><path d="M54.9,273.3a3.16,3.16,0,0,1,.64.06l-.12.75a3.36,3.36,0,0,0-.58-.07,1.44,1.44,0,0,0-1.11.53,1.91,1.91,0,0,0-.46,1.31v2.87h-.81V273.4h.66l.1,1h0a2.23,2.23,0,0,1,.71-.8A1.63,1.63,0,0,1,54.9,273.3Z" style="fill:#a6a8ab"/><path d="M61,278.18a2.77,2.77,0,0,0,.42,0,1.73,1.73,0,0,0,.32-.07v.62a1.32,1.32,0,0,1-.39.11,2.68,2.68,0,0,1-.46,0c-1,0-1.56-.54-1.56-1.64V274h-.76v-.39l.76-.34.35-1.14h.46v1.24h1.56V274H60.1v3.15a1.09,1.09,0,0,0,.23.74A.79.79,0,0,0,61,278.18Z" style="fill:#a6a8ab"/><path d="M66.48,278.75v-3.46a1.4,1.4,0,0,0-.3-1,1.23,1.23,0,0,0-.93-.32,1.56,1.56,0,0,0-1.24.46,2.34,2.34,0,0,0-.38,1.51v2.79h-.81v-7.59h.81v2.3a6.07,6.07,0,0,1,0,.68h0a1.54,1.54,0,0,1,.68-.6,2.18,2.18,0,0,1,1-.23,2.08,2.08,0,0,1,1.47.47,2,2,0,0,1,.49,1.48v3.49Z" style="fill:#a6a8ab"/><path d="M72.29,278.75l-.16-.76h0a2.18,2.18,0,0,1-.79.68,2.45,2.45,0,0,1-1,.18,1.81,1.81,0,0,1-1.25-.41,1.49,1.49,0,0,1-.45-1.17c0-1.08.87-1.64,2.59-1.7l.91,0v-.33a1.36,1.36,0,0,0-.27-.93A1.11,1.11,0,0,0,71,274a3.58,3.58,0,0,0-1.52.41l-.25-.62a3.92,3.92,0,0,1,.87-.33,3.38,3.38,0,0,1,.94-.13,2,2,0,0,1,1.42.43,1.76,1.76,0,0,1,.46,1.36v3.65Zm-1.83-.57a1.67,1.67,0,0,0,1.19-.41,1.55,1.55,0,0,0,.43-1.17v-.48l-.81,0a2.87,2.87,0,0,0-1.39.3.88.88,0,0,0-.43.82.82.82,0,0,0,.27.67A1.06,1.06,0,0,0,70.46,278.18Z" style="fill:#a6a8ab"/><path d="M76.34,278.18a2.86,2.86,0,0,0,.42,0,1.73,1.73,0,0,0,.32-.07v.62a1.32,1.32,0,0,1-.39.11,2.68,2.68,0,0,1-.46,0c-1,0-1.56-.54-1.56-1.64V274h-.76v-.39l.76-.34.34-1.14h.47v1.24H77V274H75.48v3.15a1.09,1.09,0,0,0,.23.74A.79.79,0,0,0,76.34,278.18Z" style="fill:#a6a8ab"/><path d="M83.28,273.3a3,3,0,0,1,.64.06l-.11.75a3.48,3.48,0,0,0-.58-.07,1.45,1.45,0,0,0-1.12.53,2,2,0,0,0-.46,1.31v2.87h-.81V273.4h.67l.09,1h0a2.35,2.35,0,0,1,.72-.8A1.62,1.62,0,0,1,83.28,273.3Z" style="fill:#a6a8ab"/><path d="M85.74,273.4v3.47a1.4,1.4,0,0,0,.29,1,1.24,1.24,0,0,0,.94.32,1.49,1.49,0,0,0,1.22-.46,2.29,2.29,0,0,0,.39-1.5V273.4h.81v5.35h-.67l-.11-.71h0a1.56,1.56,0,0,1-.69.6,2.31,2.31,0,0,1-1,.21,2,2,0,0,1-1.46-.46,2,2,0,0,1-.48-1.49v-3.5Z" style="fill:#a6a8ab"/><path d="M94.82,278.75v-3.46a1.45,1.45,0,0,0-.29-1,1.24,1.24,0,0,0-.94-.32,1.52,1.52,0,0,0-1.23.46A2.29,2.29,0,0,0,92,276v2.8h-.81V273.4h.66l.13.73h0a1.74,1.74,0,0,1,.7-.61,2.33,2.33,0,0,1,1-.22,2.07,2.07,0,0,1,1.46.47,2,2,0,0,1,.48,1.49v3.49Z" style="fill:#a6a8ab"/><path d="M100.8,277.29a1.36,1.36,0,0,1-.55,1.16,2.66,2.66,0,0,1-1.57.4,3.34,3.34,0,0,1-1.66-.34v-.75a4.57,4.57,0,0,0,.83.31,3.74,3.74,0,0,0,.85.11,2,2,0,0,0,1-.2.67.67,0,0,0,.34-.62.65.65,0,0,0-.27-.53,4,4,0,0,0-1.06-.53,5.9,5.9,0,0,1-1.06-.48,1.43,1.43,0,0,1-.47-.48,1.22,1.22,0,0,1-.15-.63,1.21,1.21,0,0,1,.53-1A2.5,2.5,0,0,1,99,273.3a4.17,4.17,0,0,1,1.69.36l-.29.65a3.89,3.89,0,0,0-1.46-.33,1.71,1.71,0,0,0-.87.18.57.57,0,0,0-.29.5.65.65,0,0,0,.11.37,1.19,1.19,0,0,0,.35.29,8.83,8.83,0,0,0,.94.39,3.36,3.36,0,0,1,1.29.7A1.23,1.23,0,0,1,100.8,277.29Z" style="fill:#a6a8ab"/><path d="M109.44,276.07a3,3,0,0,1-.66,2.05,2.32,2.32,0,0,1-1.82.73,2.38,2.38,0,0,1-1.28-.34,2.18,2.18,0,0,1-.86-1,3.4,3.4,0,0,1-.3-1.48,3,3,0,0,1,.65-2,2.36,2.36,0,0,1,1.82-.73,2.25,2.25,0,0,1,1.78.75A2.9,2.9,0,0,1,109.44,276.07Zm-4.08,0a2.53,2.53,0,0,0,.41,1.56,1.62,1.62,0,0,0,2.41,0,2.51,2.51,0,0,0,.42-1.57,2.47,2.47,0,0,0-.42-1.55A1.44,1.44,0,0,0,107,274a1.48,1.48,0,0,0-1.21.52A2.6,2.6,0,0,0,105.36,276.07Z" style="fill:#a6a8ab"/><path d="M114.57,278.75v-3.46a1.4,1.4,0,0,0-.3-1,1.23,1.23,0,0,0-.93-.32,1.52,1.52,0,0,0-1.23.46,2.29,2.29,0,0,0-.39,1.5v2.8h-.81V273.4h.66l.13.73h0a1.67,1.67,0,0,1,.7-.61,2.33,2.33,0,0,1,1-.22,2,2,0,0,1,1.45.47,2,2,0,0,1,.49,1.49v3.49Z" style="fill:#a6a8ab"/><path d="M124.12,273.4v.51l-1,.12a1.65,1.65,0,0,1,.35,1.07,1.6,1.6,0,0,1-.53,1.26,2.19,2.19,0,0,1-1.48.46,3.19,3.19,0,0,1-.45,0,.8.8,0,0,0-.52.68.36.36,0,0,0,.19.33,1.31,1.31,0,0,0,.62.1h.94a2.16,2.16,0,0,1,1.34.37,1.27,1.27,0,0,1,.47,1.06,1.51,1.51,0,0,1-.72,1.36,3.81,3.81,0,0,1-2.08.47,2.77,2.77,0,0,1-1.62-.4,1.24,1.24,0,0,1-.56-1.1,1.21,1.21,0,0,1,.31-.84,1.58,1.58,0,0,1,.88-.49.82.82,0,0,1-.35-.29.75.75,0,0,1-.14-.45.82.82,0,0,1,.16-.51,1.64,1.64,0,0,1,.49-.43,1.45,1.45,0,0,1-.68-.58,1.72,1.72,0,0,1-.25-.94,1.73,1.73,0,0,1,.52-1.35,2.15,2.15,0,0,1,1.5-.48,2.84,2.84,0,0,1,.75.1Zm-4.26,6.25a.73.73,0,0,0,.36.66,2,2,0,0,0,1,.23,2.94,2.94,0,0,0,1.51-.31.93.93,0,0,0,.49-.83.65.65,0,0,0-.27-.6,2,2,0,0,0-1-.17h-1a1.34,1.34,0,0,0-.86.26A1,1,0,0,0,119.86,279.65Zm.44-4.53a1.07,1.07,0,0,0,.31.84,1.26,1.26,0,0,0,.89.29,1,1,0,0,0,1.18-1.15,1.07,1.07,0,0,0-1.2-1.21,1.22,1.22,0,0,0-.88.31A1.27,1.27,0,0,0,120.3,275.12Z" style="fill:#a6a8ab"/><path d="M128.56,278.75l-.16-.76h0a2.18,2.18,0,0,1-.79.68,2.45,2.45,0,0,1-1,.18,1.81,1.81,0,0,1-1.25-.41,1.49,1.49,0,0,1-.45-1.17c0-1.08.87-1.64,2.59-1.7l.91,0v-.33a1.36,1.36,0,0,0-.27-.93,1.11,1.11,0,0,0-.86-.3,3.58,3.58,0,0,0-1.52.41l-.25-.62a3.92,3.92,0,0,1,.87-.33,3.38,3.38,0,0,1,.94-.13,2,2,0,0,1,1.42.43,1.76,1.76,0,0,1,.46,1.36v3.65Zm-1.83-.57a1.67,1.67,0,0,0,1.19-.41,1.55,1.55,0,0,0,.43-1.17v-.48l-.81,0a2.87,2.87,0,0,0-1.39.3.88.88,0,0,0-.43.82.82.82,0,0,0,.27.67A1.06,1.06,0,0,0,126.73,278.18Z" style="fill:#a6a8ab"/><path d="M134.33,277.29a1.36,1.36,0,0,1-.55,1.16,2.61,2.61,0,0,1-1.56.4,3.32,3.32,0,0,1-1.66-.34v-.75a4.22,4.22,0,0,0,.82.31,3.76,3.76,0,0,0,.86.11,2,2,0,0,0,1-.2.67.67,0,0,0,.34-.62.65.65,0,0,0-.27-.53,4.09,4.09,0,0,0-1.05-.53,5.58,5.58,0,0,1-1.06-.48,1.34,1.34,0,0,1-.47-.48,1.14,1.14,0,0,1-.16-.63,1.21,1.21,0,0,1,.53-1,2.53,2.53,0,0,1,1.46-.38,4.17,4.17,0,0,1,1.69.36l-.29.65a3.85,3.85,0,0,0-1.45-.33,1.66,1.66,0,0,0-.87.18.56.56,0,0,0-.3.5.65.65,0,0,0,.11.37,1.26,1.26,0,0,0,.36.29,7.61,7.61,0,0,0,.93.39,3.36,3.36,0,0,1,1.29.7A1.23,1.23,0,0,1,134.33,277.29Z" style="fill:#a6a8ab"/><path d="M140.32,276.07a3,3,0,0,1-.66,2.05,2.31,2.31,0,0,1-1.82.73,2.34,2.34,0,0,1-1.27-.34,2.18,2.18,0,0,1-.86-1,3.4,3.4,0,0,1-.3-1.48,2.94,2.94,0,0,1,.65-2,2.34,2.34,0,0,1,1.82-.73,2.25,2.25,0,0,1,1.78.75A2.94,2.94,0,0,1,140.32,276.07Zm-4.07,0a2.46,2.46,0,0,0,.41,1.56,1.41,1.41,0,0,0,1.2.54,1.44,1.44,0,0,0,1.21-.53,2.58,2.58,0,0,0,.41-1.57,2.53,2.53,0,0,0-.41-1.55,1.66,1.66,0,0,0-2.42,0A2.53,2.53,0,0,0,136.25,276.07Z" style="fill:#a6a8ab"/><path d="M142.6,278.75h-.81v-7.59h.81Z" style="fill:#a6a8ab"/><path d="M144.31,272a.56.56,0,0,1,.13-.41.51.51,0,0,1,.34-.13.48.48,0,0,1,.34.14.49.49,0,0,1,.14.4.53.53,0,0,1-.14.41.51.51,0,0,1-.68,0A.56.56,0,0,1,144.31,272Zm.87,6.8h-.81V273.4h.81Z" style="fill:#a6a8ab"/><path d="M150.61,278.75v-3.46a1.45,1.45,0,0,0-.29-1,1.24,1.24,0,0,0-.94-.32,1.54,1.54,0,0,0-1.23.46,2.29,2.29,0,0,0-.39,1.5v2.8H147V273.4h.66l.13.73h0a1.74,1.74,0,0,1,.7-.61,2.33,2.33,0,0,1,1-.22,2,2,0,0,1,1.46.47,2,2,0,0,1,.48,1.49v3.49Z" style="fill:#a6a8ab"/><path d="M155.4,278.85a2.46,2.46,0,0,1-1.87-.72,2.79,2.79,0,0,1-.69-2,3.05,3.05,0,0,1,.64-2.05,2.12,2.12,0,0,1,1.71-.77,2,2,0,0,1,1.59.67,2.53,2.53,0,0,1,.59,1.74v.51h-3.69a2.13,2.13,0,0,0,.48,1.43,1.62,1.62,0,0,0,1.27.49,4.3,4.3,0,0,0,1.71-.36v.72a3.84,3.84,0,0,1-.81.27A5,5,0,0,1,155.4,278.85Zm-.22-4.87a1.33,1.33,0,0,0-1,.42,2,2,0,0,0-.45,1.16h2.8a1.76,1.76,0,0,0-.34-1.17A1.22,1.22,0,0,0,155.18,274Z" style="fill:#a6a8ab"/><path d="M159.65,277.59l.07.11a10.27,10.27,0,0,1-.36,1.14c-.16.43-.33.83-.5,1.2h-.61c.09-.34.18-.75.29-1.25s.18-.9.22-1.2Z" style="fill:#a6a8ab"/><path d="M167.24,278.75l-.16-.76h0a2.2,2.2,0,0,1-.8.68,2.37,2.37,0,0,1-1,.18,1.81,1.81,0,0,1-1.25-.41,1.49,1.49,0,0,1-.45-1.17c0-1.08.86-1.64,2.59-1.7l.91,0v-.33a1.36,1.36,0,0,0-.27-.93,1.12,1.12,0,0,0-.87-.3,3.58,3.58,0,0,0-1.51.41l-.25-.62a3.74,3.74,0,0,1,.87-.33,3.38,3.38,0,0,1,.94-.13,2.06,2.06,0,0,1,1.42.43,1.76,1.76,0,0,1,.46,1.36v3.65Zm-1.83-.57a1.67,1.67,0,0,0,1.19-.41,1.55,1.55,0,0,0,.43-1.17v-.48l-.81,0a2.87,2.87,0,0,0-1.39.3.88.88,0,0,0-.43.82.82.82,0,0,0,.27.67A1,1,0,0,0,165.41,278.18Z" style="fill:#a6a8ab"/><path d="M173.22,278.75v-3.46a1.4,1.4,0,0,0-.3-1A1.2,1.2,0,0,0,172,274a1.52,1.52,0,0,0-1.23.46,2.29,2.29,0,0,0-.39,1.5v2.8h-.81V273.4h.66l.13.73h0a1.74,1.74,0,0,1,.7-.61,2.33,2.33,0,0,1,1-.22,2,2,0,0,1,1.46.47,2,2,0,0,1,.48,1.49v3.49Z" style="fill:#a6a8ab"/><path d="M179.39,278h0a1.92,1.92,0,0,1-1.68.81,2,2,0,0,1-1.64-.72,3.87,3.87,0,0,1,0-4.09,2.16,2.16,0,0,1,3.3,0h.06l0-.38,0-.38v-2.17h.81v7.59h-.66Zm-1.62.13a1.46,1.46,0,0,0,1.2-.45,2.28,2.28,0,0,0,.38-1.46v-.17a2.68,2.68,0,0,0-.38-1.62,1.43,1.43,0,0,0-1.21-.49,1.23,1.23,0,0,0-1.09.56,2.77,2.77,0,0,0-.38,1.56,2.64,2.64,0,0,0,.38,1.55A1.25,1.25,0,0,0,177.77,278.17Z" style="fill:#a6a8ab"/><path d="M184.5,272a.56.56,0,0,1,.14-.41.51.51,0,0,1,.34-.13.48.48,0,0,1,.34.14.49.49,0,0,1,.14.4.53.53,0,0,1-.14.41.51.51,0,0,1-.68,0A.56.56,0,0,1,184.5,272Zm.88,6.8h-.81V273.4h.81Z" style="fill:#a6a8ab"/><path d="M188.88,278.18a2.86,2.86,0,0,0,.42,0,1.44,1.44,0,0,0,.31-.07v.62a1.16,1.16,0,0,1-.38.11,2.71,2.71,0,0,1-.47,0c-1,0-1.55-.54-1.55-1.64V274h-.76v-.39l.76-.34.34-1.14H188v1.24h1.56V274H188v3.15a1.09,1.09,0,0,0,.23.74A.79.79,0,0,0,188.88,278.18Z" style="fill:#a6a8ab"/><path d="M196.67,278.75l-.16-.76h0a2.12,2.12,0,0,1-.8.68,2.37,2.37,0,0,1-1,.18,1.81,1.81,0,0,1-1.25-.41,1.49,1.49,0,0,1-.45-1.17c0-1.08.86-1.64,2.59-1.7l.91,0v-.33a1.36,1.36,0,0,0-.27-.93,1.12,1.12,0,0,0-.87-.3,3.58,3.58,0,0,0-1.51.41l-.25-.62a3.74,3.74,0,0,1,.87-.33,3.38,3.38,0,0,1,.94-.13,2.06,2.06,0,0,1,1.42.43,1.76,1.76,0,0,1,.46,1.36v3.65Zm-1.83-.57a1.67,1.67,0,0,0,1.19-.41,1.55,1.55,0,0,0,.43-1.17v-.48l-.81,0a2.87,2.87,0,0,0-1.39.3.88.88,0,0,0-.43.82.82.82,0,0,0,.27.67A1,1,0,0,0,194.84,278.18Z" style="fill:#a6a8ab"/><path d="M201.13,278.85a2.32,2.32,0,0,1-1.8-.71,3.58,3.58,0,0,1,0-4.1,2.33,2.33,0,0,1,1.84-.74,3.46,3.46,0,0,1,.78.09,2.5,2.5,0,0,1,.6.19l-.25.69a4.39,4.39,0,0,0-.58-.18,2.51,2.51,0,0,0-.56-.07c-1.09,0-1.64.69-1.64,2.08a2.55,2.55,0,0,0,.4,1.52,1.39,1.39,0,0,0,1.18.52,3.45,3.45,0,0,0,1.37-.29v.72A2.85,2.85,0,0,1,201.13,278.85Z" style="fill:#a6a8ab"/><path d="M205.53,278.18a3,3,0,0,0,.42,0,1.44,1.44,0,0,0,.31-.07v.62a1.16,1.16,0,0,1-.38.11,2.68,2.68,0,0,1-.46,0c-1,0-1.56-.54-1.56-1.64V274h-.77v-.39l.77-.34.34-1.14h.47v1.24h1.56V274h-1.56v3.15a1.09,1.09,0,0,0,.23.74A.78.78,0,0,0,205.53,278.18Z" style="fill:#a6a8ab"/><path d="M210.84,277.29a1.37,1.37,0,0,1-.56,1.16,2.61,2.61,0,0,1-1.56.4,3.32,3.32,0,0,1-1.66-.34v-.75a4.22,4.22,0,0,0,.82.31,3.76,3.76,0,0,0,.86.11,2,2,0,0,0,1-.2.68.68,0,0,0,.35-.62.66.66,0,0,0-.28-.53,4.09,4.09,0,0,0-1.05-.53,5.58,5.58,0,0,1-1.06-.48,1.34,1.34,0,0,1-.47-.48,1.14,1.14,0,0,1-.16-.63,1.2,1.2,0,0,1,.54-1,2.47,2.47,0,0,1,1.45-.38,4.17,4.17,0,0,1,1.69.36l-.28.65A3.94,3.94,0,0,0,209,274a1.66,1.66,0,0,0-.87.18.56.56,0,0,0-.3.5.65.65,0,0,0,.11.37,1.26,1.26,0,0,0,.36.29,7.28,7.28,0,0,0,.94.39,3.38,3.38,0,0,1,1.28.7A1.2,1.2,0,0,1,210.84,277.29Z" style="fill:#a6a8ab"/><path d="M218.14,278.75,218,278h0a2.18,2.18,0,0,1-.79.68,2.45,2.45,0,0,1-1,.18,1.81,1.81,0,0,1-1.25-.41,1.49,1.49,0,0,1-.45-1.17c0-1.08.87-1.64,2.59-1.7l.91,0v-.33a1.36,1.36,0,0,0-.27-.93,1.11,1.11,0,0,0-.86-.3,3.58,3.58,0,0,0-1.52.41l-.25-.62a3.92,3.92,0,0,1,.87-.33,3.38,3.38,0,0,1,.94-.13,2,2,0,0,1,1.42.43,1.76,1.76,0,0,1,.46,1.36v3.65Zm-1.83-.57a1.67,1.67,0,0,0,1.19-.41,1.55,1.55,0,0,0,.43-1.17v-.48l-.81,0a2.87,2.87,0,0,0-1.39.3.88.88,0,0,0-.43.82.82.82,0,0,0,.27.67A1.06,1.06,0,0,0,216.31,278.18Z" style="fill:#a6a8ab"/><path d="M223.92,277.29a1.37,1.37,0,0,1-.56,1.16,2.61,2.61,0,0,1-1.56.4,3.32,3.32,0,0,1-1.66-.34v-.75a4.22,4.22,0,0,0,.82.31,3.76,3.76,0,0,0,.86.11,2,2,0,0,0,1-.2.67.67,0,0,0,.34-.62.65.65,0,0,0-.27-.53,4.09,4.09,0,0,0-1.05-.53,5.58,5.58,0,0,1-1.06-.48,1.34,1.34,0,0,1-.47-.48,1.14,1.14,0,0,1-.16-.63,1.21,1.21,0,0,1,.53-1,2.53,2.53,0,0,1,1.46-.38,4.17,4.17,0,0,1,1.69.36l-.29.65a3.85,3.85,0,0,0-1.45-.33,1.66,1.66,0,0,0-.87.18.56.56,0,0,0-.3.5.65.65,0,0,0,.11.37,1.26,1.26,0,0,0,.36.29,7.61,7.61,0,0,0,.93.39,3.36,3.36,0,0,1,1.29.7A1.24,1.24,0,0,1,223.92,277.29Z" style="fill:#a6a8ab"/><path d="M231.22,278.75l-.16-.76h0a2.18,2.18,0,0,1-.79.68,2.45,2.45,0,0,1-1,.18,1.81,1.81,0,0,1-1.25-.41,1.49,1.49,0,0,1-.45-1.17c0-1.08.87-1.64,2.59-1.7l.91,0v-.33a1.36,1.36,0,0,0-.27-.93,1.11,1.11,0,0,0-.86-.3,3.58,3.58,0,0,0-1.52.41l-.25-.62a3.92,3.92,0,0,1,.87-.33,3.38,3.38,0,0,1,.94-.13,2,2,0,0,1,1.42.43,1.76,1.76,0,0,1,.46,1.36v3.65Zm-1.83-.57a1.67,1.67,0,0,0,1.19-.41,1.55,1.55,0,0,0,.43-1.17v-.48l-.81,0a2.87,2.87,0,0,0-1.39.3.88.88,0,0,0-.43.82.82.82,0,0,0,.27.67A1.06,1.06,0,0,0,229.39,278.18Z" style="fill:#a6a8ab"/><path d="M240.57,273.4v.51l-1,.12a1.71,1.71,0,0,1,.24.45,1.52,1.52,0,0,1,.11.62,1.61,1.61,0,0,1-.54,1.26,2.16,2.16,0,0,1-1.47.46,3.19,3.19,0,0,1-.45,0,.8.8,0,0,0-.52.68.35.35,0,0,0,.18.33,1.34,1.34,0,0,0,.62.1h.95a2.16,2.16,0,0,1,1.34.37,1.26,1.26,0,0,1,.46,1.06,1.53,1.53,0,0,1-.71,1.36,3.84,3.84,0,0,1-2.08.47,2.77,2.77,0,0,1-1.62-.4,1.25,1.25,0,0,1-.57-1.1,1.26,1.26,0,0,1,.31-.84,1.62,1.62,0,0,1,.88-.49.85.85,0,0,1-.34-.29.75.75,0,0,1-.14-.45.82.82,0,0,1,.16-.51,1.64,1.64,0,0,1,.49-.43,1.41,1.41,0,0,1-.68-.58,1.72,1.72,0,0,1-.26-.94,1.74,1.74,0,0,1,.53-1.35,2.14,2.14,0,0,1,1.49-.48,2.91,2.91,0,0,1,.76.1Zm-4.27,6.25a.72.72,0,0,0,.37.66,2,2,0,0,0,1.05.23,3,3,0,0,0,1.51-.31.93.93,0,0,0,.49-.83.65.65,0,0,0-.27-.6,2.09,2.09,0,0,0-1-.17h-1a1.32,1.32,0,0,0-.86.26A1,1,0,0,0,236.3,279.65Zm.44-4.53a1.08,1.08,0,0,0,.32.84,1.23,1.23,0,0,0,.88.29c.8,0,1.19-.38,1.19-1.15a1.07,1.07,0,0,0-1.2-1.21,1.21,1.21,0,0,0-.88.31A1.23,1.23,0,0,0,236.74,275.12Z" style="fill:#a6a8ab"/><path d="M245,278.75l-.16-.76h0a2.2,2.2,0,0,1-.8.68,2.37,2.37,0,0,1-1,.18,1.81,1.81,0,0,1-1.25-.41,1.49,1.49,0,0,1-.45-1.17c0-1.08.86-1.64,2.59-1.7l.91,0v-.33a1.36,1.36,0,0,0-.27-.93,1.12,1.12,0,0,0-.87-.3,3.58,3.58,0,0,0-1.51.41l-.25-.62a3.74,3.74,0,0,1,.87-.33,3.38,3.38,0,0,1,.94-.13,2.06,2.06,0,0,1,1.42.43,1.76,1.76,0,0,1,.46,1.36v3.65Zm-1.83-.57a1.69,1.69,0,0,0,1.19-.41,1.55,1.55,0,0,0,.43-1.17v-.48l-.81,0a2.84,2.84,0,0,0-1.39.3.88.88,0,0,0-.43.82.84.84,0,0,0,.26.67A1.09,1.09,0,0,0,243.18,278.18Z" style="fill:#a6a8ab"/><path d="M249.06,278.18a2.73,2.73,0,0,0,.41,0,1.56,1.56,0,0,0,.32-.07v.62a1.23,1.23,0,0,1-.39.11,2.6,2.6,0,0,1-.46,0c-1,0-1.55-.54-1.55-1.64V274h-.77v-.39l.77-.34.34-1.14h.47v1.24h1.55V274H248.2v3.15a1.09,1.09,0,0,0,.23.74A.77.77,0,0,0,249.06,278.18Z" style="fill:#a6a8ab"/><path d="M253.17,278.85a2.46,2.46,0,0,1-1.87-.72,2.79,2.79,0,0,1-.69-2,3.1,3.1,0,0,1,.64-2.05,2.12,2.12,0,0,1,1.71-.77,2,2,0,0,1,1.59.67,2.53,2.53,0,0,1,.59,1.74v.51h-3.69a2.13,2.13,0,0,0,.48,1.43,1.64,1.64,0,0,0,1.27.49,4.3,4.3,0,0,0,1.71-.36v.72a3.84,3.84,0,0,1-.81.27A5,5,0,0,1,253.17,278.85ZM253,274a1.33,1.33,0,0,0-1,.42,2,2,0,0,0-.45,1.16h2.8a1.76,1.76,0,0,0-.34-1.17A1.21,1.21,0,0,0,253,274Z" style="fill:#a6a8ab"/><path d="M260.94,278.75l-1-3.14c-.06-.19-.18-.62-.35-1.31h0c-.14.57-.25,1-.35,1.32l-1,3.13h-.94l-1.45-5.35h.84c.35,1.35.61,2.37.79,3.07a11.76,11.76,0,0,1,.31,1.42h0q.06-.27.18-.72c.08-.29.14-.52.2-.7l1-3.07h.88l1,3.07a10,10,0,0,1,.37,1.41h0c0-.11.05-.29.1-.54s.4-1.56,1-3.94h.84l-1.48,5.35Z" style="fill:#a6a8ab"/><path d="M267.69,278.75l-.16-.76h0a2.2,2.2,0,0,1-.8.68,2.37,2.37,0,0,1-1,.18,1.81,1.81,0,0,1-1.25-.41,1.49,1.49,0,0,1-.45-1.17c0-1.08.86-1.64,2.59-1.7l.91,0v-.33a1.36,1.36,0,0,0-.27-.93,1.12,1.12,0,0,0-.87-.3,3.58,3.58,0,0,0-1.51.41l-.25-.62a3.74,3.74,0,0,1,.87-.33,3.38,3.38,0,0,1,.94-.13,2.06,2.06,0,0,1,1.42.43,1.76,1.76,0,0,1,.46,1.36v3.65Zm-1.83-.57a1.69,1.69,0,0,0,1.19-.41,1.55,1.55,0,0,0,.43-1.17v-.48l-.81,0a2.87,2.87,0,0,0-1.39.3.88.88,0,0,0-.43.82.84.84,0,0,0,.26.67A1.09,1.09,0,0,0,265.86,278.18Z" style="fill:#a6a8ab"/><path d="M269.16,273.4H270l1.17,3.05a11.08,11.08,0,0,1,.48,1.51h0c0-.16.13-.45.27-.85s.57-1.64,1.32-3.71h.87l-2.3,6.1a3.06,3.06,0,0,1-.8,1.28,1.69,1.69,0,0,1-1.12.38,3,3,0,0,1-.73-.09v-.65a2.77,2.77,0,0,0,.6.06,1.23,1.23,0,0,0,1.19-.94l.3-.76Z" style="fill:#a6a8ab"/><path d="M280.24,273.31a2,2,0,0,1,1.64.72,3.16,3.16,0,0,1,.58,2,3.21,3.21,0,0,1-.59,2.05,2,2,0,0,1-1.63.73,2.32,2.32,0,0,1-1-.19,1.8,1.8,0,0,1-.72-.6h-.06l-.17.69h-.58v-7.59h.81V273c0,.41,0,.79,0,1.11h0A1.94,1.94,0,0,1,280.24,273.31Zm-.12.68a1.43,1.43,0,0,0-1.2.48,3.73,3.73,0,0,0,0,3.22,1.46,1.46,0,0,0,1.21.48,1.24,1.24,0,0,0,1.11-.54,2.78,2.78,0,0,0,.37-1.57,2.68,2.68,0,0,0-.37-1.56A1.29,1.29,0,0,0,280.12,274Z" style="fill:#a6a8ab"/><path d="M286.19,278.85a2.45,2.45,0,0,1-1.87-.72,2.79,2.79,0,0,1-.69-2,3.05,3.05,0,0,1,.64-2.05,2.1,2.1,0,0,1,1.71-.77,2,2,0,0,1,1.59.67,2.53,2.53,0,0,1,.59,1.74v.51h-3.69a2.13,2.13,0,0,0,.47,1.43,1.66,1.66,0,0,0,1.28.49,4.29,4.29,0,0,0,1.7-.36v.72a3.5,3.5,0,0,1-.81.27A4.77,4.77,0,0,1,286.19,278.85ZM286,274a1.32,1.32,0,0,0-1,.42,1.88,1.88,0,0,0-.45,1.16h2.8a1.76,1.76,0,0,0-.35-1.17A1.19,1.19,0,0,0,286,274Z" style="fill:#a6a8ab"/><path d="M291.32,278.18a2.73,2.73,0,0,0,.41,0,1.73,1.73,0,0,0,.32-.07v.62a1.32,1.32,0,0,1-.39.11,2.68,2.68,0,0,1-.46,0c-1,0-1.55-.54-1.55-1.64V274h-.77v-.39l.77-.34.34-1.14h.47v1.24H292V274h-1.55v3.15a1.09,1.09,0,0,0,.22.74A.8.8,0,0,0,291.32,278.18Z" style="fill:#a6a8ab"/><path d="M297.54,278.75l-1-3.14c-.07-.19-.18-.62-.35-1.31h0c-.13.57-.25,1-.34,1.32l-1,3.13h-.94l-1.46-5.35h.85c.34,1.35.61,2.37.79,3.07a14.24,14.24,0,0,1,.31,1.42h0c0-.18.09-.42.17-.72s.15-.52.21-.7l1-3.07h.88l1,3.07a10.2,10.2,0,0,1,.38,1.41h0c0-.11.05-.29.11-.54s.4-1.56,1-3.94H300l-1.48,5.35Z" style="fill:#a6a8ab"/><path d="M303.25,278.85a2.46,2.46,0,0,1-1.87-.72,2.78,2.78,0,0,1-.68-2,3.1,3.1,0,0,1,.63-2.05,2.14,2.14,0,0,1,1.72-.77,2,2,0,0,1,1.59.67,2.52,2.52,0,0,1,.58,1.74v.51h-3.68a2.08,2.08,0,0,0,.47,1.43,1.64,1.64,0,0,0,1.27.49,4.3,4.3,0,0,0,1.71-.36v.72a3.5,3.5,0,0,1-.81.27A4.88,4.88,0,0,1,303.25,278.85ZM303,274a1.32,1.32,0,0,0-1,.42,1.88,1.88,0,0,0-.45,1.16h2.79a1.76,1.76,0,0,0-.34-1.17A1.2,1.2,0,0,0,303,274Z" style="fill:#a6a8ab"/><path d="M308.92,278.85a2.49,2.49,0,0,1-1.88-.72,2.83,2.83,0,0,1-.68-2,3.05,3.05,0,0,1,.64-2.05,2.1,2.1,0,0,1,1.71-.77,2,2,0,0,1,1.59.67,2.52,2.52,0,0,1,.58,1.74v.51H307.2a2.08,2.08,0,0,0,.47,1.43,1.66,1.66,0,0,0,1.28.49,4.38,4.38,0,0,0,1.71-.36v.72a3.73,3.73,0,0,1-.82.27A4.77,4.77,0,0,1,308.92,278.85ZM308.7,274a1.32,1.32,0,0,0-1,.42,1.88,1.88,0,0,0-.45,1.16H310a1.76,1.76,0,0,0-.34-1.17A1.19,1.19,0,0,0,308.7,274Z" style="fill:#a6a8ab"/><path d="M316,278.75v-3.46a1.4,1.4,0,0,0-.3-1,1.23,1.23,0,0,0-.93-.32,1.52,1.52,0,0,0-1.23.46,2.29,2.29,0,0,0-.39,1.5v2.8h-.81V273.4H313l.13.73h0a1.65,1.65,0,0,1,.69-.61,2.36,2.36,0,0,1,1-.22,2,2,0,0,1,1.46.47,2,2,0,0,1,.49,1.49v3.49Z" style="fill:#a6a8ab"/><path d="M5.64,285.4h.87l1.17,3.05A11.08,11.08,0,0,1,8.16,290h0c.05-.16.13-.45.27-.85s.58-1.64,1.32-3.71h.87l-2.3,6.1a3.06,3.06,0,0,1-.79,1.28,1.73,1.73,0,0,1-1.13.38,3,3,0,0,1-.73-.09v-.65a2.77,2.77,0,0,0,.6.06,1.22,1.22,0,0,0,1.19-.94l.3-.76Z" style="fill:#a6a8ab"/><path d="M16.2,288.07a3,3,0,0,1-.66,2.05,2.31,2.31,0,0,1-1.82.73,2.34,2.34,0,0,1-1.27-.34,2.18,2.18,0,0,1-.86-1,3.4,3.4,0,0,1-.31-1.48,2.94,2.94,0,0,1,.66-2,2.33,2.33,0,0,1,1.81-.73,2.27,2.27,0,0,1,1.79.75A2.94,2.94,0,0,1,16.2,288.07Zm-4.08,0a2.53,2.53,0,0,0,.41,1.56,1.44,1.44,0,0,0,1.21.54,1.46,1.46,0,0,0,1.21-.53,2.58,2.58,0,0,0,.41-1.57,2.53,2.53,0,0,0-.41-1.55,1.46,1.46,0,0,0-1.22-.53,1.45,1.45,0,0,0-1.2.52A2.53,2.53,0,0,0,12.12,288.07Z" style="fill:#a6a8ab"/><path d="M18.43,285.4v3.47a1.4,1.4,0,0,0,.3,1,1.24,1.24,0,0,0,.94.32,1.51,1.51,0,0,0,1.22-.46,2.29,2.29,0,0,0,.39-1.5V285.4h.81v5.35h-.67l-.11-.71h0a1.68,1.68,0,0,1-.69.6,2.31,2.31,0,0,1-1,.21,2,2,0,0,1-1.46-.46,2,2,0,0,1-.49-1.49v-3.5Z" style="fill:#a6a8ab"/><path d="M29.8,290.75l-.16-.76h0a2.2,2.2,0,0,1-.8.68,2.4,2.4,0,0,1-1,.18,1.81,1.81,0,0,1-1.25-.41,1.49,1.49,0,0,1-.45-1.17c0-1.08.86-1.64,2.59-1.7l.91,0v-.33a1.36,1.36,0,0,0-.27-.93,1.12,1.12,0,0,0-.87-.3,3.54,3.54,0,0,0-1.51.41l-.25-.62a3.74,3.74,0,0,1,.87-.33,3.33,3.33,0,0,1,.94-.13,2.06,2.06,0,0,1,1.42.43,1.76,1.76,0,0,1,.46,1.36v3.65ZM28,290.18a1.69,1.69,0,0,0,1.19-.41,1.55,1.55,0,0,0,.43-1.17v-.48l-.81,0a2.84,2.84,0,0,0-1.39.3.88.88,0,0,0-.43.82.84.84,0,0,0,.26.67A1.09,1.09,0,0,0,28,290.18Z" style="fill:#a6a8ab"/><path d="M35.78,290.75v-3.46a1.4,1.4,0,0,0-.3-1,1.22,1.22,0,0,0-.93-.32,1.52,1.52,0,0,0-1.23.46,2.29,2.29,0,0,0-.39,1.5v2.8h-.81V285.4h.66l.13.73h0a1.74,1.74,0,0,1,.7-.61,2.33,2.33,0,0,1,1-.22,2,2,0,0,1,1.45.47,2,2,0,0,1,.49,1.49v3.49Z" style="fill:#a6a8ab"/><path d="M42,290h0a1.92,1.92,0,0,1-1.68.81,2,2,0,0,1-1.64-.72,3.9,3.9,0,0,1,0-4.09,2,2,0,0,1,1.64-.74,2,2,0,0,1,1.67.79H42l0-.38v-2.55h.81v7.59h-.66Zm-1.62.13a1.48,1.48,0,0,0,1.2-.45,2.28,2.28,0,0,0,.38-1.46v-.17a2.68,2.68,0,0,0-.38-1.62,1.44,1.44,0,0,0-1.21-.49,1.23,1.23,0,0,0-1.09.56,2.77,2.77,0,0,0-.38,1.56,2.57,2.57,0,0,0,.38,1.55A1.25,1.25,0,0,0,40.33,290.17Z" style="fill:#a6a8ab"/><path d="M46.28,285.4h.87l1.18,3.05A12.21,12.21,0,0,1,48.8,290h0c0-.16.13-.45.27-.85s.57-1.64,1.32-3.71h.87L49,291.5a3.06,3.06,0,0,1-.79,1.28,1.73,1.73,0,0,1-1.13.38,3,3,0,0,1-.73-.09v-.65a2.77,2.77,0,0,0,.6.06,1.22,1.22,0,0,0,1.19-.94l.3-.76Z" style="fill:#a6a8ab"/><path d="M56.84,288.07a3,3,0,0,1-.66,2.05,2.31,2.31,0,0,1-1.82.73,2.34,2.34,0,0,1-1.27-.34,2.18,2.18,0,0,1-.86-1,3.26,3.26,0,0,1-.31-1.48,2.94,2.94,0,0,1,.66-2,2.33,2.33,0,0,1,1.82-.73,2.26,2.26,0,0,1,1.78.75A2.94,2.94,0,0,1,56.84,288.07Zm-4.08,0a2.53,2.53,0,0,0,.41,1.56,1.44,1.44,0,0,0,1.21.54,1.46,1.46,0,0,0,1.21-.53,2.58,2.58,0,0,0,.41-1.57,2.53,2.53,0,0,0-.41-1.55,1.46,1.46,0,0,0-1.22-.53,1.45,1.45,0,0,0-1.2.52A2.53,2.53,0,0,0,52.76,288.07Z" style="fill:#a6a8ab"/><path d="M59.07,285.4v3.47a1.4,1.4,0,0,0,.3,1,1.23,1.23,0,0,0,.93.32,1.52,1.52,0,0,0,1.23-.46,2.29,2.29,0,0,0,.39-1.5V285.4h.81v5.35h-.67l-.12-.71h0a1.62,1.62,0,0,1-.69.6,2.31,2.31,0,0,1-1,.21,2,2,0,0,1-1.46-.46,2,2,0,0,1-.49-1.49v-3.5Z" style="fill:#a6a8ab"/><path d="M66.94,285.3a3.1,3.1,0,0,1,.64.06l-.11.75a3.47,3.47,0,0,0-.59-.07,1.44,1.44,0,0,0-1.11.53,1.91,1.91,0,0,0-.46,1.31v2.87H64.5V285.4h.67l.09,1h0a2.35,2.35,0,0,1,.72-.8A1.62,1.62,0,0,1,66.94,285.3Z" style="fill:#a6a8ab"/><path d="M73.42,290.85a2.29,2.29,0,0,1-1.8-.71,2.94,2.94,0,0,1-.64-2,3,3,0,0,1,.65-2.07,2.32,2.32,0,0,1,1.84-.74,3.31,3.31,0,0,1,.77.09,2.6,2.6,0,0,1,.61.19l-.25.69a4.12,4.12,0,0,0-.59-.18,2.38,2.38,0,0,0-.56-.07c-1.08,0-1.63.69-1.63,2.08a2.48,2.48,0,0,0,.4,1.52,1.39,1.39,0,0,0,1.18.52,3.48,3.48,0,0,0,1.37-.29v.72A2.87,2.87,0,0,1,73.42,290.85Z" style="fill:#a6a8ab"/><path d="M79.38,290.75l-.16-.76h0a2.12,2.12,0,0,1-.8.68,2.37,2.37,0,0,1-1,.18,1.81,1.81,0,0,1-1.25-.41,1.49,1.49,0,0,1-.45-1.17c0-1.08.86-1.64,2.59-1.7l.91,0v-.33a1.36,1.36,0,0,0-.27-.93,1.12,1.12,0,0,0-.87-.3,3.58,3.58,0,0,0-1.51.41l-.25-.62a3.74,3.74,0,0,1,.87-.33,3.38,3.38,0,0,1,.94-.13,2.06,2.06,0,0,1,1.42.43A1.76,1.76,0,0,1,80,287.1v3.65Zm-1.83-.57a1.67,1.67,0,0,0,1.19-.41,1.55,1.55,0,0,0,.43-1.17v-.48l-.81,0a2.87,2.87,0,0,0-1.39.3.88.88,0,0,0-.43.82.82.82,0,0,0,.27.67A1,1,0,0,0,77.55,290.18Z" style="fill:#a6a8ab"/><path d="M84.14,285.3a3.1,3.1,0,0,1,.64.06l-.11.75a3.47,3.47,0,0,0-.59-.07,1.44,1.44,0,0,0-1.11.53,2,2,0,0,0-.46,1.31v2.87H81.7V285.4h.67l.09,1h0a2.35,2.35,0,0,1,.72-.8A1.62,1.62,0,0,1,84.14,285.3Z" style="fill:#a6a8ab"/><path d="M85.72,290.24a.78.78,0,0,1,.14-.5.56.56,0,0,1,.43-.17.57.57,0,0,1,.44.17.68.68,0,0,1,.16.5.65.65,0,0,1-.16.48.55.55,0,0,1-.44.17.59.59,0,0,1-.41-.15A.65.65,0,0,1,85.72,290.24Z" style="fill:#a6a8ab"/><path d="M92.15,287.78v3h-.83v-7.14h2a3,3,0,0,1,1.94.51,1.81,1.81,0,0,1,.63,1.51,1.89,1.89,0,0,1-1.43,1.91l1.93,3.21h-1l-1.73-3Zm0-.71h1.13a1.91,1.91,0,0,0,1.29-.35,1.31,1.31,0,0,0,.41-1.05,1.19,1.19,0,0,0-.42-1,2.3,2.3,0,0,0-1.34-.31H92.15Z" style="fill:#a6a8ab"/><path d="M99.68,290.85a2.46,2.46,0,0,1-1.87-.72,2.78,2.78,0,0,1-.68-2,3.1,3.1,0,0,1,.63-2.05,2.14,2.14,0,0,1,1.72-.77,2,2,0,0,1,1.59.67,2.52,2.52,0,0,1,.58,1.74v.51H98a2.08,2.08,0,0,0,.47,1.43,1.64,1.64,0,0,0,1.27.49,4.3,4.3,0,0,0,1.71-.36v.72a3.5,3.5,0,0,1-.81.27A4.88,4.88,0,0,1,99.68,290.85ZM99.47,286a1.32,1.32,0,0,0-1,.42,1.88,1.88,0,0,0-.45,1.16h2.79a1.76,1.76,0,0,0-.34-1.17A1.2,1.2,0,0,0,99.47,286Z" style="fill:#a6a8ab"/><path d="M103.9,290.75h-.82v-7.59h.82Z" style="fill:#a6a8ab"/><path d="M107.92,290.85a2.46,2.46,0,0,1-1.87-.72,2.78,2.78,0,0,1-.68-2,3.1,3.1,0,0,1,.63-2.05,2.13,2.13,0,0,1,1.71-.77,2,2,0,0,1,1.6.67,2.52,2.52,0,0,1,.58,1.74v.51h-3.68a2.08,2.08,0,0,0,.47,1.43,1.64,1.64,0,0,0,1.27.49,4.3,4.3,0,0,0,1.71-.36v.72a3.66,3.66,0,0,1-.81.27A4.88,4.88,0,0,1,107.92,290.85ZM107.7,286a1.3,1.3,0,0,0-1,.42,1.88,1.88,0,0,0-.45,1.16H109a1.76,1.76,0,0,0-.34-1.17A1.21,1.21,0,0,0,107.7,286Z" style="fill:#a6a8ab"/><path d="M112.5,290.75l-2-5.35h.87l1.16,3.18a12.76,12.76,0,0,1,.45,1.44h0c0-.17.15-.53.34-1.07s.62-1.73,1.28-3.55h.87l-2,5.35Z" style="fill:#a6a8ab"/><path d="M119.67,290.75l-.16-.76h0a2.28,2.28,0,0,1-.8.68,2.45,2.45,0,0,1-1,.18,1.83,1.83,0,0,1-1.25-.41,1.49,1.49,0,0,1-.45-1.17c0-1.08.87-1.64,2.6-1.7l.91,0v-.33a1.36,1.36,0,0,0-.28-.93,1.09,1.09,0,0,0-.86-.3,3.62,3.62,0,0,0-1.52.41l-.25-.62a4.12,4.12,0,0,1,.87-.33,3.4,3.4,0,0,1,1-.13,2,2,0,0,1,1.41.43,1.76,1.76,0,0,1,.47,1.36v3.65Zm-1.83-.57a1.65,1.65,0,0,0,1.19-.41,1.55,1.55,0,0,0,.44-1.17v-.48l-.81,0a2.91,2.91,0,0,0-1.4.3.9.9,0,0,0-.43.82.82.82,0,0,0,.27.67A1.06,1.06,0,0,0,117.84,290.18Z" style="fill:#a6a8ab"/><path d="M125.66,290.75v-3.46a1.4,1.4,0,0,0-.3-1,1.23,1.23,0,0,0-.93-.32,1.52,1.52,0,0,0-1.23.46,2.29,2.29,0,0,0-.39,1.5v2.8H122V285.4h.66l.13.73h0a1.65,1.65,0,0,1,.69-.61,2.36,2.36,0,0,1,1-.22,2,2,0,0,1,1.46.47,2,2,0,0,1,.49,1.49v3.49Z" style="fill:#a6a8ab"/><path d="M129.91,290.18a2.86,2.86,0,0,0,.42,0,1.44,1.44,0,0,0,.31-.07v.62a1.16,1.16,0,0,1-.39.11,2.6,2.6,0,0,1-.46,0c-1,0-1.55-.54-1.55-1.64V286h-.76v-.39l.76-.34.34-1.14h.47v1.24h1.55V286h-1.55v3.15a1.09,1.09,0,0,0,.23.74A.78.78,0,0,0,129.91,290.18Z" style="fill:#a6a8ab"/><path d="M138.05,290h0a1.9,1.9,0,0,1-1.68.81,2,2,0,0,1-1.63-.72,3.84,3.84,0,0,1,0-4.09,2.16,2.16,0,0,1,3.3,0h.06l0-.38,0-.38v-2.17h.81v7.59h-.66Zm-1.62.13a1.49,1.49,0,0,0,1.21-.45,2.28,2.28,0,0,0,.37-1.46v-.17a2.68,2.68,0,0,0-.38-1.62,1.41,1.41,0,0,0-1.21-.49,1.25,1.25,0,0,0-1.09.56,2.77,2.77,0,0,0-.38,1.56,2.64,2.64,0,0,0,.38,1.55A1.27,1.27,0,0,0,136.43,290.17Z" style="fill:#a6a8ab"/><path d="M143.88,290.75l-.16-.76h0a2.2,2.2,0,0,1-.8.68,2.37,2.37,0,0,1-1,.18,1.81,1.81,0,0,1-1.25-.41,1.49,1.49,0,0,1-.45-1.17c0-1.08.86-1.64,2.59-1.7l.91,0v-.33a1.36,1.36,0,0,0-.27-.93,1.12,1.12,0,0,0-.87-.3,3.58,3.58,0,0,0-1.51.41l-.25-.62a3.74,3.74,0,0,1,.87-.33,3.38,3.38,0,0,1,.94-.13,2.06,2.06,0,0,1,1.42.43,1.76,1.76,0,0,1,.46,1.36v3.65Zm-1.83-.57a1.69,1.69,0,0,0,1.19-.41,1.55,1.55,0,0,0,.43-1.17v-.48l-.81,0a2.87,2.87,0,0,0-1.39.3.88.88,0,0,0-.43.82.84.84,0,0,0,.26.67A1.09,1.09,0,0,0,142.05,290.18Z" style="fill:#a6a8ab"/><path d="M147.93,290.18a2.73,2.73,0,0,0,.41,0,1.56,1.56,0,0,0,.32-.07v.62a1.32,1.32,0,0,1-.39.11,2.6,2.6,0,0,1-.46,0c-1,0-1.55-.54-1.55-1.64V286h-.77v-.39l.77-.34.34-1.14h.47v1.24h1.55V286h-1.55v3.15a1.09,1.09,0,0,0,.23.74A.77.77,0,0,0,147.93,290.18Z" style="fill:#a6a8ab"/><path d="M153.07,290.75l-.16-.76h0a2.2,2.2,0,0,1-.8.68,2.37,2.37,0,0,1-1,.18,1.81,1.81,0,0,1-1.25-.41,1.49,1.49,0,0,1-.45-1.17c0-1.08.87-1.64,2.59-1.7l.91,0v-.33a1.36,1.36,0,0,0-.27-.93,1.12,1.12,0,0,0-.87-.3,3.58,3.58,0,0,0-1.51.41l-.25-.62a3.92,3.92,0,0,1,.87-.33,3.38,3.38,0,0,1,.94-.13,2.06,2.06,0,0,1,1.42.43,1.76,1.76,0,0,1,.46,1.36v3.65Zm-1.83-.57a1.67,1.67,0,0,0,1.19-.41,1.55,1.55,0,0,0,.43-1.17v-.48l-.81,0a2.87,2.87,0,0,0-1.39.3.88.88,0,0,0-.43.82.82.82,0,0,0,.27.67A1,1,0,0,0,151.24,290.18Z" style="fill:#a6a8ab"/><path d="M160.45,286h-1.36v4.72h-.81V286h-1v-.36l1-.3v-.3c0-1.31.57-2,1.72-2a3.67,3.67,0,0,1,1,.17l-.21.65a2.69,2.69,0,0,0-.8-.15.77.77,0,0,0-.68.31,1.66,1.66,0,0,0-.22,1v.35h1.36Z" style="fill:#a6a8ab"/><path d="M163.92,285.3a3.1,3.1,0,0,1,.64.06l-.11.75a3.47,3.47,0,0,0-.59-.07,1.44,1.44,0,0,0-1.11.53,1.91,1.91,0,0,0-.46,1.31v2.87h-.81V285.4h.67l.09,1h0a2.35,2.35,0,0,1,.72-.8A1.59,1.59,0,0,1,163.92,285.3Z" style="fill:#a6a8ab"/><path d="M170.23,288.07a3,3,0,0,1-.66,2.05,2.6,2.6,0,0,1-3.09.39,2.12,2.12,0,0,1-.86-1,3.26,3.26,0,0,1-.31-1.48,2.94,2.94,0,0,1,.66-2,2.32,2.32,0,0,1,1.81-.73,2.27,2.27,0,0,1,1.79.75A2.94,2.94,0,0,1,170.23,288.07Zm-4.08,0a2.53,2.53,0,0,0,.41,1.56,1.44,1.44,0,0,0,1.21.54,1.46,1.46,0,0,0,1.21-.53,2.58,2.58,0,0,0,.41-1.57,2.53,2.53,0,0,0-.41-1.55,1.46,1.46,0,0,0-1.22-.53,1.45,1.45,0,0,0-1.2.52A2.53,2.53,0,0,0,166.15,288.07Z" style="fill:#a6a8ab"/><path d="M178.52,290.75v-3.48a1.47,1.47,0,0,0-.27-1,1.07,1.07,0,0,0-.85-.32,1.37,1.37,0,0,0-1.12.44,2.05,2.05,0,0,0-.36,1.33v3h-.81v-3.48a1.41,1.41,0,0,0-.28-1A1.06,1.06,0,0,0,174,286a1.32,1.32,0,0,0-1.12.46,2.51,2.51,0,0,0-.35,1.5v2.8h-.81V285.4h.66l.13.73h0a1.6,1.6,0,0,1,.65-.61,2.06,2.06,0,0,1,.93-.22,1.59,1.59,0,0,1,1.64.91h0a1.66,1.66,0,0,1,.7-.66,2,2,0,0,1,1-.25,1.81,1.81,0,0,1,1.36.47,2.09,2.09,0,0,1,.45,1.49v3.49Z" style="fill:#a6a8ab"/><path d="M185.43,290.18a2.73,2.73,0,0,0,.41,0,1.56,1.56,0,0,0,.32-.07v.62a1.32,1.32,0,0,1-.39.11,2.6,2.6,0,0,1-.46,0c-1,0-1.55-.54-1.55-1.64V286H183v-.39l.77-.34.34-1.14h.47v1.24h1.55V286h-1.55v3.15a1.09,1.09,0,0,0,.23.74A.77.77,0,0,0,185.43,290.18Z" style="fill:#a6a8ab"/><path d="M190.94,290.75v-3.46a1.45,1.45,0,0,0-.29-1,1.24,1.24,0,0,0-.94-.32,1.55,1.55,0,0,0-1.23.46,2.34,2.34,0,0,0-.39,1.51v2.79h-.81v-7.59h.81v2.3a4.36,4.36,0,0,1,0,.68h0a1.66,1.66,0,0,1,.68-.6,2.21,2.21,0,0,1,1-.23,2.08,2.08,0,0,1,1.47.47,1.94,1.94,0,0,1,.49,1.48v3.49Z" style="fill:#a6a8ab"/><path d="M195.73,290.85a2.45,2.45,0,0,1-1.87-.72,2.79,2.79,0,0,1-.69-2,3.05,3.05,0,0,1,.64-2.05,2.1,2.1,0,0,1,1.71-.77,2,2,0,0,1,1.59.67,2.53,2.53,0,0,1,.59,1.74v.51H194a2.08,2.08,0,0,0,.48,1.43,1.62,1.62,0,0,0,1.27.49,4.38,4.38,0,0,0,1.71-.36v.72a3.73,3.73,0,0,1-.82.27A4.77,4.77,0,0,1,195.73,290.85Zm-.22-4.87a1.33,1.33,0,0,0-1,.42,2,2,0,0,0-.45,1.16h2.8a1.81,1.81,0,0,0-.34-1.17A1.22,1.22,0,0,0,195.51,286Z" style="fill:#a6a8ab"/><path d="M203.92,290.85a2.29,2.29,0,0,1-1.8-.71,3.58,3.58,0,0,1,0-4.1,2.32,2.32,0,0,1,1.84-.74,3.37,3.37,0,0,1,.77.09,2.36,2.36,0,0,1,.6.19l-.24.69a4.55,4.55,0,0,0-.59-.18A2.44,2.44,0,0,0,204,286c-1.09,0-1.63.69-1.63,2.08a2.48,2.48,0,0,0,.4,1.52,1.37,1.37,0,0,0,1.18.52,3.48,3.48,0,0,0,1.37-.29v.72A2.87,2.87,0,0,1,203.92,290.85Z" style="fill:#a6a8ab"/><path d="M209.88,290.75l-.16-.76h0a2.28,2.28,0,0,1-.8.68,2.43,2.43,0,0,1-1,.18,1.79,1.79,0,0,1-1.25-.41,1.49,1.49,0,0,1-.45-1.17c0-1.08.86-1.64,2.59-1.7l.91,0v-.33a1.36,1.36,0,0,0-.27-.93,1.12,1.12,0,0,0-.87-.3,3.54,3.54,0,0,0-1.51.41l-.25-.62a3.84,3.84,0,0,1,.86-.33,3.45,3.45,0,0,1,.95-.13,2.06,2.06,0,0,1,1.42.43,1.76,1.76,0,0,1,.46,1.36v3.65Zm-1.83-.57a1.69,1.69,0,0,0,1.19-.41,1.59,1.59,0,0,0,.43-1.17v-.48l-.81,0a2.91,2.91,0,0,0-1.4.3.89.89,0,0,0-.42.82.81.81,0,0,0,.26.67A1.09,1.09,0,0,0,208.05,290.18Z" style="fill:#a6a8ab"/><path d="M214.64,285.3a3.1,3.1,0,0,1,.64.06l-.11.75a3.47,3.47,0,0,0-.59-.07,1.44,1.44,0,0,0-1.11.53,1.91,1.91,0,0,0-.46,1.31v2.87h-.81V285.4h.67l.09,1h0a2.35,2.35,0,0,1,.72-.8A1.62,1.62,0,0,1,214.64,285.3Z" style="fill:#a6a8ab"/><path d="M218.91,284a.56.56,0,0,1,.14-.41.5.5,0,0,1,.68,0,.52.52,0,0,1,.14.4.56.56,0,0,1-.14.41.48.48,0,0,1-.34.13.45.45,0,0,1-.34-.13A.56.56,0,0,1,218.91,284Zm.88,6.8H219V285.4h.81Z" style="fill:#a6a8ab"/><path d="M225,289.29a1.37,1.37,0,0,1-.56,1.16,2.61,2.61,0,0,1-1.56.4,3.34,3.34,0,0,1-1.66-.34v-.75a4.31,4.31,0,0,0,.83.31,3.67,3.67,0,0,0,.85.11,2,2,0,0,0,1-.2.69.69,0,0,0,.34-.62.65.65,0,0,0-.27-.53,4.2,4.2,0,0,0-1.06-.53,5.9,5.9,0,0,1-1.06-.48,1.43,1.43,0,0,1-.47-.48,1.22,1.22,0,0,1-.15-.63,1.19,1.19,0,0,1,.53-1,2.48,2.48,0,0,1,1.46-.38,4.21,4.21,0,0,1,1.69.36l-.29.65a3.94,3.94,0,0,0-1.46-.33,1.69,1.69,0,0,0-.87.18.55.55,0,0,0-.29.5.58.58,0,0,0,.11.37,1.19,1.19,0,0,0,.35.29,8,8,0,0,0,.94.39,3.38,3.38,0,0,1,1.28.7A1.2,1.2,0,0,1,225,289.29Z" style="fill:#a6a8ab"/><path d="M231.47,285.3a3.16,3.16,0,0,1,.64.06l-.11.75a3.59,3.59,0,0,0-.59-.07,1.44,1.44,0,0,0-1.11.53,1.91,1.91,0,0,0-.46,1.31v2.87H229V285.4h.66l.1,1h0a2.23,2.23,0,0,1,.71-.8A1.65,1.65,0,0,1,231.47,285.3Z" style="fill:#a6a8ab"/><path d="M235.42,290.85a2.45,2.45,0,0,1-1.87-.72,2.79,2.79,0,0,1-.69-2,3.05,3.05,0,0,1,.64-2.05,2.1,2.1,0,0,1,1.71-.77,2,2,0,0,1,1.59.67,2.53,2.53,0,0,1,.59,1.74v.51H233.7a2.13,2.13,0,0,0,.47,1.43,1.66,1.66,0,0,0,1.28.49,4.38,4.38,0,0,0,1.71-.36v.72a3.73,3.73,0,0,1-.82.27A4.77,4.77,0,0,1,235.42,290.85ZM235.2,286a1.33,1.33,0,0,0-1,.42,1.94,1.94,0,0,0-.45,1.16h2.8a1.76,1.76,0,0,0-.35-1.17A1.19,1.19,0,0,0,235.2,286Z" style="fill:#a6a8ab"/><path d="M239.63,290.75h-.81v-7.59h.81Z" style="fill:#a6a8ab"/><path d="M244.69,290.75l-.16-.76h0a2.28,2.28,0,0,1-.8.68,2.43,2.43,0,0,1-1,.18,1.81,1.81,0,0,1-1.25-.41,1.49,1.49,0,0,1-.45-1.17c0-1.08.86-1.64,2.59-1.7l.91,0v-.33a1.36,1.36,0,0,0-.27-.93,1.12,1.12,0,0,0-.87-.3,3.54,3.54,0,0,0-1.51.41l-.25-.62a3.84,3.84,0,0,1,.86-.33,3.45,3.45,0,0,1,.95-.13,2.06,2.06,0,0,1,1.42.43,1.76,1.76,0,0,1,.46,1.36v3.65Zm-1.83-.57a1.69,1.69,0,0,0,1.19-.41,1.59,1.59,0,0,0,.43-1.17v-.48l-.81,0a2.91,2.91,0,0,0-1.4.3.89.89,0,0,0-.42.82.81.81,0,0,0,.26.67A1.09,1.09,0,0,0,242.86,290.18Z" style="fill:#a6a8ab"/><path d="M246.16,285.4H247l1.17,3.05a11.08,11.08,0,0,1,.48,1.51h0c0-.16.13-.45.26-.85s.58-1.64,1.33-3.71h.87l-2.3,6.1a3.17,3.17,0,0,1-.8,1.28,1.71,1.71,0,0,1-1.12.38,3,3,0,0,1-.73-.09v-.65a2.77,2.77,0,0,0,.6.06,1.24,1.24,0,0,0,1.19-.94l.3-.76Z" style="fill:#a6a8ab"/><path d="M254.36,290.85a2.45,2.45,0,0,1-1.87-.72,2.79,2.79,0,0,1-.69-2,3.05,3.05,0,0,1,.64-2.05,2.1,2.1,0,0,1,1.71-.77,2,2,0,0,1,1.59.67,2.53,2.53,0,0,1,.59,1.74v.51h-3.69a2.13,2.13,0,0,0,.48,1.43,1.62,1.62,0,0,0,1.27.49,4.38,4.38,0,0,0,1.71-.36v.72a3.73,3.73,0,0,1-.82.27A4.77,4.77,0,0,1,254.36,290.85Zm-.22-4.87a1.33,1.33,0,0,0-1,.42,2,2,0,0,0-.45,1.16h2.8a1.81,1.81,0,0,0-.34-1.17A1.22,1.22,0,0,0,254.14,286Z" style="fill:#a6a8ab"/><path d="M261.4,290h0a1.92,1.92,0,0,1-1.68.81,2,2,0,0,1-1.64-.72,3.87,3.87,0,0,1,0-4.09,2.16,2.16,0,0,1,3.3,0h.06l0-.38,0-.38v-2.17h.81v7.59h-.66Zm-1.62.13a1.46,1.46,0,0,0,1.2-.45,2.28,2.28,0,0,0,.38-1.46v-.17a2.68,2.68,0,0,0-.38-1.62,1.43,1.43,0,0,0-1.21-.49,1.23,1.23,0,0,0-1.09.56,2.77,2.77,0,0,0-.38,1.56,2.57,2.57,0,0,0,.38,1.55A1.25,1.25,0,0,0,259.78,290.17Z" style="fill:#a6a8ab"/><path d="M268.31,290.18a2.86,2.86,0,0,0,.42,0,1.44,1.44,0,0,0,.31-.07v.62a1.16,1.16,0,0,1-.38.11,2.71,2.71,0,0,1-.47,0c-1,0-1.55-.54-1.55-1.64V286h-.76v-.39l.76-.34.34-1.14h.47v1.24H269V286h-1.55v3.15a1.09,1.09,0,0,0,.23.74A.78.78,0,0,0,268.31,290.18Z" style="fill:#a6a8ab"/><path d="M273.83,290.75v-3.46a1.4,1.4,0,0,0-.3-1,1.24,1.24,0,0,0-.94-.32,1.55,1.55,0,0,0-1.23.46A2.34,2.34,0,0,0,271,288v2.79h-.81v-7.59H271v2.3a4.36,4.36,0,0,1,0,.68H271a1.63,1.63,0,0,1,.69-.6,2.17,2.17,0,0,1,1-.23,2.09,2.09,0,0,1,1.48.47,2,2,0,0,1,.49,1.48v3.49Z" style="fill:#a6a8ab"/><path d="M278.79,285.3a3,3,0,0,1,.64.06l-.11.75a3.48,3.48,0,0,0-.58-.07,1.45,1.45,0,0,0-1.12.53,2,2,0,0,0-.46,1.31v2.87h-.81V285.4H277l.09,1h0a2.35,2.35,0,0,1,.72-.8A1.62,1.62,0,0,1,278.79,285.3Z" style="fill:#a6a8ab"/><path d="M285.1,288.07a3,3,0,0,1-.66,2.05,2.31,2.31,0,0,1-1.82.73,2.34,2.34,0,0,1-1.27-.34,2.18,2.18,0,0,1-.86-1,3.4,3.4,0,0,1-.3-1.48,2.94,2.94,0,0,1,.65-2,2.34,2.34,0,0,1,1.82-.73,2.25,2.25,0,0,1,1.78.75A2.94,2.94,0,0,1,285.1,288.07Zm-4.07,0a2.46,2.46,0,0,0,.41,1.56,1.41,1.41,0,0,0,1.2.54,1.44,1.44,0,0,0,1.21-.53,2.51,2.51,0,0,0,.41-1.57,2.47,2.47,0,0,0-.41-1.55,1.66,1.66,0,0,0-2.42,0A2.53,2.53,0,0,0,281,288.07Z" style="fill:#a6a8ab"/><path d="M287.33,285.4v3.47a1.4,1.4,0,0,0,.3,1,1.24,1.24,0,0,0,.94.32,1.49,1.49,0,0,0,1.22-.46,2.29,2.29,0,0,0,.39-1.5V285.4H291v5.35h-.67l-.11-.71h0a1.56,1.56,0,0,1-.69.6,2.31,2.31,0,0,1-1,.21,2,2,0,0,1-1.46-.46,2,2,0,0,1-.49-1.49v-3.5Z" style="fill:#a6a8ab"/><path d="M297.14,285.4v.51l-1,.12a1.71,1.71,0,0,1,.24.45,1.52,1.52,0,0,1,.11.62,1.61,1.61,0,0,1-.54,1.26,2.16,2.16,0,0,1-1.47.46,3.19,3.19,0,0,1-.45,0,.8.8,0,0,0-.52.68.35.35,0,0,0,.18.33,1.34,1.34,0,0,0,.62.1h.95a2.16,2.16,0,0,1,1.34.37,1.26,1.26,0,0,1,.46,1.06,1.53,1.53,0,0,1-.71,1.36,3.84,3.84,0,0,1-2.08.47,2.77,2.77,0,0,1-1.62-.4,1.25,1.25,0,0,1-.57-1.1,1.22,1.22,0,0,1,.32-.84,1.59,1.59,0,0,1,.87-.49.85.85,0,0,1-.34-.29.75.75,0,0,1-.14-.45.82.82,0,0,1,.16-.51,1.64,1.64,0,0,1,.49-.43,1.41,1.41,0,0,1-.68-.58,1.72,1.72,0,0,1-.26-.94,1.74,1.74,0,0,1,.53-1.35,2.14,2.14,0,0,1,1.49-.48,2.91,2.91,0,0,1,.76.1Zm-4.27,6.25a.74.74,0,0,0,.37.66,2,2,0,0,0,1.05.23,3,3,0,0,0,1.51-.31.93.93,0,0,0,.49-.83.65.65,0,0,0-.27-.6,2.09,2.09,0,0,0-1-.17h-1a1.32,1.32,0,0,0-.86.26A1,1,0,0,0,292.87,291.65Zm.44-4.53a1.08,1.08,0,0,0,.32.84,1.23,1.23,0,0,0,.88.29c.8,0,1.19-.38,1.19-1.15a1.07,1.07,0,0,0-1.2-1.21,1.22,1.22,0,0,0-.88.31A1.28,1.28,0,0,0,293.31,287.12Z" style="fill:#a6a8ab"/><path d="M302,290.75v-3.46a1.4,1.4,0,0,0-.3-1,1.22,1.22,0,0,0-.93-.32,1.55,1.55,0,0,0-1.23.46,2.34,2.34,0,0,0-.39,1.51v2.79h-.81v-7.59h.81v2.3a4.36,4.36,0,0,1,0,.68h.05a1.66,1.66,0,0,1,.68-.6,2.18,2.18,0,0,1,1-.23,2.08,2.08,0,0,1,1.47.47,1.94,1.94,0,0,1,.49,1.48v3.49Z" style="fill:#a6a8ab"/><path d="M308.85,290.18a2.77,2.77,0,0,0,.42,0,1.73,1.73,0,0,0,.32-.07v.62a1.32,1.32,0,0,1-.39.11,2.68,2.68,0,0,1-.46,0c-1,0-1.56-.54-1.56-1.64V286h-.76v-.39l.76-.34.35-1.14H308v1.24h1.55V286H308v3.15a1.09,1.09,0,0,0,.22.74A.79.79,0,0,0,308.85,290.18Z" style="fill:#a6a8ab"/><path d="M314.37,290.75v-3.46a1.4,1.4,0,0,0-.3-1,1.23,1.23,0,0,0-.93-.32,1.52,1.52,0,0,0-1.23.46,2.34,2.34,0,0,0-.39,1.51v2.79h-.81v-7.59h.81v2.3a6.07,6.07,0,0,1,0,.68h0a1.54,1.54,0,0,1,.68-.6,2.18,2.18,0,0,1,1-.23,2.08,2.08,0,0,1,1.47.47,2,2,0,0,1,.49,1.48v3.49Z" style="fill:#a6a8ab"/><path d="M319.15,290.85a2.46,2.46,0,0,1-1.87-.72,2.79,2.79,0,0,1-.69-2,3.1,3.1,0,0,1,.64-2.05,2.13,2.13,0,0,1,1.71-.77,2,2,0,0,1,1.6.67,2.52,2.52,0,0,1,.58,1.74v.51h-3.69a2.13,2.13,0,0,0,.48,1.43,1.64,1.64,0,0,0,1.27.49,4.3,4.3,0,0,0,1.71-.36v.72a3.66,3.66,0,0,1-.81.27A5,5,0,0,1,319.15,290.85Zm-.22-4.87a1.3,1.3,0,0,0-1,.42,2,2,0,0,0-.46,1.16h2.8a1.76,1.76,0,0,0-.34-1.17A1.21,1.21,0,0,0,318.93,286Z" style="fill:#a6a8ab"/><path d="M7.45,302.75H6.62v-7.14h4v.74H7.45V299h3v.74h-3Z" style="fill:#a6a8ab"/><path d="M11.83,302.75v-7.14h.83v7.14Z" style="fill:#a6a8ab"/><path d="M19.42,302.75h-1l-1.92-3.14-2,3.14h-.88L16.09,299l-2.21-3.41h.92l1.77,2.83,1.79-2.83h.89L17,299Z" style="fill:#a6a8ab"/><path d="M26.18,299.12a3.66,3.66,0,0,1-.95,2.7,3.83,3.83,0,0,1-2.77.93h-2v-7.14h2.18a3.21,3.21,0,0,1,3.51,3.51Zm-.87,0a2.85,2.85,0,0,0-.71-2.1,2.8,2.8,0,0,0-2.08-.71h-1.2V302h1a3.1,3.1,0,0,0,2.23-.73A2.9,2.9,0,0,0,25.31,299.14Z" style="fill:#a6a8ab"/><path d="M34.5,300.85a1.76,1.76,0,0,1-.68,1.47,3,3,0,0,1-1.86.53,4.63,4.63,0,0,1-1.95-.33v-.8a5.15,5.15,0,0,0,1,.3,5,5,0,0,0,1,.1,2.06,2.06,0,0,0,1.25-.31,1,1,0,0,0,.42-.88,1.13,1.13,0,0,0-.15-.61,1.33,1.33,0,0,0-.49-.43,6.59,6.59,0,0,0-1.07-.46,3.41,3.41,0,0,1-1.42-.84,1.9,1.9,0,0,1-.43-1.28,1.59,1.59,0,0,1,.62-1.31,2.56,2.56,0,0,1,1.64-.49,4.83,4.83,0,0,1,2,.39l-.26.72a4.56,4.56,0,0,0-1.72-.37,1.68,1.68,0,0,0-1,.29,1,1,0,0,0-.37.78,1.22,1.22,0,0,0,.14.61,1.4,1.4,0,0,0,.46.44,6.33,6.33,0,0,0,1,.43,4.05,4.05,0,0,1,1.55.86A1.71,1.71,0,0,1,34.5,300.85Z" style="fill:#a6a8ab"/><path d="M38.15,302.85a2.46,2.46,0,0,1-1.87-.72,2.79,2.79,0,0,1-.69-2,3.05,3.05,0,0,1,.64-2.05,2.12,2.12,0,0,1,1.71-.77,2,2,0,0,1,1.59.67,2.53,2.53,0,0,1,.59,1.74v.51H36.43a2.13,2.13,0,0,0,.48,1.43,1.62,1.62,0,0,0,1.27.49,4.3,4.3,0,0,0,1.71-.36v.72a3.84,3.84,0,0,1-.81.27A5,5,0,0,1,38.15,302.85ZM37.93,298a1.33,1.33,0,0,0-1,.42,2,2,0,0,0-.45,1.16h2.8a1.76,1.76,0,0,0-.34-1.17A1.22,1.22,0,0,0,37.93,298Z" style="fill:#a6a8ab"/><path d="M45.21,302.75v-3.46a1.45,1.45,0,0,0-.29-1A1.24,1.24,0,0,0,44,298a1.52,1.52,0,0,0-1.23.46,2.29,2.29,0,0,0-.39,1.5v2.8h-.81V297.4h.66l.13.73h0a1.74,1.74,0,0,1,.7-.61,2.33,2.33,0,0,1,1-.22,2,2,0,0,1,1.45.47,2,2,0,0,1,.49,1.49v3.49Z" style="fill:#a6a8ab"/><path d="M51.19,301.29a1.37,1.37,0,0,1-.56,1.16,2.61,2.61,0,0,1-1.56.4,3.34,3.34,0,0,1-1.66-.34v-.75a4.31,4.31,0,0,0,.83.31,3.67,3.67,0,0,0,.85.11,2,2,0,0,0,1-.2.67.67,0,0,0,.34-.62.65.65,0,0,0-.27-.53,4,4,0,0,0-1.06-.53,5.9,5.9,0,0,1-1.06-.48,1.43,1.43,0,0,1-.47-.48,1.22,1.22,0,0,1-.15-.63,1.21,1.21,0,0,1,.53-1,2.48,2.48,0,0,1,1.46-.38,4.17,4.17,0,0,1,1.69.36l-.29.65a3.89,3.89,0,0,0-1.46-.33,1.71,1.71,0,0,0-.87.18.57.57,0,0,0-.29.5.65.65,0,0,0,.11.37,1.19,1.19,0,0,0,.35.29,8.83,8.83,0,0,0,.94.39,3.52,3.52,0,0,1,1.29.7A1.23,1.23,0,0,1,51.19,301.29Z" style="fill:#a6a8ab"/><path d="M57.18,300.07a3,3,0,0,1-.66,2.05,2.32,2.32,0,0,1-1.82.73,2.38,2.38,0,0,1-1.28-.34,2.24,2.24,0,0,1-.86-1,3.4,3.4,0,0,1-.3-1.48,2.94,2.94,0,0,1,.66-2,2.32,2.32,0,0,1,1.81-.73,2.27,2.27,0,0,1,1.79.75A2.94,2.94,0,0,1,57.18,300.07Zm-4.08,0a2.53,2.53,0,0,0,.41,1.56,1.42,1.42,0,0,0,1.21.54,1.46,1.46,0,0,0,1.21-.53,2.58,2.58,0,0,0,.41-1.57,2.53,2.53,0,0,0-.41-1.55,1.46,1.46,0,0,0-1.22-.53,1.45,1.45,0,0,0-1.2.52A2.53,2.53,0,0,0,53.1,300.07Z" style="fill:#a6a8ab"/><path d="M61.09,297.3a3.1,3.1,0,0,1,.64.06l-.11.75A3.47,3.47,0,0,0,61,298a1.44,1.44,0,0,0-1.11.53,1.91,1.91,0,0,0-.46,1.31v2.87h-.81V297.4h.67l.09,1h0a2.35,2.35,0,0,1,.72-.8A1.59,1.59,0,0,1,61.09,297.3Z" style="fill:#a6a8ab"/><path d="M67.16,302.18a2.73,2.73,0,0,0,.41,0,1.56,1.56,0,0,0,.32-.07v.62a1.32,1.32,0,0,1-.39.11,2.6,2.6,0,0,1-.46,0c-1,0-1.55-.54-1.55-1.64V298h-.77v-.39l.77-.34.34-1.14h.47v1.24h1.55V298H66.3v3.15a1,1,0,0,0,.23.74A.77.77,0,0,0,67.16,302.18Z" style="fill:#a6a8ab"/><path d="M73.63,300.07a3,3,0,0,1-.66,2.05,2.32,2.32,0,0,1-1.82.73,2.4,2.4,0,0,1-1.28-.34,2.24,2.24,0,0,1-.86-1,3.4,3.4,0,0,1-.3-1.48,2.94,2.94,0,0,1,.66-2,2.32,2.32,0,0,1,1.81-.73,2.27,2.27,0,0,1,1.79.75A2.94,2.94,0,0,1,73.63,300.07Zm-4.08,0a2.53,2.53,0,0,0,.41,1.56,1.44,1.44,0,0,0,1.21.54,1.46,1.46,0,0,0,1.21-.53,2.58,2.58,0,0,0,.41-1.57,2.53,2.53,0,0,0-.41-1.55,1.48,1.48,0,0,0-1.22-.53,1.45,1.45,0,0,0-1.2.52A2.53,2.53,0,0,0,69.55,300.07Z" style="fill:#a6a8ab"/><path d="M79.48,302.18a2.73,2.73,0,0,0,.41,0,1.73,1.73,0,0,0,.32-.07v.62a1.32,1.32,0,0,1-.39.11,2.6,2.6,0,0,1-.46,0c-1,0-1.55-.54-1.55-1.64V298H77v-.39l.77-.34.34-1.14h.47v1.24h1.55V298H78.62v3.15a1.09,1.09,0,0,0,.22.74A.8.8,0,0,0,79.48,302.18Z" style="fill:#a6a8ab"/><path d="M85,302.75v-3.46a1.4,1.4,0,0,0-.3-1,1.23,1.23,0,0,0-.93-.32,1.52,1.52,0,0,0-1.23.46,2.34,2.34,0,0,0-.39,1.51v2.79h-.81v-7.59h.81v2.3a6.07,6.07,0,0,1,0,.68h.05a1.6,1.6,0,0,1,.68-.6,2.18,2.18,0,0,1,1-.23,2.08,2.08,0,0,1,1.47.47,1.94,1.94,0,0,1,.49,1.48v3.49Z" style="fill:#a6a8ab"/><path d="M89.77,302.85a2.46,2.46,0,0,1-1.87-.72,2.78,2.78,0,0,1-.68-2,3.1,3.1,0,0,1,.63-2.05,2.14,2.14,0,0,1,1.72-.77,2,2,0,0,1,1.59.67,2.52,2.52,0,0,1,.58,1.74v.51H88.06a2.08,2.08,0,0,0,.47,1.43,1.64,1.64,0,0,0,1.27.49,4.3,4.3,0,0,0,1.71-.36v.72a3.5,3.5,0,0,1-.81.27A4.88,4.88,0,0,1,89.77,302.85ZM89.56,298a1.32,1.32,0,0,0-1,.42,1.88,1.88,0,0,0-.45,1.16h2.79a1.76,1.76,0,0,0-.34-1.17A1.2,1.2,0,0,0,89.56,298Z" style="fill:#a6a8ab"/><path d="M96.77,302.75h-.83v-7.14h4v.74H96.77V299h3v.74h-3Z" style="fill:#a6a8ab"/><path d="M101.16,302.75v-7.14H102v7.14Z" style="fill:#a6a8ab"/><path d="M108.75,302.75h-1l-1.92-3.14-1.95,3.14h-.88l2.37-3.73-2.21-3.41h.92l1.77,2.83,1.79-2.83h.88L106.36,299Z" style="fill:#a6a8ab"/><path d="M115.51,299.12a3.62,3.62,0,0,1-1,2.7,3.81,3.81,0,0,1-2.76.93h-2v-7.14H112a3.21,3.21,0,0,1,3.51,3.51Zm-.88,0a2.85,2.85,0,0,0-.7-2.1,2.8,2.8,0,0,0-2.08-.71h-1.2V302h1a3.1,3.1,0,0,0,2.23-.73A2.9,2.9,0,0,0,114.63,299.14Z" style="fill:#a6a8ab"/><path d="M123,302.75l-.16-.76h0a2.2,2.2,0,0,1-.8.68,2.37,2.37,0,0,1-1,.18,1.81,1.81,0,0,1-1.25-.41,1.49,1.49,0,0,1-.45-1.17c0-1.08.87-1.64,2.59-1.7l.91,0v-.33a1.36,1.36,0,0,0-.27-.93,1.12,1.12,0,0,0-.87-.3,3.58,3.58,0,0,0-1.51.41l-.25-.62a3.92,3.92,0,0,1,.87-.33,3.38,3.38,0,0,1,.94-.13,2.06,2.06,0,0,1,1.42.43,1.76,1.76,0,0,1,.46,1.36v3.65Zm-1.83-.57a1.67,1.67,0,0,0,1.19-.41,1.55,1.55,0,0,0,.43-1.17v-.48l-.81,0a2.87,2.87,0,0,0-1.39.3.88.88,0,0,0-.43.82.82.82,0,0,0,.27.67A1,1,0,0,0,121.14,302.18Z" style="fill:#a6a8ab"/><path d="M127.78,302.85a2.27,2.27,0,0,1-1-.19,1.83,1.83,0,0,1-.73-.6H126a7.12,7.12,0,0,1,.06.89v2.21h-.81V297.4H126l.11.73h0a1.89,1.89,0,0,1,.73-.63,2.21,2.21,0,0,1,1-.2,2,2,0,0,1,1.64.73,3.9,3.9,0,0,1,0,4.09A2,2,0,0,1,127.78,302.85Zm-.11-4.86a1.42,1.42,0,0,0-1.19.46,2.36,2.36,0,0,0-.38,1.44v.18a2.72,2.72,0,0,0,.38,1.62,1.43,1.43,0,0,0,1.2.48,1.26,1.26,0,0,0,1.09-.56,2.67,2.67,0,0,0,.4-1.55,2.56,2.56,0,0,0-.4-1.53A1.28,1.28,0,0,0,127.67,298Z" style="fill:#a6a8ab"/><path d="M134,302.85a2.32,2.32,0,0,1-1-.19,1.87,1.87,0,0,1-.72-.6h-.06a7.12,7.12,0,0,1,.06.89v2.21h-.81V297.4h.66l.11.73h0a1.89,1.89,0,0,1,.73-.63,2.18,2.18,0,0,1,1-.2,2,2,0,0,1,1.64.73,3.19,3.19,0,0,1,.58,2,3.15,3.15,0,0,1-.59,2.05A2,2,0,0,1,134,302.85Zm-.12-4.86a1.41,1.41,0,0,0-1.18.46,2.3,2.3,0,0,0-.38,1.44v.18a2.72,2.72,0,0,0,.38,1.62,1.43,1.43,0,0,0,1.2.48,1.26,1.26,0,0,0,1.09-.56,2.67,2.67,0,0,0,.39-1.55,2.56,2.56,0,0,0-.39-1.53A1.29,1.29,0,0,0,133.84,298Z" style="fill:#a6a8ab"/><path d="M144.92,300.07a3,3,0,0,1-.66,2.05,2.33,2.33,0,0,1-1.83.73,2.37,2.37,0,0,1-1.27-.34,2.18,2.18,0,0,1-.86-1,3.4,3.4,0,0,1-.3-1.48,3,3,0,0,1,.65-2,2.34,2.34,0,0,1,1.82-.73,2.25,2.25,0,0,1,1.78.75A3,3,0,0,1,144.92,300.07Zm-4.08,0a2.53,2.53,0,0,0,.41,1.56,1.41,1.41,0,0,0,1.2.54,1.43,1.43,0,0,0,1.21-.53,2.51,2.51,0,0,0,.42-1.57,2.47,2.47,0,0,0-.42-1.55,1.66,1.66,0,0,0-2.42,0A2.53,2.53,0,0,0,140.84,300.07Z" style="fill:#a6a8ab"/><path d="M150.05,302.75v-3.46a1.4,1.4,0,0,0-.3-1,1.23,1.23,0,0,0-.93-.32,1.52,1.52,0,0,0-1.23.46,2.29,2.29,0,0,0-.39,1.5v2.8h-.81V297.4h.66l.13.73h0a1.62,1.62,0,0,1,.7-.61,2.3,2.3,0,0,1,1-.22,2,2,0,0,1,1.45.47,2,2,0,0,1,.49,1.49v3.49Z" style="fill:#a6a8ab"/><path d="M154.37,297.4h.87l1.17,3.05a11.08,11.08,0,0,1,.48,1.51h0c0-.16.13-.45.27-.85s.57-1.64,1.32-3.71h.87l-2.3,6.1a3.06,3.06,0,0,1-.8,1.28,1.71,1.71,0,0,1-1.12.38,3,3,0,0,1-.73-.09v-.65a2.77,2.77,0,0,0,.6.06,1.22,1.22,0,0,0,1.19-.94l.3-.76Z" style="fill:#a6a8ab"/><path d="M164.93,300.07a3,3,0,0,1-.66,2.05,2.32,2.32,0,0,1-1.82.73,2.4,2.4,0,0,1-1.28-.34,2.16,2.16,0,0,1-.85-1,3.26,3.26,0,0,1-.31-1.48,2.94,2.94,0,0,1,.66-2,2.32,2.32,0,0,1,1.81-.73,2.27,2.27,0,0,1,1.79.75A2.94,2.94,0,0,1,164.93,300.07Zm-4.08,0a2.53,2.53,0,0,0,.41,1.56,1.44,1.44,0,0,0,1.21.54,1.46,1.46,0,0,0,1.21-.53,2.58,2.58,0,0,0,.41-1.57,2.53,2.53,0,0,0-.41-1.55,1.46,1.46,0,0,0-1.22-.53,1.45,1.45,0,0,0-1.2.52A2.53,2.53,0,0,0,160.85,300.07Z" style="fill:#a6a8ab"/><path d="M167.16,297.4v3.47a1.4,1.4,0,0,0,.3,1,1.23,1.23,0,0,0,.93.32,1.52,1.52,0,0,0,1.23-.46,2.29,2.29,0,0,0,.39-1.5V297.4h.81v5.35h-.67L170,302h0a1.68,1.68,0,0,1-.69.6,2.34,2.34,0,0,1-1,.21,2,2,0,0,1-1.46-.46,2,2,0,0,1-.49-1.49v-3.5Z" style="fill:#a6a8ab"/><path d="M175,297.3a3.1,3.1,0,0,1,.64.06l-.11.75A3.59,3.59,0,0,0,175,298a1.44,1.44,0,0,0-1.11.53,1.91,1.91,0,0,0-.46,1.31v2.87h-.81V297.4h.67l.09,1h0a2.35,2.35,0,0,1,.72-.8A1.59,1.59,0,0,1,175,297.3Z" style="fill:#a6a8ab"/><path d="M186.19,302.75v-3.48a1.47,1.47,0,0,0-.27-1,1.09,1.09,0,0,0-.85-.32,1.37,1.37,0,0,0-1.12.44,2.05,2.05,0,0,0-.36,1.33v3h-.81v-3.48a1.47,1.47,0,0,0-.28-1,1.06,1.06,0,0,0-.85-.32,1.32,1.32,0,0,0-1.12.46,2.51,2.51,0,0,0-.35,1.5v2.8h-.81V297.4H180l.13.73h0a1.63,1.63,0,0,1,.64-.61,2.07,2.07,0,0,1,.94-.22,1.6,1.6,0,0,1,1.64.91h0a1.69,1.69,0,0,1,.69-.66,2.11,2.11,0,0,1,1-.25,1.82,1.82,0,0,1,1.36.47,2.09,2.09,0,0,1,.45,1.49v3.49Z" style="fill:#a6a8ab"/><path d="M193.34,300.07a3,3,0,0,1-.66,2.05,2.32,2.32,0,0,1-1.82.73,2.38,2.38,0,0,1-1.28-.34,2.24,2.24,0,0,1-.86-1,3.4,3.4,0,0,1-.3-1.48,2.94,2.94,0,0,1,.66-2,2.32,2.32,0,0,1,1.81-.73,2.27,2.27,0,0,1,1.79.75A2.94,2.94,0,0,1,193.34,300.07Zm-4.08,0a2.53,2.53,0,0,0,.41,1.56,1.42,1.42,0,0,0,1.21.54,1.46,1.46,0,0,0,1.21-.53,2.58,2.58,0,0,0,.41-1.57,2.53,2.53,0,0,0-.41-1.55,1.46,1.46,0,0,0-1.22-.53,1.45,1.45,0,0,0-1.2.52A2.53,2.53,0,0,0,189.26,300.07Z" style="fill:#a6a8ab"/><path d="M197.3,297.31a2,2,0,0,1,1.64.72,3.87,3.87,0,0,1,0,4.09,2,2,0,0,1-1.63.73,2.32,2.32,0,0,1-1-.19,1.87,1.87,0,0,1-.72-.6h-.06l-.17.69h-.58v-7.59h.81V297c0,.41,0,.79,0,1.11h0A1.94,1.94,0,0,1,197.3,297.31Zm-.12.68a1.4,1.4,0,0,0-1.19.48,2.64,2.64,0,0,0-.37,1.6,2.72,2.72,0,0,0,.38,1.62,1.43,1.43,0,0,0,1.2.48,1.27,1.27,0,0,0,1.12-.54,2.87,2.87,0,0,0,.36-1.57,2.77,2.77,0,0,0-.36-1.56A1.32,1.32,0,0,0,197.18,298Z" style="fill:#a6a8ab"/><path d="M200.92,296a.56.56,0,0,1,.14-.41.5.5,0,0,1,.68,0,.52.52,0,0,1,.14.4.56.56,0,0,1-.14.41.48.48,0,0,1-.34.13.45.45,0,0,1-.34-.13A.56.56,0,0,1,200.92,296Zm.88,6.8H201V297.4h.81Z" style="fill:#a6a8ab"/><path d="M204.38,302.75h-.81v-7.59h.81Z" style="fill:#a6a8ab"/><path d="M208.41,302.85a2.49,2.49,0,0,1-1.88-.72,2.83,2.83,0,0,1-.68-2,3.05,3.05,0,0,1,.64-2.05,2.1,2.1,0,0,1,1.71-.77,2,2,0,0,1,1.59.67,2.52,2.52,0,0,1,.58,1.74v.51h-3.68a2.08,2.08,0,0,0,.47,1.43,1.66,1.66,0,0,0,1.28.49,4.38,4.38,0,0,0,1.71-.36v.72a3.73,3.73,0,0,1-.82.27A4.77,4.77,0,0,1,208.41,302.85Zm-.22-4.87a1.33,1.33,0,0,0-1,.42,1.88,1.88,0,0,0-.45,1.16h2.79a1.76,1.76,0,0,0-.34-1.17A1.19,1.19,0,0,0,208.19,298Z" style="fill:#a6a8ab"/><path d="M216.94,302.85a2.3,2.3,0,0,1-.95-.19,1.83,1.83,0,0,1-.73-.6h0a7,7,0,0,1,0,.89v2.21h-.81V297.4h.66l.12.73h0a2,2,0,0,1,.73-.63,2.24,2.24,0,0,1,.95-.2,2,2,0,0,1,1.65.73,3.26,3.26,0,0,1,.58,2,3.21,3.21,0,0,1-.59,2.05A2,2,0,0,1,216.94,302.85Zm-.11-4.86a1.43,1.43,0,0,0-1.19.46,2.36,2.36,0,0,0-.38,1.44v.18a2.72,2.72,0,0,0,.38,1.62,1.44,1.44,0,0,0,1.21.48,1.25,1.25,0,0,0,1.08-.56,2.6,2.6,0,0,0,.4-1.55,2.49,2.49,0,0,0-.4-1.53A1.28,1.28,0,0,0,216.83,298Z" style="fill:#a6a8ab"/><path d="M224.29,302.75v-3.46a1.45,1.45,0,0,0-.29-1,1.24,1.24,0,0,0-.94-.32,1.55,1.55,0,0,0-1.23.46,2.34,2.34,0,0,0-.39,1.51v2.79h-.81v-7.59h.81v2.3a4.36,4.36,0,0,1,0,.68h0a1.66,1.66,0,0,1,.68-.6,2.21,2.21,0,0,1,1-.23,2,2,0,0,1,1.47.47,1.94,1.94,0,0,1,.49,1.48v3.49Z" style="fill:#a6a8ab"/><path d="M231.44,300.07a3,3,0,0,1-.66,2.05,2.32,2.32,0,0,1-1.82.73,2.4,2.4,0,0,1-1.28-.34,2.16,2.16,0,0,1-.85-1,3.26,3.26,0,0,1-.31-1.48,2.94,2.94,0,0,1,.66-2,2.32,2.32,0,0,1,1.81-.73,2.27,2.27,0,0,1,1.79.75A2.94,2.94,0,0,1,231.44,300.07Zm-4.08,0a2.53,2.53,0,0,0,.41,1.56,1.44,1.44,0,0,0,1.21.54,1.46,1.46,0,0,0,1.21-.53,2.58,2.58,0,0,0,.41-1.57,2.53,2.53,0,0,0-.41-1.55A1.48,1.48,0,0,0,229,298a1.45,1.45,0,0,0-1.2.52A2.53,2.53,0,0,0,227.36,300.07Z" style="fill:#a6a8ab"/><path d="M236.57,302.75v-3.46a1.4,1.4,0,0,0-.3-1,1.22,1.22,0,0,0-.93-.32,1.52,1.52,0,0,0-1.23.46,2.29,2.29,0,0,0-.39,1.5v2.8h-.81V297.4h.66l.13.73h0a1.74,1.74,0,0,1,.7-.61,2.33,2.33,0,0,1,1-.22,2,2,0,0,1,1.45.47,2,2,0,0,1,.49,1.49v3.49Z" style="fill:#a6a8ab"/><path d="M241.36,302.85a2.45,2.45,0,0,1-1.87-.72,2.79,2.79,0,0,1-.69-2,3.05,3.05,0,0,1,.64-2.05,2.1,2.1,0,0,1,1.71-.77,2,2,0,0,1,1.59.67,2.53,2.53,0,0,1,.59,1.74v.51h-3.69a2.13,2.13,0,0,0,.47,1.43,1.66,1.66,0,0,0,1.28.49,4.38,4.38,0,0,0,1.71-.36v.72a3.73,3.73,0,0,1-.82.27A4.77,4.77,0,0,1,241.36,302.85Zm-.22-4.87a1.33,1.33,0,0,0-1,.42,1.88,1.88,0,0,0-.45,1.16h2.8a1.76,1.76,0,0,0-.35-1.17A1.19,1.19,0,0,0,241.14,298Z" style="fill:#a6a8ab"/><path d="M244.64,302.24a.73.73,0,0,1,.15-.5.55.55,0,0,1,.43-.17.59.59,0,0,1,.44.17.73.73,0,0,1,.16.5.69.69,0,0,1-.16.48.57.57,0,0,1-.44.17.56.56,0,0,1-.41-.15A.66.66,0,0,1,244.64,302.24Z" style="fill:#a6a8ab"/></svg>